<?xml version="1.0" standalone="no"?>
<!DOCTYPE svg PUBLIC "-//W3C//DTD SVG 1.1//EN" "http://www.w3.org/Graphics/SVG/1.1/DTD/svg11.dtd" >
<svg>
<metadata>
Created by FontForge 20090914 at Tue Aug 13 03:33:44 2013
 By www-data
Copyright (c) 2012, vernon adams (vern@newtypography.co.uk), with Reserved Font Name 'BenchNine'
</metadata>
<defs>
<font id="BenchNine-Bold" horiz-adv-x="363" >
  <font-face 
    font-family="BenchNine"
    font-weight="700"
    font-stretch="normal"
    units-per-em="2048"
    panose-1="0 0 0 0 0 0 0 0 0 0"
    ascent="1638"
    descent="-410"
    x-height="1006"
    cap-height="1438"
    bbox="-128 -720 1953 2029"
    underline-thickness="0"
    underline-position="0"
    unicode-range="U+0020-U+FB03"
  />
<missing-glyph horiz-adv-x="349" 
d="M70 -197h210v1570h-210v-1570zM35 -299v1774h279v-1774h-279z" />
    <glyph glyph-name=".notdef" horiz-adv-x="349" 
d="M70 -197h210v1570h-210v-1570zM35 -299v1774h279v-1774h-279z" />
    <glyph glyph-name="space" unicode=" " horiz-adv-x="262" 
 />
    <glyph glyph-name="exclam" unicode="!" horiz-adv-x="402" 
d="M132 0c-18 0 -27 17 -27 51v152c0 33.333 9 50 27 50h137c8.66699 0 15.167 -3.33301 19.5 -10s6.5 -20 6.5 -40v-152c0 -34 -8.66699 -51 -26 -51h-137zM183 468c-13.333 0 -21 24.333 -23 73l-44 887v9c0 18.667 2.5 34.167 7.5 46.5s11.167 18.5 18.5 18.5h118
c7.33301 0 13.5 -5.66699 18.5 -17s7.5 -26 7.5 -44v-12l-43 -888c-2 -48.667 -9.33301 -73 -22 -73h-38z" />
    <glyph glyph-name="quotedbl" unicode="&#x22;" horiz-adv-x="533" 
d="M130 765c-13.333 0 -21.001 23.334 -23.001 70.001l-38 529v11c0 17.333 2.5 32.166 7.5 44.499s10.833 18.5 17.5 18.5h98c6.66699 0 12.334 -6.33301 17.001 -19s7 -28 7 -46v-9l-37 -529c-3.33301 -46.667 -11 -70 -23 -70h-26zM382.999 765.001
c-12.667 0 -20.333 23.333 -23 70l-39 529v9c0 18 2.5 33.333 7.5 46s10.833 19 17.5 19h99c6.66699 0 12.167 -6 16.5 -18s6.5 -26.667 6.5 -44v-12l-37 -529c-2 -46.667 -9.33301 -70 -22 -70h-26z" />
    <glyph glyph-name="numbersign" unicode="#" horiz-adv-x="731" 
d="M140 -159c-2.66699 0 -4.99707 3.66699 -6.99707 11s-2.33301 15.333 -1 24l38 471h-57c-16 0 -24 16.667 -24 50v33c0 33.333 7.33301 50 22 50h73l29 364h-66c-16 0 -24 16.667 -24 50v36c0 33.333 7.66699 50 23 50h82l45 512c0.666992 10 2.66699 18.333 6 25
s6.66602 10 9.99902 10h77c7.33301 0 10.333 -11.667 9 -35l-45 -512h136l46 512c1.33301 23.333 6.66602 35 15.999 35h74c2.66699 0 5 -3.66699 7 -11s2.33301 -15.333 1 -24l-45 -512h61c14.667 0 22 -16.667 22 -50v-36c0 -33.333 -7 -50 -21 -50h-76l-29 -364h67
c16.667 0 25 -16.667 25 -50v-33c0 -33.333 -7.66699 -50 -23 -50h-84l-38 -471c-2 -23.333 -7.33301 -35 -16 -35h-75c-6.66699 0 -9.33398 11.667 -8.00098 35l38 471h-136l-38 -471c-2 -23.333 -7.33301 -35 -16 -35h-78zM287.003 480h136l28 364h-136z" />
    <glyph glyph-name="dollar" unicode="$" horiz-adv-x="776" 
d="M388 1283c-39.333 -6.66699 -71 -28.6689 -95 -66.002s-36 -81.666 -36 -132.999c0 -50.667 11.333 -92.667 34 -126s55 -63.666 97 -90.999v416zM439 167.998c34.667 14 61.333 39.166 80 75.499s28 78.833 28 127.5s-9 89.334 -27 122.001s-45 62.667 -81 90v-415z
M402.999 -198.003c-10 0 -15.002 22.0039 -15.002 66.0039v117h-7c-141.333 0 -252.666 61 -333.999 183c-4 6 -6 13.667 -6 23c0 23.333 9.5 48.833 28.5 76.5s37.167 41.5 54.5 41.5c6.66699 0 12.667 -3 18 -9c74.667 -95.333 154.334 -143 239.001 -143h7v461l-111 75
c-28 18.667 -52.333 38 -73 58s-40.5 44.167 -59.5 72.5s-33.667 61.666 -44 99.999s-15.5 80.5 -15.5 126.5c0 115.333 27.5 210.666 82.5 285.999s128.5 114.666 220.5 117.999v124c0 43.333 5 65 15 65h22c9.33301 0 14 -21.667 14 -65v-125
c110 -6.66699 197 -52 261 -136c6.66699 -8.66699 10 -19 10 -31c0 -23.333 -9.83301 -48 -29.5 -74s-36.167 -39 -49.5 -39c-4 0 -7 1.33301 -9 4c-52 62.667 -113 98 -183 106v-449l84 -54c134 -86.667 201 -213.334 201 -380.001c0 -109.333 -25.5 -201.5 -76.5 -276.5
s-120.5 -119.5 -208.5 -133.5v-122c0 -44 -4.66699 -66 -14 -66h-22z" />
    <glyph glyph-name="percent" unicode="%" horiz-adv-x="1073" 
d="M387 -73c-4.66699 0 -8.83203 5 -12.499 15s-5.5 21.667 -5.5 35c0 4.66699 0.666992 11.334 2 20.001l224 1418c7.33301 46.667 19.666 70 36.999 70h41c4.66699 0 8.5 -4.66699 11.5 -14s4.5 -20.333 4.5 -33c0 -6.66699 -0.666992 -14.334 -2 -23.001l-223 -1418
c-7.33301 -46.667 -19.333 -70 -36 -70h-41zM226.002 785c28.667 0 49.5 21.167 62.5 63.5s19.5 109.833 19.5 202.5c0 94.667 -6.5 163.667 -19.5 207s-33.833 65 -62.5 65c-29.333 0 -50.5 -21.667 -63.5 -65s-19.5 -112.333 -19.5 -207
c0 -92.667 6.5 -160.167 19.5 -202.5s34.167 -63.5 63.5 -63.5zM226.002 670c-59.333 0 -104.167 30.5 -134.5 91.5s-45.5 158.833 -45.5 293.5c0 134 15 231.333 45 292s75 91 135 91c59.333 0 103.833 -30.333 133.5 -91s44.5 -158 44.5 -292
c0 -134.667 -15 -232.5 -45 -293.5s-74.333 -91.5 -133 -91.5zM849.001 115c28.667 0 49.5 21.167 62.5 63.5s19.5 109.833 19.5 202.5c0 94.667 -6.5 163.667 -19.5 207s-33.833 65 -62.5 65c-29.333 0 -50.5 -21.667 -63.5 -65s-19.5 -112.333 -19.5 -207
c0 -92 6.66699 -159.333 20 -202s34.333 -64 63 -64zM849.001 0c-59.333 0 -104.167 30.5 -134.5 91.5s-45.5 158.833 -45.5 293.5c0 134 15 231.333 45 292s75 91 135 91c59.333 0 104 -30.333 134 -91s45 -158 45 -292c0 -134.667 -15.167 -232.5 -45.5 -293.5
s-74.833 -91.5 -133.5 -91.5z" />
    <glyph glyph-name="ampersand" unicode="&#x26;" horiz-adv-x="1181" 
d="M478 -18c-53.333 0 -101.339 7.5 -144.006 22.5s-81 38.5 -115 70.5s-60.333 75.833 -79 131.5s-28 121.834 -28 198.501c0 87.333 19.167 162.166 57.5 224.499s81.5 100.833 129.5 115.5c-48 12.667 -91.5 45.834 -130.5 99.501s-58.5 124.834 -58.5 213.501
c0 134 29.333 234.333 88 301s138.334 100 239.001 100c65.333 0 115 -9.66699 149 -29c16.667 -9.33301 25 -23 25 -41c0 -6 -0.333008 -10.667 -1 -14l-6 -79c-0.666992 -30 -9.66699 -40.667 -27 -32c-1.33301 0 -4.66602 1.33301 -9.99902 4s-11 5.16699 -17 7.5
s-15.667 4.5 -29 6.5s-28.666 3 -45.999 3c-44 0 -82.667 -16.667 -116 -50s-50.333 -87.666 -51 -162.999c0 -64.667 13.5 -120.334 40.5 -167.001s65.167 -70 114.5 -70h245c10 0 15 10 15 30l7 489c0.666992 36 11 54 31 54h130c19.333 0 29 -18 29 -54v-489
c0 -20 4.66699 -30 14 -30h149c20.667 0 31 -19.667 31 -59v-45c0 -41.333 -10.333 -62 -31 -62h-149c-9.33301 0 -14 -9.66699 -14 -29v-275c0 -138.667 34.667 -208 104 -208c28 0 58 10.667 90 32c8 4.66699 14.833 3.33398 20.5 -3.99902s9.16699 -19 10.5 -35l1 -59
v-10c0 -30.667 -7.66699 -51 -23 -61c-42.667 -25.333 -86 -38 -130 -38c-45.333 0 -90.333 12.167 -135 36.5s-76 59.833 -94 106.5c-0.666992 -0.666992 -6 -6.83398 -16 -18.501s-16.833 -19.334 -20.5 -23.001l-23.5 -22.5c-12 -11.333 -22.333 -19.5 -31 -24.5
l-36 -20.5c-15.333 -8.66699 -30.166 -14.834 -44.499 -18.501s-31.666 -7.16699 -51.999 -10.5s-41.166 -5 -62.499 -5zM506.994 144c21.333 0 41.166 1.83008 59.499 5.49707s34 8 47 13s25.333 11.667 37 20s21 15.833 28 22.5s13.833 14.834 20.5 24.501
s11.334 17.167 14.001 22.5s5.66699 11.666 9 18.999s5 11.333 5 12l-4 358c0 18.667 -5 28 -15 28h-235c-46 -0.666992 -84.667 -26 -116 -76s-47 -112 -47 -186c0 -39.333 4.33301 -74.666 13 -105.999s19.667 -56.666 33 -75.999s29 -35.166 47 -47.499
s35.5 -21 52.5 -26s34.167 -7.5 51.5 -7.5z" />
    <glyph glyph-name="quotesingle" unicode="'" 
d="M169 765c-12.667 0 -20.334 23.334 -23.001 70.001l-38 529v11c0 17.333 2.5 32.166 7.5 44.499s10.833 18.5 17.5 18.5h98c6.66699 0 12.334 -6.33301 17.001 -19s7 -28 7 -46v-9l-37 -529c-3.33301 -46.667 -11 -70 -23 -70h-26z" />
    <glyph glyph-name="parenleft" unicode="(" horiz-adv-x="446" 
d="M318 -143c-47.333 17.333 -87.665 68.5 -120.998 153.5s-57.166 186 -71.499 303s-21.5 245.167 -21.5 384.5s7.16699 267.5 21.5 384.5s38.166 218.167 71.499 303.5s73.666 136.666 120.999 153.999h2c6 0 11.5 -7.16699 16.5 -21.5s7.5 -30.5 7.5 -48.5v-71
c0 -32 -1.83301 -54.5 -5.5 -67.5s-11.5 -28.167 -23.5 -45.5c-22.667 -34 -40.834 -101.667 -54.501 -203s-20.5 -229.666 -20.5 -384.999c0 -318 25.333 -513.333 76 -586c11.333 -16.667 18.833 -31.667 22.5 -45s5.5 -36.333 5.5 -69v-71c0 -18 -2.5 -34.167 -7.5 -48.5
s-10.5 -21.5 -16.5 -21.5h-2z" />
    <glyph glyph-name="parenright" unicode=")" horiz-adv-x="450" 
d="M129 -143l-2.00098 -0.000976562c-6 0 -11.5 7.16699 -16.5 21.5s-7.5 30.5 -7.5 48.5v72c0 32 2 54.667 6 68s11.667 28.333 23 45c23.333 34 41.833 101.5 55.5 202.5s20.5 228.833 20.5 383.5c0 155.333 -6.83301 283.666 -20.5 384.999s-32.167 169 -55.5 203
c-8 12.667 -13.667 22.334 -17 29.001s-6.16602 17 -8.49902 31s-3.5 32 -3.5 54v70c0 18 2.5 34.167 7.5 48.5s10.5 21.5 16.5 21.5h2c48 -17.333 88.5 -68.666 121.5 -153.999s56.667 -186.5 71 -303.5s21.5 -245.167 21.5 -384.5c0 -140 -7.16699 -268.333 -21.5 -385
s-38 -217.5 -71 -302.5s-73.5 -136.167 -121.5 -153.5z" />
    <glyph glyph-name="asterisk" unicode="*" horiz-adv-x="709" 
d="M247 422c-14.667 0 -28.8369 3.5 -42.5039 10.5s-20.5 16.167 -20.5 27.5c0 12 6.33301 30.5 19 55.5s25.667 47.667 39 68l48 70.5c18.667 26.667 29 41.334 31 44.001l-186 55c-10.667 3.33301 -19.334 10.5 -26.001 21.5s-10 23.833 -10 38.5
c0 17.333 3.83301 32.5 11.5 45.5s17.834 19.5 30.501 19.5c8.66699 0 26.334 -9.33301 53.001 -28s55.334 -40 86.001 -64s49.334 -38.333 56.001 -43c-2 16.667 -5.66699 43.167 -11 79.5s-9.33301 68 -12 95s-4 53.5 -4 79.5c0 16 4.33301 28.167 13 36.5
s19.667 12.5 33 12.5c30 0 45 -15 45 -45l-21 -258l158 100c6.66699 3.33301 12.667 5 18 5c13.333 0 24.833 -6 34.5 -18s14.5 -25.333 14.5 -40c0 -24.667 -13.333 -40.334 -40 -47.001l-176 -45c90.667 -100 144.334 -160.333 161.001 -181c6 -7.33301 9 -15 9 -23
c0 -12 -5.5 -22.833 -16.5 -32.5s-22.833 -14.5 -35.5 -14.5c-14 0 -25.333 6.66699 -34 20l-119 200l-84 -236c-2 -6 -9.33301 -9 -22 -9z" />
    <glyph glyph-name="plus" unicode="+" horiz-adv-x="801" 
d="M369 271c-11.333 0 -19.666 2.83301 -24.999 8.5s-8 17.834 -8 36.501v207c0 9.33301 -1.16699 15.333 -3.5 18s-6.16602 4 -11.499 4h-179c-10 0 -17.667 2.66699 -23 8s-8 16.666 -8 33.999v33c0 17.333 2.66699 28.5 8 33.5s13 7.5 23 7.5h179
c5.33301 0 9.16602 1.33301 11.499 4s3.5 8.66699 3.5 18v198c0 18.667 2.66699 30.834 8 36.501s13.666 8.5 24.999 8.5h72c10.667 0 18.5 -2.83301 23.5 -8.5s7.5 -17.834 7.5 -36.501v-198c0 -9.33301 1.33301 -15.333 4 -18s7 -4 13 -4h176c10 0 17.667 -2.5 23 -7.5
s8 -16.167 8 -33.5v-33c0 -17.333 -2.66699 -28.666 -8 -33.999s-13 -8 -23 -8h-176c-6 0 -10.333 -1.33301 -13 -4s-4 -8.66699 -4 -18v-207c0 -18.667 -2.5 -30.834 -7.5 -36.501s-12.833 -8.5 -23.5 -8.5h-72z" />
    <glyph glyph-name="comma" unicode="," horiz-adv-x="400" 
d="M117 -316c-2.66699 -1.33301 -4.66602 -2 -5.99902 -2c-12.667 0 -19 14.333 -19 43v18c0 20.667 1 33.667 3 39s8.66699 14.333 20 27c14.667 18 26.167 43 34.5 75s12.5 61.667 12.5 89c0 18 -2 27 -6 27h-45c-14 0 -21 19 -21 57v147c0 40 9 60 27 60h116
c17.333 0 26 -21.333 26 -64v-150c0 -56 -5 -107.167 -15 -153.5s-22.833 -83.5 -38.5 -111.5s-30.834 -50.167 -45.501 -66.5s-29 -27.833 -43 -34.5z" />
    <glyph glyph-name="hyphen" unicode="-" horiz-adv-x="656" 
d="M115 532c-8.66699 0 -15.167 3.5 -19.5 10.5s-6.5 20.5 -6.5 40.5v51c0 20 2.16699 33.333 6.5 40s10.833 10 19.5 10h427c16.667 0 25 -16.667 25 -50v-51c0 -34 -8.33301 -51 -25 -51h-427z" />
    <glyph glyph-name="period" unicode="." horiz-adv-x="377" 
d="M120 0c-17.333 0 -26 17 -26 51v152c0 33.333 8.66699 50 26 50h137c18 0 27 -16.667 27 -50v-152c0 -34 -9 -51 -27 -51h-137z" />
    <glyph glyph-name="slash" unicode="/" horiz-adv-x="564" 
d="M93 -205c-6 0 -9.00098 8.66699 -9.00098 26c0 0.666992 0.166992 2 0.5 4s0.5 3.66699 0.5 5l234 1782c3.33301 23.333 9.33301 35 18 35h137c6.66699 0 10 -8.33301 10 -25c0 -4.66699 -0.333008 -8 -1 -10l-235 -1783c-3.33301 -23.333 -8.66602 -35 -15.999 -35z" />
    <glyph glyph-name="zero" unicode="0" horiz-adv-x="891" 
d="M445 145c56.667 0 96.332 43.8301 118.999 131.497s34 236.834 34 447.501c0 206.667 -11.5 353.334 -34.5 440.001s-63.167 130 -120.5 130s-97.166 -43.167 -119.499 -129.5s-33.5 -233.166 -33.5 -440.499c0 -210 11.5 -359 34.5 -447s63.167 -132 120.5 -132z
M443.998 -18.0029c-38 0 -73 6.50195 -105 19.502s-62.833 36.667 -92.5 71s-54.834 78.666 -75.501 132.999s-37.167 125.5 -49.5 213.5s-18.5 189.667 -18.5 305c0 86.667 3.16699 165 9.5 235s15.166 130.167 26.499 180.5s25.333 94.333 42 132s34.334 68 53.001 91
s39.834 41.667 63.501 56s47 24.166 70 29.499s48.167 8 75.5 8c39.333 0 74.5 -5.33301 105.5 -16s61.833 -31.834 92.5 -63.501s56.167 -73.667 76.5 -126s36.833 -123.166 49.5 -212.499s19 -194 19 -314c0 -494.667 -114 -742 -342 -742z" />
    <glyph glyph-name="one" unicode="1" horiz-adv-x="539" 
d="M216 0c-16.667 0 -24.999 22.332 -24.999 66.999v1105c0 21.333 -4.33301 31.333 -13 30c-52.667 -13.333 -79.334 -20 -80.001 -20c-14.667 -1.33301 -22 13.334 -22 44.001v96c0 26.667 8 41.667 24 45l264 68c2 0.666992 5 1 9 1c14.667 0 22 -15.667 22 -47v-1322
c0 -44.667 -8.66699 -67 -26 -67h-153z" />
    <glyph glyph-name="two" unicode="2" horiz-adv-x="727" 
d="M611 1l-499.999 -0.00488281c-18 0 -27 23 -27 69c0 2 0.166992 11.833 0.5 29.5s0.5 27.834 0.5 30.501c6 96.667 24.333 188.334 55 275.001s65.667 160.334 105 221.001l116.5 171.5c38.333 53.667 70.666 106.834 96.999 159.501s39.5 102.667 39.5 150
c0 60.667 -15.333 106.334 -46 137.001s-68.667 46 -114 46c-25.333 0 -50.5 -2.66699 -75.5 -8s-44.167 -10.666 -57.5 -15.999s-30 -12.666 -50 -21.999s-32 -15 -36 -17c-12.667 -12 -19.667 -7.66699 -21 13c-12 51.333 -18 82.666 -18 93.999c0 24 3 40.333 9 49
c32 21.333 70.667 38.5 116 51.5s91 19.5 137 19.5c33.333 0 64.5 -2.5 93.5 -7.5s58.167 -14.5 87.5 -28.5s54.333 -32.333 75 -55s37.5 -53 50.5 -91s19.5 -82 19.5 -132c0 -44 -5.83301 -86.667 -17.5 -128s-27.167 -79.833 -46.5 -115.5s-41.166 -71.667 -65.499 -108
l-76.5 -116.5c-26.667 -41.333 -52.167 -83.833 -76.5 -127.5s-47.333 -95 -69 -154s-38.834 -120.5 -51.501 -184.5c-0.666992 -2 -1 -6 -1 -12c0 -10.667 1.33301 -21.334 4 -32.001s6 -16 10 -16h333c12 0 18 -16.667 18 -50v-48c0 -31.333 -6 -47 -18 -47z" />
    <glyph glyph-name="three" unicode="3" horiz-adv-x="662" 
d="M276 -15c-94.667 0 -162.334 16.666 -203.001 49.999c-4 3.33301 -7.33301 12 -10 26s-4 24 -4 30s0.833008 20.5 2.5 43.5s3.16699 34.5 4.5 34.5c0.666992 18.667 3.33398 28 8.00098 28c1.33301 0 3.33301 -1 6 -3c54 -32 111 -48 171 -48c124 0 186 83.667 186 251
c-0.666992 78 -15.834 139.167 -45.501 183.5s-72.834 66.833 -129.501 67.5h-36c-11.333 0 -18.833 2.5 -22.5 7.5s-5.5 14.5 -5.5 28.5v107c0 16 9.33301 24 28 24h35c110.667 2.66699 166 82 166 238c0 86 -13.333 147.333 -40 184s-66.667 55 -120 55
c-73.333 0 -136.333 -15.667 -189 -47c-7.33301 -5.33301 -11.666 -1 -12.999 13c-0.666992 3.33301 -1 7.66602 -1 12.999c-1.33301 0 -3 11.167 -5 33.5s-3 35.833 -3 40.5c0 5.33301 1.5 15.333 4.5 30s6.5 23.667 10.5 27c55.333 34.667 129.333 52 222 52
c45.333 0 86 -7 122 -21s68.333 -35.833 97 -65.5s50.834 -70.5 66.501 -122.5s23.5 -113.333 23.5 -184c0 -187.333 -65.667 -297.666 -197 -330.999c67.333 -15.333 118.166 -54.666 152.499 -117.999s51.5 -146.333 51.5 -249c0 -70 -9.16699 -130.5 -27.5 -181.5
s-43.666 -90.333 -75.999 -118s-67.333 -47.667 -105 -60s-79.167 -18.5 -124.5 -18.5z" />
    <glyph glyph-name="four" unicode="4" horiz-adv-x="894" 
d="M571 -1c-24.667 0 -36.999 20.334 -36.999 61.001v225h-398c-14 0 -25.667 4.83301 -35 14.5s-14 22.5 -14 38.5c0 6 0.333008 10.667 1 14l143 1018c4 24.667 8.5 42.167 13.5 52.5s13.167 15.5 24.5 15.5h82c11.333 0 20 -4.83301 26 -14.5s9 -21.834 9 -36.501
c0 -7.33301 -0.333008 -13 -1 -17l-98 -881c-0.666992 -4.66699 0.666016 -10.667 3.99902 -18s8 -11 14 -11h229v917c0 40.667 12.333 61 37 61h97c24.667 0 37 -20.333 37 -61v-917h130c29.333 0 44 -18.667 44 -56v-63c0 -37.333 -14.667 -56 -44 -56h-130v-225
c0 -40.667 -12.333 -61 -37 -61h-97z" />
    <glyph glyph-name="five" unicode="5" horiz-adv-x="841" 
d="M399 -15c-28.667 0.666992 -74.8291 8.49902 -138.496 23.499s-104.834 29.167 -123.501 42.5c-12.667 8.66699 -19 26.334 -19 53.001c0 5.33301 0.166992 12.666 0.5 21.999s1.16602 21 2.49902 35s3.33301 26 6 36s6 15 10 15c2 0 4.66699 -1 8 -3
c0.666992 -0.666992 5 -2.83398 13 -6.50098l25 -12c8.66699 -4.33301 20.167 -9.16602 34.5 -14.499s28.833 -10 43.5 -14s31.5 -7.33301 50.5 -10s37.833 -4 56.5 -4c84 0 141 26.5 171 79.5s45 136.167 45 249.5c0 32 -1 60.5 -3 85.5s-6.5 52.333 -13.5 82
s-16.5 54.334 -28.5 74.001s-29.333 36.167 -52 49.5s-49.334 20 -80.001 20c-27.333 0 -51.5 -5 -72.5 -15s-37.333 -22.333 -49 -37s-21.834 -29.167 -30.501 -43.5s-17.167 -26.5 -25.5 -36.5s-17.166 -15 -26.499 -15h-48c-9.33301 0 -15.333 5.5 -18 16.5
s-4.33398 28.167 -5.00098 51.5v12l-20 624v13c0 53.333 9.66699 80 29 80h547c6.66699 0 12 -4.16699 16 -12.5s6 -19.166 6 -32.499l-2 -83c-2 -28.667 -7 -43 -15 -43h-420c-15.333 0 -23 -16.667 -23 -50l3 -395c49.333 77.333 124.666 116 225.999 116
c96.667 0 167.834 -41.333 213.501 -124s68.5 -199.334 68.5 -350.001c0 -75.333 -5.83301 -141 -17.5 -197s-27.667 -101.833 -48 -137.5s-46 -64.5 -77 -86.5s-64 -37.167 -99 -45.5s-75.167 -12.5 -120.5 -12.5z" />
    <glyph glyph-name="six" unicode="6" horiz-adv-x="844" 
d="M104 687c0 276.667 28.834 473.666 86.501 590.999s154.167 176 289.5 176c41.333 0 84.166 -6.5 128.499 -19.5s75.833 -27.5 94.5 -43.5c4.66699 -4 8.5 -12.333 11.5 -25s4.5 -21.334 4.5 -26.001c0 -2.66699 -1.16699 -16 -3.5 -40s-3.83301 -36.333 -4.5 -37
c-1.33301 -14.667 -3.83301 -24.667 -7.5 -30s-8.83398 -5.66602 -15.501 -0.999023c-58.667 38 -115 57 -169 57c-46.667 0 -85.167 -11.333 -115.5 -34s-54.666 -64.5 -72.999 -125.5s-27.5 -142.833 -27.5 -245.5v-25c75.333 30.667 130.666 46 165.999 46
c54.667 0 102.334 -11.667 143.001 -35s72.834 -56.5 96.501 -99.5s41 -91.667 52 -146s16.5 -115.5 16.5 -183.5c0 -73.333 -5.66699 -137.333 -17 -192s-26.5 -98.667 -45.5 -132s-43.167 -60 -72.5 -80s-59.833 -33.667 -91.5 -41s-67.834 -11 -108.501 -11
c-116.667 0 -202.167 54.833 -256.5 164.5s-81.5 288.834 -81.5 537.501zM447.001 146.999c31.333 0 56.5 8.16699 75.5 24.5s34.167 47.5 45.5 93.5s17 109.667 17 191c0 41.333 -1.83301 78 -5.5 110s-10 61.667 -19 89s-22.167 48.333 -39.5 63s-38.666 22 -63.999 22
c-42.667 0 -94.334 -14.667 -155.001 -44v-120c0 -160 11.167 -271.5 33.5 -334.5s59.5 -94.5 111.5 -94.5z" />
    <glyph glyph-name="seven" unicode="7" horiz-adv-x="586" 
d="M189 0c-6.66699 0 -12.333 4.50098 -17 13.501s-7 21.167 -7 36.5c0 5.33301 0.333008 10.666 1 15.999l138 1144c2 18 -1.66699 27 -11 27h-195c-17.333 0 -26 15.333 -26 46v111c0 29.333 8.66699 44 26 44h392c16 0 24 -16.333 24 -49
c0 -6.66699 -0.333008 -12 -1 -16l-156 -1307c-5.33301 -44 -14.333 -66 -27 -66h-141z" />
    <glyph glyph-name="eight" unicode="8" horiz-adv-x="849" 
d="M525 826c8 9.33301 16.333 39.167 25 89.5s13 97.5 13 141.5c0 162.667 -45.667 244 -137 244s-137 -76.667 -137 -230c0 -86 16.833 -145.5 50.5 -178.5s95.5 -55.167 185.5 -66.5zM426 -14.999c-30 0 -56.9971 2.16797 -80.9971 6.50098s-48.833 12.166 -74.5 23.499
s-47.834 27.833 -66.501 49.5s-35.667 48.5 -51 80.5s-27 72.167 -35 120.5s-12 103.5 -12 165.5c0 84 11.167 158.833 33.5 224.5s48.166 111.834 77.499 138.501c-54.667 57.333 -82 148.666 -82 273.999c0 257.333 97 386 291 386c32 0 61.333 -3.33301 88 -10
s52.5 -19 77.5 -37s46.167 -41.333 63.5 -70s31.166 -66.167 41.499 -112.5s15.5 -99.833 15.5 -160.5c0 -63.333 -7.83301 -122.333 -23.5 -177s-34.167 -94.667 -55.5 -120c37.333 -32 65.166 -75 83.499 -129s27.5 -125 27.5 -213c0 -70 -5.83301 -131.5 -17.5 -184.5
s-27.167 -95.333 -46.5 -127s-43.166 -57.5 -71.499 -77.5s-57 -33.5 -86 -40.5s-61.167 -10.5 -96.5 -10.5zM427.003 175.002c49.333 0 86.5029 19.498 111.503 58.498s37.5 109.167 37.5 210.5c0 38 -3.16699 70.333 -9.5 97s-14 47.834 -23 63.501
s-22.833 29.5 -41.5 41.5s-35.334 20.667 -50.001 26s-36.334 12.833 -65.001 22.5s-52.334 18.5 -71.001 26.5c-12 -25.333 -22.5 -64.666 -31.5 -117.999s-13.5 -102 -13.5 -146c0 -188 52 -282 156 -282z" />
    <glyph glyph-name="nine" unicode="9" horiz-adv-x="866" 
d="M408 -15c-36.667 0 -80.332 8.99902 -130.999 26.999s-86 36.667 -106 56c-9.33301 7.33301 -14 25 -14 53l6 78c0.666992 13.333 2.16699 22.833 4.5 28.5s5.16602 8.33398 8.49902 8.00098s7 -1.83301 11 -4.5c14.667 -12.667 42.667 -27.667 84 -45s84 -26 128 -26
c60.667 0 103.167 28.333 127.5 85s36.5 150.667 36.5 282v54c-58 -36 -108.667 -54 -152 -54c-70.667 0 -129.334 20.333 -176.001 61s-80.334 95.167 -101.001 163.5s-31 149.166 -31 242.499c0 72 5.5 135.333 16.5 190s25.833 99.5 44.5 134.5s42.334 63.333 71.001 85
s58.834 36.834 90.501 45.501s67.5 13 107.5 13c76 0 137.5 -22 184.5 -66s83 -118.833 108 -224.5s37.5 -246.5 37.5 -422.5c0 -196.667 -12.5 -350.667 -37.5 -462s-62.5 -189.5 -112.5 -234.5s-118.333 -67.5 -205 -67.5zM423.002 691.999
c49.333 0 96.333 17.665 141 52.998v167c0 96.667 -5.16699 173.334 -15.5 230.001s-25 95.834 -44 117.501s-44.167 32.5 -75.5 32.5c-44 0 -77 -23.667 -99 -71s-33 -127 -33 -239c0 -92.667 9.5 -164.167 28.5 -214.5s51.5 -75.5 97.5 -75.5z" />
    <glyph glyph-name="colon" unicode=":" horiz-adv-x="340" 
d="M126 0c-18 0 -27 21.333 -27 64v204c0 42.667 9 64 27 64h88c18 0 27 -21.333 27 -64v-204c0 -42.667 -9 -64 -27 -64h-88zM126 690c-18 0 -27 21.333 -27 64v204c0 42.667 9 64 27 64h88c18 0 27 -21.333 27 -64v-204c0 -42.667 -9 -64 -27 -64h-88z" />
    <glyph glyph-name="semicolon" unicode=";" horiz-adv-x="356" 
d="M120 -328c-1.33301 -0.666992 -3.00195 -1 -5.00195 -1c-12.667 0 -19 15.333 -19 46v17c0 18 0.833008 31.167 2.5 39.5s3.33398 13.833 5.00098 16.5s6.83398 9 15.501 19c14.667 18 26.167 43 34.5 75s12.5 61.667 12.5 89c0 18 -2 27 -6 27h-43c-14 0 -21 19 -21 57
v191c0 40 7 60 21 60h120c17.333 0 26 -21.333 26 -64v-194c0 -105.333 -15.667 -190.833 -47 -256.5s-63.333 -106.167 -96 -121.5zM124.998 690c-18 0 -27 21.333 -27 64v204c0 42.667 9 64 27 64h105c17.333 0 26 -21.333 26 -64v-204c0 -42.667 -8.66699 -64 -26 -64
h-105z" />
    <glyph glyph-name="less" unicode="&#x3c;" horiz-adv-x="1073" 
d="M526 145c-4.66699 0 -13.332 4.33105 -25.999 12.998l-291 341c-14 16 -24 27.833 -30 35.5s-11.667 17.834 -17 30.501s-8 26.334 -8 41.001v49c0 14.667 2.83301 28.5 8.5 41.5s11 22.667 16 29s15.5 18.5 31.5 36.5l290 350c7.33301 6.66699 15.666 10 24.999 10
c10 0 18.167 -4.16699 24.5 -12.5s9.5 -18.5 9.5 -30.5v-56c0 -6 -0.333008 -11.5 -1 -16.5s-1.33398 -9.33301 -2.00098 -13s-2.33398 -8 -5.00098 -13s-4.33398 -8.5 -5.00098 -10.5s-3.16699 -5.66699 -7.5 -11s-6.83301 -8.33301 -7.5 -9s-4 -4.33398 -10 -11.001
s-9.33301 -10.334 -10 -11.001l-224 -280c-6 -6 -9 -12 -9 -18s3 -12 9 -18l224 -270l10 -10.5c4.66699 -5 7.83398 -8.5 9.50098 -10.5l8 -9.5c3.66699 -4.33301 6.16699 -7.66602 7.5 -9.99902l5.5 -10c2.33301 -4.33301 3.83301 -8.33301 4.5 -12s1.33398 -8 2.00098 -13
s1 -10.5 1 -16.5v-63c0 -11.333 -3.16699 -21.166 -9.5 -29.499s-14.166 -12.5 -23.499 -12.5z" />
    <glyph glyph-name="equal" unicode="=" horiz-adv-x="560" 
d="M72 338c-8.66699 0 -14.834 2.66699 -18.501 8s-5.5 18 -5.5 38v41c0 20 1.83301 32.5 5.5 37.5s9.83398 7.5 18.501 7.5h416c8.66699 0 14.834 -2.5 18.501 -7.5s5.5 -17.5 5.5 -37.5v-41c0 -20 -1.83301 -32.667 -5.5 -38s-9.83398 -8 -18.501 -8h-416zM72 617
c-8.66699 0 -14.834 2.66699 -18.501 8s-5.5 18 -5.5 38v41c0 20 1.83301 32.667 5.5 38s9.83398 8 18.501 8h416c8.66699 0 14.834 -2.66699 18.501 -8s5.5 -18 5.5 -38v-41c0 -20 -1.83301 -32.667 -5.5 -38s-9.83398 -8 -18.501 -8h-416z" />
    <glyph glyph-name="greater" unicode="&#x3e;" horiz-adv-x="1073" 
d="M187 145c-10 0 -17.9961 4.16797 -23.9961 12.501s-9 18.833 -9 31.5v55c0 4.66699 0.166992 9.16699 0.5 13.5s0.833008 8.16602 1.5 11.499s1.66699 6.83301 3 10.5s2.5 6.66699 3.5 9s2.66699 5.33301 5 9l5 8c1 1.66699 3 4.5 6 8.5s5.16699 6.66699 6.5 8
s4 4.16602 8 8.49902s6.66699 7.5 8 9.5l225 279c5.33301 6 8 12.333 8 19s-3 12.334 -9 17.001l-223 270c-2 2.66699 -5.83301 6.83398 -11.5 12.501s-9.33398 9.66699 -11.001 12s-4.5 5.83301 -8.5 10.5s-6.5 8.5 -7.5 11.5s-2.5 7 -4.5 12s-3.33301 10.167 -4 15.5
s-1 11.333 -1 18v64c0 12 3 21.833 9 29.5s14 11.5 24 11.5c6.66699 0 15 -4 25 -12l291 -342c15.333 -17.333 25.666 -29.333 30.999 -36s10.833 -16.334 16.5 -29.001s8.5 -26.334 8.5 -41.001v-49c0 -5.33301 -0.166992 -10.166 -0.5 -14.499s-1.33301 -8.83301 -3 -13.5
s-2.83398 -8.5 -3.50098 -11.5s-2.66699 -6.83301 -6 -11.5s-5.33301 -8 -6 -10s-3.33398 -5.83301 -8.00098 -11.5s-7.5 -9.16699 -8.5 -10.5s-4.5 -5.33301 -10.5 -12s-9.66699 -10.667 -11 -12l-289 -350c-9.33301 -7.33301 -18 -11 -26 -11z" />
    <glyph glyph-name="question" unicode="?" horiz-adv-x="772" 
d="M271 520l-9.99414 17.498c-4.66699 8.33301 -8 14.5 -10 18.5s-4.16699 9.5 -6.5 16.5s-3.83301 14.167 -4.5 21.5c-6 17.333 -2.66699 33 10 47c22.667 44.667 45.167 78.667 67.5 102s57.166 51.333 104.499 84c84 56.667 126 137.667 126 243
c-2 70.667 -20.833 125.5 -56.5 164.5s-78.834 58.5 -129.501 58.5c-76.667 0 -150.334 -25 -221.001 -75c-13.333 -8.66699 -24.333 1 -33 29c-3.33301 0 -8.5 12 -15.5 36s-10.5 39.333 -10.5 46c0 24 8 40.667 24 50c34 24 74.833 44.333 122.5 61s93.167 25 136.5 25
c36 0 69.833 -4.16699 101.5 -12.5s62.167 -22.166 91.5 -41.499s54.666 -43.666 75.999 -72.999s38.666 -66.666 51.999 -111.999s20.666 -96.333 21.999 -153c0 -160 -88 -293 -264 -399c-50.667 -30.667 -93.334 -80.334 -128.001 -149.001
c-8 -10.667 -16.667 -16 -26 -16c-7.33301 0 -13.666 3.66699 -18.999 11zM257.006 -0.00195312c-14 0 -25.5 5.83301 -34.5 17.5s-13.5 27.5 -13.5 47.5v111c0 20 4.5 35.833 13.5 47.5s20.5 17.5 34.5 17.5h105c14 0 25.5 -5.83301 34.5 -17.5s13.5 -27.5 13.5 -47.5v-111
c0 -20 -4.5 -35.833 -13.5 -47.5s-20.5 -17.5 -34.5 -17.5h-105z" />
    <glyph glyph-name="at" unicode="@" horiz-adv-x="1381" 
d="M721 -157c-103.333 0 -195.828 21.8301 -277.495 65.4971s-148 103.334 -199 179.001s-89.833 162.834 -116.5 261.501s-40 205 -40 319c0 92.667 7.83301 180.334 23.5 263.001s40.167 159 73.5 229s74 130.5 122 181.5s106.167 90.833 174.5 119.5s143.5 43 225.5 43
c86 0 163.167 -13.667 231.5 -41s125.333 -64.666 171 -111.999s83.667 -105 114 -173s52.333 -141 66 -219s20.5 -162.667 20.5 -254c0 -158.667 -21 -277.5 -63 -356.5s-92 -118.5 -150 -118.5c-44 0 -79.167 16.333 -105.5 49s-41.5 77.334 -45.5 134.001
c-2.66699 24.667 -6.33398 37 -11.001 37c-3.33301 0 -7 -9 -11 -27c-21.333 -70.667 -51 -124.334 -89 -161.001s-90 -55 -156 -55c-86 0 -156.167 39.167 -210.5 117.5s-81.5 190.5 -81.5 336.5c0 141.333 26 250.666 78 327.999s120.333 116 205 116
c122 0 203.333 -74 244 -222c2.66699 -10 5.33398 -15 8.00098 -15s4 4 4 12l12 131c4.66699 32.667 19 49 43 49h8c10.667 0 19.167 -5.33301 25.5 -16s9.5 -24.334 9.5 -41.001v-516c0 -58.667 6.16699 -99.334 18.5 -122.001s29.833 -34 52.5 -34
c9.33301 0 18.166 3.16699 26.499 9.5s16.666 18.333 24.999 36s15.666 40 21.999 67s11.333 62.833 15 107.5s5.5 96 5.5 154c0 79.333 -5.16699 152.333 -15.5 219s-27.333 128.834 -51 186.501s-53.667 106.667 -90 147s-81.833 71.833 -136.5 94.5s-116.667 34 -186 34
c-67.333 0 -128.833 -13.333 -184.5 -40s-102.167 -62.667 -139.5 -108s-68.833 -99 -94.5 -161s-44.334 -127.5 -56.001 -196.5s-17.5 -141.167 -17.5 -216.5c0 -74 5.33301 -144 16 -210s28.5 -130 53.5 -192s56.667 -115.167 95 -159.5s87.166 -80 146.499 -107
s126.333 -40.5 201 -40.5c78.667 0 160 20 244 60l1 1h2c8 0 17 -10 27 -30s15 -37.667 15 -53c0 -9.33301 -2.66699 -15.666 -8 -18.999c-36.667 -20.667 -81.667 -37.667 -135 -51s-105 -20 -155 -20zM697.005 326.997c57.333 0 103.5 27.667 138.5 83s52.5 136 52.5 242
c0 103.333 -17.5 183.333 -52.5 240s-80.833 85 -137.5 85c-62 0 -108 -29.333 -138 -88s-45 -137.667 -45 -237s15.333 -178.333 46 -237s76 -88 136 -88z" />
    <glyph glyph-name="A" unicode="A" horiz-adv-x="822" 
d="M68 0c-10 0 -14.998 9.66699 -14.998 29v17c0 8.66699 0.333008 14.334 1 17.001l225 1325c5.33301 32 17.666 48.667 36.999 50h203c18.667 -1.33301 30.667 -18 36 -50l221 -1325c0 -2 0.5 -5.66699 1.5 -11s1.66699 -10 2 -14s0.5 -7.33301 0.5 -10
c0 -18.667 -5.66699 -28 -17 -28h-165c-16 0 -26.333 13.667 -31 41l-37 255c-2 14.667 -5.66699 22 -11 22h-242c-4.66699 0 -8.33398 -7.66699 -11.001 -23l-42 -253c-2.66699 -16.667 -6 -27.834 -10 -33.501s-10 -8.5 -18 -8.5h-128zM306.002 443h204
c4.66699 0 7 6 7 18c0 4 -0.666992 7 -2 9l-99 771c-0.666992 4.66699 -1.66699 7 -3 7c-2 0 -3.33301 -2 -4 -6l-117 -771c-0.666992 -4.66699 -1 -7.66699 -1 -9c0 -12.667 5 -19 15 -19z" />
    <glyph glyph-name="B" unicode="B" horiz-adv-x="896" 
d="M143 0c-9.33301 0 -16.166 2.66797 -20.499 8.00098s-6.5 17.333 -6.5 36v1349c0 19.333 2.16699 31.666 6.5 36.999s11.166 8 20.499 8h366c190 0 285 -132.333 285 -397c0 -123.333 -29.667 -209.666 -89 -258.999c-6 -6 -9 -10 -9 -12s3.33301 -6.33301 10 -13
c83.333 -59.333 125 -170.333 125 -333c0 -80 -8.16699 -148 -24.5 -204s-40 -99.833 -71 -131.5s-66.5 -54.334 -106.5 -68.001s-86.333 -20.5 -139 -20.5h-347zM327 150.001h127.001c58.667 0 104.167 24.667 136.5 74s48.5 116.333 48.5 201
c0 75.333 -14.333 137.333 -43 186s-65.334 73 -110.001 73h-159c-9.33301 0 -14 -8 -14 -24v-490c0 -13.333 4.66699 -20 14 -20zM327.001 833.001h165.999c36.667 0 66 18.167 88 54.5s33 85.5 33 147.5c0 81.333 -14.167 142.833 -42.5 184.5s-67.166 62.5 -116.499 62.5
h-128c-9.33301 0 -14 -7.33301 -14 -22v-407c0 -13.333 4.66699 -20 14 -20z" />
    <glyph glyph-name="C" unicode="C" horiz-adv-x="717" 
d="M494 -15c-34.667 0 -64.832 1.66992 -90.499 5.00293s-53.5 10.833 -83.5 22.5s-55.5 27.834 -76.5 48.501s-42 49.334 -63 86.001s-37.833 80.5 -50.5 131.5s-23 113.667 -31 188s-12 158.833 -12 253.5c0 128 7.83301 238 23.5 330s35.5 163.667 59.5 215
s55.167 91.666 93.5 120.999s75 48 110 56s76.833 12 125.5 12c62 0 113 -9.33301 153 -28c0.666992 -0.666992 1.66699 -1.5 3 -2.5s2.5 -2 3.5 -3s1.83301 -2.66699 2.5 -5s1 -5.16602 1 -8.49902v-121c0 -9.33301 -2.33301 -14 -7 -14
c-0.666992 0 -3.16699 0.666992 -7.5 2s-10.5 3 -18.5 5s-16.667 4 -26 6s-20.166 3.66699 -32.499 5s-24.5 2 -36.5 2c-31.333 0 -58 -3.5 -80 -10.5s-44.333 -22 -67 -45s-41 -54.833 -55 -95.5s-25.333 -96.334 -34 -167.001s-13 -155.334 -13 -254.001
c0 -100.667 3.83301 -186.334 11.5 -257.001s17.5 -126.5 29.5 -167.5s28.667 -72.833 50 -95.5s42.666 -37.334 63.999 -44.001s48 -10 80 -10c47.333 0 89.333 6.33301 126 19c0.666992 0 2.16699 -3.33301 4.5 -10s3.5 -10.334 3.5 -11.001v-115
c0 -0.666992 -1.16699 -4.16699 -3.5 -10.5s-3.83301 -9.83301 -4.5 -10.5c-40.667 -15.333 -91.334 -23 -152.001 -23z" />
    <glyph glyph-name="D" unicode="D" horiz-adv-x="935" 
d="M326 159l123 -0.00195312c51.333 0 91 15.333 119 46s48.833 86.834 62.5 168.501s20.5 199.167 20.5 352.5c0 142 -7.83301 254.333 -23.5 337s-37.167 139.334 -64.5 170.001s-63 46 -107 46h-131c-8 0 -12 -7.33301 -12 -22v-1076c0 -14.667 4.33301 -22 13 -22z
M141 -0.00195312c-8.66699 0 -15 2.66699 -19 8s-6 17.333 -6 36v1354c0 16.667 2 27.5 6 32.5s10.333 7.5 19 7.5h344c58.667 0 109.5 -11.667 152.5 -35s80.833 -61.666 113.5 -114.999s57.167 -126.5 73.5 -219.5s24.5 -206.167 24.5 -339.5
c0 -94.667 -3 -178.167 -9 -250.5s-13.833 -134.333 -23.5 -186s-23.5 -95.334 -41.5 -131.001s-36.667 -64 -56 -85s-43.666 -37.167 -72.999 -48.5s-57.833 -18.833 -85.5 -22.5s-61.834 -5.5 -102.501 -5.5h-317z" />
    <glyph glyph-name="E" unicode="E" horiz-adv-x="752" 
d="M141 0c-8.66699 0 -14.9971 2.50195 -18.9971 7.50195s-6 16.5 -6 34.5v1354c0 17.333 2 28.666 6 33.999s10.333 8 19 8h526c5.33301 0 9.66602 -0.666992 12.999 -2s6.16602 -5 8.49902 -11s3.5 -15 3.5 -27v-79c0 -16.667 -2 -27.5 -6 -32.5s-10.333 -7.5 -19 -7.5
h-342c-8 0 -12 -11 -12 -33v-404c0 -6 1.16699 -12 3.5 -18s4.5 -9 6.5 -9h275c16.667 0 25 -15.333 25 -46v-77c0 -30.667 -8.33301 -46 -25 -46h-274c-2.66699 0 -5.16699 -3.33301 -7.5 -10s-3.5 -13.334 -3.5 -20.001v-457h357c6 0 10.667 -0.666992 14 -2
s6.16602 -5 8.49902 -11s3.5 -15 3.5 -27v-79c0 -16.667 -2.16699 -27.5 -6.5 -32.5s-10.833 -7.5 -19.5 -7.5h-529z" />
    <glyph glyph-name="F" unicode="F" horiz-adv-x="684" 
d="M141 0c-8.66699 0 -15 2.50195 -19 7.50195s-6 16.5 -6 34.5v1354c0 17.333 2 28.666 6 33.999s10.333 8 19 8h491c6 0 10.5 -0.666992 13.5 -2s5.66699 -5 8 -11s3.5 -15 3.5 -27v-79c0 -16.667 -2 -27.5 -6 -32.5s-10.333 -7.5 -19 -7.5h-307
c-8 0 -12 -8.66699 -12 -26v-441c0 -13.333 3.33301 -20 10 -20h250c8.66699 0 15 -2.33301 19 -7s6 -15.334 6 -32.001v-90c0 -16.667 -2 -27.5 -6 -32.5s-10.333 -7.5 -19 -7.5h-249c-2.66699 0 -5.16699 -2.66699 -7.5 -8s-3.5 -11 -3.5 -17v-556
c0 -18 -2 -29.5 -6 -34.5s-10.333 -7.5 -19 -7.5h-147z" />
    <glyph glyph-name="G" unicode="G" horiz-adv-x="902" 
d="M792 -16c-25.333 0 -42.001 20.999 -50.001 62.999c0 0.666992 -4.66699 26.834 -14 78.501s-14 81.167 -14 88.5c0 6.66699 -1 10 -3 10s-4 -3 -6 -9c-11.333 -74.667 -35.833 -131.667 -73.5 -171s-87.5 -59 -149.5 -59c-30 0 -57.333 2 -82 6
s-50.834 12.5 -78.501 25.5s-52.167 30.167 -73.5 51.5s-42.166 50.666 -62.499 87.999s-37 81.166 -50 131.499s-23.5 112.166 -31.5 185.499s-12 155.666 -12 246.999c0 94.667 4.83301 179.334 14.5 254.001s22.334 137.334 38.001 188.001s35.834 94.334 60.501 131.001
s49.5 65.167 74.5 85.5s54.833 36.333 89.5 48s66.334 19.167 95.001 22.5s62 5 100 5c28 0 58.5 -3.66699 91.5 -11s59.167 -15.333 78.5 -24c0.666992 -0.666992 2.16699 -1.66699 4.5 -3s4.16602 -3.16602 5.49902 -5.49902s2 -5.83301 2 -10.5v-123
c0 -9.33301 -2.66699 -14 -8 -14c-0.666992 0 -4.5 1 -11.5 3s-16.333 4.5 -28 7.5s-24.334 5.83301 -38.001 8.5s-28.167 5 -43.5 7s-29.333 3 -42 3c-35.333 0 -65.666 -3.5 -90.999 -10.5s-51 -22 -77 -45s-47 -54.833 -63 -95.5s-29 -96.334 -39 -167.001
s-15 -155.334 -15 -254.001c0 -93.333 3.66699 -174.5 11 -243.5s17 -124.5 29 -166.5s27.5 -75.667 46.5 -101s38.333 -42.5 58 -51.5s42.5 -13.5 68.5 -13.5c30.667 0 56.167 9 76.5 27s35.666 45.667 45.999 83s17.333 78.333 21 123s5.5 100.334 5.5 167.001
c0 30 -3 45 -9 45h-113c-6 0 -10.833 0.833008 -14.5 2.5s-7 5.83398 -10 12.501s-4.5 16 -4.5 28v82c0 18 2.5 29.833 7.5 35.5s11.833 8.5 20.5 8.5h269c17.333 0 26 -20.667 26 -62v-645c0 -20 -3.33301 -36.167 -10 -48.5s-14 -18.5 -22 -18.5z" />
    <glyph glyph-name="H" unicode="H" horiz-adv-x="947" 
d="M142 0c-9.33301 0 -16 2.83398 -20 8.50098s-6 18.5 -6 38.5v1344c0 20 2 32.833 6 38.5s10.667 8.5 20 8.5h145c9.33301 0 16 -2.83301 20 -8.5s6 -18.5 6 -38.5v-532c0 -6 1.16699 -11.333 3.5 -16s4.5 -7 6.5 -7h300c2 0 4.33301 2.5 7 7.5s4 10.5 4 16.5v531
c0 19.333 2.16699 32 6.5 38s10.833 9 19.5 9h147c8.66699 0 15 -2.83301 19 -8.5s6 -18.5 6 -38.5v-1344c0 -20 -2 -32.833 -6 -38.5s-10.333 -8.5 -19 -8.5h-147c-6 0 -10.667 0.833008 -14 2.5s-6.33301 6.16699 -9 13.5s-4 17.666 -4 30.999v611
c0 14 -3.66699 21 -11 21h-297c-6.66699 0 -10 -7 -10 -21v-611c0 -19.333 -2.16699 -32 -6.5 -38s-10.833 -9 -19.5 -9h-147z" />
    <glyph glyph-name="I" unicode="I" horiz-adv-x="430" 
d="M143 0c-6 0 -10.666 0.833008 -13.999 2.5s-6.16602 6.16699 -8.49902 13.5s-3.5 17.666 -3.5 30.999v1344c0 19.333 2.16699 32 6.5 38s10.833 9 19.5 9h147c5.33301 0 9.66602 -0.833008 12.999 -2.5s6.16602 -6.16699 8.49902 -13.5s3.5 -17.666 3.5 -30.999v-1344
c0 -19.333 -2 -32 -6 -38s-10.333 -9 -19 -9h-147z" />
    <glyph glyph-name="J" unicode="J" horiz-adv-x="534" 
d="M63 -155c-8.66699 0 -13.002 10.334 -13.002 31.001v129c0 21.333 4.33301 32.666 13 33.999c16.667 0.666992 29.334 1.66699 38.001 3s19.167 4 31.5 8s21.5 9.83301 27.5 17.5s13 18.167 21 31.5s13.667 30.166 17 50.499s6.83301 45.166 10.5 74.499
s6.16699 63.833 7.5 103.5s2 85.167 2 136.5v931c0 28.667 5.33301 43 16 43h165c11.333 0 17 -14.333 17 -43v-983c0 -106.667 -6.83301 -196.667 -20.5 -270s-29.667 -129.166 -48 -167.499s-45.166 -67.666 -80.499 -87.999s-66.5 -32.333 -93.5 -36
s-63.833 -5.5 -110.5 -5.5z" />
    <glyph glyph-name="K" unicode="K" horiz-adv-x="814" 
d="M141 0c-16.667 0 -25 18 -25 54v1330c0 36 8.33301 54 25 54h146c17.333 0 26 -18 26 -54v-659l245 662c12 34 26.333 51 43 51h148c14 0 21 -7.66699 21 -23c0 -9.33301 -2 -19 -6 -29l-242 -616c-4.66699 -16 -7 -28.333 -7 -37s1.33301 -18 4 -28l258 -650
c4.66699 -12 7 -22.667 7 -32c0 -15.333 -4.33301 -23 -13 -23h-146c-18 -0 -33.667 17.333 -47 52l-264 626v-626c0 -34.667 -9 -52 -27 -52h-146z" />
    <glyph glyph-name="L" unicode="L" horiz-adv-x="652" 
d="M141 0c-8.66699 0 -15 2.83398 -19 8.50098s-6 18.5 -6 38.5v1344c0 20 2 32.833 6 38.5s10.333 8.5 19 8.5h147c8.66699 0 15 -2.83301 19 -8.5s6 -18.5 6 -38.5v-1210c0 -14.667 4.66699 -22 14 -22h260c8.66699 0 15 -2.33301 19 -7s6 -15.334 6 -32.001v-80
c0 -16.667 -2 -27.5 -6 -32.5s-10.333 -7.5 -19 -7.5h-446z" />
    <glyph glyph-name="M" unicode="M" horiz-adv-x="1082" 
d="M121 0c-16 0 -24.0029 16.333 -24.0029 49v5l45 1327c0.666992 36.667 9 55.667 25 57h158c10 -0.666992 18.333 -4 25 -10s11.667 -18.333 15 -37l169 -946c0.666992 -2.66699 1.83398 -4.66699 3.50098 -6s3.33398 -1.33301 5.00098 0s2.5 3.33301 2.5 6l170 943
c6 32 19 48.667 39 50h160c16 -1.33301 24 -20.333 24 -57l47 -1327v-6c0 -32 -8.33301 -48 -25 -48h-110c-16 0 -24.667 18 -26 54l-31 1027c0 4 -1 6.33301 -3 7s-3.33301 -0.333008 -4 -3l-182 -1037c-5.33301 -32 -16.666 -48 -33.999 -48h-65c-16 0 -27.333 16 -34 48
l-177 1032c-0.666992 4 -2 4.66699 -4 2c-0.666992 -1.33301 -1 -3.33301 -1 -6l-32 -1022c0 -36 -7.66699 -54 -23 -54h-113z" />
    <glyph glyph-name="N" unicode="N" horiz-adv-x="962" 
d="M142 0c-8.66699 0 -15.166 3.33496 -19.499 10.002s-6.5 20 -6.5 40v1335c0 35.333 8.66699 53 26 53h152c14 0 26 -13 36 -39l339 -911c1.33301 -4.66699 3.33301 -3.33398 6 3.99902l1 9v884c0 35.333 9 53 27 53h119c16.667 0 25 -17.667 25 -53v-1339
c0 -20 -2 -32.833 -6 -38.5s-10.333 -8.5 -19 -8.5h-108c-6.66699 0 -13.834 4 -21.501 12s-13.834 18 -18.501 30l-377 984c-2.66699 5.33301 -4.66699 3.66602 -6 -5.00098c-0.666992 -2 -1 -4.33301 -1 -7v-963c0 -20 -2.16699 -33.333 -6.5 -40s-11.166 -10 -20.499 -10
h-121z" />
    <glyph glyph-name="O" unicode="O" horiz-adv-x="924" 
d="M461 143c46.667 0 82.334 15.834 107.001 47.501s42.667 89 54 172s17 204.167 17 363.5c0 154 -5.33301 270.667 -16 350s-28.167 135.166 -52.5 167.499s-60.5 48.5 -108.5 48.5c-46.667 0 -82.5 -16.5 -107.5 -49.5s-42.833 -89.5 -53.5 -169.5s-16 -195.667 -16 -347
c0 -158 5.66699 -278.5 17 -361.5s29.166 -140.667 53.499 -173s59.5 -48.5 105.5 -48.5zM462 -14.999c-55.333 0 -102.165 5.99707 -140.498 17.9971s-73.166 33.833 -104.499 65.5s-56 75.5 -74 131.5s-31.833 126.833 -41.5 212.5s-14.5 190.167 -14.5 313.5
c0 98.667 3.16699 185.334 9.5 260.001s16.666 139 30.999 193s31.166 98.667 50.499 134s43.666 63.5 72.999 84.5s60.666 35.667 93.999 44s72.333 12.5 117 12.5c54 0 100.167 -6.16699 138.5 -18.5s73.166 -34.166 104.499 -65.499s56.333 -74.5 75 -129.5
s32.834 -124.667 42.501 -209s14.5 -186.166 14.5 -305.499c0 -124 -4.66699 -229 -14 -315s-23 -157 -41 -213s-42.667 -99.5 -74 -130.5s-66.166 -52.5 -104.499 -64.5s-85.5 -18 -141.5 -18z" />
    <glyph glyph-name="P" unicode="P" horiz-adv-x="866" 
d="M141 0c-16.667 0 -25.001 17.333 -25.001 52v1339c0 19.333 2 32 6 38s10.333 9 19 9h294c30.667 0 57.167 -1 79.5 -3s47.333 -6.66699 75 -14s51.167 -17.5 70.5 -30.5s38.833 -31.333 58.5 -55s35.5 -51.834 47.5 -84.501s21.833 -73.167 29.5 -121.5
s11.5 -103.166 11.5 -164.499c0 -80 -6.5 -149 -19.5 -207s-29.5 -103.333 -49.5 -136s-45.833 -58.5 -77.5 -77.5s-62.167 -31.167 -91.5 -36.5s-63.666 -8 -102.999 -8h-142c-7.33301 0 -11 -6 -11 -18v-430c0 -34.667 -8.33301 -52 -25 -52h-147zM322.999 660h120
c27.333 0 49.666 2.16699 66.999 6.5s33 12.5 47 24.5s24.5 29.667 31.5 53s12.333 52.5 16 87.5s5.5 79.167 5.5 132.5c0 57.333 -3.16699 105.833 -9.5 145.5s-14.166 70.5 -23.499 92.5s-22.833 38.833 -40.5 50.5s-34.5 19 -50.5 22s-36.667 4.5 -62 4.5h-101
c-6.66699 0 -10 -6.66699 -10 -20v-581c0 -12 3.33301 -18 10 -18z" />
    <glyph glyph-name="Q" unicode="Q" horiz-adv-x="952" 
d="M542 -346l-74 330.993c-14 -1.33301 -26.667 -1.66602 -38 -0.999023c-49.333 3.33301 -91.166 12 -125.499 26s-66 37.333 -95 70s-52 76.5 -69 131.5s-30.167 124.5 -39.5 208.5s-14 184.667 -14 302c0 120.667 5.5 223.834 16.5 309.501s26.333 155.834 46 210.501
s46 97.834 79 129.501s68.833 53.334 107.5 65.001s85.334 17.5 140.001 17.5s101.334 -5.83301 140.001 -17.5s74.667 -33 108 -64s59.666 -73.833 78.999 -128.5s34.5 -125 45.5 -211s16.5 -189.667 16.5 -311c0 -166.667 -9.16699 -300.667 -27.5 -402
s-45 -175.833 -80 -223.5s-81.833 -80.167 -140.5 -97.5c3.33301 -18 11 -53.833 23 -107.5l32 -147c9.33301 -44.333 14 -70.166 14 -77.499c2 -12.667 2 -22.667 0 -30s-7.66699 -12.666 -17 -15.999c-4.66699 -1.33301 -19.334 -5 -44.001 -11s-39.334 -9 -44.001 -9
c-18 0 -31 17.667 -39 53zM475 142.993c48 0 85.001 14.1699 111.001 42.5029s46 84.666 60 168.999s21 206.833 21 367.5c0 155.333 -6.5 274.166 -19.5 356.499s-32.667 138.5 -59 168.5s-63.833 45 -112.5 45c-48 0 -85.167 -15.5 -111.5 -46.5
s-46.166 -87.833 -59.499 -170.5s-20 -200.334 -20 -353.001c0 -120 3.5 -218 10.5 -294s18.667 -135 35 -177s35.666 -70.5 57.999 -85.5s51.166 -22.5 86.499 -22.5z" />
    <glyph glyph-name="R" unicode="R" horiz-adv-x="924" 
d="M141 0c-8.66699 0 -14.999 2.83008 -18.999 8.49707s-6 17.834 -6 36.501v1347c0 20 2 32.667 6 38s10.333 8 19 8h336c42 0 77.833 -2.33301 107.5 -7s60.167 -14.667 91.5 -30s56.5 -36.666 75.5 -63.999s34.667 -64.666 47 -111.999s18.5 -104.333 18.5 -171
c0 -50 -3.66699 -93.5 -11 -130.5s-18.333 -67 -33 -90s-30.5 -41.167 -47.5 -54.5s-37.5 -24.666 -61.5 -33.999c-2 -2 -3 -4 -3 -6s1 -3.66699 3 -5c24 -11.333 43.5 -23 58.5 -35s30.167 -29.5 45.5 -52.5s27 -54.167 35 -93.5s13 -87.666 15 -144.999
c2.66699 -52 4 -171.333 4 -358c0 -33.333 -6 -50 -18 -50c-103.333 -0.666992 -156.333 -1 -159 -1c-10.667 0 -16.334 15 -17.001 45c0 4.66699 -2 79.334 -6 224.001s-8.33301 228 -13 250c-2 27.333 -7.5 50.166 -16.5 68.499s-20.667 31.666 -35 39.999
s-28.5 14 -42.5 17s-30 4.5 -48 4.5h-143c-7.33301 0 -11 -7.33301 -11 -22v-581c0 -18.667 -2 -30.834 -6 -36.501s-10.333 -8.5 -19 -8.5h-147zM323.001 803.997h128.999c111.333 0 167 81 167 243c0 86 -15.167 146.167 -45.5 180.5s-81.166 51.5 -152.499 51.5h-97
c-7.33301 0 -11 -6.66699 -11 -20v-428c0 -18 3.33301 -27 10 -27z" />
    <glyph glyph-name="S" unicode="S" horiz-adv-x="776" 
d="M407 1454c125.333 0 222.998 -45.665 292.998 -136.998c6.66699 -8.66699 10 -19 10 -31c0 -23.333 -9.83301 -48 -29.5 -74s-36.167 -39 -49.5 -39c-4 0 -7 1.33301 -9 4c-59.333 72 -130 108 -212 108c-46 0 -83 -19.5 -111 -58.5s-42 -86.5 -42 -142.5
c0 -52.667 12 -95.667 36 -129s58.333 -64.333 103 -93l127 -82c134 -86.667 201 -213.334 201 -380.001c0 -122 -31 -221.667 -93 -299s-145.333 -116 -250 -116c-141.333 0 -252.666 61 -333.999 183c-4 6 -6 13.667 -6 23c0 23.333 9.5 48.833 28.5 76.5
s37.167 41.5 54.5 41.5c6.66699 0 12.667 -3 18 -9c74.667 -95.333 154.334 -143 239.001 -143c52 0 92.667 20.167 122 60.5s44 91.5 44 153.5c0 56 -11.667 101.5 -35 136.5s-59 68.167 -107 99.5l-128 86c-28 18.667 -52.333 38 -73 58s-40.5 44.167 -59.5 72.5
s-33.667 61.666 -44 99.999s-15.5 80.5 -15.5 126.5c0 120 29.167 217.333 87.5 292s136.5 112 234.5 112z" />
    <glyph glyph-name="T" unicode="T" horiz-adv-x="663" 
d="M260 0c-8 0 -14.167 3.16797 -18.5 9.50098s-6.5 19.166 -6.5 38.499v1204c0 16.667 -3.66699 25 -11 25h-174c-6.66699 0 -11.5 0.5 -14.5 1.5s-5.66699 4.33301 -8 10s-3.5 14.5 -3.5 26.5v79c0 18 2 29.833 6 35.5s10.667 8.5 20 8.5h565
c8.66699 0 15 -2.83301 19 -8.5s6 -17.5 6 -35.5v-79c0 -16.667 -1.83301 -27.167 -5.5 -31.5s-10.167 -6.5 -19.5 -6.5h-171c-7.33301 0 -11 -8.33301 -11 -25v-1204c0 -20 -2.16699 -33 -6.5 -39s-10.833 -9 -19.5 -9h-147z" />
    <glyph glyph-name="U" unicode="U" horiz-adv-x="953" 
d="M480 -15c-36 0 -66.998 1.49902 -92.998 4.49902s-53 9.33301 -81 19s-51.667 23.167 -71 40.5s-38.166 40.833 -56.499 70.5s-32.833 65.5 -43.5 107.5s-19.167 92.667 -25.5 152s-9.5 127.333 -9.5 204v808c0 19.333 2.16699 32 6.5 38s10.833 9 19.5 9h147
c5.33301 0 9.66602 -0.833008 12.999 -2.5s6.16602 -6.16699 8.49902 -13.5s3.5 -17.666 3.5 -30.999v-802c0 -78.667 2.33301 -144.667 7 -198s11.334 -96.333 20.001 -129s20.834 -57.5 36.501 -74.5s32.167 -28.333 49.5 -34s40 -8.5 68 -8.5
c35.333 0 62.666 4 81.999 12s37 27 53 57s26.833 74.667 32.5 134s8.5 139.666 8.5 240.999v802c0 20 2 32.833 6 38.5s10.333 8.5 19 8.5h148c5.33301 0 9.5 -0.833008 12.5 -2.5s5.66699 -6.16699 8 -13.5s3.5 -17.666 3.5 -30.999v-808
c0 -77.333 -3.16699 -146.166 -9.5 -206.499s-14.833 -111.333 -25.5 -153s-25.167 -77.167 -43.5 -106.5s-37 -52.5 -56 -69.5s-42.333 -30.333 -70 -40s-53.834 -15.834 -78.501 -18.501s-54.334 -4 -89.001 -4z" />
    <glyph glyph-name="V" unicode="V" horiz-adv-x="800" 
d="M332 0c-16.667 1.33301 -29 22.666 -37 63.999l-250 1307c-1.33301 12 -2 20.333 -2 25c0 28 5.33301 42 16 42h147c17.333 0 29.666 -21.667 36.999 -65l173 -1047l168 1047c6.66699 43.333 19 65 37 65h121c10 0 15 -13 15 -39c0 -12 -0.666992 -21.333 -2 -28
l-239 -1307c-7.33301 -41.333 -19.666 -62.666 -36.999 -63.999h-147z" />
    <glyph glyph-name="W" unicode="W" horiz-adv-x="1130" 
d="M272 0c-17.333 1.33301 -29.334 24.333 -36.001 69l-181 1300c-1.33301 6.66699 -2 16 -2 28c0 27.333 5.33301 41 16 41h131c8 0 15.333 -6.33301 22 -19s11.334 -29.667 14.001 -51l111 -949l135 946c2.66699 20.667 7.5 36.5 14.5 47.5s14.5 16.5 22.5 16.5h108
c17.333 -2 29 -23.333 35 -64l143 -966l112 970c2.66699 20.667 7.16699 37.334 13.5 50.001s13.5 19 21.5 19h113c10.667 0 16 -13.667 16 -41c0 -8.66699 -1 -18 -3 -28l-177 -1300c-6.66699 -44.667 -18 -67.667 -34 -69h-122c-17.333 1.33301 -29.333 24.666 -36 69.999
l-150 933l-145 -934c-5.33301 -42.667 -16 -65.667 -32 -69h-110z" />
    <glyph glyph-name="X" unicode="X" horiz-adv-x="809" 
d="M61 0c-7.33301 0 -11.001 9 -11.001 27c0 8.66699 2 18.667 6 30l249 641l-239 681c-4 16 -6 26.667 -6 32c0 18 3.66699 27 11 27h193c18 0 33.333 -17.667 46 -53l128 -366l140 369c12.667 33.333 28.334 50 47.001 50h119c8.66699 0 13 -9 13 -27
c0 -10 -1.66699 -18.333 -5 -25l-232 -593l249 -734c3.33301 -8 5 -17.667 5 -29c0 -20 -4.33301 -30 -13 -30h-179c-18 -0 -33 17.333 -45 52l-148 424l-166 -426c-13.333 -33.333 -28.333 -50 -45 -50h-117z" />
    <glyph glyph-name="Y" unicode="Y" horiz-adv-x="732" 
d="M295 0c-8.66699 0 -15 3.5 -19 10.5s-6 20.5 -6 40.5v427l-231 900c-3.33301 10 -5 19.667 -5 29c0 20.667 5.33301 31 16 31h148c18.667 0 32.667 -17.667 42 -53l141 -565l138 564c4 16 9.66699 29 17 39s15 15 23 15h125c10.667 0 16 -10.667 16 -32
c0 -8.66699 -1.33301 -18 -4 -28l-228 -897v-430c0 -34 -8.33301 -51 -25 -51h-148z" />
    <glyph glyph-name="Z" unicode="Z" horiz-adv-x="715" 
d="M108 0c-5.33301 0 -9.66406 0.667969 -12.9971 2.00098s-6.16602 5 -8.49902 11s-3.5 15 -3.5 27v60c0 23.333 5.33301 51.666 16 84.999l312 1060c2.66699 5.33301 4 11.333 4 18c0 10.667 -2.33301 16 -7 16h-291c-6 0 -10.5 0.666992 -13.5 2s-5.66699 5 -8 11
s-3.5 15 -3.5 27v79c0 16.667 2 27.5 6 32.5s10.333 7.5 19 7.5h507c5.33301 0 9.66602 -0.666992 12.999 -2s6.16602 -5 8.49902 -11s3.5 -15 3.5 -27v-45c0 -27.333 -5.66699 -61.333 -17 -102l-316 -1062c-1.33301 -6.66699 -2 -12 -2 -16c0 -9.33301 2 -14 6 -14h316h4
c5.33301 0 9.16602 -0.333008 11.499 -1s4.66602 -3.66699 6.99902 -9s3.5 -13.333 3.5 -24v-85c0 -16.667 -2.16699 -27.5 -6.5 -32.5s-10.833 -7.5 -19.5 -7.5h-528z" />
    <glyph glyph-name="bracketleft" unicode="[" horiz-adv-x="583" 
d="M144 -125c-18.667 0 -27.667 20.333 -27 61v1472c-0.666992 38.667 8.33301 58 27 58h311c17.333 0 26 -17 26 -51v-108c0 -34 -8.33301 -51 -25 -51h-130c-8 0 -12 -11 -12 -33v-1111c0 -21.333 4 -32 12 -32h129c17.333 0 26 -19.333 26 -58v-93
c0 -36 -8.66699 -54 -26 -54h-311z" />
    <glyph glyph-name="backslash" unicode="\" horiz-adv-x="581" 
d="M345 -206c-7.33301 0 -12.667 11.668 -16 35.001l-235 1783c0 0.666992 -0.166992 2 -0.5 4s-0.5 3.66699 -0.5 5c0 17.333 3 26 9 26h139c8.66699 0 14 -11.667 16 -35l234 -1782c0.666992 -2.66699 1 -6.33398 1 -11.001c0 -16 -2.66699 -24 -8 -24z" />
    <glyph glyph-name="bracketright" unicode="]" horiz-adv-x="584" 
d="M129 -128c-8.66699 0 -15.165 3.33301 -19.498 10s-6.5 20 -6.5 40v126c0 34 8.66699 51 26 51h129c7.33301 0 11 11 11 33v1078c0 21.333 -3.66699 32 -11 32h-129c-17.333 0 -26 19.667 -26 59v108c0 38 8.66699 57 26 57h312c7.33301 0 13.666 -5.5 18.999 -16.5
s7.66602 -26.833 6.99902 -47.5v-1473c0.666992 -38 -8 -57 -26 -57h-312z" />
    <glyph glyph-name="asciicircum" unicode="^" horiz-adv-x="1030" 
d="M118 351c-18.667 0 -27.999 9.66602 -27.999 28.999c0 11.333 2.66699 24 8 38l311 872c9.33301 24 19.333 41.167 30 51.5s27 15.5 49 15.5h51c21.333 0 36.833 -5 46.5 -15s19.834 -27.667 30.501 -53l317 -870c5.33301 -16 8 -28.333 8 -37
c0 -20.667 -9.66699 -31 -29 -31h-78c-14 0 -25.833 5 -35.5 15s-18.5 28 -26.5 54l-238 680c-4 12.667 -7.33301 21 -10 25s-6.33398 6 -11.001 6s-8.33398 -2 -11.001 -6s-6 -12.333 -10 -25l-229 -680c-8.66699 -27.333 -17.667 -45.666 -27 -54.999s-23 -14 -41 -14h-77
z" />
    <glyph glyph-name="underscore" unicode="_" horiz-adv-x="949" 
d="M122 -126c-17.333 0 -30 3.83301 -38 11.5s-12 20.5 -12 38.5v47c0 18.667 4 31.667 12 39s20.667 11 38 11h705c16.667 0 29 -3.66699 37 -11s12 -20 12 -38v-48c0 -33.333 -16.333 -50 -49 -50h-705z" />
    <glyph glyph-name="grave" unicode="`" horiz-adv-x="597" 
d="M434 1169c-8 0 -14.333 13 -19 39l-63 341c-2.66699 16 -4 28.333 -4 37c0 18.667 3.33301 28 10 28h82c7.33301 0 12.833 -3.83301 16.5 -11.5s6.16699 -22.167 7.5 -43.5l22 -323c0.666992 -9.33301 1 -21 1 -35c0 -21.333 -5 -32 -15 -32h-38z" />
    <glyph glyph-name="a" unicode="a" horiz-adv-x="724" 
d="M286 -12c-66 0 -117.168 21.3369 -153.501 64.0039s-54.5 104.667 -54.5 186c0 60.667 9.16699 113.667 27.5 159s41.333 79.666 69 102.999s58.167 42.666 91.5 57.999s64.333 25.333 93 30s53.834 9.16699 75.501 13.5s34.167 8.83301 37.5 13.5v53
c0 71.333 -7.83301 124.833 -23.5 160.5s-44.167 53.5 -85.5 53.5c-34.667 0 -61.167 -10.833 -79.5 -32.5s-33.833 -54.834 -46.5 -99.501c-6 -18.667 -14 -27.334 -24 -26.001c-70 17.333 -105.333 28.666 -106 33.999c-4 2 -6.16699 9.66699 -6.5 23
s1.16699 25.666 4.5 36.999c17.333 65.333 47 114.833 89 148.5s102 50.5 180 50.5c42 0 78.5 -6.83301 109.5 -20.5s58.167 -36.167 81.5 -67.5s40.833 -73.833 52.5 -127.5s17.5 -119.167 17.5 -196.5v-555c0 -34 -7 -51 -21 -51h-32c-12 0 -22.667 14.667 -32 44
c-1.33301 6.66699 -7.83301 28.334 -19.5 65.001s-18.167 58.667 -19.5 66c-0.666992 2 -1.5 3.33301 -2.5 4s-2.16699 0.666992 -3.5 0s-2 -2 -2 -4c-18 -61.333 -43.833 -107.666 -77.5 -138.999s-80.167 -47 -139.5 -47zM320.999 116.004
c46.667 0 84.167 30.668 112.5 92.001s42.5 134.666 42.5 219.999c0 50.667 -3 76 -9 76c-12 0 -22 -2 -30 -6c-72 -18 -124.833 -47.333 -158.5 -88s-50.5 -93.667 -50.5 -159c0 -90 31 -135 93 -135z" />
    <glyph glyph-name="b" unicode="b" horiz-adv-x="765" 
d="M433 -11c-106.667 0 -179.334 68 -218.001 204c-1.33301 3.33301 -2.66602 5 -3.99902 5c-2.66699 0 -6.66699 -16.5 -12 -49.5s-12.166 -66 -20.499 -99s-17.166 -49.5 -26.499 -49.5h-28c-13.333 0 -20 20.667 -20 62v1293c0 21.333 2.33301 38.833 7 52.5
s10.667 20.5 18 20.5h111c7.33301 0 13.333 -6.83301 18 -20.5s7 -31.167 7 -52.5v-471c0 -10 1.66699 -15 5 -15s5.66602 2.33301 6.99902 7c18.667 47.333 42.834 82.833 72.501 106.5s61.834 35.5 96.501 35.5c31.333 0 60.666 -8.83301 87.999 -26.5
s52.666 -45.5 75.999 -83.5s41.666 -91.833 54.999 -161.5s20 -151.834 20 -246.501c0 -90 -7.16699 -169.167 -21.5 -237.5s-33.833 -121.666 -58.5 -159.999s-51.5 -66.833 -80.5 -85.5s-59.5 -28 -91.5 -28zM399 125c79.333 0 118.999 128.667 118.999 386
c0 118.667 -10.667 210.167 -32 274.5s-50.666 96.5 -87.999 96.5c-38.667 0 -70.5 -34.167 -95.5 -102.5s-37.5 -157.833 -37.5 -268.5s12.5 -202.667 37.5 -276s57.167 -110 96.5 -110z" />
    <glyph glyph-name="c" unicode="c" horiz-adv-x="582" 
d="M395 -11c-24 0 -45.833 1.33691 -65.5 4.00391s-40.667 8.5 -63 17.5s-42 21 -59 36s-33.833 35.667 -50.5 62s-30.334 57.5 -41.001 93.5s-19.167 80 -25.5 132s-9.5 110.333 -9.5 175c0 83.333 5.66699 156.166 17 218.499s26.166 111.666 44.499 147.999
s41 65.5 68 87.5s53.5 36.667 79.5 44s55 11 87 11c40.667 0 85.334 -7.66699 134.001 -23c2.66699 -0.666992 5.33398 -2.66699 8.00098 -6s4 -6.33301 4 -9v-106c0.666992 -4.66699 -0.333008 -8.83398 -3 -12.501s-5.66699 -4.83398 -9 -3.50098
c-40.667 12 -71.334 18 -92.001 18c-19.333 0 -35.666 -1.66699 -48.999 -5s-27.833 -11.833 -43.5 -25.5s-28.334 -33.167 -38.001 -58.5s-17.667 -61.5 -24 -108.5s-9.5 -103.5 -9.5 -169.5c0 -69.333 3 -128.166 9 -176.499s13.333 -85.5 22 -111.5
s20.834 -45.833 36.501 -59.5s30.167 -22 43.5 -25s31 -4.5 53 -4.5c26.667 0 57.334 5.33301 92.001 16c2.66699 -0.666992 5.5 -3.33398 8.5 -8.00098s4.5 -9 4.5 -13v-99c0 -11.333 -4.33301 -18.333 -13 -21c-36.667 -11.333 -75.334 -17.333 -116.001 -18z" />
    <glyph glyph-name="d" unicode="d" horiz-adv-x="789" 
d="M342 -11c-175.333 0 -263.001 170.333 -263.001 511c0 345.333 85.333 518 256 518c74 0 128.667 -46.667 164 -140c4.66699 -6.66699 7.33398 -10 8.00098 -10c2.66699 0 4 4.33301 4 13v487c0 40 8.33301 60 25 60h124c16.667 0 25 -20 25 -60v-1301
c0 -44.667 -8 -67 -24 -67h-29c-14.667 0 -26 20 -34 60c-18 102.667 -28.667 154.667 -32 156c-2 -2 -4.33301 -6 -7 -12c-18 -82.667 -45.333 -139.167 -82 -169.5s-81.667 -45.5 -135 -45.5zM509.999 511c0 126 -11.332 219.333 -33.999 280s-54.334 91 -95.001 91
c-20 0 -37.167 -5.16699 -51.5 -15.5s-27.5 -28.5 -39.5 -54.5s-21 -64.167 -27 -114.5s-9 -112.5 -9 -186.5c0 -103.333 5.33301 -184 16 -242s24.667 -96.5 42 -115.5s40 -28.5 68 -28.5c86.667 0 130 128.667 130 386z" />
    <glyph glyph-name="e" unicode="e" horiz-adv-x="695" 
d="M623 242c0 -74 -20.002 -134.666 -60.002 -181.999s-99.333 -71 -178 -71c-31.333 0 -60 3.5 -86 10.5s-53 21.5 -81 43.5s-51.667 51.167 -71 87.5s-35.166 86.333 -47.499 150s-18.5 138.167 -18.5 223.5c0 86 6 160.833 18 224.5s27.333 113.667 46 150
s41.5 65.333 68.5 87s52.833 35.834 77.5 42.501s52 10 82 10c172 0 258 -160.667 258 -482c0 -46.667 -8.33301 -70 -25 -70h-348c-5.33301 0 -8 -8.33301 -8 -25c0.666992 -101.333 12.834 -179.333 36.501 -234s58.167 -82 103.5 -82c22 0 40.5 5 55.5 15
s26.167 24.667 33.5 44s12.5 36.166 15.5 50.499s5.5 32.166 7.5 53.499c2 14.667 7.66699 22 17 22h81c15.333 0 23 -17.333 23 -52v-16zM254.998 572.001h229c1.33301 0 2 8.33301 2 25c-5.33301 190.667 -43.333 286 -114 286c-32.667 0 -60 -21 -82 -63
s-35 -108 -39 -198c0 -33.333 1.33301 -50 4 -50z" />
    <glyph glyph-name="f" unicode="f" horiz-adv-x="485" 
d="M152 0c-17.333 0 -26.001 20.3359 -26.001 61.0029v764c0 21.333 -2.33301 32 -7 32h-52c-8 0 -13.833 2.66699 -17.5 8s-5.5 16.333 -5.5 33v61c0 31.333 7.66699 47 23 47h52c4.66699 0 7 11.667 7 35c0 86 4.83301 157.167 14.5 213.5s24.834 99.166 45.501 128.499
s43.5 49.333 68.5 60s55.833 16 92.5 16c46 0 78.333 -2 97 -6c15.333 -2.66699 23 -14.667 23 -36v-65c0 -18.667 -0.666992 -30.834 -2 -36.501s-5 -8.5 -11 -8.5h-63c-35.333 0 -60.333 -14.833 -75 -44.5s-22 -83.834 -22 -162.501v-88c0 -4 1 -6 3 -6h141
c14.667 0 22 -14 22 -42v-66c0 -16 -1.83301 -26.833 -5.5 -32.5s-9.16699 -8.5 -16.5 -8.5h-136c-5.33301 0 -8 -10.667 -8 -32v-764c0 -40.667 -8.66699 -61 -26 -61h-116z" />
    <glyph glyph-name="g" unicode="g" horiz-adv-x="799" 
d="M436 456c41.333 0 72.833 19 94.5 57s32.5 90.333 32.5 157c0 70 -12.5 127.167 -37.5 171.5s-57.833 66.5 -98.5 66.5c-39.333 0 -70.5 -20.5 -93.5 -61.5s-34.5 -95.833 -34.5 -164.5c0 -72.667 12.5 -128.5 37.5 -167.5s58.167 -58.5 99.5 -58.5zM425 -202
c66 0 115.667 14.167 149 42.5s50 68.833 50 121.5c0 43.333 -11.833 72 -35.5 86s-57.167 21 -100.5 21h-114c-6 0 -14.333 -8.16699 -25 -24.5s-20.667 -38.333 -30 -66s-14 -54.167 -14 -79.5c0 -67.333 40 -101 120 -101zM411 -307
c-82.667 0 -146.668 14.667 -192.001 44s-68 70.666 -68 123.999c0 61.333 28.333 134.333 85 219c2.66699 3.33301 4 8 4 14c0 7.33301 -2 12.333 -6 15c-2 0.666992 -7.5 2.83398 -16.5 6.50098s-14.5 5.83398 -16.5 6.50098s-6.66699 2.66699 -14 6
s-11.833 5.83301 -13.5 7.5s-5.33398 4.33398 -11.001 8.00098s-9.16699 7 -10.5 10s-3.66602 7 -6.99902 12s-5.5 10 -6.5 15s-2 10.833 -3 17.5s-1.5 13.667 -1.5 21c0 31.333 4.33301 59.833 13 85.5s16.5 43.667 23.5 54s19.5 26.5 37.5 48.5c4.66699 6.66699 7 13 7 19
c0 7.33301 -2 13.333 -6 18c-21.333 23.333 -40.333 55.666 -57 96.999s-25 85.666 -25 132.999c0 103.333 24.5 186.5 73.5 249.5s121.5 94.5 217.5 94.5c17.333 0 40.666 -3.66699 69.999 -11c6.66699 -1.33301 11.334 -1 14.001 1s4.33398 6.66699 5.00098 14l10 258
c0.666992 13.333 2.66699 23.333 6 30s6.66602 10.667 9.99902 12s8.33301 2 15 2h81c4.66699 0 8.33398 -5.33301 11.001 -16s3 -19.667 1 -27l-66 -284c-2.66699 -11.333 -2.83398 -19.333 -0.500977 -24s7.83301 -9.66699 16.5 -15c86.667 -64 130 -158.333 130 -283
c0 -104.667 -23.333 -185.667 -70 -243s-116.334 -86 -209.001 -86c-46 0 -88.667 11.333 -128 34c-9.33301 -6.66699 -18.666 -20.5 -27.999 -41.5s-14 -43.167 -14 -66.5c0 -56 34.667 -84 104 -84h107c100 0 172 -17 216 -51s66 -88 66 -162
c0 -44 -7.66699 -83.167 -23 -117.5s-34.833 -61.5 -58.5 -81.5s-51.667 -36.5 -84 -49.5s-63.666 -21.833 -93.999 -26.5s-61.833 -7 -94.5 -7z" />
    <glyph glyph-name="h" unicode="h" horiz-adv-x="785" 
d="M130 0c-8.66699 0 -15.167 3.16699 -19.5 9.5s-6.5 19.5 -6.5 39.5v1335c0 35.333 8.66699 53 26 53h127c16.667 0 25 -17.667 25 -53v-506c0 -10 1.66699 -15 5 -15c2 0 4.33301 2 7 6c20.667 51.333 48.667 89 84 113s71 36 107 36c32.667 0 61 -7 85 -21
s45.667 -37.333 65 -70s34 -78.5 44 -137.5s15 -130.833 15 -215.5v-525c0 -20 -2.16699 -33.167 -6.5 -39.5s-10.5 -9.5 -18.5 -9.5h-128c-8.66699 0 -15 3.16699 -19 9.5s-6 19.5 -6 39.5v546c0 102.667 -7 176.167 -21 220.5s-38.333 66.5 -73 66.5
c-39.333 0 -72.5 -27.5 -99.5 -82.5s-40.5 -125.5 -40.5 -211.5v-539c0 -20 -2 -33.167 -6 -39.5s-10 -9.5 -18 -9.5h-128z" />
    <glyph glyph-name="i" unicode="i" 
d="M133 0c-16.667 0 -25 22.333 -25 67v873c0 44 8.33301 66 25 66h112c16 0 24 -22 24 -66v-873c0 -44.667 -8 -67 -24 -67h-112zM129 1161c-16.667 0 -25 18 -25 54v129c0 35.333 8.33301 53 25 53h119c16.667 0 25 -17.667 25 -53v-129c0 -36 -8.33301 -54 -25 -54h-119z
" />
    <glyph glyph-name="j" unicode="j" horiz-adv-x="404" 
d="M34 -335c-7.33301 0 -13.3311 5.33301 -17.998 16s-7 24.667 -7 42v61c0 34 8 51 24 51h39c25.333 0 44 10.5 56 31.5s18 63.5 18 127.5v946c0 44 8.33301 66 25 66h111c16.667 0 25 -22 25 -66v-943c0 -58.667 -3.33301 -109 -10 -151s-15.334 -74.5 -26.001 -97.5
s-24.834 -41 -42.501 -54s-34.5 -21.167 -50.5 -24.5s-36 -5 -60 -5h-84zM167.002 1161c-16.667 0 -25 18 -25 54v129c0 35.333 8.33301 53 25 53h119c16.667 0 25 -17.667 25 -53v-129c0 -36 -8.33301 -54 -25 -54h-119z" />
    <glyph glyph-name="k" unicode="k" horiz-adv-x="706" 
d="M130 0c-16.667 0 -24.998 20.334 -24.998 61.001v1341c0 40 8.33301 60 25 60h113c16.667 0 25 -20 25 -60v-852c0 -10 2 -15 6 -15l3 3l60 142l136 273c17.333 35.333 33.333 53 48 53h130c6 0 9 -7.33301 9 -22c0 -10.667 -3 -21 -9 -31l-192 -378
c-2.66699 -4.66699 -4 -11 -4 -19c0 -6.66699 1 -12.667 3 -18l210 -479c4 -9.33301 6 -19.333 6 -30c0 -19.333 -3.66699 -29 -11 -29h-127c-14.667 0 -27.334 16 -38.001 48l-153 424c-2.66699 6.66699 -5.33398 10 -8.00098 10c-4 0 -6.33301 -2.33301 -7 -7
c-2.66699 -4 -8.5 -15.167 -17.5 -33.5l-25.5 -51.5l-12 -25c-4.66699 -12.667 -7 -28.334 -7 -47.001v-257c0 -40.667 -8.33301 -61 -25 -61h-113z" />
    <glyph glyph-name="l" unicode="l" 
d="M135 0c-16.667 0 -25 18 -25 54v1348c0 40 8.33301 60 25 60h112c16.667 0 25 -20 25 -60v-1348c0 -36 -8.33301 -54 -25 -54h-112z" />
    <glyph glyph-name="m" unicode="m" horiz-adv-x="1104" 
d="M129 0c-7.33301 0 -13.333 6.16699 -18 18.5s-7 28.833 -7 49.5v865c0 21.333 2.16699 38.833 6.5 52.5s10.166 20.5 17.499 20.5h35c16.667 0 28.667 -20 36 -60l18 -135c2 -8 4.66699 -12 8 -12c2 0 4 4.33301 6 13c34 137.333 97.667 206 191 206
c85.333 0 144.666 -63.333 177.999 -190c2 -5.33301 4 -8 6 -8c4 0 6.33301 2.66699 7 8c16.667 62.667 42.834 110 78.501 142s72.167 48 109.5 48c26 0 48.667 -3 68 -9s38.5 -17.833 57.5 -35.5s34.5 -41.5 46.5 -71.5s21.667 -70.333 29 -121s11 -110.334 11 -179.001
v-534c0 -45.333 -8.33301 -68 -25 -68h-116c-16.667 0 -25 22.667 -25 68v552c0 101.333 -6.66699 170.333 -20 207s-35.666 55 -66.999 55c-34 0 -62.167 -23.5 -84.5 -70.5s-33.5 -121.5 -33.5 -223.5v-520c0 -20.667 -2.33301 -37.167 -7 -49.5s-10.667 -18.5 -18 -18.5
h-115c-17.333 0 -26 22.667 -26 68v539c0 104.667 -7 176.667 -21 216s-36 59 -66 59c-26.667 0 -49.167 -14.167 -67.5 -42.5s-31.333 -64.666 -39 -108.999s-11.5 -95.5 -11.5 -153.5v-509c0 -20.667 -2.33301 -37.167 -7 -49.5s-10.667 -18.5 -18 -18.5h-117z" />
    <glyph glyph-name="n" unicode="n" horiz-adv-x="789" 
d="M129 0c-8 0 -14.168 3.16992 -18.501 9.50293s-6.5 19.5 -6.5 39.5v897c0 40 8 60 24 60h43c9.33301 0 17 -3 23 -9s10.667 -18.667 14 -38l20 -126c1.33301 -7.33301 3.66602 -11 6.99902 -11c2.66699 0 4.66699 3.33301 6 10c11.333 38.667 25.833 71 43.5 97
s37.167 45.167 58.5 57.5s41.5 20.666 60.5 24.999s40.167 6.5 63.5 6.5c36.667 0 68.334 -6.66699 95.001 -20s50.5 -35.833 71.5 -67.5s36.833 -76.334 47.5 -134.001s16 -128.167 16 -211.5v-536c0 -20 -2 -33.167 -6 -39.5s-10.333 -9.5 -19 -9.5h-128
c-8.66699 0 -15 3.16699 -19 9.5s-6 19.5 -6 39.5v558c0 94 -7.16699 163.333 -21.5 208s-37.833 67 -70.5 67c-41.333 0 -75.666 -26.833 -102.999 -80.5s-41 -120.834 -41 -201.501v-551c0 -20 -2.16699 -33.167 -6.5 -39.5s-10.5 -9.5 -18.5 -9.5h-129z" />
    <glyph glyph-name="o" unicode="o" horiz-adv-x="768" 
d="M385 125c21.333 0 39.001 4.5 53.001 13.5s27 26.333 39 52s21 64.667 27 117s9 118.5 9 198.5c0 78 -3 142.667 -9 194s-15.167 89.833 -27.5 115.5s-25.5 43.167 -39.5 52.5s-31.333 14 -52 14s-38.167 -4.66699 -52.5 -14s-27.666 -26.833 -39.999 -52.5
s-21.5 -64 -27.5 -115s-9 -115.833 -9 -194.5c0 -80 2.83301 -146 8.5 -198s14.667 -91 27 -117s25.666 -43.5 39.999 -52.5s32.166 -13.5 53.499 -13.5zM385.001 -11c-22 0 -41.4941 1 -58.4941 3s-36.5 7 -58.5 15s-41.167 19 -57.5 33s-33.166 34 -50.499 60
s-31.333 56.667 -42 92s-19.5 79.833 -26.5 133.5s-10.5 113.834 -10.5 180.501s3.5 126.5 10.5 179.5s16.167 97.167 27.5 132.5s25.666 65.833 42.999 91.5s34.166 45.334 50.499 59.001s35.666 24.334 57.999 32.001s41.666 12.5 57.999 14.5s35.166 3 56.499 3
s40.166 -1 56.499 -3s35.5 -6.83301 57.5 -14.5s41.167 -18.334 57.5 -32.001s33.166 -33.334 50.499 -59.001s31.5 -56.167 42.5 -91.5s20 -79.5 27 -132.5s10.5 -112.833 10.5 -179.5s-3.5 -126.834 -10.5 -180.501s-15.833 -98.167 -26.5 -133.5s-24.5 -66 -41.5 -92
s-33.667 -46 -50 -60s-35.5 -25 -57.5 -33s-41.333 -13 -58 -15s-36 -3 -58 -3z" />
    <glyph glyph-name="p" unicode="p" horiz-adv-x="780" 
d="M127 -344c-15.333 0 -23.0039 23.0029 -23.0039 69.0029v1212c0 46.667 7.66699 70 23 70h26c16.667 0 28.667 -23.333 36 -70c0.666992 -3.33301 3 -15.833 7 -37.5s7.66699 -42.834 11 -63.501s5 -32.667 5 -36c1.33301 -7.33301 3.33301 -11 6 -11c2 0 4 3 6 9
c18.667 75.333 47.834 130.666 87.501 165.999s82.167 53 127.5 53c26.667 0 52.167 -5.83301 76.5 -17.5s47.833 -30.5 70.5 -56.5s42.334 -58.167 59.001 -96.5s29.834 -86.333 39.501 -144s14.5 -121.834 14.5 -192.501c0 -181.333 -23.167 -313.5 -69.5 -396.5
s-108.166 -124.5 -185.499 -124.5c-34 0 -66 12.833 -96 38.5s-53.333 62.5 -70 110.5c-1.33301 4 -3.33301 6 -6 6c-4 0 -6 -4.33301 -6 -13v-406c0 -46 -8 -69 -24 -69h-115zM398.996 125.003c83.333 0 125 125 125 375c0 119.333 -11.5 212.833 -34.5 280.5
s-53.5 101.5 -91.5 101.5c-40 0 -72 -34.333 -96 -103s-36 -161.667 -36 -279c0 -120 12.167 -212.5 36.5 -277.5s56.5 -97.5 96.5 -97.5z" />
    <glyph glyph-name="q" unicode="q" horiz-adv-x="769" 
d="M529 -344c-15.333 0 -23.001 17.332 -23.001 51.999l-1 423c0 8.66699 -2 13 -6 13c-3.33301 0 -5.33301 -2 -6 -6c-17.333 -48 -40.333 -84.833 -69 -110.5s-60 -38.5 -94 -38.5c-166 0 -249 173.667 -249 521c0 90.667 7.33301 170 22 238s34.667 121 60 159
s52.833 66 82.5 84s61.5 27 95.5 27c45.333 0 86.333 -18.667 123 -56s64.334 -94.666 83.001 -171.999c2 -6 4 -9 6 -9c2.66699 0 4.66699 3.66699 6 11c0 4 7.66699 55.667 23 155c7.33301 40.667 19.333 61 36 61h26c15.333 0 23 -20.333 23 -61v-1239
c0 -20.667 -1.83301 -34.5 -5.5 -41.5s-9.5 -10.5 -17.5 -10.5h-115zM375.999 124.999c39.333 0 70.832 32.5 94.499 97.5s35.5 157.5 35.5 277.5c0 118 -11.667 211.167 -35 279.5s-54.666 102.5 -93.999 102.5c-38 0 -67.833 -33.5 -89.5 -100.5
s-32.5 -160.833 -32.5 -281.5c0 -250 40.333 -375 121 -375z" />
    <glyph glyph-name="r" unicode="r" horiz-adv-x="496" 
d="M129 0c-7.33301 0 -13.3311 6.33496 -17.998 19.002s-7 29.334 -7 50.001v860c0 51.333 6.33301 77 19 77h38c7.33301 0 13 -4.83301 17 -14.5s8.33301 -26.167 13 -49.5l23 -136c1.33301 -10 3.66602 -15 6.99902 -15c2.66699 0 4.66699 5 6 15c20 70.667 44 123 72 157
s57 51.667 87 53h16c17.333 0 29 -4.33301 35 -13s9 -22.334 9 -41.001v-100c0 -16 -1.33301 -26.333 -4 -31s-7.33398 -7 -14.001 -7c-25.333 0 -43 -2 -53 -6c-36.667 -10.667 -64 -46.334 -82 -107.001s-27 -124.667 -27 -192v-450
c0 -20.667 -2.33301 -37.334 -7 -50.001s-10.667 -19 -18 -19h-112z" />
    <glyph glyph-name="s" unicode="s" horiz-adv-x="596" 
d="M289 -11c-46 0 -90.834 10.998 -134.501 32.998s-81.834 52.667 -114.501 92l59 115c60.667 -69.333 122 -104 184 -104c38 0 66.833 13.167 86.5 39.5s29.5 58.5 29.5 96.5c0 36.667 -10.167 66.834 -30.5 90.501s-56.833 53.834 -109.5 90.501
c-31.333 22 -56.5 41.167 -75.5 57.5s-37.5 36.5 -55.5 60.5s-31.167 51.167 -39.5 81.5s-12.5 65.5 -12.5 105.5c0 78 21.667 142.667 65 194s100 77 170 77c84.667 0 157.334 -33.667 218.001 -101l-62 -119c-47.333 52 -95 78 -143 78
c-31.333 0 -55.666 -11.167 -72.999 -33.5s-26 -50.166 -26 -83.499c0 -37.333 10.333 -68.833 31 -94.5s52 -51.834 94 -78.501c30 -19.333 55.5 -38 76.5 -56s41.333 -39.833 61 -65.5s34.5 -55.5 44.5 -89.5s15 -72.333 15 -115c0 -84 -22.5 -150.167 -67.5 -198.5
s-108.5 -72.5 -190.5 -72.5z" />
    <glyph glyph-name="t" unicode="t" horiz-adv-x="522" 
d="M361 -2c-26.667 0 -49.832 1.83301 -69.499 5.5s-40.167 12 -61.5 25s-38.833 30.833 -52.5 53.5s-24.834 54.334 -33.501 95.001s-13 89 -13 145v513c0 13.333 -3.66699 20 -11 20h-62c-16.667 0 -25 16 -25 48v54c0 32.667 8.33301 49 25 49h62c7.33301 0 11 9 11 27
l18 389c2 35.333 10.667 53 26 53h100c16.667 0 25 -17.667 25 -53v-389c0 -18 4 -27 12 -27h128c16.667 0 25 -16.333 25 -49v-54c0 -32 -8.33301 -48 -25 -48h-128c-4.66699 0 -7.83398 -1.16699 -9.50098 -3.5s-2.5 -7.83301 -2.5 -16.5v-516
c0 -38.667 2.5 -70.834 7.5 -96.501s12.333 -44.5 22 -56.5s19.334 -20 29.001 -24s21.5 -6 35.5 -6h71c18 0 27 -12.333 27 -37v-60c0 -27.333 -9.66699 -41 -29 -41h-102z" />
    <glyph glyph-name="u" unicode="u" horiz-adv-x="755" 
d="M326 -11c-27.333 0 -51.833 3.16699 -73.5 9.5s-42.834 18 -63.501 35s-38 39.5 -52 67.5s-25.167 64.833 -33.5 110.5s-12.5 99.167 -12.5 160.5v585c0 20 2.16699 33.167 6.5 39.5s10.833 9.5 19.5 9.5h118c8 0 14.167 -3.16699 18.5 -9.5s6.5 -19.5 6.5 -39.5v-612
c0 -79.333 8.33301 -135.833 25 -169.5s42.334 -50.5 77.001 -50.5c38.667 0 70 26.5 94 79.5s36 114.833 36 185.5v567c0 20 2.16699 33.167 6.5 39.5s10.833 9.5 19.5 9.5h112c8.66699 0 15.167 -3.16699 19.5 -9.5s6.5 -19.5 6.5 -39.5v-896
c0 -40.667 -8.33301 -61 -25 -61h-26c-9.33301 0 -16.833 3 -22.5 9s-10.167 19 -13.5 39l-23 142c-2 8.66699 -4.33301 13 -7 13s-5 -4 -7 -12c-16.667 -68 -44 -118.667 -82 -152s-79.333 -50 -124 -50z" />
    <glyph glyph-name="v" unicode="v" horiz-adv-x="663" 
d="M275 0c-16 0 -28.332 22.667 -36.999 68l-181 874c-1.33301 6.66699 -2 16 -2 28c0 24 5 36 15 36h122c16.667 0 28 -20 34 -60l114 -698c1.33301 -6.66699 3 -10 5 -10s3.33301 3.33301 4 10l97 698c5.33301 40 17.333 60 36 60h112c10 0 15 -11.333 15 -34
c0 -5.33301 -1.33301 -15 -4 -29l-170 -876c-8.66699 -44.667 -21.334 -67 -38.001 -67h-122z" />
    <glyph glyph-name="w" unicode="w" horiz-adv-x="922" 
d="M232 0c-18 0 -29.666 19 -34.999 57l-138 884c-1.33301 12 -2 20.667 -2 26c0 26 5.66699 39 17 39h99c16 0 26.667 -20.667 32 -62l92 -722l3 -9c2.66699 0 4 2.66699 4 8l94 724c4.66699 40.667 15.667 61 33 61h90c15.333 0 25.666 -20.333 30.999 -61l93 -725
c0 -5.33301 1.33301 -8 4 -8c1.33301 0 2.33301 2.66699 3 8l87 724c4.66699 41.333 15.667 62 33 62h77c10.667 0 16 -12 16 -36c0 -8.66699 -1 -18 -3 -28l-124 -885c-6 -38 -18 -57 -36 -57h-105c-18 0 -29.667 19.667 -35 59l-88 618c0 4.66699 -1 7 -3 7
s-3.66699 -2.33301 -5 -7l-90 -618c-6 -39.333 -18 -59 -36 -59h-108z" />
    <glyph glyph-name="x" unicode="x" horiz-adv-x="677" 
d="M59 0c-5.33301 0 -8.00098 8.66699 -8.00098 26c0 7.33301 1 14 3 20l183 418c2 5.33301 3 11 3 17s-0.666992 12.333 -2 19l-188 458c-2.66699 6.66699 -4 13.667 -4 21c0 18 3.33301 27 10 27h135c15.333 0 29.666 -16.667 42.999 -50l100 -257
c2 -5.33301 4.33301 -8 7 -8c3.33301 0 6 2.33301 8 7l96 260c12 32 26.667 48 44 48h113c6 0 9 -8.33301 9 -25c0 -8.66699 -1.33301 -15.667 -4 -21l-173 -393c-3.33301 -5.33301 -5 -11.333 -5 -18c0 -6 1.33301 -12.333 4 -19l202 -482c2 -4.66699 3 -11.667 3 -21
c0 -18 -3 -27 -9 -27h-136c-17.333 0 -32.666 16.667 -45.999 50l-99 268c-2 6.66699 -5 10 -9 10c-4.66699 0 -8 -3 -10 -9l-103 -272c-5.33301 -14.667 -12.166 -26.167 -20.499 -34.5s-16.5 -12.5 -24.5 -12.5h-122z" />
    <glyph glyph-name="y" unicode="y" horiz-adv-x="662" 
d="M223 -122c15.333 0 28.6641 12.5029 39.9971 37.5029s17 60.5 17 106.5c0 10.667 -6.66699 47.667 -20 111l-196 815c-1.33301 9.33301 -2 16.666 -2 21.999c0 24 5 36 15 36h121c9.33301 0 17 -3.16699 23 -9.5s10.667 -19.166 14 -38.499l130 -688
c2.66699 -8 4.33398 -12 5.00098 -12c2.66699 0 4 3.66699 4 11l102 686c2.66699 20 6.83398 33.5 12.501 40.5s12.834 10.5 21.501 10.5h84c11.333 0 17 -13 17 -39c0 -6 -0.666992 -13.667 -2 -23l-178 -927c-14 -76.667 -29.333 -135.334 -46 -176.001
s-35.334 -68.334 -56.001 -83.001s-48 -22.334 -82 -23.001h-10c-54 0 -90.667 14.333 -110 43c-5.33301 6 -8 21.333 -8 46c0 49.333 8 74 24 74c1.33301 0 13.333 -3.33301 36 -10s37.334 -10 44.001 -10z" />
    <glyph glyph-name="z" unicode="z" horiz-adv-x="580" 
d="M100 0c-4 0 -7.66699 2.16602 -11 6.49902s-5 10.5 -5 18.5v114c0 17.333 4.33301 37.333 13 60l232 653h-232c-2 -0.666992 -3.83301 -0.166992 -5.5 1.5s-3 4.5 -4 8.5s-1.5 9.33301 -1.5 16v101c0 18 3.66699 27 11 27h396c10 0 15 -9 15 -27v-128
c0 -21.333 -3.33301 -39.666 -10 -54.999l-225 -643h233c3.33301 1.33301 6.33301 -0.5 9 -5.5s4 -11.833 4 -20.5v-102c0 -16.667 -4.33301 -25 -13 -25h-406z" />
    <glyph glyph-name="braceleft" unicode="{" horiz-adv-x="526" 
d="M427 1543c7.33301 0 13.501 -5.83496 18.501 -17.502s7.5 -26.167 7.5 -43.5v-26c0 -21.333 -2.66699 -37.166 -8 -47.499s-15 -15.5 -29 -15.5c-23.333 0 -37.833 -13.5 -43.5 -40.5s-8.83398 -90.833 -9.50098 -191.5v-156
c-0.666992 -82.667 -5.5 -146.334 -14.5 -191.001s-27.5 -72.334 -55.5 -83.001c-2.66699 -1.33301 -4 -4.66602 -4 -9.99902s1.33301 -8.66602 4 -9.99902c27.333 -10.667 45.333 -36.5 54 -77.5s13 -100.167 13 -177.5v-154c0.666992 -108 4 -177.5 10 -208.5
s21.333 -46.5 46 -46.5c14 0 23.667 -5 29 -15s8 -26 8 -48v-26c0 -17.333 -2.5 -31.833 -7.5 -43.5s-11.167 -17.5 -18.5 -17.5h-82c-51.333 0 -88.333 29 -111 87s-34.667 160 -36 306v133c-0.666992 74 -6 125.167 -16 153.5s-27.333 42.833 -52 43.5
c-15.333 0.666992 -25.833 6.5 -31.5 17.5s-8.5 30.5 -8.5 58.5v55c0 25.333 2.83301 42.666 8.5 51.999s16.167 14.333 31.5 15c24 0.666992 41 17.334 51 50.001s15.667 86.334 17 161.001c0 4 0.166992 27.667 0.5 71s0.5 66 0.5 68c0.666992 98 6.66699 174.667 18 230
s27 93.333 47 114s47 31 81 31h82z" />
    <glyph glyph-name="bar" unicode="|" horiz-adv-x="329" 
d="M143 -150c-8 0 -14.5 6.33301 -19.5 19s-7.5 29.667 -7.5 51v1565c0 21.333 2.5 38.333 7.5 51s11.5 19 19.5 19h42c8 0 14.5 -6.33301 19.5 -19s7.5 -29.667 7.5 -51v-1565c0 -21.333 -2.5 -38.333 -7.5 -51s-11.5 -19 -19.5 -19h-42z" />
    <glyph glyph-name="braceright" unicode="}" horiz-adv-x="526" 
d="M116 -103c-7.33301 0 -13.502 5.83691 -18.502 17.5039s-7.5 26.167 -7.5 43.5v26c0 22 2.66699 38 8 48s15 15 29 15c23.333 0 37.833 13.5 43.5 40.5s8.83398 90.833 9.50098 191.5v156c0.666992 83.333 5.5 147.166 14.5 191.499s27.5 71.833 55.5 82.5
c2.66699 1.33301 4 4.83301 4 10.5s-1.33301 9.16699 -4 10.5c-27.333 10 -45.166 35.333 -53.499 76s-12.833 100 -13.5 178v154c-0.666992 108 -4 177.5 -10 208.5s-21.333 46.5 -46 46.5c-14 0 -23.667 5.16699 -29 15.5s-8 26.166 -8 47.499v26
c0 17.333 2.5 31.833 7.5 43.5s11.167 17.5 18.5 17.5h82c51.333 0 88.333 -28.833 111 -86.5s34.667 -159.5 36 -305.5v-133c1.33301 -74 7 -125.333 17 -154s27 -43.334 51 -44.001c15.333 -0.666992 25.833 -6.33398 31.5 -17.001s8.5 -30 8.5 -58v-55
c0 -26 -2.83301 -43.667 -8.5 -53s-16.167 -14 -31.5 -14c-24 -0.666992 -40.833 -17.5 -50.5 -50.5s-15.167 -86.5 -16.5 -160.5c-1.33301 -14.667 -2 -61 -2 -139c-0.666992 -98.667 -6.66699 -175.5 -18 -230.5s-27 -93 -47 -114s-47 -31.5 -81 -31.5h-82z" />
    <glyph glyph-name="asciitilde" unicode="~" horiz-adv-x="949" 
d="M293 532c-48 0 -87.501 9.83203 -118.501 29.499s-58.5 50.167 -82.5 91.5c-8.66699 14.667 -13 27.334 -13 38.001c0 13.333 7.5 32.166 22.5 56.499s28.167 36.5 39.5 36.5c10 0 18 -5.66699 24 -17c20 -37.333 39 -62 57 -74s41.667 -18 71 -18
c30 0 66.833 10.833 110.5 32.5l134 64.5c45.667 21.333 86.5 32 122.5 32c84.667 0 152.334 -40.333 203.001 -121c4.66699 -7.33301 7 -16.333 7 -27c0 -18.667 -6.33301 -38.834 -19 -60.501s-26 -32.5 -40 -32.5c-10 0 -19 6 -27 18c-22 30 -40.333 50.833 -55 62.5
s-33 17.5 -55 17.5c-24.667 0 -54 -6.66699 -88 -20s-65.333 -28.166 -94 -44.499s-61.5 -31.166 -98.5 -44.499s-70.5 -20 -100.5 -20z" />
    <glyph glyph-name="uni00A0" unicode="&#xa0;" horiz-adv-x="262" 
 />
    <glyph glyph-name="exclamdown" unicode="&#xa1;" horiz-adv-x="402" 
d="M272 1502c18 0 27 -17 27 -51v-152c0 -33.333 -9 -50 -27 -50h-137c-8.66699 0 -15.167 3.33301 -19.5 10s-6.5 20 -6.5 40v152c0 34 8.66699 51 26 51h137zM221 1034c13.333 0 21 -24.333 23 -73l44 -887v-9c0 -18.667 -2.5 -34.167 -7.5 -46.5
s-11.167 -18.5 -18.5 -18.5h-118c-7.33301 0 -13.5 5.66699 -18.5 17s-7.5 26 -7.5 44v12l43 888c2 48.667 9.33301 73 22 73h38z" />
    <glyph glyph-name="cent" unicode="&#xa2;" horiz-adv-x="582" 
d="M523 980v-105.997c0.666992 -4 -0.333008 -7.66699 -3 -11s-5.33398 -5 -8.00098 -5c-6.66699 0.666992 -17.5 3.16699 -32.5 7.5s-26.167 6.83301 -33.5 7.5v-740c20 2.66699 41.667 7.66699 65 15c2.66699 -0.666992 5.5 -3.33398 8.5 -8.00098s4.5 -9 4.5 -13v-99
c0 -4 -0.833008 -7.83301 -2.5 -11.5s-4.5 -6.5 -8.5 -8.5l-11.5 -5.5c-3.66699 -1.66699 -8.5 -3 -14.5 -4s-10.667 -1.83301 -14 -2.5s-8.33301 -1.33398 -15 -2.00098s-10.667 -1 -12 -1v-120c0 -36 -8 -54 -24 -54h-26c-16 0 -24 18 -24 54v116
c-32.667 1.33301 -61.5 5.83301 -86.5 13.5s-51 22.667 -78 45s-49.167 51.833 -66.5 88.5s-31.666 86.667 -42.999 150s-17 137.666 -17 222.999c0 82 5.66699 153.667 17 215s25.833 110.166 43.5 146.499s39.667 65.833 66 88.5s52.5 38 78.5 46s54.667 12 86 12v160
c0 35.333 8 53 24 53h26c16 0 24 -17.667 24 -53v-167c0.666992 0 5.33398 -0.666992 14.001 -2s15.667 -2.5 21 -3.5s11.666 -2.66699 18.999 -5s13 -5.16602 17 -8.49902s6 -7 6 -11zM372 136.003l0.000976562 735c-23.333 -6.66699 -42.833 -19.667 -58.5 -39
s-29.334 -56 -41.001 -110s-17.5 -125 -17.5 -213c0 -71.333 2.83301 -131.333 8.5 -180s14.167 -86.167 25.5 -112.5s23.5 -45.5 36.5 -57.5s28.5 -19.667 46.5 -23z" />
    <glyph glyph-name="sterling" unicode="&#xa3;" horiz-adv-x="963" 
d="M636 1467c90 0 169.999 -17.9961 239.999 -53.9961c10.667 -6 17.334 -9.66699 20.001 -11s7.16699 -4.33301 13.5 -9s10.333 -9.16699 12 -13.5s2.5 -9.5 2.5 -15.5c0 -2 -0.666992 -6.33301 -2 -13l-15 -69c-3.33301 -14 -8.5 -23.167 -15.5 -27.5
s-17.167 -4.83301 -30.5 -1.5c-12 1.33301 -28 6.33301 -48 15s-43.833 16.667 -71.5 24s-59.5 11 -95.5 11c-40.667 0 -74 -4 -100 -12s-47.833 -20 -65.5 -36s-31 -40 -40 -72s-15.167 -68 -18.5 -108s-5 -92.333 -5 -157v-110h284c32.667 0 49 -17.333 49 -52v-37
c0 -34.667 -16.333 -52 -49 -52h-286v-473c0 -20 1.83301 -32.667 5.5 -38s13.167 -8 28.5 -8h433c14.667 0 25.334 -3.33301 32.001 -10s10 -18.334 10 -35.001v-66c0 -14.667 -3.16699 -24.5 -9.5 -29.5s-17.166 -7.5 -32.499 -7.5h-784
c-19.333 0 -32.333 3.83301 -39 11.5s-10 20.834 -10 39.501v43c0 19.333 3.33301 33.166 10 41.499s19.667 12.5 39 12.5h91c13.333 0 21.666 1.33301 24.999 4s5 9 5 19v453c0 28.667 -10 43 -30 43h-91c-32.667 0 -49 17.333 -49 52v37c0 34.667 16.333 52 49 52h117
c0 9.33301 -0.166992 33.666 -0.5 72.999s-0.5 65 -0.5 77c0 43.333 1 81.166 3 113.499s6.5 67.166 13.5 104.499s16.5 69.333 28.5 96s28.5 53 49.5 79s46.167 47 75.5 63s65.166 28.833 107.499 38.5s90.5 14.5 144.5 14.5z" />
    <glyph glyph-name="currency" unicode="&#xa4;" horiz-adv-x="1193" 
d="M596 515c-58.667 0 -109.499 6.66895 -152.499 20.002s-85.5 33.666 -127.5 60.999l-28 -28c-22.667 -24 -40 -36 -52 -36c-8.66699 0 -16.334 3.66699 -23.001 11l-30 29c-8.66699 9.33301 -13 18.333 -13 27c0 11.333 11.333 28.333 34 51l23 23
c-72 83.333 -108 184.666 -108 303.999c0 121.333 36.667 224.333 110 309l-25 25c-24 24 -36 41.333 -36 52c0 8.66699 4 16.334 12 23.001l30 29c8 8.66699 17 13 27 13c11.333 0 28.333 -11.333 51 -34l31 -31c42 27.333 84.333 47.666 127 60.999s92.667 20 150 20
c102.667 0 195.334 -27 278.001 -81l30 30c23.333 23.333 41 35 53 35c8.66699 0 17 -4.33301 25 -13l31 -29c7.33301 -8.66699 11 -16.334 11 -23.001c0 -10.667 -12 -28 -36 -52l-25 -25c73.333 -83.333 110 -186.333 110 -309c0 -119.333 -35.667 -220.666 -107 -303.999
l22 -22c23.333 -23.333 35 -40.666 35 -51.999c0 -8.66699 -4.33301 -17.334 -13 -26.001l-30 -30c-8.66699 -7.33301 -16 -11 -22 -11c-12.667 0 -30.334 12 -53.001 36l-28 28c-83.333 -54 -177 -81 -281 -81zM596.001 616.002c50.667 0 96.665 7.16699 137.998 21.5
s75.5 33.333 102.5 57s49.667 51.334 68 83.001s31.5 64 39.5 97s12 66.833 12 101.5c0 46 -6.66699 89.833 -20 131.5s-33.666 80.167 -60.999 115.5s-65 63.5 -113 84.5s-103.333 31.5 -166 31.5s-118 -10.5 -166 -31.5s-85.667 -49.167 -113 -84.5
s-47.666 -73.833 -60.999 -115.5s-20 -85.5 -20 -131.5c0 -34.667 4 -68.5 12 -101.5s21.167 -65.333 39.5 -97s41 -59.334 68 -83.001s61.167 -42.667 102.5 -57s87.333 -21.5 138 -21.5z" />
    <glyph glyph-name="yen" unicode="&#xa5;" horiz-adv-x="732" 
d="M295 0c-8.66699 0 -15 3.5 -19 10.5s-6 20.5 -6 40.5v278h-152c-8.66699 0 -15 2.5 -19 7.5s-6 15.833 -6 32.5v70c0 16.667 2 27.667 6 33s10.333 8 19 8h142l-13 90h-129c-8.66699 0 -15 2.66699 -19 8s-6 16.333 -6 33v70c0 16.667 2 27.5 6 32.5s10.333 7.5 19 7.5
h94l-173 657c-3.33301 10 -5 19.667 -5 29c0 20.667 5.33301 31 16 31h135c8.66699 0 17 -4.66699 25 -14s13.667 -22.333 17 -39l147 -634h14l144 633c3.33301 16 8.83301 29 16.5 39s15.5 15 23.5 15h112c10.667 0 16 -10.667 16 -32c0 -8.66699 -1.33301 -18 -4 -28
l-171 -657h93c8 0 14 -2.5 18 -7.5s6 -15.833 6 -32.5v-70c0 -16.667 -2 -27.667 -6 -33s-10 -8 -18 -8h-127l-13 -90h135c8 0 14 -2.66699 18 -8s6 -16.333 6 -33v-70c0 -16.667 -2 -27.5 -6 -32.5s-10 -7.5 -18 -7.5h-145v-278c0 -34 -8.33301 -51 -25 -51h-148z" />
    <glyph glyph-name="brokenbar" unicode="&#xa6;" horiz-adv-x="388" 
d="M170 -123c-16.667 0 -25 20 -25 60v569c0 40 8.33301 60 25 60h48c16.667 0 25 -20 25 -60v-569c0 -40 -8.33301 -60 -25 -60h-48zM170 852c-17.333 0 -26 20 -26 60v570c0 40 8.66699 60 26 60h47c17.333 0 26 -20 26 -60v-570c0 -40 -8.66699 -60 -26 -60h-47z" />
    <glyph glyph-name="section" unicode="&#xa7;" horiz-adv-x="836" 
d="M424 -15c-118 0 -219.005 33.666 -303.005 100.999c-10.667 7.33301 -16 20 -16 38l15 54c4 12.667 10.5 22.167 19.5 28.5s17.167 7.16602 24.5 2.49902c45.333 -33.333 88.666 -57.333 129.999 -72s90 -22 146 -22c54.667 0 95.5 15.333 122.5 46s40.5 71 40.5 121
c0 46.667 -14.667 82.334 -44 107.001s-77 45.334 -143 62.001c-26 6.66699 -46 12 -60 16s-32.333 9.66699 -55 17s-40.167 14.5 -52.5 21.5s-26.666 16 -42.999 27s-29 22.833 -38 35.5s-18 27.5 -27 44.5s-15.333 36.333 -19 58s-5.5 45.5 -5.5 71.5
c0 87.333 28 156.333 84 207c-56 51.333 -84 121.333 -84 210c0 46.667 6.5 87.834 19.5 123.501s29.5 63.834 49.5 84.501s43.833 37.667 71.5 51s54.334 22.333 80.001 27s52.834 7 81.501 7c54.667 0 101.334 -6.16699 140.001 -18.5s78 -33.166 118 -62.499
c11.333 -7.33301 17 -19.333 17 -36l-18 -58c-3.33301 -11.333 -9.83301 -19 -19.5 -23s-17.834 -3.33301 -24.501 2c-23.333 16 -41.333 27.5 -54 34.5s-31.167 13.5 -55.5 19.5s-52.5 9 -84.5 9c-66 0 -112 -12 -138 -36s-39 -59 -39 -105
c0 -42.667 13.333 -73.834 40 -93.501s74.334 -38.5 143.001 -56.5c44.667 -11.333 77.834 -20.333 99.501 -27s48 -17.834 79 -33.501s53.333 -33.334 67 -53.001s26 -46.5 37 -80.5s16.5 -74.333 16.5 -121c0 -75.333 -25.667 -143 -77 -203
c51.333 -57.333 77 -129 77 -215c0 -102.667 -25.167 -180 -75.5 -232s-131.166 -78 -242.499 -78zM573.995 572.999c10 6 21 23.998 33 53.998s18 56 18 78c0 46.667 -16.167 81.334 -48.5 104.001s-85.833 42.334 -160.5 59.001c-56 9.33301 -97.667 19.333 -125 30
c-34 -30.667 -51 -75.334 -51 -134.001c0 -37.333 16.333 -66.833 49 -88.5s84 -43.5 154 -65.5c62 -15.333 105.667 -27.666 131 -36.999z" />
    <glyph glyph-name="dieresis" unicode="&#xa8;" horiz-adv-x="317" 
d="M52 0c-18 0 -27 19 -27 57v82c0 38 9 57 27 57h60c18 0 27 -19 27 -57v-82c0 -38 -9 -57 -27 -57h-60zM278 0c-17.333 0 -26 19 -26 57v82c0 38 8.66699 57 26 57h61c17.333 0 26 -19 26 -57v-82c0 -38 -8.66699 -57 -26 -57h-61z" />
    <glyph glyph-name="copyright" unicode="&#xa9;" horiz-adv-x="1443" 
d="M736 337c-40 0 -77.666 7.66992 -112.999 23.0029s-67.333 38.333 -96 69s-51.5 71.834 -68.5 123.501s-25.5 110.5 -25.5 176.5c0 67.333 8.66699 126.666 26 177.999s40.333 91.666 69 120.999s59.667 51.166 93 65.499s68 21.5 104 21.5c74 0 136 -19.667 186 -59
c7.33301 -6.66699 11 -18.334 11 -35.001c0 -14.667 -3 -28.667 -9 -42s-13 -20 -21 -20c-1.33301 0 -3.66602 1 -6.99902 3c-50 33.333 -96 50 -138 50c-62 0 -110.833 -24.333 -146.5 -73s-53.5 -119 -53.5 -211c0 -99.333 19 -171.833 57 -217.5s86 -68.5 144 -68.5
c17.333 0 33.666 1.5 48.999 4.5s25.666 5.33301 30.999 7s15.5 6.5 30.5 14.5s23.167 12.333 24.5 13c0.666992 0 1.66699 0.333008 3 1h2c8.66699 0 16.667 -7.16699 24 -21.5s11 -29.166 11 -44.499c0 -16.667 -5 -27.334 -15 -32.001
c-31.333 -17.333 -59.333 -29.5 -84 -36.5s-54 -10.5 -88 -10.5zM724.001 93.0029c72 0 137.333 12.333 196 37s107.167 57.167 145.5 97.5s70.5 87.833 96.5 142.5s44.667 110.834 56 168.501s17 117.167 17 178.5c0 63.333 -5.66699 124.333 -17 183
s-30 115.334 -56 170.001s-58.167 102.167 -96.5 142.5s-86.833 72.666 -145.5 96.999s-124 36.5 -196 36.5c-72.667 0 -138.334 -12.167 -197.001 -36.5s-107.167 -56.666 -145.5 -96.999s-70.5 -87.833 -96.5 -142.5s-44.5 -111.334 -55.5 -170.001
s-16.5 -119.667 -16.5 -183c0 -61.333 5.5 -120.833 16.5 -178.5s29.5 -113.834 55.5 -168.501s58.167 -102.167 96.5 -142.5s86.833 -72.833 145.5 -97.5s124.334 -37 197.001 -37zM721.001 -15.9971c-82.667 0 -158.667 13.1631 -228 39.4961s-128.333 62.333 -177 108
s-89.834 99.667 -123.501 162s-58.5 129.5 -74.5 201.5s-24 147.333 -24 226s8 153.834 24 225.501s40.833 138.834 74.5 201.501s74.834 116.834 123.501 162.501s107.667 81.667 177 108s145.333 39.5 228 39.5c103.333 0 195.833 -20 277.5 -60s147.5 -94.5 197.5 -163.5
s88 -147 114 -234s39 -180.167 39 -279.5s-13 -192.666 -39 -279.999s-64 -165.333 -114 -234s-115.833 -123 -197.5 -163s-174.167 -60 -277.5 -60z" />
    <glyph glyph-name="ordfeminine" unicode="&#xaa;" horiz-adv-x="650" 
d="M300 615c-53.333 0 -94.3311 17.0039 -122.998 51.0039s-43 83.667 -43 149c0 48.667 7.33301 91.167 22 127.5s33 63.666 55 81.999s46.333 33.666 73 45.999s51.5 20.333 74.5 24s43.167 7.33398 60.5 11.001s27.333 7.16699 30 10.5v43
c0 57.333 -6.16699 100.166 -18.5 128.499s-35.166 42.5 -68.499 42.5c-28 0 -49.333 -8.66699 -64 -26s-27 -44 -37 -80c-2.66699 -8.66699 -5.5 -14.334 -8.5 -17.001s-6.5 -3.66699 -10.5 -3l-23 6l-42.5 13c-13 4 -19.5 6.66699 -19.5 8
c-2.66699 1.33301 -4.33398 7.5 -5.00098 18.5s0.333008 20.833 3 29.5c14 52 37.833 91.5 71.5 118.5s81.5 40.5 143.5 40.5c68.667 0 120.667 -25 156 -75s53 -135 53 -255v-444c0 -26.667 -5.66699 -40 -17 -40h-25c-10 0 -18.667 11.667 -26 35
c-0.666992 5.33301 -5.83398 22.666 -15.501 51.999s-14.834 47 -15.501 53c-2.66699 6.66699 -4.66699 6.66699 -6 0c-14.667 -49.333 -35.5 -86.5 -62.5 -111.5s-64.167 -37.5 -111.5 -37.5zM328.002 717.004c37.333 0 67.333 24.667 90 74s34 108 34 176
c0 40.667 -2.33301 61 -7 61c-9.33301 0 -17.333 -1.66699 -24 -5c-111.333 -28 -167 -94 -167 -198c0 -72 24.667 -108 74 -108z" />
    <glyph glyph-name="guillemotleft" unicode="&#xab;" horiz-adv-x="829" 
d="M396 218c-0.666992 0 -7.33398 6.50098 -20.001 19.501l-46 47l-54 55.5l-46 48l-20 20c-11.333 11.333 -32.833 38.833 -64.5 82.5s-47.5 71.834 -47.5 84.501c-5.33301 6 -8 48.333 -8 127c0 52.667 5 83.667 15 93c0 6 63 72 189 198l11 11l25 27l29 30.5l25 26
c6.66699 7 10.334 10.5 11.001 10.5h2c6.66699 0 11 -9 13 -27c2 0 3 -35.667 3 -107c0 -36 -5 -61.333 -15 -76c0 -4.66699 -9.33301 -16.5 -28 -35.5s-38.667 -38.333 -60 -58s-32.333 -29.834 -33 -30.501c-1.33301 -0.666992 -16 -17 -44 -49s-42 -49 -42 -51
c-1.33301 -5.33301 -0.666016 -10 2.00098 -14c0 -0.666992 5.83301 -6.5 17.5 -17.5l38.5 -36l39 -36.5l18 -17c66 -86 99 -137 99 -153c5.33301 -5.33301 8 -47 8 -125c0 -8.66699 -1 -17.334 -3 -26.001s-4 -13 -6 -13c-0.666992 -6 -2.66699 -9 -6 -9
c-0.666992 0 -1.33398 0.333008 -2.00098 1zM736 218.001l-18.999 20.002l-46.5 46.5l-54.5 55.5l-46 48l-20 20c-11.333 11.333 -32.666 38.833 -63.999 82.5s-47 71.834 -47 84.501c-6 6 -9 48.333 -9 127c0 52 5 83 15 93c0 2.66699 15 19.5 45 50.5l93.5 96l50.5 51.5
l26 27l50 52l25 26h2c7.33301 0 11.666 -9 12.999 -27c2.66699 0 4 -35.667 4 -107c0 -35.333 -5.33301 -60.666 -16 -75.999c0 -4.66699 -9.33301 -16.5 -28 -35.5l-59.5 -58c-21 -19.667 -31.833 -29.834 -32.5 -30.501c-1.33301 -0.666992 -16 -17 -44 -49
s-42 -49 -42 -51c-1.33301 -6 -1 -10.667 1 -14c0 -0.666992 5.83301 -6.5 17.5 -17.5l39 -36l39.5 -36.5l18 -17c0.666992 -0.666992 7 -8.83398 19 -24.501l34.5 -46c11 -15 21.333 -30.833 31 -47.5s14.5 -28.334 14.5 -35.001c5.33301 -5.33301 8 -47 8 -125
c0 -8.66699 -1 -17.334 -3 -26.001s-4.33301 -13 -7 -13c-0.666992 -6 -2.33398 -9 -5.00098 -9c-1.33301 0 -2.33301 0.333008 -3 1z" />
    <glyph glyph-name="logicalnot" unicode="&#xac;" horiz-adv-x="1106" 
d="M837 239c-34.667 0 -52 21.668 -52 65.001v239c0 10 -2.83301 17.833 -8.5 23.5s-12.5 8.5 -20.5 8.5h-575c-34.667 0 -52 17.667 -52 53v60c0 19.333 4.33301 33.166 13 41.499s21.667 12.5 39 12.5h734c18 0 32.667 -5 44 -15s17 -24.333 17 -43v-380
c0 -43.333 -17 -65 -51 -65h-88z" />
    <glyph glyph-name="uni00AD" unicode="&#xad;" horiz-adv-x="540" 
d="M98 590c-5.33301 0 -9.33301 0.333008 -12 1s-5.16699 2.83398 -7.5 6.50098s-3.5 9.5 -3.5 17.5v8c0 8.66699 1.16699 15 3.5 19s4.83301 6.33301 7.5 7s6.66699 1 12 1h364c5.33301 0 9.33301 -0.333008 12 -1s5.16699 -2.83398 7.5 -6.50098s3.5 -9.5 3.5 -17.5v-8
c0 -8.66699 -1.16699 -15 -3.5 -19s-4.83301 -6.33301 -7.5 -7s-6.66699 -1 -12 -1h-364z" />
    <glyph glyph-name="registered" unicode="&#xae;" horiz-adv-x="1443" 
d="M520 356c-11.333 0 -17.001 10.667 -17.001 32v684c0 22 5.66699 33 17 33h204c30 0 54.167 -0.833008 72.5 -2.5s38.833 -6.33398 61.5 -14.001s40.167 -18.667 52.5 -33s22.833 -35 31.5 -62s13 -60.167 13 -99.5c0 -99.333 -30.667 -156.666 -92 -171.999l-1 -4l1 -1
c62 -24.667 94.667 -93 98 -205c2 -40 3 -83.333 3 -130c0 -17.333 -3.66699 -26 -11 -26h-73c-10.667 0 -16.334 11.667 -17.001 35c0 28.667 -2.5 70.5 -7.5 125.5s-9.16699 85.5 -12.5 91.5c-5.33301 29.333 -15.666 49 -30.999 59s-37.666 15 -66.999 15h-133
c-4.66699 0 -7 -5 -7 -15v-279c0 -21.333 -5.33301 -32 -16 -32h-69zM611.999 771h157.001c31.333 0 53.666 9.66699 66.999 29s20 50 20 92c0 50.667 -9.5 84.167 -28.5 100.5s-48.833 24.5 -89.5 24.5h-126c-4.66699 0 -7 -4.33301 -7 -13v-219
c0 -9.33301 2.33301 -14 7 -14zM724 93c72 0 137.333 12.333 196 37s107.167 57.167 145.5 97.5s70.5 87.833 96.5 142.5s44.667 110.834 56 168.501s17 117.167 17 178.5c0 63.333 -5.66699 124.333 -17 183s-30 115.334 -56 170.001s-58.167 102.167 -96.5 142.5
s-86.833 72.666 -145.5 96.999s-124 36.5 -196 36.5c-72.667 0 -138.334 -12.167 -197.001 -36.5s-107.167 -56.666 -145.5 -96.999s-70.5 -87.833 -96.5 -142.5s-44.5 -111.334 -55.5 -170.001s-16.5 -119.667 -16.5 -183c0 -61.333 5.5 -120.833 16.5 -178.5
s29.5 -113.834 55.5 -168.501s58.167 -102.167 96.5 -142.5s86.833 -72.833 145.5 -97.5s124.334 -37 197.001 -37zM721 -16c-82.667 0 -158.667 13.1631 -228 39.4961s-128.333 62.333 -177 108s-89.834 99.667 -123.501 162s-58.5 129.5 -74.5 201.5s-24 147.333 -24 226
s8 153.834 24 225.501s40.833 138.834 74.5 201.501s74.834 116.834 123.501 162.501s107.667 81.667 177 108s145.333 39.5 228 39.5c103.333 0 195.833 -20 277.5 -60s147.5 -94.5 197.5 -163.5s88 -147 114 -234s39 -180.167 39 -279.5s-13 -192.666 -39 -279.999
s-64 -165.333 -114 -234s-115.833 -123 -197.5 -163s-174.167 -60 -277.5 -60z" />
    <glyph glyph-name="macron" unicode="&#xaf;" horiz-adv-x="890" 
d="M274 707c-24 0 -36 13.333 -36 40v31c0 27.333 12 41 36 41h358c24 0 36 -13.333 36 -40v-31c0 -27.333 -12 -41 -36 -41h-358z" />
    <glyph glyph-name="degree" unicode="&#xb0;" horiz-adv-x="1268" 
d="M651 1318c32 0 59.333 10.167 82 30.5s34 51.166 34 92.499c0 43.333 -11.5 74.5 -34.5 93.5s-50.167 28.5 -81.5 28.5c-33.333 0 -61.666 -9.5 -84.999 -28.5s-34.666 -50.167 -33.999 -93.5c-0.666992 -41.333 10.666 -72.166 33.999 -92.499
s51.666 -30.5 84.999 -30.5zM651 1245c-22.667 0 -45.334 3.3291 -68.001 9.99609s-44.834 17.167 -66.501 31.5s-39.167 34.833 -52.5 61.5s-20 57.667 -20 93c0 36.667 6.33301 68.334 19 95.001s29.5 47 50.5 61s42.833 24.167 65.5 30.5s46.667 9.5 72 9.5
c19.333 0 38 -1.83301 56 -5.5s36.167 -10.167 54.5 -19.5s34.333 -21.166 48 -35.499s24.667 -33.166 33 -56.499s12.5 -49.666 12.5 -78.999c0 -35.333 -6.66699 -66.333 -20 -93s-30.666 -47.167 -51.999 -61.5s-43.166 -24.833 -65.499 -31.5s-44.5 -10 -66.5 -10z" />
    <glyph glyph-name="plusminus" unicode="&#xb1;" horiz-adv-x="802" 
d="M369 395c-11.333 0 -19.667 2.83301 -25 8.5s-8 17.834 -8 36.501v207c0 9.33301 -1.16699 15.333 -3.5 18s-6.16602 4 -11.499 4h-179c-10 0 -17.667 2.66699 -23 8s-8 16.333 -8 33v33c0 18 2.5 29.5 7.5 34.5s12.833 7.5 23.5 7.5h179
c5.33301 0 9.16602 1.33301 11.499 4s3.5 8.66699 3.5 18v197c0 18.667 2.66699 30.834 8 36.501s13.666 8.5 24.999 8.5h72c10.667 0 18.5 -2.83301 23.5 -8.5s7.5 -17.834 7.5 -36.501v-197c0 -9.33301 1.33301 -15.333 4 -18s7 -4 13 -4h176
c6.66699 0 11.834 -0.666992 15.501 -2s7.16699 -5.33301 10.5 -12s5 -16 5 -28v-33c0 -16.667 -2.66699 -27.667 -8 -33s-13 -8 -23 -8h-176c-6 0 -10.333 -1.33301 -13 -4s-4 -8.66699 -4 -18v-207c0 -18.667 -2.5 -30.834 -7.5 -36.501s-12.833 -8.5 -23.5 -8.5h-72z
M140.999 150c-10 0 -17.667 2.66699 -23 8s-8 16.666 -8 33.999v33c0 17.333 2.66699 28.5 8 33.5s13 7.5 23 7.5h523c10 0 17.667 -2.5 23 -7.5s8 -16.167 8 -33.5v-33c0 -17.333 -2.66699 -28.666 -8 -33.999s-13 -8 -23 -8h-523z" />
    <glyph glyph-name="uni00B2" unicode="&#xb2;" horiz-adv-x="591" 
d="M487 290h-400c-14 0 -21 18.333 -21 55c0 1.33301 0.166992 9.16602 0.5 23.499s0.5 22.5 0.5 24.5c4.66699 77.333 19.334 150.666 44.001 219.999s52.667 128.333 84 177s62.333 94.5 93 137.5s56.5 85.5 77.5 127.5s31.5 82 31.5 120c0 48 -12.167 84.333 -36.5 109
s-54.833 37 -91.5 37c-20 0 -40 -2.16699 -60 -6.5s-35.5 -8.66602 -46.5 -12.999s-24.333 -10.166 -40 -17.499s-25.167 -11.666 -28.5 -12.999c-10 -9.33301 -15.667 -6 -17 10c-9.33301 40 -14 65 -14 75c0 19.333 2.33301 32.333 7 39c56 38 123.333 57 202 57
c174 0 261 -83.667 261 -251c0 -47.333 -8.66699 -93.333 -26 -138s-39.5 -87.334 -66.5 -128.001l-83.5 -125.5c-28.667 -43 -56.834 -95.5 -84.501 -157.5s-48.167 -128 -61.5 -198c-0.666992 -1.33301 -1 -4.33301 -1 -9c0 -26 3.66699 -39 11 -39h266
c10 0 15 -13.333 15 -40v-39c0 -24.667 -5 -37 -15 -37z" />
    <glyph glyph-name="uni00B3" unicode="&#xb3;" horiz-adv-x="544" 
d="M225 276c-76 0 -129.998 13.3311 -161.998 39.998c-7.33301 5.33301 -11 20.333 -11 45c0 4.66699 0.666992 16.167 2 34.5s2.33301 27.5 3 27.5c0.666992 14.667 2.66699 22.334 6 23.001c2 0 4 -1 6 -3l9 -5c5.33301 -3.33301 9.5 -5.66602 12.5 -6.99902l15 -7
c7 -3.33301 13.5 -5.83301 19.5 -7.5s13.167 -3.5 21.5 -5.5s17.5 -3.5 27.5 -4.5s20.333 -1.5 31 -1.5c99.333 0 149 67 149 201c-0.666992 62 -12.834 110.667 -36.501 146s-58.167 53.333 -103.5 54h-29c-9.33301 0 -15.333 2 -18 6s-4 11.667 -4 23v86
c0 12.667 7.33301 19 22 19h28c88.667 2 133 65.333 133 190c0 69.333 -10.667 118.666 -32 147.999s-53.333 44 -96 44c-58 0 -108.333 -12.667 -151 -38c-5.33301 -4.66699 -8.66602 -1.66699 -9.99902 9c-0.666992 2.66699 -1 6.66699 -1 12c-0.666992 0 -2 9 -4 27
s-3 28.667 -3 32c0 4.66699 1.16699 12.834 3.5 24.501s5.16602 18.834 8.49902 21.501c43.333 27.333 102.666 41 177.999 41s135.333 -24.667 180 -74s67 -129.333 67 -240c0 -150 -52.333 -238.333 -157 -265c54 -12 94.667 -43.333 122 -94s41 -117.334 41 -200.001
c0 -56 -7.33301 -104.333 -22 -145s-35 -72 -61 -94s-54.167 -38 -84.5 -48s-63.5 -15 -99.5 -15z" />
    <glyph glyph-name="acute" unicode="&#xb4;" horiz-adv-x="597" 
d="M363 1169c-10 0 -15.001 10.666 -15.001 31.999c0 4.66699 0.666992 16.334 2 35.001l20 323c2.66699 36.667 11.334 55 26.001 55h81c6.66699 0 10 -9.33301 10 -28c0 -8.66699 -1.33301 -21 -4 -37l-63 -341c-4.66699 -26 -11 -39 -19 -39h-38z" />
    <glyph glyph-name="paragraph" unicode="&#xb6;" horiz-adv-x="1239" 
d="M643 -1c-36 0 -54 24.667 -54 74v715h-24c-34.667 0 -69 3.66699 -103 11s-67.667 19.333 -101 36s-62.5 37.167 -87.5 61.5s-45.333 55.5 -61 93.5s-23.5 80 -23.5 126c0 114.667 37.667 197 113 247s199.333 75 372 75c121.333 0 220.333 -8.33301 297 -25
c20 -4 33.167 -12 39.5 -24s9.5 -30 9.5 -54v-1262c0 -49.333 -17.667 -74 -53 -74h-36c-35.333 0 -53 24.667 -53 74v694c0 6 -1.83301 11 -5.5 15s-8.16699 6 -13.5 6h-121v-715c0 -49.333 -18 -74 -54 -74h-41z" />
    <glyph glyph-name="cedilla" unicode="&#xb8;" horiz-adv-x="551" 
d="M310 -591c-47.333 0 -86 14.6689 -116 44.002s-45 70.333 -45 123c0 60.667 10 91 30 91h51c15.333 0 23 -11.333 23 -34c0 -6 -0.666992 -14.833 -2 -26.5s-2 -19.834 -2 -24.501c0 -27.333 5.66699 -49.666 17 -66.999s28 -26 50 -26s38.5 11.167 49.5 33.5
s16.5 59.166 16.5 110.499c0 39.333 -7.5 76.5 -22.5 111.5s-31.833 52.5 -50.5 52.5h-30c-8 -0.666992 -12 2.66602 -12 9.99902v60c0 11.333 4 17 12 17h64c40 0 73.167 -23.5 99.5 -70.5s39.5 -99.833 39.5 -158.5c0 -84 -13.667 -146 -41 -186s-71 -60 -131 -60z" />
    <glyph glyph-name="uni00B9" unicode="&#xb9;" horiz-adv-x="403" 
d="M178 288c-13.333 0 -20 17.999 -20 53.999v884c0 17.333 -3.33301 25.333 -10 24c-42 -10.667 -63.333 -16 -64 -16c-12 -1.33301 -18 10.334 -18 35.001v77c0 22 6.33301 34 19 36l212 54c2 0.666992 4.33301 1 7 1c11.333 0 17 -12.667 17 -38v-1057
c0 -36 -6.66699 -54 -20 -54h-123z" />
    <glyph glyph-name="ordmasculine" unicode="&#xba;" horiz-adv-x="691" 
d="M385 724c16.667 0 30.666 3.66699 41.999 11s21.833 21.333 31.5 42s16.834 51.667 21.501 93s7 94.333 7 159c0 82 -4.66699 145.833 -14 191.5s-20.666 75.167 -33.999 88.5s-31.333 20 -54 20s-40.834 -6.66699 -54.501 -20s-25.167 -42.666 -34.5 -87.999
s-14 -109.333 -14 -192c0 -64 2.33301 -116.833 7 -158.5s11.834 -72.834 21.501 -93.501s20.167 -34.667 31.5 -42s25.666 -11 42.999 -11zM384.999 615c-17.333 0 -32.833 0.828125 -46.5 2.49512s-29.334 5.66699 -47.001 12s-33 15.166 -46 26.499
s-26.333 27.333 -40 48s-24.834 45.334 -33.501 74.001s-15.834 64.334 -21.501 107.001s-8.5 90.667 -8.5 144c0 73.333 5.5 136.5 16.5 189.5s24.167 93.333 39.5 121s35 49.334 59 65.001s45.167 25.167 63.5 28.5s39.833 5 64.5 5c17.333 0 32.5 -0.833008 45.5 -2.5
s28.333 -5.5 46 -11.5s33 -14.5 46 -25.5s26.333 -26.667 40 -47s24.834 -44.666 33.501 -72.999s15.834 -63.666 21.501 -105.999s8.5 -90.166 8.5 -143.499c0 -74 -5.33301 -137.667 -16 -191s-23.5 -94 -38.5 -122s-34.333 -50 -58 -66s-44.667 -25.833 -63 -29.5
s-40.166 -5.5 -65.499 -5.5z" />
    <glyph glyph-name="guillemotright" unicode="&#xbb;" horiz-adv-x="829" 
d="M103 214c-8.66699 0 -13.001 13.668 -13.001 41.001v103c0 43.333 8 74 24 92l195 182c2.66699 2.66699 4 7.66699 4 15s-1.33301 12.333 -4 15l-196 192c-15.333 19.333 -23 50.666 -23 93.999v109c0 29.333 4.33301 44 13 44c2 0 5.33301 -2.33301 10 -7l277 -287
c15.333 -16 23 -47.667 23 -95v-125c0 -48 -7.66699 -79.333 -23 -94l-277 -271c-5.33301 -5.33301 -8.66602 -8 -9.99902 -8zM442.999 215.001c-8.66699 0 -13 13.332 -13 39.999v103c0 42.667 8 73.334 24 92.001l196 182c2 2 3 7 3 15c0 7.33301 -1 12.333 -3 15
l-196 192c-16 18.667 -24 50 -24 94v109c0 29.333 4.66699 44 14 44c2.66699 0 5.66699 -2.33301 9 -7l277 -287c16 -16.667 24 -48.334 24 -95.001v-125c0 -47.333 -8 -78.666 -24 -93.999l-277 -271c-4 -4.66699 -7.33301 -7 -10 -7z" />
    <glyph glyph-name="onequarter" unicode="&#xbc;" horiz-adv-x="1807" 
d="M1550 287c-20 0 -30 16.332 -30 48.999v180h-318c-11.333 0 -20.833 4 -28.5 12s-11.5 18.333 -11.5 31c0 4.66699 0.333008 8.33398 1 11.001l115 814c3.33301 20 6.83301 34 10.5 42s10.167 12 19.5 12h66c18.667 0 28 -13.333 28 -40c0 -6 -0.333008 -10.667 -1 -14
l-79 -705c-0.666992 -4 0.5 -8.83301 3.5 -14.5s6.83301 -8.5 11.5 -8.5h183v734c0 32 10 48 30 48h77c20 0 30 -16 30 -48v-734h104c23.333 0 35 -15 35 -45v-50c0 -30 -11.667 -45 -35 -45h-104v-180c0 -32.667 -10 -49 -30 -49h-77zM727 123.999c-4 0 -6 6.66699 -6 20
c0 0.666992 0.166992 1.66699 0.5 3s0.5 2.33301 0.5 3l241 1429c2 18 7 27 15 27h71c4 0 6 -6 6 -18l1 -4c0 -3.33301 -0.333008 -5 -1 -5l-241 -1429c-2 -18 -7 -27 -15 -27zM379 287.999c-13.333 0 -20 17.999 -20 53.999v884c0 17.333 -3.33301 25.333 -10 24
c-42 -10.667 -63.333 -16 -64 -16c-12 -1.33301 -18 10.334 -18 35.001v77c0 22 6.33301 34 19 36l212 54c2 0.666992 4.33301 1 7 1c11.333 0 17 -12.667 17 -38v-1057c0 -36 -6.66699 -54 -20 -54h-123z" />
    <glyph glyph-name="onehalf" unicode="&#xbd;" horiz-adv-x="1653" 
d="M358 289c-13.333 0 -20 17.999 -20 53.999v884c0 17.333 -3.33301 25.333 -10 24c-42 -10.667 -63.333 -16 -64 -16c-12 -1.33301 -18 10.334 -18 35.001v77c0 22 6.33301 34 19 36l211 54c2 0.666992 4.66699 1 8 1c11.333 0 17 -12.667 17 -38v-1057
c0 -36 -7 -54 -21 -54h-122zM685 124.999c-4 0 -6 6.66699 -6 20c0 0.666992 0.166992 1.66699 0.5 3s0.5 2.33301 0.5 3l241 1429c2 18 7 27 15 27h71c4 0 6 -6 6 -18c0 -4 -0.333008 -7 -1 -9l-240 -1429c-2 -18 -7 -27 -15 -27zM1560 289.999l-400 0.00195312
c-14 0 -21 18.333 -21 55c0 1.33301 0.166992 9.16602 0.5 23.499s0.5 22.5 0.5 24.5c4.66699 77.333 18.667 150.666 42 219.999s49.666 128.333 78.999 177s58.333 94.5 87 137.5s52.834 85.5 72.501 127.5s29.5 82 29.5 120c0 48 -12.167 84.333 -36.5 109
s-54.833 37 -91.5 37c-26 0 -48.5 -2.83301 -67.5 -8.5s-37.333 -13.667 -55 -24s-28.5 -16.166 -32.5 -17.499c-10 -9.33301 -15.667 -6 -17 10c-9.33301 40 -14 65 -14 75c0 19.333 2.33301 32.333 7 39c56 38 123.333 57 202 57c174 0 261 -83.667 261 -251
c0 -47.333 -8.16699 -93.333 -24.5 -138s-37.333 -87.334 -63 -128.001l-79 -125.5c-27 -43 -53.833 -95.5 -80.5 -157.5s-46.667 -128 -60 -198c-0.666992 -1.33301 -1 -4.33301 -1 -9c0 -26 3.66699 -39 11 -39h251c10 0 15 -13.333 15 -40v-39c0 -24.667 -5 -37 -15 -37z
" />
    <glyph glyph-name="threequarters" unicode="&#xbe;" horiz-adv-x="1916" 
d="M1658 287c-19.333 0 -29.002 16.334 -29.002 49.001v180h-319c-11.333 0 -20.666 4 -27.999 12s-11 18.333 -11 31c0 4.66699 0.333008 8.33398 1 11.001l114 814c3.33301 19.333 7 33.166 11 41.499s10.667 12.5 20 12.5h65c8.66699 0 15.667 -3.66699 21 -11
s8 -17 8 -29c0 -2.66699 -0.666992 -7.33398 -2 -14.001l-78 -705c-0.666992 -4 0.333008 -8.83301 3 -14.5s6.33398 -8.5 11.001 -8.5h184v734c0 32 9.66699 48 29 48h78c19.333 0 29 -16 29 -48v-734h104c24 0 36 -15 36 -45v-50c0 -30 -12 -45 -36 -45h-104v-180
c0 -32.667 -9.66699 -49 -29 -49h-78zM850.998 124.001c-4 0 -6 6.66699 -6 20v6l242 1429c2 18 6.66699 27 14 27h72c4 0 6 -6 6 -18c0 -4 -0.333008 -7 -1 -9l-241 -1429c-2 -18 -6.66699 -27 -14 -27zM436.998 276.001c-76 0 -129.998 13.3311 -161.998 39.998
c-7.33301 5.33301 -11 20.333 -11 45c0 4.66699 0.666992 16.167 2 34.5s2.33301 27.5 3 27.5c0.666992 14.667 2.66699 22.334 6 23.001c2 0 4 -1 6 -3l9 -5c5.33301 -3.33301 9.5 -5.66602 12.5 -6.99902l15 -7c7 -3.33301 13.5 -5.83301 19.5 -7.5s13.167 -3.5 21.5 -5.5
s17.5 -3.5 27.5 -4.5s20.333 -1.5 31 -1.5c99.333 0 149 67 149 201c-0.666992 62 -12.834 110.667 -36.501 146s-58.167 53.333 -103.5 54h-29c-9.33301 0 -15.333 2 -18 6s-4 11.667 -4 23v86c0 12.667 7.33301 19 22 19h28c88.667 2 133 65.333 133 190
c0 69.333 -10.667 118.666 -32 147.999s-53.333 44 -96 44c-58 0 -108.333 -12.667 -151 -38c-5.33301 -4.66699 -8.66602 -1.66699 -9.99902 9c-0.666992 2.66699 -1 6.66699 -1 12c-0.666992 0 -2 9 -4 27s-3 28.667 -3 32c0 4.66699 1.16699 12.834 3.5 24.501
s5.16602 18.834 8.49902 21.501c43.333 27.333 102.666 41 177.999 41s135.333 -24.667 180 -74s67 -129.333 67 -240c0 -150 -52.333 -238.333 -157 -265c54 -12 94.667 -43.333 122 -94s41 -117.334 41 -200.001c0 -56 -7.33301 -104.333 -22 -145s-35 -72 -61 -94
s-54.167 -38 -84.5 -48s-63.5 -15 -99.5 -15z" />
    <glyph glyph-name="questiondown" unicode="&#xbf;" horiz-adv-x="844" 
d="M561 638l9.99414 -17.498c4.66699 -8.33301 8 -14.5 10 -18.5s4.16699 -9.5 6.5 -16.5s3.83301 -14.167 4.5 -21.5c6 -17.333 2.66699 -33 -10 -47c-22.667 -44.667 -45.167 -78.667 -67.5 -102s-57.166 -51.333 -104.499 -84c-84 -56.667 -126 -137.667 -126 -243
c2 -70.667 20.833 -125.5 56.5 -164.5s78.834 -58.5 129.501 -58.5c76.667 0 150.334 25 221.001 75c13.333 8.66699 24.333 -1 33 -29c3.33301 0 8.5 -12 15.5 -36s10.5 -39.333 10.5 -46c0 -24 -8 -40.667 -24 -50c-34 -24 -74.833 -44.333 -122.5 -61
s-93.167 -25 -136.5 -25c-36 0 -69.833 4.16699 -101.5 12.5s-62.167 22.166 -91.5 41.499s-54.666 43.666 -75.999 72.999s-38.666 66.666 -51.999 111.999s-20.666 96.333 -21.999 153c0 160 88 293 264 399c50.667 30.667 93.334 80.334 128.001 149.001
c8 10.667 16.667 16 26 16c7.33301 0 13.666 -3.66699 18.999 -11zM574.994 1158c14 0 25.5 -5.83301 34.5 -17.5s13.5 -27.5 13.5 -47.5v-111c0 -20 -4.5 -35.833 -13.5 -47.5s-20.5 -17.5 -34.5 -17.5h-105c-14 0 -25.5 5.83301 -34.5 17.5s-13.5 27.5 -13.5 47.5v111
c0 20 4.5 35.833 13.5 47.5s20.5 17.5 34.5 17.5h105z" />
    <glyph glyph-name="Agrave" unicode="&#xc0;" horiz-adv-x="822" 
d="M397 1576c-8 0 -14.333 13 -19 39l-63 341c-2.66699 16 -4 28.333 -4 37c0 18.667 3.33301 28 10 28h82c7.33301 0 12.833 -3.83301 16.5 -11.5s6.16699 -22.167 7.5 -43.5l22 -323c0.666992 -9.33301 1 -21 1 -35c0 -21.333 -5 -32 -15 -32h-38zM68 0
c-10 0 -14.998 9.66699 -14.998 29v17c0 8.66699 0.333008 14.334 1 17.001l225 1325c5.33301 32 17.666 48.667 36.999 50h203c18.667 -1.33301 30.667 -18 36 -50l221 -1325c0 -2 0.5 -5.66699 1.5 -11s1.66699 -10 2 -14s0.5 -7.33301 0.5 -10
c0 -18.667 -5.66699 -28 -17 -28h-165c-16 0 -26.333 13.667 -31 41l-37 255c-2 14.667 -5.66699 22 -11 22h-242c-4.66699 0 -8.33398 -7.66699 -11.001 -23l-42 -253c-2.66699 -16.667 -6 -27.834 -10 -33.501s-10 -8.5 -18 -8.5h-128zM306.002 443h204
c4.66699 0 7 6 7 18c0 4 -0.666992 7 -2 9l-99 771c-0.666992 4.66699 -1.66699 7 -3 7c-2 0 -3.33301 -2 -4 -6l-117 -771c-0.666992 -4.66699 -1 -7.66699 -1 -9c0 -12.667 5 -19 15 -19z" />
    <glyph glyph-name="Aacute" unicode="&#xc1;" horiz-adv-x="822" 
d="M397 1576c-10 0 -15.001 10.666 -15.001 31.999c0 4.66699 0.666992 16.334 2 35.001l20 323c2.66699 36.667 11.334 55 26.001 55h81c6.66699 0 10 -9.33301 10 -28c0 -8.66699 -1.33301 -21 -4 -37l-63 -341c-4.66699 -26 -11 -39 -19 -39h-38zM67.999 -0.000976562
c-10 0 -14.998 9.66699 -14.998 29v17c0 8.66699 0.333008 14.334 1 17.001l225 1325c5.33301 32 17.666 48.667 36.999 50h203c18.667 -1.33301 30.667 -18 36 -50l221 -1325c0 -2 0.5 -5.66699 1.5 -11s1.66699 -10 2 -14s0.5 -7.33301 0.5 -10
c0 -18.667 -5.66699 -28 -17 -28h-165c-16 0 -26.333 13.667 -31 41l-37 255c-2 14.667 -5.66699 22 -11 22h-242c-4.66699 0 -8.33398 -7.66699 -11.001 -23l-42 -253c-2.66699 -16.667 -6 -27.834 -10 -33.501s-10 -8.5 -18 -8.5h-128zM306.001 442.999h204
c4.66699 0 7 6 7 18c0 4 -0.666992 7 -2 9l-99 771c-0.666992 4.66699 -1.66699 7 -3 7c-2 0 -3.33301 -2 -4 -6l-117 -771c-0.666992 -4.66699 -1 -7.66699 -1 -9c0 -12.667 5 -19 15 -19z" />
    <glyph glyph-name="Acircumflex" unicode="&#xc2;" horiz-adv-x="822" 
d="M323 1576c-20.667 0 -31.001 2.66797 -31.001 8.00098c-10.667 0.666992 -16 9.66699 -16 27c0 7.33301 1.33301 16.333 4 27l72 199c16 50 33.333 75 52 75h25c18.667 0 36 -25 52 -75l72 -199c2.66699 -12 4 -22.333 4 -31c0 -14.667 -5 -22.334 -15 -23.001
c0 -5.33301 -10.333 -8 -31 -8c-14 0 -26.333 13.667 -37 41l-47 118c-4 11.333 -7.66699 17 -11 17s-6.66602 -5.66699 -9.99902 -17l-47 -118c-12 -27.333 -24 -41 -36 -41zM67.999 0.000976562c-10 0 -14.998 9.66699 -14.998 29v17c0 8.66699 0.333008 14.334 1 17.001
l225 1325c5.33301 32 17.666 48.667 36.999 50h203c18.667 -1.33301 30.667 -18 36 -50l221 -1325c0 -2 0.5 -5.66699 1.5 -11s1.66699 -10 2 -14s0.5 -7.33301 0.5 -10c0 -18.667 -5.66699 -28 -17 -28h-165c-16 0 -26.333 13.667 -31 41l-37 255
c-2 14.667 -5.66699 22 -11 22h-242c-4.66699 0 -8.33398 -7.66699 -11.001 -23l-42 -253c-2.66699 -16.667 -6 -27.834 -10 -33.501s-10 -8.5 -18 -8.5h-128zM306.001 443.001h204c4.66699 0 7 6 7 18c0 4 -0.666992 7 -2 9l-99 771c-0.666992 4.66699 -1.66699 7 -3 7
c-2 0 -3.33301 -2 -4 -6l-117 -771c-0.666992 -4.66699 -1 -7.66699 -1 -9c0 -12.667 5 -19 15 -19z" />
    <glyph glyph-name="Atilde" unicode="&#xc3;" horiz-adv-x="822" 
d="M525 1657c-12.667 0 -29.666 -6.66895 -50.999 -20.002s-45.666 -26.833 -72.999 -40.5s-54.333 -20.5 -81 -20.5c-15.333 0 -29.166 2.66699 -41.499 8s-23.666 13.833 -33.999 25.5s-17.833 20.834 -22.5 27.501s-11.667 17.334 -21 32.001c-12.667 18 -19 32 -19 42
s4 18.833 12 26.5s16.667 11.5 26 11.5c10 0 19 -3.83301 27 -11.5s14.5 -16.167 19.5 -25.5s11.167 -17.833 18.5 -25.5s15.666 -11.5 24.999 -11.5c15.333 0 46.5 13.5 93.5 40.5s84.5 40.5 112.5 40.5c17.333 0 33.666 -5.33301 48.999 -16
s27.166 -21.334 35.499 -32.001s18.833 -26 31.5 -46c12.667 -19.333 19 -33.666 19 -42.999c0 -10 -3.83301 -18.5 -11.5 -25.5s-15.834 -10.5 -24.501 -10.5c-15.333 0 -31 12.333 -47 37s-30.333 37 -43 37zM68.001 -0.00195312c-10 0 -14.998 9.66699 -14.998 29v17
c0 8.66699 0.333008 14.334 1 17.001l225 1325c5.33301 32 17.666 48.667 36.999 50h203c18.667 -1.33301 30.667 -18 36 -50l221 -1325c0 -2 0.5 -5.66699 1.5 -11s1.66699 -10 2 -14s0.5 -7.33301 0.5 -10c0 -18.667 -5.66699 -28 -17 -28h-165
c-16 0 -26.333 13.667 -31 41l-37 255c-2 14.667 -5.66699 22 -11 22h-242c-4.66699 0 -8.33398 -7.66699 -11.001 -23l-42 -253c-2.66699 -16.667 -6 -27.834 -10 -33.501s-10 -8.5 -18 -8.5h-128zM306.003 442.998h204c4.66699 0 7 6 7 18c0 4 -0.666992 7 -2 9l-99 771
c-0.666992 4.66699 -1.66699 7 -3 7c-2 0 -3.33301 -2 -4 -6l-117 -771c-0.666992 -4.66699 -1 -7.66699 -1 -9c0 -12.667 5 -19 15 -19z" />
    <glyph glyph-name="Adieresis" unicode="&#xc4;" horiz-adv-x="822" 
d="M273 1576c-18 0 -27 19 -27 57v82c0 38 9 57 27 57h60c18 0 27 -19 27 -57v-82c0 -38 -9 -57 -27 -57h-60zM499 1576c-17.333 0 -26 19 -26 57v82c0 38 8.66699 57 26 57h61c17.333 0 26 -19 26 -57v-82c0 -38 -8.66699 -57 -26 -57h-61zM68 0
c-10 0 -14.998 9.66699 -14.998 29v17c0 8.66699 0.333008 14.334 1 17.001l225 1325c5.33301 32 17.666 48.667 36.999 50h203c18.667 -1.33301 30.667 -18 36 -50l221 -1325c0 -2 0.5 -5.66699 1.5 -11s1.66699 -10 2 -14s0.5 -7.33301 0.5 -10
c0 -18.667 -5.66699 -28 -17 -28h-165c-16 0 -26.333 13.667 -31 41l-37 255c-2 14.667 -5.66699 22 -11 22h-242c-4.66699 0 -8.33398 -7.66699 -11.001 -23l-42 -253c-2.66699 -16.667 -6 -27.834 -10 -33.501s-10 -8.5 -18 -8.5h-128zM306.002 443h204
c4.66699 0 7 6 7 18c0 4 -0.666992 7 -2 9l-99 771c-0.666992 4.66699 -1.66699 7 -3 7c-2 0 -3.33301 -2 -4 -6l-117 -771c-0.666992 -4.66699 -1 -7.66699 -1 -9c0 -12.667 5 -19 15 -19z" />
    <glyph glyph-name="Aring" unicode="&#xc5;" horiz-adv-x="822" 
d="M418 1514c32 0 59.333 10.167 82 30.5s34 51.166 34 92.499c0 43.333 -11.5 74.5 -34.5 93.5s-50.167 28.5 -81.5 28.5c-33.333 0 -61.666 -9.5 -84.999 -28.5s-34.666 -50.167 -33.999 -93.5c-0.666992 -41.333 10.666 -72.166 33.999 -92.499
s51.666 -30.5 84.999 -30.5zM418 1441c-22.667 0 -45.334 3.3291 -68.001 9.99609s-44.834 17.167 -66.501 31.5s-39.167 34.833 -52.5 61.5s-20 57.667 -20 93c0 36.667 6.33301 68.334 19 95.001s29.5 47 50.5 61s42.833 24.167 65.5 30.5s46.667 9.5 72 9.5
c19.333 0 38 -1.83301 56 -5.5s36.167 -10.167 54.5 -19.5s34.333 -21.166 48 -35.499s24.667 -33.166 33 -56.499s12.5 -49.666 12.5 -78.999c0 -35.333 -6.66699 -66.333 -20 -93s-30.666 -47.167 -51.999 -61.5s-43.166 -24.833 -65.499 -31.5s-44.5 -10 -66.5 -10z
M68 -0.00390625c-10 0 -14.998 9.66699 -14.998 29v17c0 8.66699 0.333008 14.334 1 17.001l225 1325c5.33301 32 17.666 48.667 36.999 50h203c18.667 -1.33301 30.667 -18 36 -50l221 -1325c0 -2 0.5 -5.66699 1.5 -11s1.66699 -10 2 -14s0.5 -7.33301 0.5 -10
c0 -18.667 -5.66699 -28 -17 -28h-165c-16 0 -26.333 13.667 -31 41l-37 255c-2 14.667 -5.66699 22 -11 22h-242c-4.66699 0 -8.33398 -7.66699 -11.001 -23l-42 -253c-2.66699 -16.667 -6 -27.834 -10 -33.501s-10 -8.5 -18 -8.5h-128zM306.002 442.996h204
c4.66699 0 7 6 7 18c0 4 -0.666992 7 -2 9l-99 771c-0.666992 4.66699 -1.66699 7 -3 7c-2 0 -3.33301 -2 -4 -6l-117 -771c-0.666992 -4.66699 -1 -7.66699 -1 -9c0 -12.667 5 -19 15 -19z" />
    <glyph glyph-name="AE" unicode="&#xc6;" horiz-adv-x="1027" 
d="M67 0c-9.33301 0 -13.999 9.66895 -13.999 29.002c0 1.33301 -0.166992 4 -0.5 8s-0.5 7 -0.5 9c0 7.33301 1 13 3 17l334 1325c6.66699 33.333 19.667 50 39 50h501c6 0 10.5 -0.666992 13.5 -2s5.66699 -5 8 -11s3.5 -15 3.5 -27v-79c0 -16.667 -2 -27.5 -6 -32.5
s-10.333 -7.5 -19 -7.5h-194c-8 0 -12 -11 -12 -33v-404c0 -6 1.16699 -12 3.5 -18s4.5 -9 6.5 -9h156c16.667 0 25 -15.333 25 -46v-77c0 -30.667 -8.33301 -46 -25 -46h-155c-2.66699 0 -5.16699 -3.33301 -7.5 -10s-3.5 -13.334 -3.5 -20.001v-457h223
c6 0 10.667 -0.666992 14 -2s6.16602 -5 8.49902 -11s3.5 -15 3.5 -27v-79c0 -16.667 -2.16699 -27.5 -6.5 -32.5s-10.833 -7.5 -19.5 -7.5h-395c-8.66699 0 -15 2.5 -19 7.5s-6 16.5 -6 34.5v276h-217c-4 0 -7.66699 -7.66699 -11 -23l-63 -253
c-2.66699 -16.667 -6.5 -27.834 -11.5 -33.501s-11.5 -8.5 -19.5 -8.5h-137zM348.001 443.002h172c4 0 6 7.33301 6 22v791c0 8 -1 12 -3 12c-2.66699 0 -4 -3.33301 -4 -10l-184 -787c-1.33301 -4.66699 -2 -9 -2 -13c0 -10 5 -15 15 -15z" />
    <glyph glyph-name="Ccedilla" unicode="&#xc7;" horiz-adv-x="717" 
d="M424 -591c-47.333 0 -86 14.6689 -116 44.002s-45 70.333 -45 123c0 60.667 10 91 30 91h51c15.333 0 23 -11.333 23 -34c0 -6 -0.666992 -14.833 -2 -26.5s-2 -19.834 -2 -24.501c0 -27.333 5.66699 -49.666 17 -66.999s28 -26 50 -26s38.5 11.167 49.5 33.5
s16.5 59.166 16.5 110.499c0 39.333 -7.5 76.5 -22.5 111.5s-31.833 52.5 -50.5 52.5h-30c-8 -0.666992 -12 2.66602 -12 9.99902v60c0 11.333 4 17 12 17h64c40 0 73.167 -23.5 99.5 -70.5s39.5 -99.833 39.5 -158.5c0 -84 -13.667 -146 -41 -186s-71 -60 -131 -60z
M494 -14.998c-34.667 0 -64.832 1.66992 -90.499 5.00293s-53.5 10.833 -83.5 22.5s-55.5 27.834 -76.5 48.501s-42 49.334 -63 86.001s-37.833 80.5 -50.5 131.5s-23 113.667 -31 188s-12 158.833 -12 253.5c0 128 7.83301 238 23.5 330s35.5 163.667 59.5 215
s55.167 91.666 93.5 120.999s75 48 110 56s76.833 12 125.5 12c62 0 113 -9.33301 153 -28c0.666992 -0.666992 1.66699 -1.5 3 -2.5s2.5 -2 3.5 -3s1.83301 -2.66699 2.5 -5s1 -5.16602 1 -8.49902v-121c0 -9.33301 -2.33301 -14 -7 -14
c-0.666992 0 -3.16699 0.666992 -7.5 2s-10.5 3 -18.5 5s-16.667 4 -26 6s-20.166 3.66699 -32.499 5s-24.5 2 -36.5 2c-31.333 0 -58 -3.5 -80 -10.5s-44.333 -22 -67 -45s-41 -54.833 -55 -95.5s-25.333 -96.334 -34 -167.001s-13 -155.334 -13 -254.001
c0 -100.667 3.83301 -186.334 11.5 -257.001s17.5 -126.5 29.5 -167.5s28.667 -72.833 50 -95.5s42.666 -37.334 63.999 -44.001s48 -10 80 -10c47.333 0 89.333 6.33301 126 19c0.666992 0 2.16699 -3.33301 4.5 -10s3.5 -10.334 3.5 -11.001v-115
c0 -0.666992 -1.16699 -4.16699 -3.5 -10.5s-3.83301 -9.83301 -4.5 -10.5c-40.667 -15.333 -91.334 -23 -152.001 -23z" />
    <glyph glyph-name="Egrave" unicode="&#xc8;" horiz-adv-x="752" 
d="M387 1576c-8 0 -14.333 13 -19 39l-63 341c-2.66699 16 -4 28.333 -4 37c0 18.667 3.33301 28 10 28h82c7.33301 0 12.833 -3.83301 16.5 -11.5s6.16699 -22.167 7.5 -43.5l22 -323c0.666992 -9.33301 1 -21 1 -35c0 -21.333 -5 -32 -15 -32h-38zM141 0
c-8.66699 0 -14.9971 2.50195 -18.9971 7.50195s-6 16.5 -6 34.5v1354c0 17.333 2 28.666 6 33.999s10.333 8 19 8h526c5.33301 0 9.66602 -0.666992 12.999 -2s6.16602 -5 8.49902 -11s3.5 -15 3.5 -27v-79c0 -16.667 -2 -27.5 -6 -32.5s-10.333 -7.5 -19 -7.5h-342
c-8 0 -12 -11 -12 -33v-404c0 -6 1.16699 -12 3.5 -18s4.5 -9 6.5 -9h275c16.667 0 25 -15.333 25 -46v-77c0 -30.667 -8.33301 -46 -25 -46h-274c-2.66699 0 -5.16699 -3.33301 -7.5 -10s-3.5 -13.334 -3.5 -20.001v-457h357c6 0 10.667 -0.666992 14 -2
s6.16602 -5 8.49902 -11s3.5 -15 3.5 -27v-79c0 -16.667 -2.16699 -27.5 -6.5 -32.5s-10.833 -7.5 -19.5 -7.5h-529z" />
    <glyph glyph-name="Eacute" unicode="&#xc9;" horiz-adv-x="752" 
d="M387 1576c-10 0 -15.001 10.666 -15.001 31.999c0 4.66699 0.666992 16.334 2 35.001l20 323c2.66699 36.667 11.334 55 26.001 55h81c6.66699 0 10 -9.33301 10 -28c0 -8.66699 -1.33301 -21 -4 -37l-63 -341c-4.66699 -26 -11 -39 -19 -39h-38zM140.999 -0.000976562
c-8.66699 0 -14.9971 2.50195 -18.9971 7.50195s-6 16.5 -6 34.5v1354c0 17.333 2 28.666 6 33.999s10.333 8 19 8h526c5.33301 0 9.66602 -0.666992 12.999 -2s6.16602 -5 8.49902 -11s3.5 -15 3.5 -27v-79c0 -16.667 -2 -27.5 -6 -32.5s-10.333 -7.5 -19 -7.5h-342
c-8 0 -12 -11 -12 -33v-404c0 -6 1.16699 -12 3.5 -18s4.5 -9 6.5 -9h275c16.667 0 25 -15.333 25 -46v-77c0 -30.667 -8.33301 -46 -25 -46h-274c-2.66699 0 -5.16699 -3.33301 -7.5 -10s-3.5 -13.334 -3.5 -20.001v-457h357c6 0 10.667 -0.666992 14 -2
s6.16602 -5 8.49902 -11s3.5 -15 3.5 -27v-79c0 -16.667 -2.16699 -27.5 -6.5 -32.5s-10.833 -7.5 -19.5 -7.5h-529z" />
    <glyph glyph-name="Ecircumflex" unicode="&#xca;" horiz-adv-x="752" 
d="M312 1576c-20.667 0 -31.001 2.66797 -31.001 8.00098c-10.667 0.666992 -16 9.66699 -16 27c0 7.33301 1.33301 16.333 4 27l72 199c16 50 33.333 75 52 75h25c18.667 0 36 -25 52 -75l72 -199c2.66699 -12 4 -22.333 4 -31c0 -14.667 -5 -22.334 -15 -23.001
c0 -5.33301 -10.333 -8 -31 -8c-14 0 -26.333 13.667 -37 41l-47 118c-4 11.333 -7.66699 17 -11 17s-6.66602 -5.66699 -9.99902 -17l-47 -118c-12 -27.333 -24 -41 -36 -41zM140.999 0.000976562c-8.66699 0 -14.9971 2.50195 -18.9971 7.50195s-6 16.5 -6 34.5v1354
c0 17.333 2 28.666 6 33.999s10.333 8 19 8h526c5.33301 0 9.66602 -0.666992 12.999 -2s6.16602 -5 8.49902 -11s3.5 -15 3.5 -27v-79c0 -16.667 -2 -27.5 -6 -32.5s-10.333 -7.5 -19 -7.5h-342c-8 0 -12 -11 -12 -33v-404c0 -6 1.16699 -12 3.5 -18s4.5 -9 6.5 -9h275
c16.667 0 25 -15.333 25 -46v-77c0 -30.667 -8.33301 -46 -25 -46h-274c-2.66699 0 -5.16699 -3.33301 -7.5 -10s-3.5 -13.334 -3.5 -20.001v-457h357c6 0 10.667 -0.666992 14 -2s6.16602 -5 8.49902 -11s3.5 -15 3.5 -27v-79c0 -16.667 -2.16699 -27.5 -6.5 -32.5
s-10.833 -7.5 -19.5 -7.5h-529z" />
    <glyph glyph-name="Edieresis" unicode="&#xcb;" horiz-adv-x="752" 
d="M263 1576c-18 0 -27 19 -27 57v82c0 38 9 57 27 57h60c18 0 27 -19 27 -57v-82c0 -38 -9 -57 -27 -57h-60zM489 1576c-17.333 0 -26 19 -26 57v82c0 38 8.66699 57 26 57h61c17.333 0 26 -19 26 -57v-82c0 -38 -8.66699 -57 -26 -57h-61zM141 0
c-8.66699 0 -14.9971 2.50195 -18.9971 7.50195s-6 16.5 -6 34.5v1354c0 17.333 2 28.666 6 33.999s10.333 8 19 8h526c5.33301 0 9.66602 -0.666992 12.999 -2s6.16602 -5 8.49902 -11s3.5 -15 3.5 -27v-79c0 -16.667 -2 -27.5 -6 -32.5s-10.333 -7.5 -19 -7.5h-342
c-8 0 -12 -11 -12 -33v-404c0 -6 1.16699 -12 3.5 -18s4.5 -9 6.5 -9h275c16.667 0 25 -15.333 25 -46v-77c0 -30.667 -8.33301 -46 -25 -46h-274c-2.66699 0 -5.16699 -3.33301 -7.5 -10s-3.5 -13.334 -3.5 -20.001v-457h357c6 0 10.667 -0.666992 14 -2
s6.16602 -5 8.49902 -11s3.5 -15 3.5 -27v-79c0 -16.667 -2.16699 -27.5 -6.5 -32.5s-10.833 -7.5 -19.5 -7.5h-529z" />
    <glyph glyph-name="Igrave" unicode="&#xcc;" horiz-adv-x="430" 
d="M197 1576c-8 0 -14.333 13 -19 39l-63 341c-2.66699 16 -4 28.333 -4 37c0 18.667 3.33301 28 10 28h82c7.33301 0 12.833 -3.83301 16.5 -11.5s6.16699 -22.167 7.5 -43.5l22 -323c0.666992 -9.33301 1 -21 1 -35c0 -21.333 -5 -32 -15 -32h-38zM143 0
c-6 0 -10.666 0.833008 -13.999 2.5s-6.16602 6.16699 -8.49902 13.5s-3.5 17.666 -3.5 30.999v1344c0 19.333 2.16699 32 6.5 38s10.833 9 19.5 9h147c5.33301 0 9.66602 -0.833008 12.999 -2.5s6.16602 -6.16699 8.49902 -13.5s3.5 -17.666 3.5 -30.999v-1344
c0 -19.333 -2 -32 -6 -38s-10.333 -9 -19 -9h-147z" />
    <glyph glyph-name="Iacute" unicode="&#xcd;" horiz-adv-x="430" 
d="M197 1576c-10 0 -15.001 10.666 -15.001 31.999c0 4.66699 0.666992 16.334 2 35.001l20 323c2.66699 36.667 11.334 55 26.001 55h81c6.66699 0 10 -9.33301 10 -28c0 -8.66699 -1.33301 -21 -4 -37l-63 -341c-4.66699 -26 -11 -39 -19 -39h-38zM142.999 -0.000976562
c-6 0 -10.666 0.833008 -13.999 2.5s-6.16602 6.16699 -8.49902 13.5s-3.5 17.666 -3.5 30.999v1344c0 19.333 2.16699 32 6.5 38s10.833 9 19.5 9h147c5.33301 0 9.66602 -0.833008 12.999 -2.5s6.16602 -6.16699 8.49902 -13.5s3.5 -17.666 3.5 -30.999v-1344
c0 -19.333 -2 -32 -6 -38s-10.333 -9 -19 -9h-147z" />
    <glyph glyph-name="Icircumflex" unicode="&#xce;" horiz-adv-x="430" 
d="M122 1576c-20.667 0 -31.001 2.66797 -31.001 8.00098c-10.667 0.666992 -16 9.66699 -16 27c0 7.33301 1.33301 16.333 4 27l72 199c16 50 33.333 75 52 75h25c18.667 0 36 -25 52 -75l72 -199c2.66699 -12 4 -22.333 4 -31c0 -14.667 -5 -22.334 -15 -23.001
c0 -5.33301 -10.333 -8 -31 -8c-14 0 -26.333 13.667 -37 41l-47 118c-4 11.333 -7.66699 17 -11 17s-6.66602 -5.66699 -9.99902 -17l-47 -118c-12 -27.333 -24 -41 -36 -41zM142.999 0.000976562c-6 0 -10.666 0.833008 -13.999 2.5s-6.16602 6.16699 -8.49902 13.5
s-3.5 17.666 -3.5 30.999v1344c0 19.333 2.16699 32 6.5 38s10.833 9 19.5 9h147c5.33301 0 9.66602 -0.833008 12.999 -2.5s6.16602 -6.16699 8.49902 -13.5s3.5 -17.666 3.5 -30.999v-1344c0 -19.333 -2 -32 -6 -38s-10.333 -9 -19 -9h-147z" />
    <glyph glyph-name="Idieresis" unicode="&#xcf;" horiz-adv-x="430" 
d="M73 1576c-18 0 -27 19 -27 57v82c0 38 9 57 27 57h60c18 0 27 -19 27 -57v-82c0 -38 -9 -57 -27 -57h-60zM299 1576c-17.333 0 -26 19 -26 57v82c0 38 8.66699 57 26 57h61c17.333 0 26 -19 26 -57v-82c0 -38 -8.66699 -57 -26 -57h-61zM143 0
c-6 0 -10.666 0.833008 -13.999 2.5s-6.16602 6.16699 -8.49902 13.5s-3.5 17.666 -3.5 30.999v1344c0 19.333 2.16699 32 6.5 38s10.833 9 19.5 9h147c5.33301 0 9.66602 -0.833008 12.999 -2.5s6.16602 -6.16699 8.49902 -13.5s3.5 -17.666 3.5 -30.999v-1344
c0 -19.333 -2 -32 -6 -38s-10.333 -9 -19 -9h-147z" />
    <glyph glyph-name="Eth" unicode="&#xd0;" horiz-adv-x="935" 
d="M326 159l123 -0.00292969c51.333 0 91 15.333 119 46s48.833 86.834 62.5 168.501s20.5 199.167 20.5 352.5c0 142 -7.83301 254.333 -23.5 337s-37.167 139.334 -64.5 170.001s-63 46 -107 46h-131c-8 0 -12 -7.33301 -12 -22v-463h97c17.333 0 29.833 -3.5 37.5 -10.5
s11.5 -19.5 11.5 -37.5v-49c-0.666992 -15.333 -5 -26.166 -13 -32.499s-20 -9.5 -36 -9.5h-97v-474c0 -14.667 4.33301 -22 13 -22zM141 -0.00292969c-8.66699 0 -15 2.66699 -19 8s-6 17.333 -6 36v611h-50c-17.333 0 -29.833 3.5 -37.5 10.5s-11.5 19.5 -11.5 37.5v42
c0 18.667 3.83301 31.5 11.5 38.5s20.167 10.5 37.5 10.5h50v604c0 16.667 2 27.5 6 32.5s10.333 7.5 19 7.5h344c58.667 0 109.5 -11.667 152.5 -35s80.833 -61.666 113.5 -114.999s57.167 -126.5 73.5 -219.5s24.5 -206.167 24.5 -339.5c0 -94.667 -3 -178.167 -9 -250.5
s-13.833 -134.333 -23.5 -186s-23.5 -95.334 -41.5 -131.001s-36.667 -64 -56 -85s-43.666 -37.167 -72.999 -48.5s-57.833 -18.833 -85.5 -22.5s-61.834 -5.5 -102.501 -5.5h-317z" />
    <glyph glyph-name="Ntilde" unicode="&#xd1;" horiz-adv-x="962" 
d="M590 1657c-12.667 0 -29.666 -6.66895 -50.999 -20.002s-45.666 -26.833 -72.999 -40.5s-54.333 -20.5 -81 -20.5c-15.333 0 -29.166 2.66699 -41.499 8s-23.666 13.833 -33.999 25.5s-17.833 20.834 -22.5 27.501s-11.667 17.334 -21 32.001c-12.667 18 -19 32 -19 42
s4 18.833 12 26.5s16.667 11.5 26 11.5c10 0 19 -3.83301 27 -11.5s14.5 -16.167 19.5 -25.5s11.167 -17.833 18.5 -25.5s15.666 -11.5 24.999 -11.5c15.333 0 46.5 13.5 93.5 40.5s84.5 40.5 112.5 40.5c17.333 0 33.666 -5.33301 48.999 -16
s27.166 -21.334 35.499 -32.001s18.833 -26 31.5 -46c12.667 -19.333 19 -33.666 19 -42.999c0 -10 -3.83301 -18.5 -11.5 -25.5s-15.834 -10.5 -24.501 -10.5c-15.333 0 -31 12.333 -47 37s-30.333 37 -43 37zM142.001 -0.00195312
c-8.66699 0 -15.166 3.33496 -19.499 10.002s-6.5 20 -6.5 40v1335c0 35.333 8.66699 53 26 53h152c14 0 26 -13 36 -39l339 -911c1.33301 -4.66699 3.33301 -3.33398 6 3.99902l1 9v884c0 35.333 9 53 27 53h119c16.667 0 25 -17.667 25 -53v-1339
c0 -20 -2 -32.833 -6 -38.5s-10.333 -8.5 -19 -8.5h-108c-6.66699 0 -13.834 4 -21.501 12s-13.834 18 -18.501 30l-377 984c-2.66699 5.33301 -4.66699 3.66602 -6 -5.00098c-0.666992 -2 -1 -4.33301 -1 -7v-963c0 -20 -2.16699 -33.333 -6.5 -40s-11.166 -10 -20.499 -10
h-121z" />
    <glyph glyph-name="Ograve" unicode="&#xd2;" horiz-adv-x="924" 
d="M443 1576c-8 0 -14.333 13 -19 39l-63 341c-2.66699 16 -4 28.333 -4 37c0 18.667 3.33301 28 10 28h82c7.33301 0 12.833 -3.83301 16.5 -11.5s6.16699 -22.167 7.5 -43.5l22 -323c0.666992 -9.33301 1 -21 1 -35c0 -21.333 -5 -32 -15 -32h-38zM461 143
c46.667 0 82.334 15.834 107.001 47.501s42.667 89 54 172s17 204.167 17 363.5c0 154 -5.33301 270.667 -16 350s-28.167 135.166 -52.5 167.499s-60.5 48.5 -108.5 48.5c-46.667 0 -82.5 -16.5 -107.5 -49.5s-42.833 -89.5 -53.5 -169.5s-16 -195.667 -16 -347
c0 -158 5.66699 -278.5 17 -361.5s29.166 -140.667 53.499 -173s59.5 -48.5 105.5 -48.5zM462 -14.999c-55.333 0 -102.165 5.99707 -140.498 17.9971s-73.166 33.833 -104.499 65.5s-56 75.5 -74 131.5s-31.833 126.833 -41.5 212.5s-14.5 190.167 -14.5 313.5
c0 98.667 3.16699 185.334 9.5 260.001s16.666 139 30.999 193s31.166 98.667 50.499 134s43.666 63.5 72.999 84.5s60.666 35.667 93.999 44s72.333 12.5 117 12.5c54 0 100.167 -6.16699 138.5 -18.5s73.166 -34.166 104.499 -65.499s56.333 -74.5 75 -129.5
s32.834 -124.667 42.501 -209s14.5 -186.166 14.5 -305.499c0 -124 -4.66699 -229 -14 -315s-23 -157 -41 -213s-42.667 -99.5 -74 -130.5s-66.166 -52.5 -104.499 -64.5s-85.5 -18 -141.5 -18z" />
    <glyph glyph-name="Oacute" unicode="&#xd3;" horiz-adv-x="924" 
d="M443 1576c-10 0 -15.001 10.666 -15.001 31.999c0 4.66699 0.666992 16.334 2 35.001l20 323c2.66699 36.667 11.334 55 26.001 55h81c6.66699 0 10 -9.33301 10 -28c0 -8.66699 -1.33301 -21 -4 -37l-63 -341c-4.66699 -26 -11 -39 -19 -39h-38zM460.999 142.999
c46.667 0 82.334 15.834 107.001 47.501s42.667 89 54 172s17 204.167 17 363.5c0 154 -5.33301 270.667 -16 350s-28.167 135.166 -52.5 167.499s-60.5 48.5 -108.5 48.5c-46.667 0 -82.5 -16.5 -107.5 -49.5s-42.833 -89.5 -53.5 -169.5s-16 -195.667 -16 -347
c0 -158 5.66699 -278.5 17 -361.5s29.166 -140.667 53.499 -173s59.5 -48.5 105.5 -48.5zM461.999 -15c-55.333 0 -102.165 5.99707 -140.498 17.9971s-73.166 33.833 -104.499 65.5s-56 75.5 -74 131.5s-31.833 126.833 -41.5 212.5s-14.5 190.167 -14.5 313.5
c0 98.667 3.16699 185.334 9.5 260.001s16.666 139 30.999 193s31.166 98.667 50.499 134s43.666 63.5 72.999 84.5s60.666 35.667 93.999 44s72.333 12.5 117 12.5c54 0 100.167 -6.16699 138.5 -18.5s73.166 -34.166 104.499 -65.499s56.333 -74.5 75 -129.5
s32.834 -124.667 42.501 -209s14.5 -186.166 14.5 -305.499c0 -124 -4.66699 -229 -14 -315s-23 -157 -41 -213s-42.667 -99.5 -74 -130.5s-66.166 -52.5 -104.499 -64.5s-85.5 -18 -141.5 -18z" />
    <glyph glyph-name="Ocircumflex" unicode="&#xd4;" horiz-adv-x="924" 
d="M368 1576c-20.667 0 -31.001 2.66797 -31.001 8.00098c-10.667 0.666992 -16 9.66699 -16 27c0 7.33301 1.33301 16.333 4 27l72 199c16 50 33.333 75 52 75h25c18.667 0 36 -25 52 -75l72 -199c2.66699 -12 4 -22.333 4 -31c0 -14.667 -5 -22.334 -15 -23.001
c0 -5.33301 -10.333 -8 -31 -8c-14 0 -26.333 13.667 -37 41l-47 118c-4 11.333 -7.66699 17 -11 17s-6.66602 -5.66699 -9.99902 -17l-47 -118c-12 -27.333 -24 -41 -36 -41zM460.999 143.001c46.667 0 82.334 15.834 107.001 47.501s42.667 89 54 172s17 204.167 17 363.5
c0 154 -5.33301 270.667 -16 350s-28.167 135.166 -52.5 167.499s-60.5 48.5 -108.5 48.5c-46.667 0 -82.5 -16.5 -107.5 -49.5s-42.833 -89.5 -53.5 -169.5s-16 -195.667 -16 -347c0 -158 5.66699 -278.5 17 -361.5s29.166 -140.667 53.499 -173s59.5 -48.5 105.5 -48.5z
M461.999 -14.998c-55.333 0 -102.165 5.99707 -140.498 17.9971s-73.166 33.833 -104.499 65.5s-56 75.5 -74 131.5s-31.833 126.833 -41.5 212.5s-14.5 190.167 -14.5 313.5c0 98.667 3.16699 185.334 9.5 260.001s16.666 139 30.999 193s31.166 98.667 50.499 134
s43.666 63.5 72.999 84.5s60.666 35.667 93.999 44s72.333 12.5 117 12.5c54 0 100.167 -6.16699 138.5 -18.5s73.166 -34.166 104.499 -65.499s56.333 -74.5 75 -129.5s32.834 -124.667 42.501 -209s14.5 -186.166 14.5 -305.499c0 -124 -4.66699 -229 -14 -315
s-23 -157 -41 -213s-42.667 -99.5 -74 -130.5s-66.166 -52.5 -104.499 -64.5s-85.5 -18 -141.5 -18z" />
    <glyph glyph-name="Otilde" unicode="&#xd5;" horiz-adv-x="924" 
d="M570 1657c-12.667 0 -29.666 -6.66895 -50.999 -20.002s-45.666 -26.833 -72.999 -40.5s-54.333 -20.5 -81 -20.5c-15.333 0 -29.166 2.66699 -41.499 8s-23.666 13.833 -33.999 25.5s-17.833 20.834 -22.5 27.501s-11.667 17.334 -21 32.001c-12.667 18 -19 32 -19 42
s4 18.833 12 26.5s16.667 11.5 26 11.5c10 0 19 -3.83301 27 -11.5s14.5 -16.167 19.5 -25.5s11.167 -17.833 18.5 -25.5s15.666 -11.5 24.999 -11.5c15.333 0 46.5 13.5 93.5 40.5s84.5 40.5 112.5 40.5c17.333 0 33.666 -5.33301 48.999 -16
s27.166 -21.334 35.499 -32.001s18.833 -26 31.5 -46c12.667 -19.333 19 -33.666 19 -42.999c0 -10 -3.83301 -18.5 -11.5 -25.5s-15.834 -10.5 -24.501 -10.5c-15.333 0 -31 12.333 -47 37s-30.333 37 -43 37zM461.001 142.998c46.667 0 82.334 15.834 107.001 47.501
s42.667 89 54 172s17 204.167 17 363.5c0 154 -5.33301 270.667 -16 350s-28.167 135.166 -52.5 167.499s-60.5 48.5 -108.5 48.5c-46.667 0 -82.5 -16.5 -107.5 -49.5s-42.833 -89.5 -53.5 -169.5s-16 -195.667 -16 -347c0 -158 5.66699 -278.5 17 -361.5
s29.166 -140.667 53.499 -173s59.5 -48.5 105.5 -48.5zM462.001 -15.001c-55.333 0 -102.165 5.99707 -140.498 17.9971s-73.166 33.833 -104.499 65.5s-56 75.5 -74 131.5s-31.833 126.833 -41.5 212.5s-14.5 190.167 -14.5 313.5c0 98.667 3.16699 185.334 9.5 260.001
s16.666 139 30.999 193s31.166 98.667 50.499 134s43.666 63.5 72.999 84.5s60.666 35.667 93.999 44s72.333 12.5 117 12.5c54 0 100.167 -6.16699 138.5 -18.5s73.166 -34.166 104.499 -65.499s56.333 -74.5 75 -129.5s32.834 -124.667 42.501 -209
s14.5 -186.166 14.5 -305.499c0 -124 -4.66699 -229 -14 -315s-23 -157 -41 -213s-42.667 -99.5 -74 -130.5s-66.166 -52.5 -104.499 -64.5s-85.5 -18 -141.5 -18z" />
    <glyph glyph-name="Odieresis" unicode="&#xd6;" horiz-adv-x="924" 
d="M319 1576c-18 0 -27 19 -27 57v82c0 38 9 57 27 57h60c18 0 27 -19 27 -57v-82c0 -38 -9 -57 -27 -57h-60zM545 1576c-17.333 0 -26 19 -26 57v82c0 38 8.66699 57 26 57h61c17.333 0 26 -19 26 -57v-82c0 -38 -8.66699 -57 -26 -57h-61zM461 143
c46.667 0 82.334 15.834 107.001 47.501s42.667 89 54 172s17 204.167 17 363.5c0 154 -5.33301 270.667 -16 350s-28.167 135.166 -52.5 167.499s-60.5 48.5 -108.5 48.5c-46.667 0 -82.5 -16.5 -107.5 -49.5s-42.833 -89.5 -53.5 -169.5s-16 -195.667 -16 -347
c0 -158 5.66699 -278.5 17 -361.5s29.166 -140.667 53.499 -173s59.5 -48.5 105.5 -48.5zM462 -14.999c-55.333 0 -102.165 5.99707 -140.498 17.9971s-73.166 33.833 -104.499 65.5s-56 75.5 -74 131.5s-31.833 126.833 -41.5 212.5s-14.5 190.167 -14.5 313.5
c0 98.667 3.16699 185.334 9.5 260.001s16.666 139 30.999 193s31.166 98.667 50.499 134s43.666 63.5 72.999 84.5s60.666 35.667 93.999 44s72.333 12.5 117 12.5c54 0 100.167 -6.16699 138.5 -18.5s73.166 -34.166 104.499 -65.499s56.333 -74.5 75 -129.5
s32.834 -124.667 42.501 -209s14.5 -186.166 14.5 -305.499c0 -124 -4.66699 -229 -14 -315s-23 -157 -41 -213s-42.667 -99.5 -74 -130.5s-66.166 -52.5 -104.499 -64.5s-85.5 -18 -141.5 -18z" />
    <glyph glyph-name="multiply" unicode="&#xd7;" horiz-adv-x="801" 
d="M197 342l-50 51c-7.33301 7.33301 -11 13.666 -11 18.999c0 9.33301 7 21 21 35l151 151l-151 152c-14 14 -21 25.667 -21 35c0 5.33301 4 12 12 20l50 51c6.66699 6.66699 13 10 19 10c9.33301 0 21 -6.66699 35 -20l152 -152l151 151c14 14 25.667 21 35 21
c5.33301 0 11.666 -3.66699 18.999 -11l51 -50c7.33301 -7.33301 11 -14.333 11 -21c0 -9.33301 -6.66699 -20.666 -20 -33.999l-151 -152l151 -151c14 -14 21 -25.333 21 -34c0 -6 -3.66699 -12.667 -11 -20l-51 -51c-7.33301 -7.33301 -14 -11 -20 -11
c-10 0 -21.667 6.66699 -35 20l-151 152l-152 -152c-13.333 -13.333 -24.666 -20 -33.999 -20c-6.66699 0 -13.667 3.66699 -21 11z" />
    <glyph glyph-name="Oslash" unicode="&#xd8;" horiz-adv-x="924" 
d="M304 -205c-2 0 -3.66895 4.66602 -5.00195 13.999s-1.66602 15.666 -0.999023 18.999l25 174c-56 18 -100.833 52.167 -134.5 102.5s-59 126 -76 227s-25.5 233.167 -25.5 396.5c0 118.667 5 220.167 15 304.5s24.167 154.166 42.5 209.499s43.333 99 75 131
s66.5 54.333 104.5 67s84 19 138 19c22 0 44 -1.66699 66 -5l23 160c3.33301 22 8.33301 33 15 33h75c2.66699 0 4.66699 -3.66699 6 -11s1.33301 -14.666 0 -21.999l-26 -181c76 -32 131 -101.5 165 -208.5s51 -272.5 51 -496.5c0 -124 -4.66699 -229.167 -14 -315.5
s-23 -157.666 -41 -213.999s-42.667 -100.166 -74 -131.499s-66.166 -53 -104.499 -65s-85.5 -18 -141.5 -18c-10.667 0 -26 0.666992 -46 2l-22 -159c-2 -22 -7 -33 -15 -33zM353.998 224.999l150.999 1066c-14.667 3.33301 -29 5 -43 5
c-46.667 0 -82.5 -16.667 -107.5 -50s-42.833 -90.166 -53.5 -170.499s-16 -196.166 -16 -347.499c0 -143.333 5.33301 -254.166 16 -332.499s28.334 -135.166 53.001 -170.499zM460.997 144.995c46.667 0 82.333 15.832 107 47.499s42.667 88.834 54 171.501s17 204 17 364
c0 234 -17.667 386 -53 456l-146 -1037c9.33301 -1.33301 16.333 -2 21 -2z" />
    <glyph glyph-name="Ugrave" unicode="&#xd9;" horiz-adv-x="953" 
d="M457 1576c-8 0 -14.333 13 -19 39l-63 341c-2.66699 16 -4 28.333 -4 37c0 18.667 3.33301 28 10 28h82c7.33301 0 12.833 -3.83301 16.5 -11.5s6.16699 -22.167 7.5 -43.5l22 -323c0.666992 -9.33301 1 -21 1 -35c0 -21.333 -5 -32 -15 -32h-38zM480 -15
c-36 0 -66.998 1.49902 -92.998 4.49902s-53 9.33301 -81 19s-51.667 23.167 -71 40.5s-38.166 40.833 -56.499 70.5s-32.833 65.5 -43.5 107.5s-19.167 92.667 -25.5 152s-9.5 127.333 -9.5 204v808c0 19.333 2.16699 32 6.5 38s10.833 9 19.5 9h147
c5.33301 0 9.66602 -0.833008 12.999 -2.5s6.16602 -6.16699 8.49902 -13.5s3.5 -17.666 3.5 -30.999v-802c0 -78.667 2.33301 -144.667 7 -198s11.334 -96.333 20.001 -129s20.834 -57.5 36.501 -74.5s32.167 -28.333 49.5 -34s40 -8.5 68 -8.5
c35.333 0 62.666 4 81.999 12s37 27 53 57s26.833 74.667 32.5 134s8.5 139.666 8.5 240.999v802c0 20 2 32.833 6 38.5s10.333 8.5 19 8.5h148c5.33301 0 9.5 -0.833008 12.5 -2.5s5.66699 -6.16699 8 -13.5s3.5 -17.666 3.5 -30.999v-808
c0 -77.333 -3.16699 -146.166 -9.5 -206.499s-14.833 -111.333 -25.5 -153s-25.167 -77.167 -43.5 -106.5s-37 -52.5 -56 -69.5s-42.333 -30.333 -70 -40s-53.834 -15.834 -78.501 -18.501s-54.334 -4 -89.001 -4z" />
    <glyph glyph-name="Uacute" unicode="&#xda;" horiz-adv-x="953" 
d="M457 1576c-10 0 -15.001 10.666 -15.001 31.999c0 4.66699 0.666992 16.334 2 35.001l20 323c2.66699 36.667 11.334 55 26.001 55h81c6.66699 0 10 -9.33301 10 -28c0 -8.66699 -1.33301 -21 -4 -37l-63 -341c-4.66699 -26 -11 -39 -19 -39h-38zM479.999 -15.001
c-36 0 -66.998 1.49902 -92.998 4.49902s-53 9.33301 -81 19s-51.667 23.167 -71 40.5s-38.166 40.833 -56.499 70.5s-32.833 65.5 -43.5 107.5s-19.167 92.667 -25.5 152s-9.5 127.333 -9.5 204v808c0 19.333 2.16699 32 6.5 38s10.833 9 19.5 9h147
c5.33301 0 9.66602 -0.833008 12.999 -2.5s6.16602 -6.16699 8.49902 -13.5s3.5 -17.666 3.5 -30.999v-802c0 -78.667 2.33301 -144.667 7 -198s11.334 -96.333 20.001 -129s20.834 -57.5 36.501 -74.5s32.167 -28.333 49.5 -34s40 -8.5 68 -8.5
c35.333 0 62.666 4 81.999 12s37 27 53 57s26.833 74.667 32.5 134s8.5 139.666 8.5 240.999v802c0 20 2 32.833 6 38.5s10.333 8.5 19 8.5h148c5.33301 0 9.5 -0.833008 12.5 -2.5s5.66699 -6.16699 8 -13.5s3.5 -17.666 3.5 -30.999v-808
c0 -77.333 -3.16699 -146.166 -9.5 -206.499s-14.833 -111.333 -25.5 -153s-25.167 -77.167 -43.5 -106.5s-37 -52.5 -56 -69.5s-42.333 -30.333 -70 -40s-53.834 -15.834 -78.501 -18.501s-54.334 -4 -89.001 -4z" />
    <glyph glyph-name="Ucircumflex" unicode="&#xdb;" horiz-adv-x="953" 
d="M382 1576c-20.667 0 -31.001 2.66797 -31.001 8.00098c-10.667 0.666992 -16 9.66699 -16 27c0 7.33301 1.33301 16.333 4 27l72 199c16 50 33.333 75 52 75h25c18.667 0 36 -25 52 -75l72 -199c2.66699 -12 4 -22.333 4 -31c0 -14.667 -5 -22.334 -15 -23.001
c0 -5.33301 -10.333 -8 -31 -8c-14 0 -26.333 13.667 -37 41l-47 118c-4 11.333 -7.66699 17 -11 17s-6.66602 -5.66699 -9.99902 -17l-47 -118c-12 -27.333 -24 -41 -36 -41zM479.999 -14.999c-36 0 -66.998 1.49902 -92.998 4.49902s-53 9.33301 -81 19
s-51.667 23.167 -71 40.5s-38.166 40.833 -56.499 70.5s-32.833 65.5 -43.5 107.5s-19.167 92.667 -25.5 152s-9.5 127.333 -9.5 204v808c0 19.333 2.16699 32 6.5 38s10.833 9 19.5 9h147c5.33301 0 9.66602 -0.833008 12.999 -2.5s6.16602 -6.16699 8.49902 -13.5
s3.5 -17.666 3.5 -30.999v-802c0 -78.667 2.33301 -144.667 7 -198s11.334 -96.333 20.001 -129s20.834 -57.5 36.501 -74.5s32.167 -28.333 49.5 -34s40 -8.5 68 -8.5c35.333 0 62.666 4 81.999 12s37 27 53 57s26.833 74.667 32.5 134s8.5 139.666 8.5 240.999v802
c0 20 2 32.833 6 38.5s10.333 8.5 19 8.5h148c5.33301 0 9.5 -0.833008 12.5 -2.5s5.66699 -6.16699 8 -13.5s3.5 -17.666 3.5 -30.999v-808c0 -77.333 -3.16699 -146.166 -9.5 -206.499s-14.833 -111.333 -25.5 -153s-25.167 -77.167 -43.5 -106.5s-37 -52.5 -56 -69.5
s-42.333 -30.333 -70 -40s-53.834 -15.834 -78.501 -18.501s-54.334 -4 -89.001 -4z" />
    <glyph glyph-name="Udieresis" unicode="&#xdc;" horiz-adv-x="953" 
d="M333 1576c-18 0 -27 19 -27 57v82c0 38 9 57 27 57h60c18 0 27 -19 27 -57v-82c0 -38 -9 -57 -27 -57h-60zM559 1576c-17.333 0 -26 19 -26 57v82c0 38 8.66699 57 26 57h61c17.333 0 26 -19 26 -57v-82c0 -38 -8.66699 -57 -26 -57h-61zM480 -15
c-36 0 -66.998 1.49902 -92.998 4.49902s-53 9.33301 -81 19s-51.667 23.167 -71 40.5s-38.166 40.833 -56.499 70.5s-32.833 65.5 -43.5 107.5s-19.167 92.667 -25.5 152s-9.5 127.333 -9.5 204v808c0 19.333 2.16699 32 6.5 38s10.833 9 19.5 9h147
c5.33301 0 9.66602 -0.833008 12.999 -2.5s6.16602 -6.16699 8.49902 -13.5s3.5 -17.666 3.5 -30.999v-802c0 -78.667 2.33301 -144.667 7 -198s11.334 -96.333 20.001 -129s20.834 -57.5 36.501 -74.5s32.167 -28.333 49.5 -34s40 -8.5 68 -8.5
c35.333 0 62.666 4 81.999 12s37 27 53 57s26.833 74.667 32.5 134s8.5 139.666 8.5 240.999v802c0 20 2 32.833 6 38.5s10.333 8.5 19 8.5h148c5.33301 0 9.5 -0.833008 12.5 -2.5s5.66699 -6.16699 8 -13.5s3.5 -17.666 3.5 -30.999v-808
c0 -77.333 -3.16699 -146.166 -9.5 -206.499s-14.833 -111.333 -25.5 -153s-25.167 -77.167 -43.5 -106.5s-37 -52.5 -56 -69.5s-42.333 -30.333 -70 -40s-53.834 -15.834 -78.501 -18.501s-54.334 -4 -89.001 -4z" />
    <glyph glyph-name="Yacute" unicode="&#xdd;" horiz-adv-x="732" 
d="M348 1576c-10 0 -15.001 10.666 -15.001 31.999c0 4.66699 0.666992 16.334 2 35.001l20 323c2.66699 36.667 11.334 55 26.001 55h81c6.66699 0 10 -9.33301 10 -28c0 -8.66699 -1.33301 -21 -4 -37l-63 -341c-4.66699 -26 -11 -39 -19 -39h-38zM294.999 -0.000976562
c-8.66699 0 -15 3.5 -19 10.5s-6 20.5 -6 40.5v427l-231 900c-3.33301 10 -5 19.667 -5 29c0 20.667 5.33301 31 16 31h148c18.667 0 32.667 -17.667 42 -53l141 -565l138 564c4 16 9.66699 29 17 39s15 15 23 15h125c10.667 0 16 -10.667 16 -32
c0 -8.66699 -1.33301 -18 -4 -28l-228 -897v-430c0 -34 -8.33301 -51 -25 -51h-148z" />
    <glyph glyph-name="Thorn" unicode="&#xde;" horiz-adv-x="866" 
d="M141 0c-16.667 0 -24.999 17.332 -24.999 51.999v1333c0 34.667 8.33301 52 25 52h147c16.667 0 25 -17.333 25 -52v-169h122c24 0 44.667 -0.333008 62 -1s37.166 -2.66699 59.499 -6s41.5 -8 57.5 -14s33.333 -14.333 52 -25s34.5 -23.5 47.5 -38.5
s25.833 -33.667 38.5 -56s22.667 -47.666 30 -75.999s13.333 -61.5 18 -99.5s7 -80 7 -126c0 -54.667 -3.33301 -103.834 -10 -147.501s-15.5 -80.5 -26.5 -110.5s-25.333 -55.667 -43 -77s-35.5 -38.166 -53.5 -50.499s-39.5 -22 -64.5 -29s-48.167 -11.5 -69.5 -13.5
s-46 -3 -74 -3h-142c-7.33301 0 -11 -6.33301 -11 -19v-272c0 -34.667 -8.33301 -52 -25 -52h-147zM323.001 501.999l119.998 -0.000976562c35.333 0 62.333 2.5 81 7.5s35.334 17 50.001 36s24.334 46.167 29.001 81.5s7 84 7 146c0 39.333 -1.66699 73.833 -5 103.5
s-7.33301 54.5 -12 74.5s-12 36.833 -22 50.5s-19.167 24.167 -27.5 31.5s-20 12.833 -35 16.5s-28 5.83398 -39 6.50098s-26.167 1 -45.5 1h-101c-6.66699 0 -10 -6.66699 -10 -20v-516c0 -12.667 3.33301 -19 10 -19z" />
    <glyph glyph-name="germandbls" unicode="&#xdf;" horiz-adv-x="913" 
d="M290 0l-130.999 -0.00292969c-9.33301 0 -16.166 2.66699 -20.499 8s-6.5 17.333 -6.5 36v998c0 38.667 2.83301 75.334 8.5 110.001s16.5 70 32.5 106s36.333 66.833 61 92.5s57.834 46.667 99.501 63s89.5 24.5 143.5 24.5c86.667 0 155.834 -30.833 207.501 -92.5
s77.5 -156.5 77.5 -284.5c0 -27.333 -0.333008 -49 -1 -65s-2.83398 -35 -6.50098 -57s-8.83398 -40.167 -15.501 -54.5s-16.334 -29 -29.001 -44s-28.334 -27.833 -47.001 -38.5c-6 -6.66699 -8.83301 -11 -8.5 -13s3.5 -6 9.5 -12c46 -19.333 82.167 -60.333 108.5 -123
s39.5 -136 39.5 -220c0 -289.333 -126.667 -434 -380 -434v150c66.667 0 117.5 24.5 152.5 73.5s52.5 119.5 52.5 211.5c0 179.333 -66.333 269 -199 269v149c58 0 99.333 16.667 124 50s37 84 37 152c0 83.333 -10 142 -30 176s-54 51 -102 51c-23.333 0 -44 -3 -62 -9
s-32.5 -14.667 -43.5 -26s-20 -23.166 -27 -35.499s-12.167 -27 -15.5 -44s-5.5 -31.667 -6.5 -44s-1.5 -26.166 -1.5 -41.499v-20v-16v-996c0 -12 -1.16699 -22 -3.5 -30s-5 -13.333 -8 -16s-6.16699 -4 -9.5 -4z" />
    <glyph glyph-name="agrave" unicode="&#xe0;" horiz-adv-x="724" 
d="M338 1140c-8 0 -14.333 13 -19 39l-63 341c-2.66699 16 -4 28.333 -4 37c0 18.667 3.33301 28 10 28h82c7.33301 0 12.833 -3.83301 16.5 -11.5s6.16699 -22.167 7.5 -43.5l22 -323c0.666992 -9.33301 1 -21 1 -35c0 -21.333 -5 -32 -15 -32h-38zM286 -12
c-66 0 -117.168 21.3369 -153.501 64.0039s-54.5 104.667 -54.5 186c0 60.667 9.16699 113.667 27.5 159s41.333 79.666 69 102.999s58.167 42.666 91.5 57.999s64.333 25.333 93 30s53.834 9.16699 75.501 13.5s34.167 8.83301 37.5 13.5v53
c0 71.333 -7.83301 124.833 -23.5 160.5s-44.167 53.5 -85.5 53.5c-34.667 0 -61.167 -10.833 -79.5 -32.5s-33.833 -54.834 -46.5 -99.501c-6 -18.667 -14 -27.334 -24 -26.001c-70 17.333 -105.333 28.666 -106 33.999c-4 2 -6.16699 9.66699 -6.5 23
s1.16699 25.666 4.5 36.999c17.333 65.333 47 114.833 89 148.5s102 50.5 180 50.5c42 0 78.5 -6.83301 109.5 -20.5s58.167 -36.167 81.5 -67.5s40.833 -73.833 52.5 -127.5s17.5 -119.167 17.5 -196.5v-555c0 -34 -7 -51 -21 -51h-32c-12 0 -22.667 14.667 -32 44
c-1.33301 6.66699 -7.83301 28.334 -19.5 65.001s-18.167 58.667 -19.5 66c-0.666992 2 -1.5 3.33301 -2.5 4s-2.16699 0.666992 -3.5 0s-2 -2 -2 -4c-18 -61.333 -43.833 -107.666 -77.5 -138.999s-80.167 -47 -139.5 -47zM320.999 116.004
c46.667 0 84.167 30.668 112.5 92.001s42.5 134.666 42.5 219.999c0 50.667 -3 76 -9 76c-12 0 -22 -2 -30 -6c-72 -18 -124.833 -47.333 -158.5 -88s-50.5 -93.667 -50.5 -159c0 -90 31 -135 93 -135z" />
    <glyph glyph-name="aacute" unicode="&#xe1;" horiz-adv-x="724" 
d="M337 1140c-10 0 -15.001 10.666 -15.001 31.999c0 4.66699 0.666992 16.334 2 35.001l20 323c2.66699 36.667 11.334 55 26.001 55h81c6.66699 0 10 -9.33301 10 -28c0 -8.66699 -1.33301 -21 -4 -37l-63 -341c-4.66699 -26 -11 -39 -19 -39h-38zM285.999 -12.001
c-66 0 -117.168 21.3369 -153.501 64.0039s-54.5 104.667 -54.5 186c0 60.667 9.16699 113.667 27.5 159s41.333 79.666 69 102.999s58.167 42.666 91.5 57.999s64.333 25.333 93 30s53.834 9.16699 75.501 13.5s34.167 8.83301 37.5 13.5v53
c0 71.333 -7.83301 124.833 -23.5 160.5s-44.167 53.5 -85.5 53.5c-34.667 0 -61.167 -10.833 -79.5 -32.5s-33.833 -54.834 -46.5 -99.501c-6 -18.667 -14 -27.334 -24 -26.001c-70 17.333 -105.333 28.666 -106 33.999c-4 2 -6.16699 9.66699 -6.5 23
s1.16699 25.666 4.5 36.999c17.333 65.333 47 114.833 89 148.5s102 50.5 180 50.5c42 0 78.5 -6.83301 109.5 -20.5s58.167 -36.167 81.5 -67.5s40.833 -73.833 52.5 -127.5s17.5 -119.167 17.5 -196.5v-555c0 -34 -7 -51 -21 -51h-32c-12 0 -22.667 14.667 -32 44
c-1.33301 6.66699 -7.83301 28.334 -19.5 65.001s-18.167 58.667 -19.5 66c-0.666992 2 -1.5 3.33301 -2.5 4s-2.16699 0.666992 -3.5 0s-2 -2 -2 -4c-18 -61.333 -43.833 -107.666 -77.5 -138.999s-80.167 -47 -139.5 -47zM320.998 116.003
c46.667 0 84.167 30.668 112.5 92.001s42.5 134.666 42.5 219.999c0 50.667 -3 76 -9 76c-12 0 -22 -2 -30 -6c-72 -18 -124.833 -47.333 -158.5 -88s-50.5 -93.667 -50.5 -159c0 -90 31 -135 93 -135z" />
    <glyph glyph-name="acircumflex" unicode="&#xe2;" horiz-adv-x="724" 
d="M263 1140c-20.667 0 -31.001 2.66797 -31.001 8.00098c-10.667 0.666992 -16 9.66699 -16 27c0 7.33301 1.33301 16.333 4 27l72 199c16 50 33.333 75 52 75h25c18.667 0 36 -25 52 -75l72 -199c2.66699 -12 4 -22.333 4 -31c0 -14.667 -5 -22.334 -15 -23.001
c0 -5.33301 -10.333 -8 -31 -8c-14 0 -26.333 13.667 -37 41l-47 118c-4 11.333 -7.66699 17 -11 17s-6.66602 -5.66699 -9.99902 -17l-47 -118c-12 -27.333 -24 -41 -36 -41zM285.999 -11.999c-66 0 -117.168 21.3369 -153.501 64.0039s-54.5 104.667 -54.5 186
c0 60.667 9.16699 113.667 27.5 159s41.333 79.666 69 102.999s58.167 42.666 91.5 57.999s64.333 25.333 93 30s53.834 9.16699 75.501 13.5s34.167 8.83301 37.5 13.5v53c0 71.333 -7.83301 124.833 -23.5 160.5s-44.167 53.5 -85.5 53.5
c-34.667 0 -61.167 -10.833 -79.5 -32.5s-33.833 -54.834 -46.5 -99.501c-6 -18.667 -14 -27.334 -24 -26.001c-70 17.333 -105.333 28.666 -106 33.999c-4 2 -6.16699 9.66699 -6.5 23s1.16699 25.666 4.5 36.999c17.333 65.333 47 114.833 89 148.5s102 50.5 180 50.5
c42 0 78.5 -6.83301 109.5 -20.5s58.167 -36.167 81.5 -67.5s40.833 -73.833 52.5 -127.5s17.5 -119.167 17.5 -196.5v-555c0 -34 -7 -51 -21 -51h-32c-12 0 -22.667 14.667 -32 44c-1.33301 6.66699 -7.83301 28.334 -19.5 65.001s-18.167 58.667 -19.5 66
c-0.666992 2 -1.5 3.33301 -2.5 4s-2.16699 0.666992 -3.5 0s-2 -2 -2 -4c-18 -61.333 -43.833 -107.666 -77.5 -138.999s-80.167 -47 -139.5 -47zM320.998 116.005c46.667 0 84.167 30.668 112.5 92.001s42.5 134.666 42.5 219.999c0 50.667 -3 76 -9 76
c-12 0 -22 -2 -30 -6c-72 -18 -124.833 -47.333 -158.5 -88s-50.5 -93.667 -50.5 -159c0 -90 31 -135 93 -135z" />
    <glyph glyph-name="atilde" unicode="&#xe3;" horiz-adv-x="724" 
d="M465 1221c-12.667 0 -29.666 -6.66895 -50.999 -20.002s-45.666 -26.833 -72.999 -40.5s-54.333 -20.5 -81 -20.5c-15.333 0 -29.166 2.66699 -41.499 8s-23.666 13.833 -33.999 25.5s-17.833 20.834 -22.5 27.501s-11.667 17.334 -21 32.001c-12.667 18 -19 32 -19 42
s4 18.833 12 26.5s16.667 11.5 26 11.5c10 0 19 -3.83301 27 -11.5s14.5 -16.167 19.5 -25.5s11.167 -17.833 18.5 -25.5s15.666 -11.5 24.999 -11.5c15.333 0 46.5 13.5 93.5 40.5s84.5 40.5 112.5 40.5c17.333 0 33.666 -5.33301 48.999 -16
s27.166 -21.334 35.499 -32.001s18.833 -26 31.5 -46c12.667 -19.333 19 -33.666 19 -42.999c0 -10 -3.83301 -18.5 -11.5 -25.5s-15.834 -10.5 -24.501 -10.5c-15.333 0 -31 12.333 -47 37s-30.333 37 -43 37zM286.001 -12.002c-66 0 -117.168 21.3369 -153.501 64.0039
s-54.5 104.667 -54.5 186c0 60.667 9.16699 113.667 27.5 159s41.333 79.666 69 102.999s58.167 42.666 91.5 57.999s64.333 25.333 93 30s53.834 9.16699 75.501 13.5s34.167 8.83301 37.5 13.5v53c0 71.333 -7.83301 124.833 -23.5 160.5s-44.167 53.5 -85.5 53.5
c-34.667 0 -61.167 -10.833 -79.5 -32.5s-33.833 -54.834 -46.5 -99.501c-6 -18.667 -14 -27.334 -24 -26.001c-70 17.333 -105.333 28.666 -106 33.999c-4 2 -6.16699 9.66699 -6.5 23s1.16699 25.666 4.5 36.999c17.333 65.333 47 114.833 89 148.5s102 50.5 180 50.5
c42 0 78.5 -6.83301 109.5 -20.5s58.167 -36.167 81.5 -67.5s40.833 -73.833 52.5 -127.5s17.5 -119.167 17.5 -196.5v-555c0 -34 -7 -51 -21 -51h-32c-12 0 -22.667 14.667 -32 44c-1.33301 6.66699 -7.83301 28.334 -19.5 65.001s-18.167 58.667 -19.5 66
c-0.666992 2 -1.5 3.33301 -2.5 4s-2.16699 0.666992 -3.5 0s-2 -2 -2 -4c-18 -61.333 -43.833 -107.666 -77.5 -138.999s-80.167 -47 -139.5 -47zM321 116.002c46.667 0 84.167 30.668 112.5 92.001s42.5 134.666 42.5 219.999c0 50.667 -3 76 -9 76c-12 0 -22 -2 -30 -6
c-72 -18 -124.833 -47.333 -158.5 -88s-50.5 -93.667 -50.5 -159c0 -90 31 -135 93 -135z" />
    <glyph glyph-name="adieresis" unicode="&#xe4;" horiz-adv-x="724" 
d="M214 1140c-18 0 -27 19 -27 57v82c0 38 9 57 27 57h60c18 0 27 -19 27 -57v-82c0 -38 -9 -57 -27 -57h-60zM440 1140c-17.333 0 -26 19 -26 57v82c0 38 8.66699 57 26 57h61c17.333 0 26 -19 26 -57v-82c0 -38 -8.66699 -57 -26 -57h-61zM286 -12
c-66 0 -117.168 21.3369 -153.501 64.0039s-54.5 104.667 -54.5 186c0 60.667 9.16699 113.667 27.5 159s41.333 79.666 69 102.999s58.167 42.666 91.5 57.999s64.333 25.333 93 30s53.834 9.16699 75.501 13.5s34.167 8.83301 37.5 13.5v53
c0 71.333 -7.83301 124.833 -23.5 160.5s-44.167 53.5 -85.5 53.5c-34.667 0 -61.167 -10.833 -79.5 -32.5s-33.833 -54.834 -46.5 -99.501c-6 -18.667 -14 -27.334 -24 -26.001c-70 17.333 -105.333 28.666 -106 33.999c-4 2 -6.16699 9.66699 -6.5 23
s1.16699 25.666 4.5 36.999c17.333 65.333 47 114.833 89 148.5s102 50.5 180 50.5c42 0 78.5 -6.83301 109.5 -20.5s58.167 -36.167 81.5 -67.5s40.833 -73.833 52.5 -127.5s17.5 -119.167 17.5 -196.5v-555c0 -34 -7 -51 -21 -51h-32c-12 0 -22.667 14.667 -32 44
c-1.33301 6.66699 -7.83301 28.334 -19.5 65.001s-18.167 58.667 -19.5 66c-0.666992 2 -1.5 3.33301 -2.5 4s-2.16699 0.666992 -3.5 0s-2 -2 -2 -4c-18 -61.333 -43.833 -107.666 -77.5 -138.999s-80.167 -47 -139.5 -47zM320.999 116.004
c46.667 0 84.167 30.668 112.5 92.001s42.5 134.666 42.5 219.999c0 50.667 -3 76 -9 76c-12 0 -22 -2 -30 -6c-72 -18 -124.833 -47.333 -158.5 -88s-50.5 -93.667 -50.5 -159c0 -90 31 -135 93 -135z" />
    <glyph glyph-name="aring" unicode="&#xe5;" horiz-adv-x="724" 
d="M358 1213c32 0 59.333 10.167 82 30.5s34 51.166 34 92.499c0 43.333 -11.5 74.5 -34.5 93.5s-50.167 28.5 -81.5 28.5c-33.333 0 -61.666 -9.5 -84.999 -28.5s-34.666 -50.167 -33.999 -93.5c-0.666992 -41.333 10.666 -72.166 33.999 -92.499
s51.666 -30.5 84.999 -30.5zM358 1140c-22.667 0 -45.334 3.3291 -68.001 9.99609s-44.834 17.167 -66.501 31.5s-39.167 34.833 -52.5 61.5s-20 57.667 -20 93c0 36.667 6.33301 68.334 19 95.001s29.5 47 50.5 61s42.833 24.167 65.5 30.5s46.667 9.5 72 9.5
c19.333 0 38 -1.83301 56 -5.5s36.167 -10.167 54.5 -19.5s34.333 -21.166 48 -35.499s24.667 -33.166 33 -56.499s12.5 -49.666 12.5 -78.999c0 -35.333 -6.66699 -66.333 -20 -93s-30.666 -47.167 -51.999 -61.5s-43.166 -24.833 -65.499 -31.5s-44.5 -10 -66.5 -10z
M286 -12.0039c-66 0 -117.168 21.3369 -153.501 64.0039s-54.5 104.667 -54.5 186c0 60.667 9.16699 113.667 27.5 159s41.333 79.666 69 102.999s58.167 42.666 91.5 57.999s64.333 25.333 93 30s53.834 9.16699 75.501 13.5s34.167 8.83301 37.5 13.5v53
c0 71.333 -7.83301 124.833 -23.5 160.5s-44.167 53.5 -85.5 53.5c-34.667 0 -61.167 -10.833 -79.5 -32.5s-33.833 -54.834 -46.5 -99.501c-6 -18.667 -14 -27.334 -24 -26.001c-70 17.333 -105.333 28.666 -106 33.999c-4 2 -6.16699 9.66699 -6.5 23
s1.16699 25.666 4.5 36.999c17.333 65.333 47 114.833 89 148.5s102 50.5 180 50.5c42 0 78.5 -6.83301 109.5 -20.5s58.167 -36.167 81.5 -67.5s40.833 -73.833 52.5 -127.5s17.5 -119.167 17.5 -196.5v-555c0 -34 -7 -51 -21 -51h-32c-12 0 -22.667 14.667 -32 44
c-1.33301 6.66699 -7.83301 28.334 -19.5 65.001s-18.167 58.667 -19.5 66c-0.666992 2 -1.5 3.33301 -2.5 4s-2.16699 0.666992 -3.5 0s-2 -2 -2 -4c-18 -61.333 -43.833 -107.666 -77.5 -138.999s-80.167 -47 -139.5 -47zM320.999 116
c46.667 0 84.167 30.668 112.5 92.001s42.5 134.666 42.5 219.999c0 50.667 -3 76 -9 76c-12 0 -22 -2 -30 -6c-72 -18 -124.833 -47.333 -158.5 -88s-50.5 -93.667 -50.5 -159c0 -90 31 -135 93 -135z" />
    <glyph glyph-name="ae" unicode="&#xe6;" horiz-adv-x="1062" 
d="M970 242c0 -76 -17.501 -137.161 -52.501 -183.494s-91.167 -69.5 -168.5 -69.5c-50.667 0 -94.834 20.167 -132.501 60.5s-65.167 98.166 -82.5 173.499c-22.667 -75.333 -55.167 -133.333 -97.5 -174s-93.833 -61 -154.5 -61c-66 0 -116.5 21.167 -151.5 63.5
s-52.5 104.5 -52.5 186.5c0 60.667 8.83301 113.667 26.5 159s39.834 79.666 66.501 102.999s56 42.666 88 57.999s61.833 25.333 89.5 30s52 9.16699 73 13.5s33.167 8.83301 36.5 13.5v47c0 36 -1.33301 66.167 -4 90.5s-7.5 47 -14.5 68s-17.333 36.5 -31 46.5
s-31.167 15 -52.5 15c-59.333 0 -99 -44 -119 -132c-5.33301 -18.667 -13.333 -27.334 -24 -26.001c-68.667 17.333 -103.667 28.333 -105 33c-10 5.33301 -11 25.666 -3 60.999c14 56.667 43 104 87 142s98.667 57 164 57c102.667 0 169 -54 199 -162
c16.667 53.333 41.834 93.833 75.501 121.5s69.167 41.5 106.5 41.5c36 0 67.667 -7.66699 95 -23s52 -40.5 74 -75.5s39.167 -83.5 51.5 -145.5s19.166 -136.667 20.499 -224c0 -56 -8.33301 -84 -25 -84h-323c-5.33301 0 -8 -8.33301 -8 -25
c0 -210.667 44.333 -316 133 -316c18 0 33.5 4 46.5 12s22.833 16.667 29.5 26s12.334 23.166 17.001 41.499s7.5 32 8.5 41l4.5 42.5c2 14.667 7.66699 22 17 22h69c15.333 0 23 -17.333 23 -52v-16zM311.999 111.006c46 0 82.5 31.333 109.5 94s40.5 137 40.5 223
c0 50.667 -3 76 -9 76c-12 0 -22 -2 -30 -6c-131.333 -37.333 -197 -120 -197 -248c0 -92.667 28.667 -139 86 -139zM625.999 572.006l215.999 -0.000976562c2 0 3 8.33301 3 25c-5.33301 190.667 -41.666 286 -108.999 286c-31.333 0 -57.5 -22.167 -78.5 -66.5
s-32.833 -109.166 -35.5 -194.499c0 -33.333 1.33301 -50 4 -50z" />
    <glyph glyph-name="ccedilla" unicode="&#xe7;" horiz-adv-x="582" 
d="M337 -570c-47.333 0 -86 14.6689 -116 44.002s-45 70.333 -45 123c0 60.667 10 91 30 91h51c15.333 0 23 -11.333 23 -34c0 -6 -0.666992 -14.833 -2 -26.5s-2 -19.834 -2 -24.501c0 -27.333 5.66699 -49.666 17 -66.999s28 -26 50 -26s38.5 11.167 49.5 33.5
s16.5 59.166 16.5 110.499c0 39.333 -7.5 76.5 -22.5 111.5s-31.833 52.5 -50.5 52.5h-30c-8 -0.666992 -12 2.66602 -12 9.99902v60c0 11.333 4 17 12 17h64c40 0 73.167 -23.5 99.5 -70.5s39.5 -99.833 39.5 -158.5c0 -84 -13.667 -146 -41 -186s-71 -60 -131 -60z
M395 -10.998c-24 0 -45.833 1.33691 -65.5 4.00391s-40.667 8.5 -63 17.5s-42 21 -59 36s-33.833 35.667 -50.5 62s-30.334 57.5 -41.001 93.5s-19.167 80 -25.5 132s-9.5 110.333 -9.5 175c0 83.333 5.66699 156.166 17 218.499s26.166 111.666 44.499 147.999
s41 65.5 68 87.5s53.5 36.667 79.5 44s55 11 87 11c40.667 0 85.334 -7.66699 134.001 -23c2.66699 -0.666992 5.33398 -2.66699 8.00098 -6s4 -6.33301 4 -9v-106c0.666992 -4.66699 -0.333008 -8.83398 -3 -12.501s-5.66699 -4.83398 -9 -3.50098
c-40.667 12 -71.334 18 -92.001 18c-19.333 0 -35.666 -1.66699 -48.999 -5s-27.833 -11.833 -43.5 -25.5s-28.334 -33.167 -38.001 -58.5s-17.667 -61.5 -24 -108.5s-9.5 -103.5 -9.5 -169.5c0 -69.333 3 -128.166 9 -176.499s13.333 -85.5 22 -111.5
s20.834 -45.833 36.501 -59.5s30.167 -22 43.5 -25s31 -4.5 53 -4.5c26.667 0 57.334 5.33301 92.001 16c2.66699 -0.666992 5.5 -3.33398 8.5 -8.00098s4.5 -9 4.5 -13v-99c0 -11.333 -4.33301 -18.333 -13 -21c-36.667 -11.333 -75.334 -17.333 -116.001 -18z" />
    <glyph glyph-name="egrave" unicode="&#xe8;" horiz-adv-x="695" 
d="M337 1140c-8 0 -14.333 13 -19 39l-63 341c-2.66699 16 -4 28.333 -4 37c0 18.667 3.33301 28 10 28h82c7.33301 0 12.833 -3.83301 16.5 -11.5s6.16699 -22.167 7.5 -43.5l22 -323c0.666992 -9.33301 1 -21 1 -35c0 -21.333 -5 -32 -15 -32h-38zM623 242
c0 -74 -20.002 -134.666 -60.002 -181.999s-99.333 -71 -178 -71c-31.333 0 -60 3.5 -86 10.5s-53 21.5 -81 43.5s-51.667 51.167 -71 87.5s-35.166 86.333 -47.499 150s-18.5 138.167 -18.5 223.5c0 86 6 160.833 18 224.5s27.333 113.667 46 150s41.5 65.333 68.5 87
s52.833 35.834 77.5 42.501s52 10 82 10c172 0 258 -160.667 258 -482c0 -46.667 -8.33301 -70 -25 -70h-348c-5.33301 0 -8 -8.33301 -8 -25c0.666992 -101.333 12.834 -179.333 36.501 -234s58.167 -82 103.5 -82c22 0 40.5 5 55.5 15s26.167 24.667 33.5 44
s12.5 36.166 15.5 50.499s5.5 32.166 7.5 53.499c2 14.667 7.66699 22 17 22h81c15.333 0 23 -17.333 23 -52v-16zM254.998 572.001h229c1.33301 0 2 8.33301 2 25c-5.33301 190.667 -43.333 286 -114 286c-32.667 0 -60 -21 -82 -63s-35 -108 -39 -198
c0 -33.333 1.33301 -50 4 -50z" />
    <glyph glyph-name="eacute" unicode="&#xe9;" horiz-adv-x="695" 
d="M337 1140c-10 0 -15.001 10.666 -15.001 31.999c0 4.66699 0.666992 16.334 2 35.001l20 323c2.66699 36.667 11.334 55 26.001 55h81c6.66699 0 10 -9.33301 10 -28c0 -8.66699 -1.33301 -21 -4 -37l-63 -341c-4.66699 -26 -11 -39 -19 -39h-38zM622.999 241.999
c0 -74 -20.002 -134.666 -60.002 -181.999s-99.333 -71 -178 -71c-31.333 0 -60 3.5 -86 10.5s-53 21.5 -81 43.5s-51.667 51.167 -71 87.5s-35.166 86.333 -47.499 150s-18.5 138.167 -18.5 223.5c0 86 6 160.833 18 224.5s27.333 113.667 46 150s41.5 65.333 68.5 87
s52.833 35.834 77.5 42.501s52 10 82 10c172 0 258 -160.667 258 -482c0 -46.667 -8.33301 -70 -25 -70h-348c-5.33301 0 -8 -8.33301 -8 -25c0.666992 -101.333 12.834 -179.333 36.501 -234s58.167 -82 103.5 -82c22 0 40.5 5 55.5 15s26.167 24.667 33.5 44
s12.5 36.166 15.5 50.499s5.5 32.166 7.5 53.499c2 14.667 7.66699 22 17 22h81c15.333 0 23 -17.333 23 -52v-16zM254.997 572h229c1.33301 0 2 8.33301 2 25c-5.33301 190.667 -43.333 286 -114 286c-32.667 0 -60 -21 -82 -63s-35 -108 -39 -198
c0 -33.333 1.33301 -50 4 -50z" />
    <glyph glyph-name="ecircumflex" unicode="&#xea;" horiz-adv-x="695" 
d="M262 1140c-20.667 0 -31.001 2.66797 -31.001 8.00098c-10.667 0.666992 -16 9.66699 -16 27c0 7.33301 1.33301 16.333 4 27l72 199c16 50 33.333 75 52 75h25c18.667 0 36 -25 52 -75l72 -199c2.66699 -12 4 -22.333 4 -31c0 -14.667 -5 -22.334 -15 -23.001
c0 -5.33301 -10.333 -8 -31 -8c-14 0 -26.333 13.667 -37 41l-47 118c-4 11.333 -7.66699 17 -11 17s-6.66602 -5.66699 -9.99902 -17l-47 -118c-12 -27.333 -24 -41 -36 -41zM622.999 242.001c0 -74 -20.002 -134.666 -60.002 -181.999s-99.333 -71 -178 -71
c-31.333 0 -60 3.5 -86 10.5s-53 21.5 -81 43.5s-51.667 51.167 -71 87.5s-35.166 86.333 -47.499 150s-18.5 138.167 -18.5 223.5c0 86 6 160.833 18 224.5s27.333 113.667 46 150s41.5 65.333 68.5 87s52.833 35.834 77.5 42.501s52 10 82 10c172 0 258 -160.667 258 -482
c0 -46.667 -8.33301 -70 -25 -70h-348c-5.33301 0 -8 -8.33301 -8 -25c0.666992 -101.333 12.834 -179.333 36.501 -234s58.167 -82 103.5 -82c22 0 40.5 5 55.5 15s26.167 24.667 33.5 44s12.5 36.166 15.5 50.499s5.5 32.166 7.5 53.499c2 14.667 7.66699 22 17 22h81
c15.333 0 23 -17.333 23 -52v-16zM254.997 572.002h229c1.33301 0 2 8.33301 2 25c-5.33301 190.667 -43.333 286 -114 286c-32.667 0 -60 -21 -82 -63s-35 -108 -39 -198c0 -33.333 1.33301 -50 4 -50z" />
    <glyph glyph-name="edieresis" unicode="&#xeb;" horiz-adv-x="695" 
d="M213 1140c-18 0 -27 19 -27 57v82c0 38 9 57 27 57h60c18 0 27 -19 27 -57v-82c0 -38 -9 -57 -27 -57h-60zM439 1140c-17.333 0 -26 19 -26 57v82c0 38 8.66699 57 26 57h61c17.333 0 26 -19 26 -57v-82c0 -38 -8.66699 -57 -26 -57h-61zM623 242
c0 -74 -20.002 -134.666 -60.002 -181.999s-99.333 -71 -178 -71c-31.333 0 -60 3.5 -86 10.5s-53 21.5 -81 43.5s-51.667 51.167 -71 87.5s-35.166 86.333 -47.499 150s-18.5 138.167 -18.5 223.5c0 86 6 160.833 18 224.5s27.333 113.667 46 150s41.5 65.333 68.5 87
s52.833 35.834 77.5 42.501s52 10 82 10c172 0 258 -160.667 258 -482c0 -46.667 -8.33301 -70 -25 -70h-348c-5.33301 0 -8 -8.33301 -8 -25c0.666992 -101.333 12.834 -179.333 36.501 -234s58.167 -82 103.5 -82c22 0 40.5 5 55.5 15s26.167 24.667 33.5 44
s12.5 36.166 15.5 50.499s5.5 32.166 7.5 53.499c2 14.667 7.66699 22 17 22h81c15.333 0 23 -17.333 23 -52v-16zM254.998 572.001h229c1.33301 0 2 8.33301 2 25c-5.33301 190.667 -43.333 286 -114 286c-32.667 0 -60 -21 -82 -63s-35 -108 -39 -198
c0 -33.333 1.33301 -50 4 -50z" />
    <glyph glyph-name="igrave" unicode="&#xec;" 
d="M170 1140c-8 0 -14.333 13 -19 39l-63 341c-2.66699 16 -4 28.333 -4 37c0 18.667 3.33301 28 10 28h82c7.33301 0 12.833 -3.83301 16.5 -11.5s6.16699 -22.167 7.5 -43.5l22 -323c0.666992 -9.33301 1 -21 1 -35c0 -21.333 -5 -32 -15 -32h-38zM133 0
c-16.667 0 -25 22.333 -25 67v873c0 44 8.33301 66 25 66h112c16 0 24 -22 24 -66v-873c0 -44.667 -8 -67 -24 -67h-112z" />
    <glyph glyph-name="iacute" unicode="&#xed;" 
d="M169 1140c-10 0 -15.001 10.666 -15.001 31.999c0 4.66699 0.666992 16.334 2 35.001l20 323c2.66699 36.667 11.334 55 26.001 55h81c6.66699 0 10 -9.33301 10 -28c0 -8.66699 -1.33301 -21 -4 -37l-63 -341c-4.66699 -26 -11 -39 -19 -39h-38zM132.999 -0.000976562
c-16.667 0 -25 22.333 -25 67v873c0 44 8.33301 66 25 66h112c16 0 24 -22 24 -66v-873c0 -44.667 -8 -67 -24 -67h-112z" />
    <glyph glyph-name="icircumflex" unicode="&#xee;" 
d="M95 1140c-20.667 0 -31.001 2.66797 -31.001 8.00098c-10.667 0.666992 -16 9.66699 -16 27c0 7.33301 1.33301 16.333 4 27l72 199c16 50 33.333 75 52 75h25c18.667 0 36 -25 52 -75l72 -199c2.66699 -12 4 -22.333 4 -31c0 -14.667 -5 -22.334 -15 -23.001
c0 -5.33301 -10.333 -8 -31 -8c-14 0 -26.333 13.667 -37 41l-47 118c-4 11.333 -7.66699 17 -11 17s-6.66602 -5.66699 -9.99902 -17l-47 -118c-12 -27.333 -24 -41 -36 -41zM132.999 0.000976562c-16.667 0 -25 22.333 -25 67v873c0 44 8.33301 66 25 66h112
c16 0 24 -22 24 -66v-873c0 -44.667 -8 -67 -24 -67h-112z" />
    <glyph glyph-name="idieresis" unicode="&#xef;" 
d="M46 1140c-18 0 -27 19 -27 57v82c0 38 9 57 27 57h60c18 0 27 -19 27 -57v-82c0 -38 -9 -57 -27 -57h-60zM272 1140c-17.333 0 -26 19 -26 57v82c0 38 8.66699 57 26 57h61c17.333 0 26 -19 26 -57v-82c0 -38 -8.66699 -57 -26 -57h-61zM133 0
c-16.667 0 -25 22.333 -25 67v873c0 44 8.33301 66 25 66h112c16 0 24 -22 24 -66v-873c0 -44.667 -8 -67 -24 -67h-112z" />
    <glyph glyph-name="eth" unicode="&#xf0;" horiz-adv-x="805" 
d="M397 -18c-46.667 0 -88.1689 6.83398 -124.502 20.501s-70 36.834 -101 69.501s-55 80 -72 142s-25.5 137.333 -25.5 226c0 142 26 253.167 78 333.5s127.333 120.5 226 120.5c56.667 0 110.334 -18.333 161.001 -55c-6.66699 84 -41 170.667 -103 260l-118 -81
c-18 -11.333 -35.333 -6 -52 16l-15 16c-11.333 20.667 -8 38.667 10 54l92 60c-56.667 37.333 -121 66.333 -193 87c-12 2 -18 12.333 -18 31c0 4 1.66699 12.167 5 24.5s6.66602 18.5 9.99902 18.5c2 26 9.66699 39 23 39h2c115.333 -26 206 -62.333 272 -109l122 85
c6 6 12.333 9 19 9c11.333 0 22.333 -8 33 -24l18 -20c14 -18 10.667 -36 -10 -54l-102 -66c125.333 -148.667 188 -350.334 188 -605.001c0 -150.667 -11.167 -269.334 -33.5 -356.001s-56.666 -148.667 -102.999 -186s-109.166 -56 -188.499 -56zM399.998 113.001
c24.667 0 45.998 5.33301 63.998 16s34.667 29 50 55s26.833 63.833 34.5 113.5s11.5 110.5 11.5 182.5c0 82.667 -14.167 150.5 -42.5 203.5s-68.166 79.5 -119.499 79.5c-104.667 0 -157 -102.333 -157 -307c0 -122.667 12.833 -210.5 38.5 -263.5
s65.834 -79.5 120.501 -79.5z" />
    <glyph glyph-name="ntilde" unicode="&#xf1;" horiz-adv-x="789" 
d="M509 1221c-12.667 0 -29.666 -6.66895 -50.999 -20.002s-45.666 -26.833 -72.999 -40.5s-54.333 -20.5 -81 -20.5c-15.333 0 -29.166 2.66699 -41.499 8s-23.666 13.833 -33.999 25.5s-17.833 20.834 -22.5 27.501s-11.667 17.334 -21 32.001c-12.667 18 -19 32 -19 42
s4 18.833 12 26.5s16.667 11.5 26 11.5c10 0 19 -3.83301 27 -11.5s14.5 -16.167 19.5 -25.5s11.167 -17.833 18.5 -25.5s15.666 -11.5 24.999 -11.5c15.333 0 46.5 13.5 93.5 40.5s84.5 40.5 112.5 40.5c17.333 0 33.666 -5.33301 48.999 -16
s27.166 -21.334 35.499 -32.001s18.833 -26 31.5 -46c12.667 -19.333 19 -33.666 19 -42.999c0 -10 -3.83301 -18.5 -11.5 -25.5s-15.834 -10.5 -24.501 -10.5c-15.333 0 -31 12.333 -47 37s-30.333 37 -43 37zM129.001 -0.00195312c-8 0 -14.168 3.16992 -18.501 9.50293
s-6.5 19.5 -6.5 39.5v897c0 40 8 60 24 60h43c9.33301 0 17 -3 23 -9s10.667 -18.667 14 -38l20 -126c1.33301 -7.33301 3.66602 -11 6.99902 -11c2.66699 0 4.66699 3.33301 6 10c11.333 38.667 25.833 71 43.5 97s37.167 45.167 58.5 57.5s41.5 20.666 60.5 24.999
s40.167 6.5 63.5 6.5c36.667 0 68.334 -6.66699 95.001 -20s50.5 -35.833 71.5 -67.5s36.833 -76.334 47.5 -134.001s16 -128.167 16 -211.5v-536c0 -20 -2 -33.167 -6 -39.5s-10.333 -9.5 -19 -9.5h-128c-8.66699 0 -15 3.16699 -19 9.5s-6 19.5 -6 39.5v558
c0 94 -7.16699 163.333 -21.5 208s-37.833 67 -70.5 67c-41.333 0 -75.666 -26.833 -102.999 -80.5s-41 -120.834 -41 -201.501v-551c0 -20 -2.16699 -33.167 -6.5 -39.5s-10.5 -9.5 -18.5 -9.5h-129z" />
    <glyph glyph-name="ograve" unicode="&#xf2;" horiz-adv-x="768" 
d="M365 1140c-8 0 -14.333 13 -19 39l-63 341c-2.66699 16 -4 28.333 -4 37c0 18.667 3.33301 28 10 28h82c7.33301 0 12.833 -3.83301 16.5 -11.5s6.16699 -22.167 7.5 -43.5l22 -323c0.666992 -9.33301 1 -21 1 -35c0 -21.333 -5 -32 -15 -32h-38zM385 125
c21.333 0 39.001 4.5 53.001 13.5s27 26.333 39 52s21 64.667 27 117s9 118.5 9 198.5c0 78 -3 142.667 -9 194s-15.167 89.833 -27.5 115.5s-25.5 43.167 -39.5 52.5s-31.333 14 -52 14s-38.167 -4.66699 -52.5 -14s-27.666 -26.833 -39.999 -52.5s-21.5 -64 -27.5 -115
s-9 -115.833 -9 -194.5c0 -80 2.83301 -146 8.5 -198s14.667 -91 27 -117s25.666 -43.5 39.999 -52.5s32.166 -13.5 53.499 -13.5zM385.001 -11c-22 0 -41.4941 1 -58.4941 3s-36.5 7 -58.5 15s-41.167 19 -57.5 33s-33.166 34 -50.499 60s-31.333 56.667 -42 92
s-19.5 79.833 -26.5 133.5s-10.5 113.834 -10.5 180.501s3.5 126.5 10.5 179.5s16.167 97.167 27.5 132.5s25.666 65.833 42.999 91.5s34.166 45.334 50.499 59.001s35.666 24.334 57.999 32.001s41.666 12.5 57.999 14.5s35.166 3 56.499 3s40.166 -1 56.499 -3
s35.5 -6.83301 57.5 -14.5s41.167 -18.334 57.5 -32.001s33.166 -33.334 50.499 -59.001s31.5 -56.167 42.5 -91.5s20 -79.5 27 -132.5s10.5 -112.833 10.5 -179.5s-3.5 -126.834 -10.5 -180.501s-15.833 -98.167 -26.5 -133.5s-24.5 -66 -41.5 -92s-33.667 -46 -50 -60
s-35.5 -25 -57.5 -33s-41.333 -13 -58 -15s-36 -3 -58 -3z" />
    <glyph glyph-name="oacute" unicode="&#xf3;" horiz-adv-x="768" 
d="M365 1140c-10 0 -15.001 10.666 -15.001 31.999c0 4.66699 0.666992 16.334 2 35.001l20 323c2.66699 36.667 11.334 55 26.001 55h81c6.66699 0 10 -9.33301 10 -28c0 -8.66699 -1.33301 -21 -4 -37l-63 -341c-4.66699 -26 -11 -39 -19 -39h-38zM384.999 124.999
c21.333 0 39.001 4.5 53.001 13.5s27 26.333 39 52s21 64.667 27 117s9 118.5 9 198.5c0 78 -3 142.667 -9 194s-15.167 89.833 -27.5 115.5s-25.5 43.167 -39.5 52.5s-31.333 14 -52 14s-38.167 -4.66699 -52.5 -14s-27.666 -26.833 -39.999 -52.5s-21.5 -64 -27.5 -115
s-9 -115.833 -9 -194.5c0 -80 2.83301 -146 8.5 -198s14.667 -91 27 -117s25.666 -43.5 39.999 -52.5s32.166 -13.5 53.499 -13.5zM385 -11.001c-22 0 -41.4941 1 -58.4941 3s-36.5 7 -58.5 15s-41.167 19 -57.5 33s-33.166 34 -50.499 60s-31.333 56.667 -42 92
s-19.5 79.833 -26.5 133.5s-10.5 113.834 -10.5 180.501s3.5 126.5 10.5 179.5s16.167 97.167 27.5 132.5s25.666 65.833 42.999 91.5s34.166 45.334 50.499 59.001s35.666 24.334 57.999 32.001s41.666 12.5 57.999 14.5s35.166 3 56.499 3s40.166 -1 56.499 -3
s35.5 -6.83301 57.5 -14.5s41.167 -18.334 57.5 -32.001s33.166 -33.334 50.499 -59.001s31.5 -56.167 42.5 -91.5s20 -79.5 27 -132.5s10.5 -112.833 10.5 -179.5s-3.5 -126.834 -10.5 -180.501s-15.833 -98.167 -26.5 -133.5s-24.5 -66 -41.5 -92s-33.667 -46 -50 -60
s-35.5 -25 -57.5 -33s-41.333 -13 -58 -15s-36 -3 -58 -3z" />
    <glyph glyph-name="ocircumflex" unicode="&#xf4;" horiz-adv-x="768" 
d="M290 1140c-20.667 0 -31.001 2.66797 -31.001 8.00098c-10.667 0.666992 -16 9.66699 -16 27c0 7.33301 1.33301 16.333 4 27l72 199c16 50 33.333 75 52 75h25c18.667 0 36 -25 52 -75l72 -199c2.66699 -12 4 -22.333 4 -31c0 -14.667 -5 -22.334 -15 -23.001
c0 -5.33301 -10.333 -8 -31 -8c-14 0 -26.333 13.667 -37 41l-47 118c-4 11.333 -7.66699 17 -11 17s-6.66602 -5.66699 -9.99902 -17l-47 -118c-12 -27.333 -24 -41 -36 -41zM384.999 125.001c21.333 0 39.001 4.5 53.001 13.5s27 26.333 39 52s21 64.667 27 117
s9 118.5 9 198.5c0 78 -3 142.667 -9 194s-15.167 89.833 -27.5 115.5s-25.5 43.167 -39.5 52.5s-31.333 14 -52 14s-38.167 -4.66699 -52.5 -14s-27.666 -26.833 -39.999 -52.5s-21.5 -64 -27.5 -115s-9 -115.833 -9 -194.5c0 -80 2.83301 -146 8.5 -198
s14.667 -91 27 -117s25.666 -43.5 39.999 -52.5s32.166 -13.5 53.499 -13.5zM385 -10.999c-22 0 -41.4941 1 -58.4941 3s-36.5 7 -58.5 15s-41.167 19 -57.5 33s-33.166 34 -50.499 60s-31.333 56.667 -42 92s-19.5 79.833 -26.5 133.5s-10.5 113.834 -10.5 180.501
s3.5 126.5 10.5 179.5s16.167 97.167 27.5 132.5s25.666 65.833 42.999 91.5s34.166 45.334 50.499 59.001s35.666 24.334 57.999 32.001s41.666 12.5 57.999 14.5s35.166 3 56.499 3s40.166 -1 56.499 -3s35.5 -6.83301 57.5 -14.5s41.167 -18.334 57.5 -32.001
s33.166 -33.334 50.499 -59.001s31.5 -56.167 42.5 -91.5s20 -79.5 27 -132.5s10.5 -112.833 10.5 -179.5s-3.5 -126.834 -10.5 -180.501s-15.833 -98.167 -26.5 -133.5s-24.5 -66 -41.5 -92s-33.667 -46 -50 -60s-35.5 -25 -57.5 -33s-41.333 -13 -58 -15s-36 -3 -58 -3z
" />
    <glyph glyph-name="otilde" unicode="&#xf5;" horiz-adv-x="768" 
d="M492 1221c-12.667 0 -29.666 -6.66895 -50.999 -20.002s-45.666 -26.833 -72.999 -40.5s-54.333 -20.5 -81 -20.5c-15.333 0 -29.166 2.66699 -41.499 8s-23.666 13.833 -33.999 25.5s-17.833 20.834 -22.5 27.501s-11.667 17.334 -21 32.001c-12.667 18 -19 32 -19 42
s4 18.833 12 26.5s16.667 11.5 26 11.5c10 0 19 -3.83301 27 -11.5s14.5 -16.167 19.5 -25.5s11.167 -17.833 18.5 -25.5s15.666 -11.5 24.999 -11.5c15.333 0 46.5 13.5 93.5 40.5s84.5 40.5 112.5 40.5c17.333 0 33.666 -5.33301 48.999 -16
s27.166 -21.334 35.499 -32.001s18.833 -26 31.5 -46c12.667 -19.333 19 -33.666 19 -42.999c0 -10 -3.83301 -18.5 -11.5 -25.5s-15.834 -10.5 -24.501 -10.5c-15.333 0 -31 12.333 -47 37s-30.333 37 -43 37zM385.001 124.998c21.333 0 39.001 4.5 53.001 13.5
s27 26.333 39 52s21 64.667 27 117s9 118.5 9 198.5c0 78 -3 142.667 -9 194s-15.167 89.833 -27.5 115.5s-25.5 43.167 -39.5 52.5s-31.333 14 -52 14s-38.167 -4.66699 -52.5 -14s-27.666 -26.833 -39.999 -52.5s-21.5 -64 -27.5 -115s-9 -115.833 -9 -194.5
c0 -80 2.83301 -146 8.5 -198s14.667 -91 27 -117s25.666 -43.5 39.999 -52.5s32.166 -13.5 53.499 -13.5zM385.002 -11.002c-22 0 -41.4941 1 -58.4941 3s-36.5 7 -58.5 15s-41.167 19 -57.5 33s-33.166 34 -50.499 60s-31.333 56.667 -42 92s-19.5 79.833 -26.5 133.5
s-10.5 113.834 -10.5 180.501s3.5 126.5 10.5 179.5s16.167 97.167 27.5 132.5s25.666 65.833 42.999 91.5s34.166 45.334 50.499 59.001s35.666 24.334 57.999 32.001s41.666 12.5 57.999 14.5s35.166 3 56.499 3s40.166 -1 56.499 -3s35.5 -6.83301 57.5 -14.5
s41.167 -18.334 57.5 -32.001s33.166 -33.334 50.499 -59.001s31.5 -56.167 42.5 -91.5s20 -79.5 27 -132.5s10.5 -112.833 10.5 -179.5s-3.5 -126.834 -10.5 -180.501s-15.833 -98.167 -26.5 -133.5s-24.5 -66 -41.5 -92s-33.667 -46 -50 -60s-35.5 -25 -57.5 -33
s-41.333 -13 -58 -15s-36 -3 -58 -3z" />
    <glyph glyph-name="odieresis" unicode="&#xf6;" horiz-adv-x="768" 
d="M241 1140c-18 0 -27 19 -27 57v82c0 38 9 57 27 57h60c18 0 27 -19 27 -57v-82c0 -38 -9 -57 -27 -57h-60zM467 1140c-17.333 0 -26 19 -26 57v82c0 38 8.66699 57 26 57h61c17.333 0 26 -19 26 -57v-82c0 -38 -8.66699 -57 -26 -57h-61zM385 125
c21.333 0 39.001 4.5 53.001 13.5s27 26.333 39 52s21 64.667 27 117s9 118.5 9 198.5c0 78 -3 142.667 -9 194s-15.167 89.833 -27.5 115.5s-25.5 43.167 -39.5 52.5s-31.333 14 -52 14s-38.167 -4.66699 -52.5 -14s-27.666 -26.833 -39.999 -52.5s-21.5 -64 -27.5 -115
s-9 -115.833 -9 -194.5c0 -80 2.83301 -146 8.5 -198s14.667 -91 27 -117s25.666 -43.5 39.999 -52.5s32.166 -13.5 53.499 -13.5zM385.001 -11c-22 0 -41.4941 1 -58.4941 3s-36.5 7 -58.5 15s-41.167 19 -57.5 33s-33.166 34 -50.499 60s-31.333 56.667 -42 92
s-19.5 79.833 -26.5 133.5s-10.5 113.834 -10.5 180.501s3.5 126.5 10.5 179.5s16.167 97.167 27.5 132.5s25.666 65.833 42.999 91.5s34.166 45.334 50.499 59.001s35.666 24.334 57.999 32.001s41.666 12.5 57.999 14.5s35.166 3 56.499 3s40.166 -1 56.499 -3
s35.5 -6.83301 57.5 -14.5s41.167 -18.334 57.5 -32.001s33.166 -33.334 50.499 -59.001s31.5 -56.167 42.5 -91.5s20 -79.5 27 -132.5s10.5 -112.833 10.5 -179.5s-3.5 -126.834 -10.5 -180.501s-15.833 -98.167 -26.5 -133.5s-24.5 -66 -41.5 -92s-33.667 -46 -50 -60
s-35.5 -25 -57.5 -33s-41.333 -13 -58 -15s-36 -3 -58 -3z" />
    <glyph glyph-name="divide" unicode="&#xf7;" horiz-adv-x="867" 
d="M772 638c0 -17.333 -19.333 -26 -58 -26h-563c-37.333 0 -56 8.66699 -56 26v112c0 16 18.667 24 56 24h563c38.667 0 58 -8 58 -24v-112zM378 941c-16.667 0 -25 18 -25 54v129c0 35.333 8.33301 53 25 53h119c16.667 0 25 -17.667 25 -53v-129
c0 -36 -8.33301 -54 -25 -54h-119zM378 195c-16.667 0 -25 18 -25 54v129c0 35.333 8.33301 53 25 53h119c16.667 0 25 -17.667 25 -53v-129c0 -36 -8.33301 -54 -25 -54h-119z" />
    <glyph glyph-name="oslash" unicode="&#xf8;" horiz-adv-x="768" 
d="M177 -84l-44.999 15.998c-0.666992 0 -1 1 -1 3c0 3.33301 1.33301 9.66602 4 18.999l47 115c-7.33301 8.66699 -14.333 18.334 -21 29.001s-13.167 22.334 -19.5 35.001s-12.166 26.667 -17.499 42s-10.166 31.833 -14.499 49.5s-8.33301 36.667 -12 57
s-6.66699 42.166 -9 65.499s-4.16602 48.333 -5.49902 75s-2 54.667 -2 84c0 66.667 3.5 126.5 10.5 179.5s16.167 97.167 27.5 132.5s25.666 65.833 42.999 91.5s34.166 45.334 50.499 59.001s35.666 24.334 57.999 32.001s41.666 12.5 57.999 14.5s35.166 3 56.499 3
c70 0 125 -15 165 -45l40 98c6.66699 12.667 11.334 19 14.001 19h1l45 -15c1.33301 0 2 -1.66699 2 -5c0 -4.66699 -1.66699 -10.334 -5 -17.001l-51 -126c18.667 -25.333 34.5 -55.666 47.5 -90.999s23.5 -81.166 31.5 -137.499s12 -120.5 12 -192.5
c0 -66.667 -3.5 -126.834 -10.5 -180.501s-15.833 -98.167 -26.5 -133.5s-24.5 -66 -41.5 -92s-33.667 -46 -50 -60s-35.5 -25 -57.5 -33s-41.333 -13 -58 -15s-36 -3 -58 -3c-65.333 0 -117.333 12.667 -156 38l-38 -92c-4 -12.667 -8.33301 -19 -13 -19h-1z
M504.001 700.998l-209.999 -514.999c10 -22.667 22.5 -38.5 37.5 -47.5s32.833 -13.5 53.5 -13.5c21.333 0 39 4.5 53 13.5s27 26.333 39 52s21 64.667 27 117s9 118.5 9 198.5c0 40 -0.833008 76.167 -2.5 108.5s-3.83398 61.166 -6.50098 86.499zM481.002 803.999
c-10.667 29.333 -23.834 49.667 -39.501 61s-34.5 17 -56.5 17c-20.667 0 -38.167 -4.66699 -52.5 -14s-27.666 -26.833 -39.999 -52.5s-21.5 -64 -27.5 -115s-9 -115.833 -9 -194.5c0 -93.333 4.33301 -168 13 -224z" />
    <glyph glyph-name="ugrave" unicode="&#xf9;" horiz-adv-x="755" 
d="M354 1140c-8 0 -14.333 13 -19 39l-63 341c-2.66699 16 -4 28.333 -4 37c0 18.667 3.33301 28 10 28h82c7.33301 0 12.833 -3.83301 16.5 -11.5s6.16699 -22.167 7.5 -43.5l22 -323c0.666992 -9.33301 1 -21 1 -35c0 -21.333 -5 -32 -15 -32h-38zM326 -11
c-27.333 0 -51.833 3.16699 -73.5 9.5s-42.834 18 -63.501 35s-38 39.5 -52 67.5s-25.167 64.833 -33.5 110.5s-12.5 99.167 -12.5 160.5v585c0 20 2.16699 33.167 6.5 39.5s10.833 9.5 19.5 9.5h118c8 0 14.167 -3.16699 18.5 -9.5s6.5 -19.5 6.5 -39.5v-612
c0 -79.333 8.33301 -135.833 25 -169.5s42.334 -50.5 77.001 -50.5c38.667 0 70 26.5 94 79.5s36 114.833 36 185.5v567c0 20 2.16699 33.167 6.5 39.5s10.833 9.5 19.5 9.5h112c8.66699 0 15.167 -3.16699 19.5 -9.5s6.5 -19.5 6.5 -39.5v-896
c0 -40.667 -8.33301 -61 -25 -61h-26c-9.33301 0 -16.833 3 -22.5 9s-10.167 19 -13.5 39l-23 142c-2 8.66699 -4.33301 13 -7 13s-5 -4 -7 -12c-16.667 -68 -44 -118.667 -82 -152s-79.333 -50 -124 -50z" />
    <glyph glyph-name="uacute" unicode="&#xfa;" horiz-adv-x="755" 
d="M355 1140c-10 0 -15.001 10.666 -15.001 31.999c0 4.66699 0.666992 16.334 2 35.001l20 323c2.66699 36.667 11.334 55 26.001 55h81c6.66699 0 10 -9.33301 10 -28c0 -8.66699 -1.33301 -21 -4 -37l-63 -341c-4.66699 -26 -11 -39 -19 -39h-38zM325.999 -11.001
c-27.333 0 -51.833 3.16699 -73.5 9.5s-42.834 18 -63.501 35s-38 39.5 -52 67.5s-25.167 64.833 -33.5 110.5s-12.5 99.167 -12.5 160.5v585c0 20 2.16699 33.167 6.5 39.5s10.833 9.5 19.5 9.5h118c8 0 14.167 -3.16699 18.5 -9.5s6.5 -19.5 6.5 -39.5v-612
c0 -79.333 8.33301 -135.833 25 -169.5s42.334 -50.5 77.001 -50.5c38.667 0 70 26.5 94 79.5s36 114.833 36 185.5v567c0 20 2.16699 33.167 6.5 39.5s10.833 9.5 19.5 9.5h112c8.66699 0 15.167 -3.16699 19.5 -9.5s6.5 -19.5 6.5 -39.5v-896
c0 -40.667 -8.33301 -61 -25 -61h-26c-9.33301 0 -16.833 3 -22.5 9s-10.167 19 -13.5 39l-23 142c-2 8.66699 -4.33301 13 -7 13s-5 -4 -7 -12c-16.667 -68 -44 -118.667 -82 -152s-79.333 -50 -124 -50z" />
    <glyph glyph-name="ucircumflex" unicode="&#xfb;" horiz-adv-x="755" 
d="M280 1140c-20.667 0 -31.001 2.66797 -31.001 8.00098c-10.667 0.666992 -16 9.66699 -16 27c0 7.33301 1.33301 16.333 4 27l72 199c16 50 33.333 75 52 75h25c18.667 0 36 -25 52 -75l72 -199c2.66699 -12 4 -22.333 4 -31c0 -14.667 -5 -22.334 -15 -23.001
c0 -5.33301 -10.333 -8 -31 -8c-14 0 -26.333 13.667 -37 41l-47 118c-4 11.333 -7.66699 17 -11 17s-6.66602 -5.66699 -9.99902 -17l-47 -118c-12 -27.333 -24 -41 -36 -41zM325.999 -10.999c-27.333 0 -51.833 3.16699 -73.5 9.5s-42.834 18 -63.501 35
s-38 39.5 -52 67.5s-25.167 64.833 -33.5 110.5s-12.5 99.167 -12.5 160.5v585c0 20 2.16699 33.167 6.5 39.5s10.833 9.5 19.5 9.5h118c8 0 14.167 -3.16699 18.5 -9.5s6.5 -19.5 6.5 -39.5v-612c0 -79.333 8.33301 -135.833 25 -169.5s42.334 -50.5 77.001 -50.5
c38.667 0 70 26.5 94 79.5s36 114.833 36 185.5v567c0 20 2.16699 33.167 6.5 39.5s10.833 9.5 19.5 9.5h112c8.66699 0 15.167 -3.16699 19.5 -9.5s6.5 -19.5 6.5 -39.5v-896c0 -40.667 -8.33301 -61 -25 -61h-26c-9.33301 0 -16.833 3 -22.5 9s-10.167 19 -13.5 39
l-23 142c-2 8.66699 -4.33301 13 -7 13s-5 -4 -7 -12c-16.667 -68 -44 -118.667 -82 -152s-79.333 -50 -124 -50z" />
    <glyph glyph-name="udieresis" unicode="&#xfc;" horiz-adv-x="755" 
d="M230 1140c-18 0 -27 19 -27 57v82c0 38 9 57 27 57h60c18 0 27 -19 27 -57v-82c0 -38 -9 -57 -27 -57h-60zM456 1140c-17.333 0 -26 19 -26 57v82c0 38 8.66699 57 26 57h61c17.333 0 26 -19 26 -57v-82c0 -38 -8.66699 -57 -26 -57h-61zM326 -11
c-27.333 0 -51.833 3.16699 -73.5 9.5s-42.834 18 -63.501 35s-38 39.5 -52 67.5s-25.167 64.833 -33.5 110.5s-12.5 99.167 -12.5 160.5v585c0 20 2.16699 33.167 6.5 39.5s10.833 9.5 19.5 9.5h118c8 0 14.167 -3.16699 18.5 -9.5s6.5 -19.5 6.5 -39.5v-612
c0 -79.333 8.33301 -135.833 25 -169.5s42.334 -50.5 77.001 -50.5c38.667 0 70 26.5 94 79.5s36 114.833 36 185.5v567c0 20 2.16699 33.167 6.5 39.5s10.833 9.5 19.5 9.5h112c8.66699 0 15.167 -3.16699 19.5 -9.5s6.5 -19.5 6.5 -39.5v-896
c0 -40.667 -8.33301 -61 -25 -61h-26c-9.33301 0 -16.833 3 -22.5 9s-10.167 19 -13.5 39l-23 142c-2 8.66699 -4.33301 13 -7 13s-5 -4 -7 -12c-16.667 -68 -44 -118.667 -82 -152s-79.333 -50 -124 -50z" />
    <glyph glyph-name="yacute" unicode="&#xfd;" horiz-adv-x="662" 
d="M317 1140c-10 0 -15.001 10.666 -15.001 31.999c0 4.66699 0.666992 16.334 2 35.001l20 323c2.66699 36.667 11.334 55 26.001 55h81c6.66699 0 10 -9.33301 10 -28c0 -8.66699 -1.33301 -21 -4 -37l-63 -341c-4.66699 -26 -11 -39 -19 -39h-38zM222.999 -122.001
c15.333 0 28.6641 12.5029 39.9971 37.5029s17 60.5 17 106.5c0 10.667 -6.66699 47.667 -20 111l-196 815c-1.33301 9.33301 -2 16.666 -2 21.999c0 24 5 36 15 36h121c9.33301 0 17 -3.16699 23 -9.5s10.667 -19.166 14 -38.499l130 -688
c2.66699 -8 4.33398 -12 5.00098 -12c2.66699 0 4 3.66699 4 11l102 686c2.66699 20 6.83398 33.5 12.501 40.5s12.834 10.5 21.501 10.5h84c11.333 0 17 -13 17 -39c0 -6 -0.666992 -13.667 -2 -23l-178 -927c-14 -76.667 -29.333 -135.334 -46 -176.001
s-35.334 -68.334 -56.001 -83.001s-48 -22.334 -82 -23.001h-10c-54 0 -90.667 14.333 -110 43c-5.33301 6 -8 21.333 -8 46c0 49.333 8 74 24 74c1.33301 0 13.333 -3.33301 36 -10s37.334 -10 44.001 -10z" />
    <glyph glyph-name="thorn" unicode="&#xfe;" horiz-adv-x="765" 
d="M128 -374c-6.66699 0 -12.3311 7 -16.998 21s-7 31.667 -7 53v1655c0 21.333 2.33301 38.833 7 52.5s10.667 20.5 18 20.5h111c7.33301 0 13.333 -6.83301 18 -20.5s7 -31.167 7 -52.5v-471c0 -10 1.66699 -15 5 -15s5.66602 2.33301 6.99902 7
c18.667 47.333 42.834 82.833 72.501 106.5s61.834 35.5 96.501 35.5c31.333 0 60.666 -8.83301 87.999 -26.5s52.666 -45.5 75.999 -83.5s41.666 -91.833 54.999 -161.5s20 -151.834 20 -246.501c0 -90 -7.16699 -169.167 -21.5 -237.5s-33.833 -121.666 -58.5 -159.999
s-51.5 -66.833 -80.5 -85.5s-59.5 -28 -91.5 -28c-32.667 0 -64 11.5 -94 34.5s-54.667 58.167 -74 105.5v-429c0 -21.333 -2.33301 -39 -7 -53s-10.667 -21 -18 -21h-112zM399.003 125c79.333 0 118.999 128.667 118.999 386c0 118.667 -10.667 210.167 -32 274.5
s-50.666 96.5 -87.999 96.5c-38.667 0 -70.5 -34.167 -95.5 -102.5s-37.5 -157.833 -37.5 -268.5s12.5 -202.667 37.5 -276s57.167 -110 96.5 -110z" />
    <glyph glyph-name="ydieresis" unicode="&#xff;" horiz-adv-x="662" 
d="M194 1140c-18 0 -27 19 -27 57v82c0 38 9 57 27 57h60c18 0 27 -19 27 -57v-82c0 -38 -9 -57 -27 -57h-60zM420 1140c-17.333 0 -26 19 -26 57v82c0 38 8.66699 57 26 57h61c17.333 0 26 -19 26 -57v-82c0 -38 -8.66699 -57 -26 -57h-61zM223 -122
c15.333 0 28.6641 12.5029 39.9971 37.5029s17 60.5 17 106.5c0 10.667 -6.66699 47.667 -20 111l-196 815c-1.33301 9.33301 -2 16.666 -2 21.999c0 24 5 36 15 36h121c9.33301 0 17 -3.16699 23 -9.5s10.667 -19.166 14 -38.499l130 -688
c2.66699 -8 4.33398 -12 5.00098 -12c2.66699 0 4 3.66699 4 11l102 686c2.66699 20 6.83398 33.5 12.501 40.5s12.834 10.5 21.501 10.5h84c11.333 0 17 -13 17 -39c0 -6 -0.666992 -13.667 -2 -23l-178 -927c-14 -76.667 -29.333 -135.334 -46 -176.001
s-35.334 -68.334 -56.001 -83.001s-48 -22.334 -82 -23.001h-10c-54 0 -90.667 14.333 -110 43c-5.33301 6 -8 21.333 -8 46c0 49.333 8 74 24 74c1.33301 0 13.333 -3.33301 36 -10s37.334 -10 44.001 -10z" />
    <glyph glyph-name="Amacron" unicode="&#x100;" horiz-adv-x="822" 
d="M237 1576c-24 0 -36 13.333 -36 40v31c0 27.333 12 41 36 41h358c24 0 36 -13.333 36 -40v-31c0 -27.333 -12 -41 -36 -41h-358zM68 0c-10 0 -14.998 9.66699 -14.998 29v17c0 8.66699 0.333008 14.334 1 17.001l225 1325c5.33301 32 17.666 48.667 36.999 50h203
c18.667 -1.33301 30.667 -18 36 -50l221 -1325c0 -2 0.5 -5.66699 1.5 -11s1.66699 -10 2 -14s0.5 -7.33301 0.5 -10c0 -18.667 -5.66699 -28 -17 -28h-165c-16 0 -26.333 13.667 -31 41l-37 255c-2 14.667 -5.66699 22 -11 22h-242
c-4.66699 0 -8.33398 -7.66699 -11.001 -23l-42 -253c-2.66699 -16.667 -6 -27.834 -10 -33.501s-10 -8.5 -18 -8.5h-128zM306.002 443h204c4.66699 0 7 6 7 18c0 4 -0.666992 7 -2 9l-99 771c-0.666992 4.66699 -1.66699 7 -3 7c-2 0 -3.33301 -2 -4 -6l-117 -771
c-0.666992 -4.66699 -1 -7.66699 -1 -9c0 -12.667 5 -19 15 -19z" />
    <glyph glyph-name="amacron" unicode="&#x101;" horiz-adv-x="724" 
d="M178 1140c-24 0 -36 13.333 -36 40v31c0 27.333 12 41 36 41h358c24 0 36 -13.333 36 -40v-31c0 -27.333 -12 -41 -36 -41h-358zM286 -12c-66 0 -117.168 21.3369 -153.501 64.0039s-54.5 104.667 -54.5 186c0 60.667 9.16699 113.667 27.5 159s41.333 79.666 69 102.999
s58.167 42.666 91.5 57.999s64.333 25.333 93 30s53.834 9.16699 75.501 13.5s34.167 8.83301 37.5 13.5v53c0 71.333 -7.83301 124.833 -23.5 160.5s-44.167 53.5 -85.5 53.5c-34.667 0 -61.167 -10.833 -79.5 -32.5s-33.833 -54.834 -46.5 -99.501
c-6 -18.667 -14 -27.334 -24 -26.001c-70 17.333 -105.333 28.666 -106 33.999c-4 2 -6.16699 9.66699 -6.5 23s1.16699 25.666 4.5 36.999c17.333 65.333 47 114.833 89 148.5s102 50.5 180 50.5c42 0 78.5 -6.83301 109.5 -20.5s58.167 -36.167 81.5 -67.5
s40.833 -73.833 52.5 -127.5s17.5 -119.167 17.5 -196.5v-555c0 -34 -7 -51 -21 -51h-32c-12 0 -22.667 14.667 -32 44c-1.33301 6.66699 -7.83301 28.334 -19.5 65.001s-18.167 58.667 -19.5 66c-0.666992 2 -1.5 3.33301 -2.5 4s-2.16699 0.666992 -3.5 0s-2 -2 -2 -4
c-18 -61.333 -43.833 -107.666 -77.5 -138.999s-80.167 -47 -139.5 -47zM320.999 116.004c46.667 0 84.167 30.668 112.5 92.001s42.5 134.666 42.5 219.999c0 50.667 -3 76 -9 76c-12 0 -22 -2 -30 -6c-72 -18 -124.833 -47.333 -158.5 -88s-50.5 -93.667 -50.5 -159
c0 -90 31 -135 93 -135z" />
    <glyph glyph-name="Abreve" unicode="&#x102;" horiz-adv-x="822" 
d="M416 1576c-53.333 0 -98.667 16.332 -136 48.999s-56.333 81.334 -57 146.001h87c0 -34 10.333 -59.167 31 -75.5s46.334 -24.5 77.001 -24.5c30 0 55.333 8 76 24s31 41.333 31 76h85c-0.666992 -64 -19.834 -112.5 -57.501 -145.5s-83.167 -49.5 -136.5 -49.5z
M67.999 -0.000976562c-10 0 -14.998 9.66699 -14.998 29v17c0 8.66699 0.333008 14.334 1 17.001l225 1325c5.33301 32 17.666 48.667 36.999 50h203c18.667 -1.33301 30.667 -18 36 -50l221 -1325c0 -2 0.5 -5.66699 1.5 -11s1.66699 -10 2 -14s0.5 -7.33301 0.5 -10
c0 -18.667 -5.66699 -28 -17 -28h-165c-16 0 -26.333 13.667 -31 41l-37 255c-2 14.667 -5.66699 22 -11 22h-242c-4.66699 0 -8.33398 -7.66699 -11.001 -23l-42 -253c-2.66699 -16.667 -6 -27.834 -10 -33.501s-10 -8.5 -18 -8.5h-128zM306.001 442.999h204
c4.66699 0 7 6 7 18c0 4 -0.666992 7 -2 9l-99 771c-0.666992 4.66699 -1.66699 7 -3 7c-2 0 -3.33301 -2 -4 -6l-117 -771c-0.666992 -4.66699 -1 -7.66699 -1 -9c0 -12.667 5 -19 15 -19z" />
    <glyph glyph-name="abreve" unicode="&#x103;" horiz-adv-x="724" 
d="M356 1140c-53.333 0 -98.667 16.332 -136 48.999s-56.333 81.334 -57 146.001h87c0 -34 10.333 -59.167 31 -75.5s46.334 -24.5 77.001 -24.5c30 0 55.333 8 76 24s31 41.333 31 76h85c-0.666992 -64 -19.834 -112.5 -57.501 -145.5s-83.167 -49.5 -136.5 -49.5z
M285.999 -12.001c-66 0 -117.168 21.3369 -153.501 64.0039s-54.5 104.667 -54.5 186c0 60.667 9.16699 113.667 27.5 159s41.333 79.666 69 102.999s58.167 42.666 91.5 57.999s64.333 25.333 93 30s53.834 9.16699 75.501 13.5s34.167 8.83301 37.5 13.5v53
c0 71.333 -7.83301 124.833 -23.5 160.5s-44.167 53.5 -85.5 53.5c-34.667 0 -61.167 -10.833 -79.5 -32.5s-33.833 -54.834 -46.5 -99.501c-6 -18.667 -14 -27.334 -24 -26.001c-70 17.333 -105.333 28.666 -106 33.999c-4 2 -6.16699 9.66699 -6.5 23
s1.16699 25.666 4.5 36.999c17.333 65.333 47 114.833 89 148.5s102 50.5 180 50.5c42 0 78.5 -6.83301 109.5 -20.5s58.167 -36.167 81.5 -67.5s40.833 -73.833 52.5 -127.5s17.5 -119.167 17.5 -196.5v-555c0 -34 -7 -51 -21 -51h-32c-12 0 -22.667 14.667 -32 44
c-1.33301 6.66699 -7.83301 28.334 -19.5 65.001s-18.167 58.667 -19.5 66c-0.666992 2 -1.5 3.33301 -2.5 4s-2.16699 0.666992 -3.5 0s-2 -2 -2 -4c-18 -61.333 -43.833 -107.666 -77.5 -138.999s-80.167 -47 -139.5 -47zM320.998 116.003
c46.667 0 84.167 30.668 112.5 92.001s42.5 134.666 42.5 219.999c0 50.667 -3 76 -9 76c-12 0 -22 -2 -30 -6c-72 -18 -124.833 -47.333 -158.5 -88s-50.5 -93.667 -50.5 -159c0 -90 31 -135 93 -135z" />
    <glyph glyph-name="Aogonek" unicode="&#x104;" horiz-adv-x="822" 
d="M800 -349l-52 -0.000976562c-70.667 1.33301 -125.167 18.833 -163.5 52.5s-57.5 72.167 -57.5 115.5c0 66.667 20.5 118.5 61.5 155.5s96.167 58.167 165.5 63.5l-2 -37c-54.667 -11.333 -82 -53.333 -82 -126c0 -91.333 39.333 -137 118 -137
c18.667 0.666992 28 -2.66602 28 -9.99902v-60c0 -11.333 -5.33301 -17 -16 -17zM68 -0.000976562c-10 0 -14.998 9.66699 -14.998 29v17c0 8.66699 0.333008 14.334 1 17.001l225 1325c5.33301 32 17.666 48.667 36.999 50h203c18.667 -1.33301 30.667 -18 36 -50
l221 -1325c0 -2 0.5 -5.66699 1.5 -11s1.66699 -10 2 -14s0.5 -7.33301 0.5 -10c0 -18.667 -5.66699 -28 -17 -28h-165c-16 0 -26.333 13.667 -31 41l-37 255c-2 14.667 -5.66699 22 -11 22h-242c-4.66699 0 -8.33398 -7.66699 -11.001 -23l-42 -253
c-2.66699 -16.667 -6 -27.834 -10 -33.501s-10 -8.5 -18 -8.5h-128zM306.002 442.999h204c4.66699 0 7 6 7 18c0 4 -0.666992 7 -2 9l-99 771c-0.666992 4.66699 -1.66699 7 -3 7c-2 0 -3.33301 -2 -4 -6l-117 -771c-0.666992 -4.66699 -1 -7.66699 -1 -9
c0 -12.667 5 -19 15 -19z" />
    <glyph glyph-name="aogonek" unicode="&#x105;" horiz-adv-x="724" 
d="M660 -351l-52 -0.000976562c-70.667 1.33301 -125.167 18.833 -163.5 52.5s-57.5 72.167 -57.5 115.5c0 66.667 20.5 118.5 61.5 155.5s96.167 58.167 165.5 63.5l-2 -37c-54.667 -11.333 -82 -53.333 -82 -126c0 -91.333 39.333 -137 118 -137
c18.667 0.666992 28 -2.66602 28 -9.99902v-60c0 -11.333 -5.33301 -17 -16 -17zM286 -12.001c-66 0 -117.168 21.3369 -153.501 64.0039s-54.5 104.667 -54.5 186c0 60.667 9.16699 113.667 27.5 159s41.333 79.666 69 102.999s58.167 42.666 91.5 57.999
s64.333 25.333 93 30s53.834 9.16699 75.501 13.5s34.167 8.83301 37.5 13.5v53c0 71.333 -7.83301 124.833 -23.5 160.5s-44.167 53.5 -85.5 53.5c-34.667 0 -61.167 -10.833 -79.5 -32.5s-33.833 -54.834 -46.5 -99.501c-6 -18.667 -14 -27.334 -24 -26.001
c-70 17.333 -105.333 28.666 -106 33.999c-4 2 -6.16699 9.66699 -6.5 23s1.16699 25.666 4.5 36.999c17.333 65.333 47 114.833 89 148.5s102 50.5 180 50.5c42 0 78.5 -6.83301 109.5 -20.5s58.167 -36.167 81.5 -67.5s40.833 -73.833 52.5 -127.5
s17.5 -119.167 17.5 -196.5v-555c0 -34 -7 -51 -21 -51h-32c-12 0 -22.667 14.667 -32 44c-1.33301 6.66699 -7.83301 28.334 -19.5 65.001s-18.167 58.667 -19.5 66c-0.666992 2 -1.5 3.33301 -2.5 4s-2.16699 0.666992 -3.5 0s-2 -2 -2 -4
c-18 -61.333 -43.833 -107.666 -77.5 -138.999s-80.167 -47 -139.5 -47zM320.999 116.003c46.667 0 84.167 30.668 112.5 92.001s42.5 134.666 42.5 219.999c0 50.667 -3 76 -9 76c-12 0 -22 -2 -30 -6c-72 -18 -124.833 -47.333 -158.5 -88s-50.5 -93.667 -50.5 -159
c0 -90 31 -135 93 -135z" />
    <glyph glyph-name="Cacute" unicode="&#x106;" horiz-adv-x="717" 
d="M355 1576c-10 0 -15.001 10.666 -15.001 31.999c0 4.66699 0.666992 16.334 2 35.001l20 323c2.66699 36.667 11.334 55 26.001 55h81c6.66699 0 10 -9.33301 10 -28c0 -8.66699 -1.33301 -21 -4 -37l-63 -341c-4.66699 -26 -11 -39 -19 -39h-38zM493.999 -15.001
c-34.667 0 -64.832 1.66992 -90.499 5.00293s-53.5 10.833 -83.5 22.5s-55.5 27.834 -76.5 48.501s-42 49.334 -63 86.001s-37.833 80.5 -50.5 131.5s-23 113.667 -31 188s-12 158.833 -12 253.5c0 128 7.83301 238 23.5 330s35.5 163.667 59.5 215
s55.167 91.666 93.5 120.999s75 48 110 56s76.833 12 125.5 12c62 0 113 -9.33301 153 -28c0.666992 -0.666992 1.66699 -1.5 3 -2.5s2.5 -2 3.5 -3s1.83301 -2.66699 2.5 -5s1 -5.16602 1 -8.49902v-121c0 -9.33301 -2.33301 -14 -7 -14
c-0.666992 0 -3.16699 0.666992 -7.5 2s-10.5 3 -18.5 5s-16.667 4 -26 6s-20.166 3.66699 -32.499 5s-24.5 2 -36.5 2c-31.333 0 -58 -3.5 -80 -10.5s-44.333 -22 -67 -45s-41 -54.833 -55 -95.5s-25.333 -96.334 -34 -167.001s-13 -155.334 -13 -254.001
c0 -100.667 3.83301 -186.334 11.5 -257.001s17.5 -126.5 29.5 -167.5s28.667 -72.833 50 -95.5s42.666 -37.334 63.999 -44.001s48 -10 80 -10c47.333 0 89.333 6.33301 126 19c0.666992 0 2.16699 -3.33301 4.5 -10s3.5 -10.334 3.5 -11.001v-115
c0 -0.666992 -1.16699 -4.16699 -3.5 -10.5s-3.83301 -9.83301 -4.5 -10.5c-40.667 -15.333 -91.334 -23 -152.001 -23z" />
    <glyph glyph-name="cacute" unicode="&#x107;" horiz-adv-x="582" 
d="M283 1140c-10 0 -15.001 10.666 -15.001 31.999c0 4.66699 0.666992 16.334 2 35.001l20 323c2.66699 36.667 11.334 55 26.001 55h81c6.66699 0 10 -9.33301 10 -28c0 -8.66699 -1.33301 -21 -4 -37l-63 -341c-4.66699 -26 -11 -39 -19 -39h-38zM394.999 -11.001
c-24 0 -45.833 1.33691 -65.5 4.00391s-40.667 8.5 -63 17.5s-42 21 -59 36s-33.833 35.667 -50.5 62s-30.334 57.5 -41.001 93.5s-19.167 80 -25.5 132s-9.5 110.333 -9.5 175c0 83.333 5.66699 156.166 17 218.499s26.166 111.666 44.499 147.999s41 65.5 68 87.5
s53.5 36.667 79.5 44s55 11 87 11c40.667 0 85.334 -7.66699 134.001 -23c2.66699 -0.666992 5.33398 -2.66699 8.00098 -6s4 -6.33301 4 -9v-106c0.666992 -4.66699 -0.333008 -8.83398 -3 -12.501s-5.66699 -4.83398 -9 -3.50098c-40.667 12 -71.334 18 -92.001 18
c-19.333 0 -35.666 -1.66699 -48.999 -5s-27.833 -11.833 -43.5 -25.5s-28.334 -33.167 -38.001 -58.5s-17.667 -61.5 -24 -108.5s-9.5 -103.5 -9.5 -169.5c0 -69.333 3 -128.166 9 -176.499s13.333 -85.5 22 -111.5s20.834 -45.833 36.501 -59.5s30.167 -22 43.5 -25
s31 -4.5 53 -4.5c26.667 0 57.334 5.33301 92.001 16c2.66699 -0.666992 5.5 -3.33398 8.5 -8.00098s4.5 -9 4.5 -13v-99c0 -11.333 -4.33301 -18.333 -13 -21c-36.667 -11.333 -75.334 -17.333 -116.001 -18z" />
    <glyph glyph-name="Ccircumflex" unicode="&#x108;" horiz-adv-x="717" 
d="M281 1576c-20.667 0 -31.001 2.66797 -31.001 8.00098c-10.667 0.666992 -16 9.66699 -16 27c0 7.33301 1.33301 16.333 4 27l72 199c16 50 33.333 75 52 75h25c18.667 0 36 -25 52 -75l72 -199c2.66699 -12 4 -22.333 4 -31c0 -14.667 -5 -22.334 -15 -23.001
c0 -5.33301 -10.333 -8 -31 -8c-14 0 -26.333 13.667 -37 41l-47 118c-4 11.333 -7.66699 17 -11 17s-6.66602 -5.66699 -9.99902 -17l-47 -118c-12 -27.333 -24 -41 -36 -41zM493.999 -14.999c-34.667 0 -64.832 1.66992 -90.499 5.00293s-53.5 10.833 -83.5 22.5
s-55.5 27.834 -76.5 48.501s-42 49.334 -63 86.001s-37.833 80.5 -50.5 131.5s-23 113.667 -31 188s-12 158.833 -12 253.5c0 128 7.83301 238 23.5 330s35.5 163.667 59.5 215s55.167 91.666 93.5 120.999s75 48 110 56s76.833 12 125.5 12c62 0 113 -9.33301 153 -28
c0.666992 -0.666992 1.66699 -1.5 3 -2.5s2.5 -2 3.5 -3s1.83301 -2.66699 2.5 -5s1 -5.16602 1 -8.49902v-121c0 -9.33301 -2.33301 -14 -7 -14c-0.666992 0 -3.16699 0.666992 -7.5 2s-10.5 3 -18.5 5s-16.667 4 -26 6s-20.166 3.66699 -32.499 5s-24.5 2 -36.5 2
c-31.333 0 -58 -3.5 -80 -10.5s-44.333 -22 -67 -45s-41 -54.833 -55 -95.5s-25.333 -96.334 -34 -167.001s-13 -155.334 -13 -254.001c0 -100.667 3.83301 -186.334 11.5 -257.001s17.5 -126.5 29.5 -167.5s28.667 -72.833 50 -95.5s42.666 -37.334 63.999 -44.001
s48 -10 80 -10c47.333 0 89.333 6.33301 126 19c0.666992 0 2.16699 -3.33301 4.5 -10s3.5 -10.334 3.5 -11.001v-115c0 -0.666992 -1.16699 -4.16699 -3.5 -10.5s-3.83301 -9.83301 -4.5 -10.5c-40.667 -15.333 -91.334 -23 -152.001 -23z" />
    <glyph glyph-name="ccircumflex" unicode="&#x109;" horiz-adv-x="582" 
d="M209 1140c-20.667 0 -31.001 2.66797 -31.001 8.00098c-10.667 0.666992 -16 9.66699 -16 27c0 7.33301 1.33301 16.333 4 27l72 199c16 50 33.333 75 52 75h25c18.667 0 36 -25 52 -75l72 -199c2.66699 -12 4 -22.333 4 -31c0 -14.667 -5 -22.334 -15 -23.001
c0 -5.33301 -10.333 -8 -31 -8c-14 0 -26.333 13.667 -37 41l-47 118c-4 11.333 -7.66699 17 -11 17s-6.66602 -5.66699 -9.99902 -17l-47 -118c-12 -27.333 -24 -41 -36 -41zM394.999 -10.999c-24 0 -45.833 1.33691 -65.5 4.00391s-40.667 8.5 -63 17.5s-42 21 -59 36
s-33.833 35.667 -50.5 62s-30.334 57.5 -41.001 93.5s-19.167 80 -25.5 132s-9.5 110.333 -9.5 175c0 83.333 5.66699 156.166 17 218.499s26.166 111.666 44.499 147.999s41 65.5 68 87.5s53.5 36.667 79.5 44s55 11 87 11c40.667 0 85.334 -7.66699 134.001 -23
c2.66699 -0.666992 5.33398 -2.66699 8.00098 -6s4 -6.33301 4 -9v-106c0.666992 -4.66699 -0.333008 -8.83398 -3 -12.501s-5.66699 -4.83398 -9 -3.50098c-40.667 12 -71.334 18 -92.001 18c-19.333 0 -35.666 -1.66699 -48.999 -5s-27.833 -11.833 -43.5 -25.5
s-28.334 -33.167 -38.001 -58.5s-17.667 -61.5 -24 -108.5s-9.5 -103.5 -9.5 -169.5c0 -69.333 3 -128.166 9 -176.499s13.333 -85.5 22 -111.5s20.834 -45.833 36.501 -59.5s30.167 -22 43.5 -25s31 -4.5 53 -4.5c26.667 0 57.334 5.33301 92.001 16
c2.66699 -0.666992 5.5 -3.33398 8.5 -8.00098s4.5 -9 4.5 -13v-99c0 -11.333 -4.33301 -18.333 -13 -21c-36.667 -11.333 -75.334 -17.333 -116.001 -18z" />
    <glyph glyph-name="Cdotaccent" unicode="&#x10a;" horiz-adv-x="717" 
d="M304 1576c-18 0 -27 16.667 -27 50v139c0 33.333 9 50 27 50h140c18 0 27 -16.667 27 -50v-139c0 -33.333 -9 -50 -27 -50h-140zM494 -15c-34.667 0 -64.832 1.66992 -90.499 5.00293s-53.5 10.833 -83.5 22.5s-55.5 27.834 -76.5 48.501s-42 49.334 -63 86.001
s-37.833 80.5 -50.5 131.5s-23 113.667 -31 188s-12 158.833 -12 253.5c0 128 7.83301 238 23.5 330s35.5 163.667 59.5 215s55.167 91.666 93.5 120.999s75 48 110 56s76.833 12 125.5 12c62 0 113 -9.33301 153 -28c0.666992 -0.666992 1.66699 -1.5 3 -2.5s2.5 -2 3.5 -3
s1.83301 -2.66699 2.5 -5s1 -5.16602 1 -8.49902v-121c0 -9.33301 -2.33301 -14 -7 -14c-0.666992 0 -3.16699 0.666992 -7.5 2s-10.5 3 -18.5 5s-16.667 4 -26 6s-20.166 3.66699 -32.499 5s-24.5 2 -36.5 2c-31.333 0 -58 -3.5 -80 -10.5s-44.333 -22 -67 -45
s-41 -54.833 -55 -95.5s-25.333 -96.334 -34 -167.001s-13 -155.334 -13 -254.001c0 -100.667 3.83301 -186.334 11.5 -257.001s17.5 -126.5 29.5 -167.5s28.667 -72.833 50 -95.5s42.666 -37.334 63.999 -44.001s48 -10 80 -10c47.333 0 89.333 6.33301 126 19
c0.666992 0 2.16699 -3.33301 4.5 -10s3.5 -10.334 3.5 -11.001v-115c0 -0.666992 -1.16699 -4.16699 -3.5 -10.5s-3.83301 -9.83301 -4.5 -10.5c-40.667 -15.333 -91.334 -23 -152.001 -23z" />
    <glyph glyph-name="cdotaccent" unicode="&#x10b;" horiz-adv-x="582" 
d="M232 1140c-18 0 -27 16.667 -27 50v139c0 33.333 9 50 27 50h140c18 0 27 -16.667 27 -50v-139c0 -33.333 -9 -50 -27 -50h-140zM395 -11c-24 0 -45.833 1.33691 -65.5 4.00391s-40.667 8.5 -63 17.5s-42 21 -59 36s-33.833 35.667 -50.5 62s-30.334 57.5 -41.001 93.5
s-19.167 80 -25.5 132s-9.5 110.333 -9.5 175c0 83.333 5.66699 156.166 17 218.499s26.166 111.666 44.499 147.999s41 65.5 68 87.5s53.5 36.667 79.5 44s55 11 87 11c40.667 0 85.334 -7.66699 134.001 -23c2.66699 -0.666992 5.33398 -2.66699 8.00098 -6
s4 -6.33301 4 -9v-106c0.666992 -4.66699 -0.333008 -8.83398 -3 -12.501s-5.66699 -4.83398 -9 -3.50098c-40.667 12 -71.334 18 -92.001 18c-19.333 0 -35.666 -1.66699 -48.999 -5s-27.833 -11.833 -43.5 -25.5s-28.334 -33.167 -38.001 -58.5s-17.667 -61.5 -24 -108.5
s-9.5 -103.5 -9.5 -169.5c0 -69.333 3 -128.166 9 -176.499s13.333 -85.5 22 -111.5s20.834 -45.833 36.501 -59.5s30.167 -22 43.5 -25s31 -4.5 53 -4.5c26.667 0 57.334 5.33301 92.001 16c2.66699 -0.666992 5.5 -3.33398 8.5 -8.00098s4.5 -9 4.5 -13v-99
c0 -11.333 -4.33301 -18.333 -13 -21c-36.667 -11.333 -75.334 -17.333 -116.001 -18z" />
    <glyph glyph-name="Ccaron" unicode="&#x10c;" horiz-adv-x="717" 
d="M362 1576c-18.667 0 -36.001 25.333 -52.001 76l-72 198c-2.66699 12 -4 22 -4 30c0 15.333 5 23.333 15 24c0 5.33301 10.333 8 31 8c12.667 0 25 -13.333 37 -40l47 -119c2.66699 -10.667 6.33398 -16 11.001 -16c2.66699 0 6 5.33301 10 16l47 119
c10.667 26.667 22.667 40 36 40c20.667 0 31 -2.66699 31 -8c10.667 -0.666992 16 -9.66699 16 -27c0 -7.33301 -1.33301 -16.333 -4 -27l-72 -198c-16 -50.667 -33.333 -76 -52 -76h-25zM493.999 -15c-34.667 0 -64.832 1.66992 -90.499 5.00293s-53.5 10.833 -83.5 22.5
s-55.5 27.834 -76.5 48.501s-42 49.334 -63 86.001s-37.833 80.5 -50.5 131.5s-23 113.667 -31 188s-12 158.833 -12 253.5c0 128 7.83301 238 23.5 330s35.5 163.667 59.5 215s55.167 91.666 93.5 120.999s75 48 110 56s76.833 12 125.5 12c62 0 113 -9.33301 153 -28
c0.666992 -0.666992 1.66699 -1.5 3 -2.5s2.5 -2 3.5 -3s1.83301 -2.66699 2.5 -5s1 -5.16602 1 -8.49902v-121c0 -9.33301 -2.33301 -14 -7 -14c-0.666992 0 -3.16699 0.666992 -7.5 2s-10.5 3 -18.5 5s-16.667 4 -26 6s-20.166 3.66699 -32.499 5s-24.5 2 -36.5 2
c-31.333 0 -58 -3.5 -80 -10.5s-44.333 -22 -67 -45s-41 -54.833 -55 -95.5s-25.333 -96.334 -34 -167.001s-13 -155.334 -13 -254.001c0 -100.667 3.83301 -186.334 11.5 -257.001s17.5 -126.5 29.5 -167.5s28.667 -72.833 50 -95.5s42.666 -37.334 63.999 -44.001
s48 -10 80 -10c47.333 0 89.333 6.33301 126 19c0.666992 0 2.16699 -3.33301 4.5 -10s3.5 -10.334 3.5 -11.001v-115c0 -0.666992 -1.16699 -4.16699 -3.5 -10.5s-3.83301 -9.83301 -4.5 -10.5c-40.667 -15.333 -91.334 -23 -152.001 -23z" />
    <glyph glyph-name="ccaron" unicode="&#x10d;" horiz-adv-x="582" 
d="M290 1140c-18.667 0 -36.001 25.333 -52.001 76l-72 198c-2.66699 12 -4 22 -4 30c0 15.333 5 23.333 15 24c0 5.33301 10.333 8 31 8c12.667 0 25 -13.333 37 -40l47 -119c2.66699 -10.667 6.33398 -16 11.001 -16c2.66699 0 6 5.33301 10 16l47 119
c10.667 26.667 22.667 40 36 40c20.667 0 31 -2.66699 31 -8c10.667 -0.666992 16 -9.66699 16 -27c0 -7.33301 -1.33301 -16.333 -4 -27l-72 -198c-16 -50.667 -33.333 -76 -52 -76h-25zM394.999 -11c-24 0 -45.833 1.33691 -65.5 4.00391s-40.667 8.5 -63 17.5
s-42 21 -59 36s-33.833 35.667 -50.5 62s-30.334 57.5 -41.001 93.5s-19.167 80 -25.5 132s-9.5 110.333 -9.5 175c0 83.333 5.66699 156.166 17 218.499s26.166 111.666 44.499 147.999s41 65.5 68 87.5s53.5 36.667 79.5 44s55 11 87 11
c40.667 0 85.334 -7.66699 134.001 -23c2.66699 -0.666992 5.33398 -2.66699 8.00098 -6s4 -6.33301 4 -9v-106c0.666992 -4.66699 -0.333008 -8.83398 -3 -12.501s-5.66699 -4.83398 -9 -3.50098c-40.667 12 -71.334 18 -92.001 18c-19.333 0 -35.666 -1.66699 -48.999 -5
s-27.833 -11.833 -43.5 -25.5s-28.334 -33.167 -38.001 -58.5s-17.667 -61.5 -24 -108.5s-9.5 -103.5 -9.5 -169.5c0 -69.333 3 -128.166 9 -176.499s13.333 -85.5 22 -111.5s20.834 -45.833 36.501 -59.5s30.167 -22 43.5 -25s31 -4.5 53 -4.5
c26.667 0 57.334 5.33301 92.001 16c2.66699 -0.666992 5.5 -3.33398 8.5 -8.00098s4.5 -9 4.5 -13v-99c0 -11.333 -4.33301 -18.333 -13 -21c-36.667 -11.333 -75.334 -17.333 -116.001 -18z" />
    <glyph glyph-name="Dcaron" unicode="&#x10e;" horiz-adv-x="935" 
d="M470 1576c-18.667 0 -36.001 25.333 -52.001 76l-72 198c-2.66699 12 -4 22 -4 30c0 15.333 5 23.333 15 24c0 5.33301 10.333 8 31 8c12.667 0 25 -13.333 37 -40l47 -119c2.66699 -10.667 6.33398 -16 11.001 -16c2.66699 0 6 5.33301 10 16l47 119
c10.667 26.667 22.667 40 36 40c20.667 0 31 -2.66699 31 -8c10.667 -0.666992 16 -9.66699 16 -27c0 -7.33301 -1.33301 -16.333 -4 -27l-72 -198c-16 -50.667 -33.333 -76 -52 -76h-25zM325.999 159l123 -0.00195312c51.333 0 91 15.333 119 46
s48.833 86.834 62.5 168.501s20.5 199.167 20.5 352.5c0 142 -7.83301 254.333 -23.5 337s-37.167 139.334 -64.5 170.001s-63 46 -107 46h-131c-8 0 -12 -7.33301 -12 -22v-1076c0 -14.667 4.33301 -22 13 -22zM140.999 -0.00195312c-8.66699 0 -15 2.66699 -19 8
s-6 17.333 -6 36v1354c0 16.667 2 27.5 6 32.5s10.333 7.5 19 7.5h344c58.667 0 109.5 -11.667 152.5 -35s80.833 -61.666 113.5 -114.999s57.167 -126.5 73.5 -219.5s24.5 -206.167 24.5 -339.5c0 -94.667 -3 -178.167 -9 -250.5s-13.833 -134.333 -23.5 -186
s-23.5 -95.334 -41.5 -131.001s-36.667 -64 -56 -85s-43.666 -37.167 -72.999 -48.5s-57.833 -18.833 -85.5 -22.5s-61.834 -5.5 -102.501 -5.5h-317z" />
    <glyph glyph-name="dcaron" unicode="&#x10f;" horiz-adv-x="789" 
d="M895 848c-2.66699 -1.33301 -4.66602 -2 -5.99902 -2c-12.667 0 -19 14.333 -19 43v18c0 20.667 1 33.667 3 39s8.66699 14.333 20 27c14.667 18 26.167 43 34.5 75s12.5 61.667 12.5 89c0 18 -2 27 -6 27h-45c-14 0 -21 19 -21 57v147c0 40 9 60 27 60h116
c17.333 0 26 -21.333 26 -64v-150c0 -56 -5 -107.167 -15 -153.5s-22.833 -83.5 -38.5 -111.5s-30.834 -50.167 -45.501 -66.5s-29 -27.833 -43 -34.5zM342.001 -11c-175.333 0 -263.001 170.333 -263.001 511c0 345.333 85.333 518 256 518c74 0 128.667 -46.667 164 -140
c4.66699 -6.66699 7.33398 -10 8.00098 -10c2.66699 0 4 4.33301 4 13v487c0 40 8.33301 60 25 60h124c16.667 0 25 -20 25 -60v-1301c0 -44.667 -8 -67 -24 -67h-29c-14.667 0 -26 20 -34 60c-18 102.667 -28.667 154.667 -32 156c-2 -2 -4.33301 -6 -7 -12
c-18 -82.667 -45.333 -139.167 -82 -169.5s-81.667 -45.5 -135 -45.5zM510 511c0 126 -11.332 219.333 -33.999 280s-54.334 91 -95.001 91c-20 0 -37.167 -5.16699 -51.5 -15.5s-27.5 -28.5 -39.5 -54.5s-21 -64.167 -27 -114.5s-9 -112.5 -9 -186.5
c0 -103.333 5.33301 -184 16 -242s24.667 -96.5 42 -115.5s40 -28.5 68 -28.5c86.667 0 130 128.667 130 386z" />
    <glyph glyph-name="Dcroat" unicode="&#x110;" horiz-adv-x="935" 
d="M326 159l123 -0.00195312c51.333 0 91 15.333 119 46s48.833 86.834 62.5 168.501s20.5 199.167 20.5 352.5c0 142 -7.83301 254.333 -23.5 337s-37.167 139.334 -64.5 170.001s-63 46 -107 46h-131c-8 0 -12 -7.33301 -12 -22v-480h142c23.333 0 35 -13 35 -39v-28
c0 -26 -11.667 -39 -35 -39h-142v-490c0 -14.667 4.33301 -22 13 -22zM141 -0.00195312c-8.66699 0 -15 2.66699 -19 8s-6 17.333 -6 36v627h-76c-23.333 0 -35 12.667 -35 38v29c0 26 11.667 39 35 39h76v621c0 16.667 2 27.5 6 32.5s10.333 7.5 19 7.5h344
c58.667 0 109.5 -11.667 152.5 -35s80.833 -61.666 113.5 -114.999s57.167 -126.5 73.5 -219.5s24.5 -206.167 24.5 -339.5c0 -94.667 -3 -178.167 -9 -250.5s-13.833 -134.333 -23.5 -186s-23.5 -95.334 -41.5 -131.001s-36.667 -64 -56 -85s-43.666 -37.167 -72.999 -48.5
s-57.833 -18.833 -85.5 -22.5s-61.834 -5.5 -102.501 -5.5h-317z" />
    <glyph glyph-name="dcroat" unicode="&#x111;" horiz-adv-x="789" 
d="M342 -11c-175.333 0 -263.001 170.334 -263.001 511.001c0 345.333 85.333 518 256 518c74 0 128.667 -46.667 164 -140c4.66699 -6.66699 7.33398 -10 8.00098 -10c2.66699 0 4 5.66699 4 17v289h-174c-22.667 0 -34 12.667 -34 38v29c0 26 11.333 39 34 39h174v88
c0 40 8.33301 60 25 60h124c16.667 0 25 -20 25 -60v-88h67c23.333 0 35 -13 35 -39v-28c0 -26 -11.667 -39 -35 -39h-67v-1107c0 -44.667 -8 -67 -24 -67c-21.333 0.666992 -32.333 1.66699 -33 3c-14 4.66699 -24.333 24.667 -31 60
c-16.667 87.333 -25 132.666 -25 135.999c-0.666992 10 -2.66699 15.667 -6 17c-2 -2 -4.33301 -6 -7 -12c-18 -82.667 -45.333 -139.167 -82 -169.5s-81.667 -45.5 -135 -45.5zM509.999 511.001c0 126 -11.332 219.333 -33.999 280s-54.334 91 -95.001 91
c-20 0 -37.167 -5.16699 -51.5 -15.5s-27.5 -28.5 -39.5 -54.5s-21 -64.167 -27 -114.5s-9 -112.5 -9 -186.5c0 -103.333 5.33301 -184 16 -242s24.667 -96.5 42 -115.5s40 -28.5 68 -28.5c86.667 0 130 128.667 130 386z" />
    <glyph glyph-name="Emacron" unicode="&#x112;" horiz-adv-x="752" 
d="M227 1576c-24 0 -36 13.333 -36 40v31c0 27.333 12 41 36 41h358c24 0 36 -13.333 36 -40v-31c0 -27.333 -12 -41 -36 -41h-358zM141 0c-8.66699 0 -14.9971 2.50195 -18.9971 7.50195s-6 16.5 -6 34.5v1354c0 17.333 2 28.666 6 33.999s10.333 8 19 8h526
c5.33301 0 9.66602 -0.666992 12.999 -2s6.16602 -5 8.49902 -11s3.5 -15 3.5 -27v-79c0 -16.667 -2 -27.5 -6 -32.5s-10.333 -7.5 -19 -7.5h-342c-8 0 -12 -11 -12 -33v-404c0 -6 1.16699 -12 3.5 -18s4.5 -9 6.5 -9h275c16.667 0 25 -15.333 25 -46v-77
c0 -30.667 -8.33301 -46 -25 -46h-274c-2.66699 0 -5.16699 -3.33301 -7.5 -10s-3.5 -13.334 -3.5 -20.001v-457h357c6 0 10.667 -0.666992 14 -2s6.16602 -5 8.49902 -11s3.5 -15 3.5 -27v-79c0 -16.667 -2.16699 -27.5 -6.5 -32.5s-10.833 -7.5 -19.5 -7.5h-529z" />
    <glyph glyph-name="emacron" unicode="&#x113;" horiz-adv-x="695" 
d="M177 1140c-24 0 -36 13.333 -36 40v31c0 27.333 12 41 36 41h358c24 0 36 -13.333 36 -40v-31c0 -27.333 -12 -41 -36 -41h-358zM623 242c0 -74 -20.002 -134.666 -60.002 -181.999s-99.333 -71 -178 -71c-31.333 0 -60 3.5 -86 10.5s-53 21.5 -81 43.5
s-51.667 51.167 -71 87.5s-35.166 86.333 -47.499 150s-18.5 138.167 -18.5 223.5c0 86 6 160.833 18 224.5s27.333 113.667 46 150s41.5 65.333 68.5 87s52.833 35.834 77.5 42.501s52 10 82 10c172 0 258 -160.667 258 -482c0 -46.667 -8.33301 -70 -25 -70h-348
c-5.33301 0 -8 -8.33301 -8 -25c0.666992 -101.333 12.834 -179.333 36.501 -234s58.167 -82 103.5 -82c22 0 40.5 5 55.5 15s26.167 24.667 33.5 44s12.5 36.166 15.5 50.499s5.5 32.166 7.5 53.499c2 14.667 7.66699 22 17 22h81c15.333 0 23 -17.333 23 -52v-16z
M254.998 572.001h229c1.33301 0 2 8.33301 2 25c-5.33301 190.667 -43.333 286 -114 286c-32.667 0 -60 -21 -82 -63s-35 -108 -39 -198c0 -33.333 1.33301 -50 4 -50z" />
    <glyph glyph-name="Ebreve" unicode="&#x114;" horiz-adv-x="752" 
d="M406 1576c-53.333 0 -98.667 16.332 -136 48.999s-56.333 81.334 -57 146.001h87c0 -34 10.333 -59.167 31 -75.5s46.334 -24.5 77.001 -24.5c30 0 55.333 8 76 24s31 41.333 31 76h85c-0.666992 -64 -19.834 -112.5 -57.501 -145.5s-83.167 -49.5 -136.5 -49.5z
M140.999 -0.000976562c-8.66699 0 -14.9971 2.50195 -18.9971 7.50195s-6 16.5 -6 34.5v1354c0 17.333 2 28.666 6 33.999s10.333 8 19 8h526c5.33301 0 9.66602 -0.666992 12.999 -2s6.16602 -5 8.49902 -11s3.5 -15 3.5 -27v-79c0 -16.667 -2 -27.5 -6 -32.5
s-10.333 -7.5 -19 -7.5h-342c-8 0 -12 -11 -12 -33v-404c0 -6 1.16699 -12 3.5 -18s4.5 -9 6.5 -9h275c16.667 0 25 -15.333 25 -46v-77c0 -30.667 -8.33301 -46 -25 -46h-274c-2.66699 0 -5.16699 -3.33301 -7.5 -10s-3.5 -13.334 -3.5 -20.001v-457h357
c6 0 10.667 -0.666992 14 -2s6.16602 -5 8.49902 -11s3.5 -15 3.5 -27v-79c0 -16.667 -2.16699 -27.5 -6.5 -32.5s-10.833 -7.5 -19.5 -7.5h-529z" />
    <glyph glyph-name="ebreve" unicode="&#x115;" horiz-adv-x="695" 
d="M356 1140c-53.333 0 -98.667 16.332 -136 48.999s-56.333 81.334 -57 146.001h87c0 -34 10.333 -59.167 31 -75.5s46.334 -24.5 77.001 -24.5c30 0 55.333 8 76 24s31 41.333 31 76h85c-0.666992 -64 -19.834 -112.5 -57.501 -145.5s-83.167 -49.5 -136.5 -49.5z
M622.999 241.999c0 -74 -20.002 -134.666 -60.002 -181.999s-99.333 -71 -178 -71c-31.333 0 -60 3.5 -86 10.5s-53 21.5 -81 43.5s-51.667 51.167 -71 87.5s-35.166 86.333 -47.499 150s-18.5 138.167 -18.5 223.5c0 86 6 160.833 18 224.5s27.333 113.667 46 150
s41.5 65.333 68.5 87s52.833 35.834 77.5 42.501s52 10 82 10c172 0 258 -160.667 258 -482c0 -46.667 -8.33301 -70 -25 -70h-348c-5.33301 0 -8 -8.33301 -8 -25c0.666992 -101.333 12.834 -179.333 36.501 -234s58.167 -82 103.5 -82c22 0 40.5 5 55.5 15
s26.167 24.667 33.5 44s12.5 36.166 15.5 50.499s5.5 32.166 7.5 53.499c2 14.667 7.66699 22 17 22h81c15.333 0 23 -17.333 23 -52v-16zM254.997 572h229c1.33301 0 2 8.33301 2 25c-5.33301 190.667 -43.333 286 -114 286c-32.667 0 -60 -21 -82 -63s-35 -108 -39 -198
c0 -33.333 1.33301 -50 4 -50z" />
    <glyph glyph-name="Edotaccent" unicode="&#x116;" horiz-adv-x="752" 
d="M336 1576c-18 0 -27 16.667 -27 50v139c0 33.333 9 50 27 50h140c18 0 27 -16.667 27 -50v-139c0 -33.333 -9 -50 -27 -50h-140zM141 0c-8.66699 0 -14.9971 2.50195 -18.9971 7.50195s-6 16.5 -6 34.5v1354c0 17.333 2 28.666 6 33.999s10.333 8 19 8h526
c5.33301 0 9.66602 -0.666992 12.999 -2s6.16602 -5 8.49902 -11s3.5 -15 3.5 -27v-79c0 -16.667 -2 -27.5 -6 -32.5s-10.333 -7.5 -19 -7.5h-342c-8 0 -12 -11 -12 -33v-404c0 -6 1.16699 -12 3.5 -18s4.5 -9 6.5 -9h275c16.667 0 25 -15.333 25 -46v-77
c0 -30.667 -8.33301 -46 -25 -46h-274c-2.66699 0 -5.16699 -3.33301 -7.5 -10s-3.5 -13.334 -3.5 -20.001v-457h357c6 0 10.667 -0.666992 14 -2s6.16602 -5 8.49902 -11s3.5 -15 3.5 -27v-79c0 -16.667 -2.16699 -27.5 -6.5 -32.5s-10.833 -7.5 -19.5 -7.5h-529z" />
    <glyph glyph-name="edotaccent" unicode="&#x117;" horiz-adv-x="695" 
d="M286 1140c-18 0 -27 16.667 -27 50v139c0 33.333 9 50 27 50h140c18 0 27 -16.667 27 -50v-139c0 -33.333 -9 -50 -27 -50h-140zM623 242c0 -74 -20.002 -134.666 -60.002 -181.999s-99.333 -71 -178 -71c-31.333 0 -60 3.5 -86 10.5s-53 21.5 -81 43.5
s-51.667 51.167 -71 87.5s-35.166 86.333 -47.499 150s-18.5 138.167 -18.5 223.5c0 86 6 160.833 18 224.5s27.333 113.667 46 150s41.5 65.333 68.5 87s52.833 35.834 77.5 42.501s52 10 82 10c172 0 258 -160.667 258 -482c0 -46.667 -8.33301 -70 -25 -70h-348
c-5.33301 0 -8 -8.33301 -8 -25c0.666992 -101.333 12.834 -179.333 36.501 -234s58.167 -82 103.5 -82c22 0 40.5 5 55.5 15s26.167 24.667 33.5 44s12.5 36.166 15.5 50.499s5.5 32.166 7.5 53.499c2 14.667 7.66699 22 17 22h81c15.333 0 23 -17.333 23 -52v-16z
M254.998 572.001h229c1.33301 0 2 8.33301 2 25c-5.33301 190.667 -43.333 286 -114 286c-32.667 0 -60 -21 -82 -63s-35 -108 -39 -198c0 -33.333 1.33301 -50 4 -50z" />
    <glyph glyph-name="Eogonek" unicode="&#x118;" horiz-adv-x="752" 
d="M141 0c-8.66699 0 -14.9971 2.50195 -18.9971 7.50195s-6 16.5 -6 34.5v1354c0 17.333 2 28.666 6 33.999s10.333 8 19 8h526c5.33301 0 9.66602 -0.666992 12.999 -2s6.16602 -5 8.49902 -11s3.5 -15 3.5 -27v-79c0 -16.667 -2 -27.5 -6 -32.5s-10.333 -7.5 -19 -7.5
h-342c-8 0 -12 -11 -12 -33v-404c0 -6 1.16699 -12 3.5 -18s4.5 -9 6.5 -9h275c16.667 0 25 -15.333 25 -46v-77c0 -30.667 -8.33301 -46 -25 -46h-274c-2.66699 0 -5.16699 -3.33301 -7.5 -10s-3.5 -13.334 -3.5 -20.001v-457h357c6 0 10.667 -0.666992 14 -2
s6.16602 -5 8.49902 -11s3.5 -15 3.5 -27v-79c0 -16.667 -2.16699 -27.5 -6.5 -32.5s-10.833 -7.5 -19.5 -7.5h-529zM657.003 -349.998l-52 -0.000976562c-70.667 1.33301 -125.167 18.833 -163.5 52.5s-57.5 72.167 -57.5 115.5c0 66.667 20.5 118.5 61.5 155.5
s96.167 58.167 165.5 63.5l-2 -37c-54.667 -11.333 -82 -53.333 -82 -126c0 -91.333 39.333 -137 118 -137c18.667 0.666992 28 -2.66602 28 -9.99902v-60c0 -11.333 -5.33301 -17 -16 -17z" />
    </font>
</defs>
</svg>
