<?xml version="1.0" standalone="no"?>
<!DOCTYPE svg PUBLIC "-//W3C//DTD SVG 1.1//EN" "http://www.w3.org/Graphics/SVG/1.1/DTD/svg11.dtd" >
<svg>
<metadata>
Created by FontForge 20090914 at Wed Aug  7 04:16:08 2013
 By www-data
Copyright (c) 2012, Vernon Adams (vern@newtypography.co.uk), with Reserved Font Names 'Oxygen'
</metadata>
<defs>
<font id="Oxygen-Bold" horiz-adv-x="1152" >
  <font-face 
    font-family="Oxygen"
    font-weight="700"
    font-stretch="normal"
    units-per-em="2048"
    panose-1="2 0 8 3 0 0 0 0 0 0"
    ascent="1638"
    descent="-410"
    x-height="1099"
    cap-height="1465"
    bbox="-335 -658 2674 2026"
    underline-thickness="0"
    underline-position="0"
    unicode-range="U+0020-U+FB02"
  />
<missing-glyph horiz-adv-x="748" 
d="M136 68h408v1229h-408v-1229zM68 0v1365h544v-1365h-544z" />
    <glyph glyph-name="uniFB00" unicode="ff" horiz-adv-x="1485" 
d="M203 0v925h-174l17 154l157 20v61c0 66.667 6.16699 123.667 18.5 171s32.5 87.833 60.5 121.5s65.5 58.667 112.5 75s104.833 24.5 173.5 24.5c66.667 0 134.667 -6.33301 204 -19l-23 -195c-54.667 7.33301 -97.667 11 -129 11c-56 0 -95.833 -13.5 -119.5 -40.5
s-35.5 -71.833 -35.5 -134.5v-75h479v61c0 134.667 27.5 233.667 82.5 297s149.167 95 282.5 95c65.333 0 133.333 -6.33301 204 -19l-23 -195c-55.333 7.33301 -98.333 11 -129 11c-56.667 0 -96.667 -13.5 -120 -40.5s-35 -71.833 -35 -134.5v-75h257v-174h-257v-925h-262
v925h-479v-925h-262z" />
    <glyph glyph-name="uniFB01" unicode="fi" horiz-adv-x="1183" 
d="M183 0l-0.000976562 941.998h-173v156h173v33c0.666992 50 2.83398 92.333 6.50098 127s10.5 68.667 20.5 102s24 60.5 42 81.5s41.5 39.667 70.5 56s64.5 28.166 106.5 35.499s91.333 11 148 11h68l22 -190h-70c-35.333 0 -63.5 -3.16699 -84.5 -9.5
s-37 -17.666 -48 -33.999s-18.167 -35.166 -21.5 -56.499s-5 -50.666 -5 -87.999v-68h625v-1098h-254v942h-371v-942h-255zM808.999 1259v224h255v-224h-255z" />
    <glyph glyph-name="uniFB02" unicode="fl" horiz-adv-x="1395" 
d="M1234 -13c-44 0 -83.3281 3.83301 -117.995 11.5s-64.334 18 -89.001 31s-45.834 30.5 -63.501 52.5s-32 45.167 -43 69.5s-19.5 54 -25.5 89s-10.167 69.5 -12.5 103.5s-3.5 74 -3.5 120v873c-6.66699 0.666992 -26 2.5 -58 5.5s-62 5.33301 -90 7s-55 2.5 -81 2.5
c-82.667 0 -138.5 -13.667 -167.5 -41s-43.833 -75.666 -44.5 -144.999v-68h237v-156h-237v-942h-255v942h-173v156h173v46c1.33301 138 35.166 238.5 101.499 301.5s174.5 94.5 324.5 94.5c70.667 0 174.667 -7.33301 312 -22s208.333 -22 213 -22v-1072
c0 -34 0.5 -61.167 1.5 -81.5s3.5 -40.833 7.5 -61.5s9.5 -36.334 16.5 -47.001s16.833 -20.5 29.5 -29.5s28.167 -15.167 46.5 -18.5s40.5 -5 66.5 -5c8 0 29.333 1.33301 64 4l13 -184c-1.33301 0 -10.833 -1.5 -28.5 -4.5s-35.834 -5.33301 -54.501 -7
s-39.334 -2.5 -62.001 -2.5z" />
    <glyph glyph-name=".notdef" horiz-adv-x="748" 
d="M136 68h408v1229h-408v-1229zM68 0v1365h544v-1365h-544z" />
    <glyph glyph-name="space" unicode=" " horiz-adv-x="541" 
 />
    <glyph glyph-name="exclam" unicode="!" horiz-adv-x="446" 
d="M193 449l-85 713v296h241v-296l-90 -713h-66zM224 -18c-43.333 0 -80 15 -110 45s-45 65.667 -45 107c0 42 15 78.333 45 109s66.667 46 110 46c42.667 0 78.834 -15.333 108.501 -46s44.5 -67 44.5 -109c0 -41.333 -14.833 -77 -44.5 -107s-65.834 -45 -108.501 -45z
" />
    <glyph glyph-name="quotedbl" unicode="&#x22;" horiz-adv-x="784" 
d="M143 955l-35 515h224l-30 -515h-159zM487 955l-33 515h223l-31 -515h-159z" />
    <glyph glyph-name="numbersign" unicode="#" horiz-adv-x="1192" 
d="M178 -15l77 419h-202l8 179h227l55 315h-212l8 179h236l80 381h195l-76 -381h193l74 381h190l-75 -381h181l-12 -178h-202l-60 -316h195l-10 -179h-215l-80 -419h-196l79 419h-190l-79 -419h-189zM478 583h194l61 316h-193z" />
    <glyph glyph-name="dollar" unicode="$" horiz-adv-x="1194" 
d="M558 -212l-2 192.004c-170 2 -324 42.667 -462 122l66 215c132 -72.667 264.667 -111 398 -115v434c-80 23.333 -134 40.666 -162 51.999c-196.667 69.333 -295 198.666 -295 387.999c0 123.333 41.333 220.666 124 291.999s193.667 111.666 333 120.999v154h98v-152
c160 -4.66699 299.667 -41 419 -109l-82 -198c-120 54 -232.333 83 -337 87v-393c5.33301 -2 13.333 -4.66699 24 -8l35.5 -11c13 -4 21.833 -6.66699 26.5 -8c134 -44 229.833 -98.667 287.5 -164s86.5 -156.333 86.5 -273c0 -126 -41 -226 -123 -300
s-194.333 -117.333 -337 -130v-196h-98zM558 911.004v356.001c-56.667 -7.33301 -99.667 -25.333 -129 -54s-45.333 -70.334 -48 -125.001c0 -81.333 40.333 -134.333 121 -159c9.33301 -3.33301 28 -9.33301 56 -18zM656 208.005
c123.333 20 184.999 89.334 184.999 208.001c0 85.333 -51.667 145.333 -155 180c-2 1.33301 -7.16699 3.16602 -15.5 5.49902s-13.166 3.83301 -14.499 4.5v-398z" />
    <glyph glyph-name="percent" unicode="%" horiz-adv-x="1790" 
d="M407 836c58 0 101.832 21.667 131.499 65s44.5 99.333 44.5 168c0 70 -14.833 126.667 -44.5 170s-73.167 65 -130.5 65s-100.666 -22 -129.999 -66s-44 -101 -44 -171s14.5 -126 43.5 -168s72.167 -63 129.5 -63zM403.999 677
c-108.667 0 -194.168 36.6689 -256.501 110.002s-93.5 166.666 -93.5 279.999s32.167 207.333 96.5 282s150.5 112 258.5 112c112.667 0 201.334 -36.667 266.001 -110s97 -167 97 -281c0 -112.667 -33.667 -206.334 -101 -281.001s-156.333 -112 -267 -112z
M306.998 -31.998l901 1482l220 -1l-908 -1481h-213zM1382 142.002c60 0 105.167 21.834 135.5 65.501s45.5 100.167 45.5 169.5s-16.167 125.166 -48.5 167.499s-80.5 63.5 -144.5 63.5s-108.667 -21 -134 -63s-38 -99.667 -38 -173c0 -69.333 15.5 -125 46.5 -167
s76.833 -63 137.5 -63zM1379 -16.9971c-114.667 0 -205.167 36.833 -271.5 110.5s-99.5 166.5 -99.5 278.5c0 262.667 121 394 363 394c119.333 0 210.833 -36.167 274.5 -108.5s95.5 -166.166 95.5 -281.499c0 -112.667 -32.5 -206.334 -97.5 -281.001
s-153.167 -112 -264.5 -112z" />
    <glyph glyph-name="ampersand" unicode="&#x26;" horiz-adv-x="1436" 
d="M580 -23c-70.667 0 -136.502 8.33008 -197.502 24.9971s-116.167 41.5 -165.5 74.5s-88.166 77.5 -116.499 133.5s-42.5 120.667 -42.5 194c0 42.667 6.33301 82.667 19 120s28.834 69.833 48.501 97.5s45 54.834 76 81.501s61.167 49.334 90.5 68.001
s63.666 38.667 102.999 60c-27.333 30.667 -48.333 55.167 -63 73.5s-31.167 41.833 -49.5 70.5s-31.666 57.167 -39.999 85.5s-12.5 58.166 -12.5 89.499c0 73.333 18 135.833 54 187.5s82.167 89.167 138.5 112.5s119.5 35 189.5 35c49.333 0 96.833 -6.16699 142.5 -18.5
s87.834 -30.833 126.501 -55.5s69.667 -57.834 93 -99.501s35 -89.5 35 -143.5c0 -45.333 -9 -87.833 -27 -127.5s-43.5 -75.167 -76.5 -106.5s-66.667 -58.333 -101 -81s-73.5 -45 -117.5 -67l350 -382c54 58.667 105.333 135.334 154 230.001l170 -113
c-52 -100.667 -112 -189 -180 -265l207 -219c-4.66699 -1.33301 -39.834 -10.166 -105.501 -26.499s-100.5 -25.166 -104.5 -26.499l-142 149c-136.667 -104 -288.667 -156 -456 -156zM586.998 167.997c57.333 0 113.333 9.50098 168 28.501s102.667 45.5 144 79.5
l-196 212.5l-195 212.5c-28 -16 -50.833 -29.5 -68.5 -40.5s-37.167 -25.333 -58.5 -43s-37.833 -35 -49.5 -52s-21.667 -37.5 -30 -61.5s-12.5 -50 -12.5 -78c0 -84.667 27.667 -148.834 83 -192.501s127 -65.5 215 -65.5zM570.998 923.998
c31.333 16.667 57.166 31.667 77.499 45s41.833 30 64.5 50s39.667 42.333 51 67s17 51.334 17 80.001c0 48.667 -15 85.667 -45 111s-69 38 -117 38c-51.333 0 -92.166 -13 -122.499 -39s-45.5 -64.667 -45.5 -116c0 -74.667 40 -153.334 120 -236.001z" />
    <glyph glyph-name="quotesingle" unicode="'" horiz-adv-x="440" 
d="M140 929l-35 535h214l-27 -535h-152z" />
    <glyph glyph-name="parenleft" unicode="(" horiz-adv-x="650" 
d="M376 -276c-188.667 258 -282.999 549 -282.999 873c0 330.667 94 627.667 282 891h236c-66.667 -95.333 -128.334 -226.5 -185.001 -393.5s-85 -332.167 -85 -495.5c0 -160 28.5 -322.667 85.5 -488s118.167 -294.333 183.5 -387h-234z" />
    <glyph glyph-name="parenright" unicode=")" horiz-adv-x="650" 
d="M41 -276c40 57.333 79.332 129.167 117.999 215.5s73.334 190.333 104.001 312s46 237.5 46 347.5c0 162.667 -28.167 327.5 -84.5 494.5s-117.833 298.5 -184.5 394.5h235c188.667 -266 283 -563 283 -891c0 -322.667 -94.667 -613.667 -284 -873h-233z" />
    <glyph glyph-name="asterisk" unicode="*" horiz-adv-x="1104" 
d="M375 562l-203.998 114.001l242 306l-342 77l64 207l337 -133l-35 371h228l-35 -371l341 129l61 -208l-344 -72c3.33301 -4.66699 43.166 -54.334 119.499 -149.001s118.166 -147 125.499 -157c-4 -2.66699 -37.5 -21.667 -100.5 -57l-101.5 -57l-182 323z" />
    <glyph glyph-name="plus" unicode="+" horiz-adv-x="1180" 
d="M492 146v408h-409v191h410v408h198v-408h407v-191h-408v-408h-198z" />
    <glyph glyph-name="comma" unicode="," horiz-adv-x="508" 
d="M64 -283c38 184.667 69.333 356.333 94 515h244l-3 -49c-43.333 -150.667 -96 -306 -158 -466h-177z" />
    <glyph glyph-name="hyphen" unicode="-" horiz-adv-x="677" 
d="M70 445v204h536v-204h-536z" />
    <glyph glyph-name="period" unicode="." horiz-adv-x="473" 
d="M245 -18c-43.333 0 -80 15 -110 45s-45 65.667 -45 107c0 42 14.833 78.333 44.5 109s66.5 46 110.5 46c42.667 0 78.667 -15.333 108 -46s44 -67 44 -109c0 -41.333 -14.667 -77 -44 -107s-65.333 -45 -108 -45z" />
    <glyph glyph-name="slash" unicode="/" horiz-adv-x="949" 
d="M52 -189l622 1678h218l-627 -1678h-213z" />
    <glyph glyph-name="zero" unicode="0" horiz-adv-x="1296" 
d="M649 187c53.333 0 98.8311 15.333 136.498 46s66.334 73.167 86.001 127.5s33.834 112.333 42.501 174s13 130.167 13 205.5c0 361.333 -92.667 542 -278 542c-184 0 -277.333 -179.333 -280 -538c0 -76 4.33301 -145 13 -207s23 -120.5 43 -175.5s49 -97.833 87 -128.5
s83.667 -46 137 -46zM648.998 -21c-79.333 0 -150.671 13.5 -214.004 40.5s-115.666 63.667 -156.999 110s-75.833 101.833 -103.5 166.5s-47.334 133 -59.001 205s-17.5 149 -17.5 231c0 83.333 6 161.5 18 234.5s32 142 60 207s62.833 120.5 104.5 166.5
s93.834 82.5 156.501 109.5s133.334 40.5 212.001 40.5s149.334 -13.5 212.001 -40.5s114.667 -63.667 156 -110s75.833 -102 103.5 -167s47.5 -133.833 59.5 -206.5s18 -150.667 18 -234c0 -82 -5.83301 -159 -17.5 -231s-31.167 -140.5 -58.5 -205.5
s-61.666 -120.5 -102.999 -166.5s-93.5 -82.5 -156.5 -109.5s-134.167 -40.5 -213.5 -40.5z" />
    <glyph glyph-name="one" unicode="1" horiz-adv-x="686" 
d="M303 1v1219c-9.33301 -6 -52.5 -25.167 -129.5 -57.5s-120.5 -49.833 -130.5 -52.5v200c16 7.33301 66.667 32.5 152 75.5s132.333 67.5 141 73.5h220v-1458h-253z" />
    <glyph glyph-name="two" unicode="2" horiz-adv-x="1054" 
d="M85 0l-6 216l463 524c57.333 61.333 99.166 117.833 125.499 169.5s39.5 106.167 39.5 163.5c0 63.333 -20.667 113.833 -62 151.5s-95.666 56.5 -162.999 56.5c-62 0 -123.167 -11.5 -183.5 -34.5s-109.833 -51.833 -148.5 -86.5l-75 198c100 88 240.667 132 422 132
c144 0 259.833 -36.167 347.5 -108.5s131.5 -174.5 131.5 -306.5c0 -93.333 -24.833 -182.333 -74.5 -267s-117.5 -171.667 -203.5 -261l-330 -350h591l-18 -197h-856z" />
    <glyph glyph-name="three" unicode="3" horiz-adv-x="1078" 
d="M485 -21c-86 0 -166.834 11.167 -242.501 33.5s-135.5 52.5 -179.5 90.5l72 189c36.667 -30.667 87.334 -55.834 152.001 -75.501s131 -29.5 199 -29.5c76.667 0 138.5 20.667 185.5 62s70.5 95.333 70.5 162c0 41.333 -6.5 77 -19.5 107s-30.167 54 -51.5 72
s-49.833 32.5 -85.5 43.5s-72.167 18.5 -109.5 22.5s-82.333 6.33301 -135 7c-2 0 -11.667 0.166992 -29 0.5s-27 0.5 -29 0.5v202h56c58 0 107.833 3 149.5 9s80.334 16.333 116.001 31s62.667 36.334 81 65.001s27.5 64 27.5 106c0 56.667 -21.333 105 -64 145
s-102.667 60 -180 60c-125.333 0 -237 -31.333 -335 -94l-72 190c121.333 74.667 265.333 112 432 112c139.333 0 253.166 -36.667 341.499 -110s132.5 -167.333 132.5 -282c0 -80 -20.5 -148.167 -61.5 -204.5s-100.5 -97.5 -178.5 -123.5
c89.333 -17.333 158.5 -60.333 207.5 -129s73.5 -149.667 73.5 -243c0 -88.667 -23.667 -165.167 -71 -229.5s-110 -112 -188 -143s-166.333 -46.5 -265 -46.5z" />
    <glyph glyph-name="four" unicode="4" horiz-adv-x="1253" 
d="M753 0v325h-661v178l593 955h333v-935h180l-13 -198h-167v-325h-265zM352 522h401v680z" />
    <glyph glyph-name="five" unicode="5" horiz-adv-x="1138" 
d="M542 -21c-66 0 -134 10.8311 -204 32.498s-123.333 42.334 -160 62.001s-61 34.834 -73 45.501l80 188c12.667 -10 31.167 -22.5 55.5 -37.5s63.666 -32.167 117.999 -51.5s106.5 -29 156.5 -29c93.333 0 164 26 212 78s72 120 72 204c0 79.333 -21.833 143 -65.5 191
s-100.167 72 -169.5 72c-82.667 0 -156.667 -36 -222 -108l-175 34l38 798h796l-15 -206h-549c0 -12 -2.16699 -72.167 -6.5 -180.5s-6.83301 -168.833 -7.5 -181.5c58.667 31.333 120.334 47 185.001 47c134.667 0 243.167 -43.333 325.5 -130s123.5 -199.667 123.5 -339
c0 -148 -45.167 -266.5 -135.5 -355.5s-216.833 -133.5 -379.5 -133.5z" />
    <glyph glyph-name="six" unicode="6" horiz-adv-x="1205" 
d="M615 -21c-162.667 0 -295.002 44.333 -397.002 133s-153 205.667 -153 351c0 46.667 5 91.334 15 134.001s25.333 84.334 46 125.001s41.334 76.667 62.001 108s47.334 68.666 80.001 111.999l416 525h310l-454 -573c48.667 16.667 89.334 25 122.001 25
c143.333 0 260.666 -42.833 351.999 -128.5s137 -197.167 137 -334.5c0 -142.667 -50 -257.834 -150 -345.501s-228.667 -131.5 -386 -131.5zM602.998 179c88 0 156.833 25.167 206.5 75.5s74.5 116.5 74.5 198.5c0 86 -23.333 153.833 -70 203.5s-116 74.5 -208 74.5
c-93.333 0 -162 -25 -206 -75s-66 -118.333 -66 -205c0 -82 23.333 -147.833 70 -197.5s113 -74.5 199 -74.5z" />
    <glyph glyph-name="seven" unicode="7" horiz-adv-x="1036" 
d="M237 0l442 1258h-604l2 201h900v-157l-472 -1302h-268z" />
    <glyph glyph-name="eight" unicode="8" horiz-adv-x="1151" 
d="M578 -21c-95.333 0 -181.166 15.167 -257.499 45.5s-138.166 77 -185.499 140s-71 137.833 -71 224.5c0 175.333 86.333 301.333 259 378c-154 73.333 -231 188 -231 344c0 61.333 12.667 116.333 38 165s60.166 88.5 104.499 119.5s95.666 54.5 153.999 70.5
s121.5 24 189.5 24c141.333 0 257.5 -33 348.5 -99s136.5 -159.333 136.5 -280c0 -154 -71.333 -268.667 -214 -344c160.667 -78 241 -204.333 241 -379c0 -86.667 -23.5 -161.5 -70.5 -224.5s-108.667 -109.5 -185 -139.5s-161.833 -45 -256.5 -45zM578 161
c84 0 149.667 20.333 197 61s71 98 71 172c0 73.333 -24.667 134 -74 182s-114 82.333 -194 103c-82 -20.667 -147.5 -55 -196.5 -103s-73.5 -109 -73.5 -183c0 -73.333 24 -130.333 72 -171s114 -61 198 -61zM578 835c82 18.667 145 51.167 189 97.5s66 105.5 66 177.5
c0 60 -24 108.333 -72 145s-109 55 -183 55c-73.333 0 -134.333 -18.333 -183 -55s-73 -85 -73 -145c0 -72 22.667 -131.333 68 -178s108 -79 188 -97z" />
    <glyph glyph-name="nine" unicode="9" horiz-adv-x="1215" 
d="M243 0l444.001 578.002c-44.667 -15.333 -84.334 -23 -119.001 -23c-143.333 0 -260.166 43.167 -350.499 129.5s-135.5 198.166 -135.5 335.499c0 142.667 49.5 256.667 148.5 342s227.5 128 385.5 128c163.333 0 295.666 -43.833 396.999 -131.5
s152 -204.167 152 -349.5c0 -84 -16 -160.333 -48 -229s-79 -145.334 -141 -230.001l-414 -550h-319zM624.001 739.002c92.667 0 161.167 25.668 205.5 77.001s66.5 120.666 66.5 207.999c0 82 -23 147 -69 195s-112 72 -198 72c-88.667 0 -158.167 -25 -208.5 -75
s-75.5 -115.667 -75.5 -197c0 -86.667 23.5 -155 70.5 -205s116.5 -75 208.5 -75z" />
    <glyph glyph-name="colon" unicode=":" horiz-adv-x="460" 
d="M100 -6v265h265v-265h-265zM100 841v265h265v-265h-265z" />
    <glyph glyph-name="semicolon" unicode=";" horiz-adv-x="448" 
d="M107 -322l56 568h226l-124 -568h-158zM125 841v264h264v-264h-264z" />
    <glyph glyph-name="less" unicode="&#x3c;" horiz-adv-x="1196" 
d="M1081 196l-966 449v124l967 482v-206l-705 -333l704 -311v-205z" />
    <glyph glyph-name="equal" unicode="=" horiz-adv-x="1202" 
d="M93 357v191h1018v-191h-1018zM93 754v193h1018v-193h-1018z" />
    <glyph glyph-name="greater" unicode="&#x3e;" horiz-adv-x="1196" 
d="M119 197v206l704 309l-704 335v206l967 -484v-124z" />
    <glyph glyph-name="question" unicode="?" horiz-adv-x="887" 
d="M323 448c6.66699 52.667 20.9971 106.001 42.9971 160.001s46.167 102.667 72.5 146l78 126c25.667 40.667 47 81.167 64 121.5s25.5 77.5 25.5 111.5c-0.666992 58.667 -19.167 105 -55.5 139s-86.833 51 -151.5 51c-41.333 0 -81.333 -5.16699 -120 -15.5
s-68.167 -20.5 -88.5 -30.5s-43.5 -23 -69.5 -39l-70 166c54.667 35.333 111.334 61.833 170.001 79.5s127.334 26.5 206.001 26.5c47.333 0 93.5 -7.16699 138.5 -21.5s86.333 -35 124 -62s68 -62.833 91 -107.5s34.5 -95 34.5 -151c0 -45.333 -8 -90 -24 -134
s-38 -87.333 -66 -130s-57.5 -84.334 -88.5 -125.001s-65.667 -89.167 -104 -145.5s-71.166 -111.5 -98.499 -165.5h-111zM375.997 -17.999c-43.333 0 -80 15 -110 45s-45 65.667 -45 107c0 42 15 78.333 45 109s66.667 46 110 46c42.667 0 78.667 -15.333 108 -46
s44 -67 44 -109c0 -41.333 -14.667 -77 -44 -107s-65.333 -45 -108 -45z" />
    <glyph glyph-name="at" unicode="@" horiz-adv-x="1699" 
d="M891 -205c-160.667 0 -303.167 32.333 -427.5 97s-221.333 157.5 -291 278.5s-104.5 260.833 -104.5 419.5c0 114 20.833 221.167 62.5 321.5s98.834 186.333 171.501 258s160.167 128 262.5 169s211.833 61.5 328.5 61.5c138.667 0 264.167 -29 376.5 -87
s201 -140.333 266 -247s97.5 -228 97.5 -364c0 -78 -12.333 -151.333 -37 -220s-57.334 -126.5 -98.001 -173.5s-87.667 -84.167 -141 -111.5s-108 -41 -164 -41c-55.333 0 -99.666 17.667 -132.999 53s-50.666 90.666 -51.999 165.999
c-25.333 -60 -61.166 -109 -107.499 -147s-96.833 -57 -151.5 -57c-92 0 -164 29.333 -216 88s-78 136.334 -78 233.001c0 95.333 19.667 184.166 59 266.499s95.333 148.5 168 198.5s154 75 244 75c92 0 197.333 -21.333 316 -64
c-8.66699 -45.333 -22.834 -114.166 -42.501 -206.499s-35 -169.166 -46 -230.499s-16.5 -109 -16.5 -143s6.16699 -57.333 18.5 -70s32.166 -19 59.499 -19c46 0 89.5 20.333 130.5 61s73.167 92.167 96.5 154.5s35 125.833 35 190.5c0 109.333 -25.167 206 -75.5 290
s-119.833 148.333 -208.5 193s-189 67 -301 67c-90 0 -172.833 -15 -248.5 -45s-138.167 -68.667 -187.5 -116s-91.333 -101.333 -126 -162s-59.667 -120.834 -75 -180.501s-23 -117.5 -23 -173.5c0 -101.333 17.333 -193 52 -275s82.167 -149.333 142.5 -202
s130 -93 209 -121s163.5 -42 253.5 -42c195.333 0 362.666 51.333 501.999 154l55 -108c-154 -126 -339 -189 -555 -189zM752 312c128 0 220.333 145.333 277 436c8 42.667 16.333 93 25 151c-36.667 7.33301 -74.334 11 -113.001 11c-56 0 -108.167 -20.333 -156.5 -61
s-85.833 -92 -112.5 -154s-40 -125 -40 -189c0 -56 9.83301 -102.333 29.5 -139s49.834 -55 90.501 -55z" />
    <glyph glyph-name="A" unicode="A" horiz-adv-x="1359" 
d="M-3 0l539 1466h295l531 -1466h-278l-145 414h-513l-146 -414h-283zM494 616l376 -0.000976562c-120 384.667 -181.667 583.334 -185 596.001z" />
    <glyph glyph-name="B" unicode="B" horiz-adv-x="1333" 
d="M158 0l-0.000976562 1465h457c194 0 338.667 -28.333 434 -85s143 -151 143 -283c0 -21.333 -1.33301 -42.333 -4 -63s-8.66699 -44.167 -18 -70.5s-21.666 -50.166 -36.999 -71.499s-36.666 -42.166 -63.999 -62.499s-59.333 -36.166 -96 -47.499
c90.667 -22 160 -64.167 208 -126.5s72 -139.166 72 -230.499c0 -138 -48.833 -243.333 -146.5 -316s-232.834 -109 -405.501 -109h-543zM428.999 195.996h235c208 0 312 81.333 312 244c0 82 -26 141 -78 177s-132.333 54 -241 54h-228v-475zM428.999 859.996
l232.001 -0.000976562c179.333 0 269 68.333 269 205c0 76.667 -25.833 129.334 -77.5 158.001s-133.834 43 -246.501 43h-177v-406z" />
    <glyph glyph-name="C" unicode="C" horiz-adv-x="1301" 
d="M797 -21c-214 0 -383.668 67.334 -509.001 202.001s-188 320.667 -188 558c0 225.333 65.5 406.166 196.5 542.499s302.5 204.5 514.5 204.5c171.333 0 316.333 -39.667 435 -119l-85 -205c-114 70 -228.667 105 -344 105c-134.667 0 -241.167 -48.5 -319.5 -145.5
s-117.5 -227.167 -117.5 -390.5c0 -169.333 37.833 -300.333 113.5 -393s183.5 -139 323.5 -139c122.667 0 244.334 30.667 365.001 92l36 -212c-112 -66.667 -252.333 -100 -421 -100z" />
    <glyph glyph-name="D" unicode="D" horiz-adv-x="1514" 
d="M430 217h194.001c167.333 0 294.666 43.833 381.999 131.5s131 215.5 131 383.5c0 180 -45 310.833 -135 392.5s-225.667 122.5 -407 122.5h-165v-1030zM159.001 0l0.000976562 1465h424c128 0 242.667 -14.667 344 -44s188.5 -73.5 261.5 -132.5s129 -135 168 -228
s58.5 -200.5 58.5 -322.5c0 -236.667 -71.333 -418.834 -214 -546.501s-340.334 -191.5 -593.001 -191.5h-449z" />
    <glyph glyph-name="E" unicode="E" 
d="M158 0v1465h888l-11 -215h-606v-378h576v-215h-576v-441h628l-9 -216h-890z" />
    <glyph glyph-name="F" unicode="F" horiz-adv-x="1103" 
d="M158 0v1465h867l-10 -215h-588v-416h559v-213h-559v-621h-269z" />
    <glyph glyph-name="G" unicode="G" horiz-adv-x="1466" 
d="M812 -21c-223.333 0 -397.832 67.333 -523.499 202s-188.5 319 -188.5 553c0 148.667 29.333 279.5 88 392.5s145 201.167 259 264.5s248.667 95 404 95c178 0 330.667 -38.333 458 -115l-88 -202c-121.333 65.333 -243 98 -365 98c-148 0 -264.333 -48 -349 -144
s-127 -226.667 -127 -392c0 -164 37.667 -293.667 113 -389s185.666 -143 330.999 -143c93.333 0 178 14.667 254 44v340h-307l2 213h560v-707c-90.667 -37.333 -176.5 -65 -257.5 -83s-168.833 -27 -263.5 -27z" />
    <glyph glyph-name="H" unicode="H" horiz-adv-x="1520" 
d="M158 0v1465h271v-599h662v599h271v-1465h-271v652h-662v-652h-271z" />
    <glyph glyph-name="I" unicode="I" horiz-adv-x="602" 
d="M165 0v1465h271v-1465h-271z" />
    <glyph glyph-name="J" unicode="J" horiz-adv-x="633" 
d="M-73 -321l-10.999 213c32 -5.33301 67 -8 105 -8c74 0 124 19 150 57s39 100.667 39 188v1340h272v-1322c0 -84 -7.5 -154.833 -22.5 -212.5s-40.333 -106.667 -76 -147s-83 -69.833 -142 -88.5s-132.167 -28 -219.5 -28c-36.667 0 -68.334 2.66699 -95.001 8z" />
    <glyph glyph-name="K" unicode="K" horiz-adv-x="1348" 
d="M157 0l0.000976562 1465h272v-660c47.333 62.667 144.166 179.667 290.499 351l261.5 309h321l-554 -659l589 -806h-318l-478 657l-112 -94v-563h-272z" />
    <glyph glyph-name="L" unicode="L" horiz-adv-x="1071" 
d="M158 0v1465h271v-1249h613l-8 -216h-876z" />
    <glyph glyph-name="M" unicode="M" horiz-adv-x="1841" 
d="M158 0v1465h320l443 -1058l446 1058h316v-1465h-250v724l8 415l-37 -110l-375 -929h-232l-367 934l-37 110l9 -424v-720h-244z" />
    <glyph glyph-name="N" unicode="N" horiz-adv-x="1554" 
d="M158 0v1465h288l317 -492l291 -450l51.5 -77.5l51.5 -77.5c-4.66699 228.667 -7 347.334 -7 356.001v741h247v-1465h-292l-661 1030l-48 79c5.33301 -176 8 -299.667 8 -371v-738h-246z" />
    <glyph glyph-name="O" unicode="O" horiz-adv-x="1626" 
d="M814 200c142 0 249.166 46.167 321.499 138.5s108.5 222.833 108.5 391.5c0 170.667 -36.167 303 -108.5 397s-179.166 141 -320.499 141c-142 0 -249.5 -47.167 -322.5 -141.5s-109.5 -226.5 -109.5 -396.5c0 -168 36.333 -298.333 109 -391s180 -139 322 -139z
M812.999 -21c-220.667 0 -394.833 66.832 -522.5 200.499s-191.5 318.167 -191.5 553.5c0 236.667 64 421.334 192 554.001s302.333 199 523 199s394.667 -66.5 522 -199.5s191 -317.833 191 -554.5c0 -234 -64 -418 -192 -552s-302 -201 -522 -201z" />
    <glyph glyph-name="P" unicode="P" horiz-adv-x="1245" 
d="M151 0l0.000976562 1469h488c115.333 0 214 -14.833 296 -44.5s146.833 -77.834 194.5 -144.501s71.5 -150.334 71.5 -251.001c0 -70 -9 -132.167 -27 -186.5s-47.667 -103.666 -89 -147.999s-99.5 -78.5 -174.5 -102.5s-165.5 -36 -271.5 -36
c-90.667 0 -164.334 2.66699 -221.001 8v-564h-267zM610.001 752.001c55.333 0 103.5 5.33105 144.5 15.998s73 24.334 96 41.001s41.333 37.334 55 62.001s22.667 48.5 27 71.5s6.5 48.833 6.5 77.5c0 80.667 -26 142 -78 184s-125.333 63 -220 63h-223v-513
c8 -1.33301 72 -2 192 -2z" />
    <glyph glyph-name="Q" unicode="Q" horiz-adv-x="1626" 
d="M1252 -478c-55.333 40 -117.833 105.998 -187.5 197.998s-126.5 179.667 -170.5 263c-34.667 -2.66699 -61.667 -4 -81 -4c-220.667 0 -394.834 66.833 -522.501 200.5s-191.5 318.167 -191.5 553.5c0 236.667 64 421.334 192 554.001s302.333 199 523 199
s394.667 -66.5 522 -199.5s191 -317.833 191 -554.5c0 -168 -33.667 -311.167 -101 -429.5s-162.666 -204.833 -285.999 -259.5c102 -165.333 197.333 -288.666 286 -369.999zM814 199.998c142 0 249.166 46.167 321.499 138.5s108.5 222.833 108.5 391.5
c0 170.667 -36.167 303 -108.5 397s-179.166 141 -320.499 141c-142 0 -249.5 -47.167 -322.5 -141.5s-109.5 -226.5 -109.5 -396.5c0 -168 36.333 -298.333 109 -391s180 -139 322 -139z" />
    <glyph glyph-name="R" unicode="R" horiz-adv-x="1394" 
d="M151 0v1469h543c74 0 138.167 -3.33301 192.5 -10s106 -18.834 155 -36.501s88.667 -41.5 119 -71.5s54.333 -69.167 72 -117.5s26.5 -105.5 26.5 -171.5c0 -194.667 -88.333 -322.667 -265 -384c36 -40.667 80.667 -116 134 -226l218 -452h-296l-171 383
c-64.667 137.333 -104.667 218.666 -120 243.999c-11.333 0.666992 -49 1 -113 1l-227 2v-630h-268zM718 824.002c104 0 178.667 18.5 224 55.5s68 96.5 68 178.5c0 72 -23 125 -69 159s-116.333 51 -211 51h-311v-443c10 0 59.667 -0.166992 149 -0.5
s139.333 -0.5 150 -0.5z" />
    <glyph glyph-name="S" unicode="S" horiz-adv-x="1189" 
d="M569 -20c-176.667 0 -335.001 40.668 -475.001 122.001l66 215c62.667 -34.667 130.834 -62.667 204.501 -84s145.5 -32 215.5 -32c86 0 151 18.5 195 55.5s66 90.167 66 159.5c0 92 -61.333 155.667 -184 191l-73 21.5l-112.5 34c-35 11 -60.167 19.5 -75.5 25.5
c-196.667 69.333 -295 198.666 -295 387.999c0 132.667 47.167 235 141.5 307s219.5 108 375.5 108c176.667 0 329 -36.333 457 -109l-82 -198c-130.667 58.667 -252 88 -364 88c-80.667 0 -141.5 -14.167 -182.5 -42.5s-62.833 -75.5 -65.5 -141.5
c0 -81.333 40.333 -134.333 121 -159c16 -6 55.333 -19 118 -39l122 -39c134 -44 229.833 -98.667 287.5 -164s86.5 -156.333 86.5 -273c0 -139.333 -49.333 -246.5 -148 -321.5s-231.667 -112.5 -399 -112.5z" />
    <glyph glyph-name="T" unicode="T" 
d="M441 0v1248h-427v217h1124v-217h-425v-1248h-272z" />
    <glyph glyph-name="U" unicode="U" horiz-adv-x="1468" 
d="M730 -21c-192 0 -337.667 47.834 -437 143.501s-149 230.5 -149 404.5v938h272v-915c0 -122 24.833 -211 74.5 -267s131.167 -84 244.5 -84c111.333 0 192 28.167 242 84.5s75 145.5 75 267.5v914h271v-940c0 -172.667 -50.667 -306.834 -152 -402.501
s-248.333 -143.5 -441 -143.5z" />
    <glyph glyph-name="V" unicode="V" horiz-adv-x="1321" 
d="M527 0l-533 1465h279l310 -905c12 -31.333 39.667 -123 83 -275c2.66699 10.667 15 54.5 37 131.5s36.333 124.167 43 141.5l152 451.5l153 455.5h276l-526 -1465h-274z" />
    <glyph glyph-name="W" unicode="W" horiz-adv-x="2051" 
d="M408 0l-398 1465h270l284 -1140l334 1133h259l317 -1137l290 1144h270l-410 -1465h-281l-313 1073l-343 -1073h-279z" />
    <glyph glyph-name="X" unicode="X" horiz-adv-x="1337" 
d="M-11 0l513 750l-475 715h305l345 -546l355 546h289l-485 -719l511 -746h-313l-370 570l-378 -570h-297z" />
    <glyph glyph-name="Y" unicode="Y" horiz-adv-x="1256" 
d="M492 0v581l-507 884h294l349 -634l351 634h290l-505 -879v-586h-272z" />
    <glyph glyph-name="Z" unicode="Z" horiz-adv-x="1209" 
d="M62 0v174l773 1075h-746v216h1066v-197l-759 -1052h764l-1 -216h-1097z" />
    <glyph glyph-name="bracketleft" unicode="[" horiz-adv-x="651" 
d="M135 -266v1773h464v-180h-212v-1412h212v-181h-464z" />
    <glyph glyph-name="backslash" unicode="\" horiz-adv-x="903" 
d="M649 -60l-619 1522h231l617 -1522h-229z" />
    <glyph glyph-name="bracketright" unicode="]" horiz-adv-x="651" 
d="M52 -266v181h211v1412h-211v180h464v-1773h-464z" />
    <glyph glyph-name="asciicircum" unicode="^" horiz-adv-x="1154" 
d="M36 549l462 922h129l493 -922h-209l-347 668l-319 -668h-209z" />
    <glyph glyph-name="underscore" unicode="_" horiz-adv-x="1155" 
d="M72 -318v174h1014v-174h-1014z" />
    <glyph glyph-name="grave" unicode="`" horiz-adv-x="514" 
d="M323 1195l-331 383h306l188 -383h-163z" />
    <glyph glyph-name="a" unicode="a" horiz-adv-x="1142" 
d="M423 -21c-102 0 -184.501 28.165 -247.501 84.498s-94.5 137.5 -94.5 243.5c0 114 37.333 198.5 112 253.5s187.334 89.833 338.001 104.5c20.667 2.66699 43 5.33398 67 8.00098s51 5.33398 81 8.00098s53.667 5 71 7v58c0 66.667 -15.333 115.167 -46 145.5
s-77.334 45.5 -140.001 45.5c-89.333 0 -199.666 -25 -330.999 -75c-0.666992 2 -11.667 32.333 -33 91s-32.333 88.667 -33 90c129.333 55.333 269.333 83 420 83c148 0 255.667 -32.167 323 -96.5s101 -168.5 101 -312.5v-717h-194c-0.666992 2.66699 -8 25 -22 67
s-21 64.333 -21 67c-54.667 -53.333 -108.167 -92.5 -160.5 -117.5s-115.833 -37.5 -190.5 -37.5zM493.999 164.998c60.667 0 113.5 14.5 158.5 43.5s77.167 64.167 96.5 105.5v212c-2 0 -19.5 -1.33301 -52.5 -4s-50.833 -4 -53.5 -4
c-106 -9.33301 -183.667 -29.333 -233 -60s-74 -80 -74 -148c0 -46.667 13.667 -82.5 41 -107.5s66.333 -37.5 117 -37.5z" />
    <glyph glyph-name="b" unicode="b" horiz-adv-x="1258" 
d="M722 -21c-74.667 0 -142.5 16.5 -203.5 49.5s-105.167 70.5 -132.5 112.5l-26 -140h-227v1503l262 17v-340c0 -66 -2 -141 -6 -225c86.667 113.333 199.667 170 339 170c140 0 249.833 -52 329.5 -156s119.5 -240 119.5 -408c0 -174.667 -41.167 -315.5 -123.5 -422.5
s-192.833 -160.5 -331.5 -160.5zM659 178c78 0 140.333 33 187 99s70 159.667 70 281c0 122 -22.833 214.333 -68.5 277s-107.5 94 -185.5 94c-177.333 0 -267 -119.667 -269 -359c0 -134.667 22.333 -233.667 67 -297s111 -95 199 -95z" />
    <glyph glyph-name="c" unicode="c" horiz-adv-x="1008" 
d="M614 -21c-168 0 -298.834 49.999 -392.501 149.999s-140.5 243 -140.5 429c0 180 49.167 319.667 147.5 419s227.833 149 388.5 149c128.667 0 237.334 -27.667 326.001 -83l-62 -187c-90.667 47.333 -175 71 -253 71c-88.667 0 -158.5 -31.667 -209.5 -95
s-76.5 -155.666 -76.5 -276.999c0 -122.667 25.167 -216 75.5 -280s121.5 -96 213.5 -96c96 0 188.333 28.333 277 85l25 -199c-46 -30.667 -93.667 -52.667 -143 -66s-108 -20 -176 -20z" />
    <glyph glyph-name="d" unicode="d" horiz-adv-x="1259" 
d="M542 -21c-143.333 0 -255.998 52.666 -337.998 157.999s-123 246 -123 422c0 170.667 40.833 307.834 122.5 411.501s194.167 155.5 337.5 155.5c156 0 266.333 -55.333 331 -166c-6.66699 65.333 -10 128.333 -10 189v355l262 17v-1521h-227l-29 150
c-11.333 -18 -21.833 -33.5 -31.5 -46.5s-23.834 -28 -42.501 -45s-38.834 -30.667 -60.501 -41s-49 -19.333 -82 -27s-69.5 -11.5 -109.5 -11.5zM604.002 177.999c176 0 265.333 119.667 268 359c0 135.333 -22.667 234 -68 296s-113 93 -203 93
c-78.667 0 -141.5 -31.5 -188.5 -94.5s-70.5 -155.833 -70.5 -278.5c0 -122 23.5 -215 70.5 -279s110.833 -96 191.5 -96z" />
    <glyph glyph-name="e" unicode="e" horiz-adv-x="1157" 
d="M641 -21c-176.667 0 -314.168 50.833 -412.501 152.5s-147.5 242.167 -147.5 421.5c0 174.667 46.333 313.667 139 417s219 155.333 379 156c151.333 0 268.833 -47.333 352.5 -142s125.5 -220.334 125.5 -377.001c0 -11.333 -0.166992 -29.666 -0.5 -54.999
s-0.5 -44 -0.5 -56h-731c2.66699 -102.667 30.834 -182.167 84.501 -238.5s127.5 -84.5 221.5 -84.5c120 0 235.333 31.333 346 94l37 -186c-110 -68 -241 -102 -393 -102zM349.999 661h479.999c0 89.333 -20.333 158 -61 206s-97 72 -169 72
c-67.333 0 -124.166 -23.333 -170.499 -70s-72.833 -116 -79.5 -208z" />
    <glyph glyph-name="f" unicode="f" horiz-adv-x="760" 
d="M203 0v925h-174l17 154l157 20v61c0 66.667 6.16699 123.667 18.5 171s32.5 87.833 60.5 121.5s65.5 58.667 112.5 75s104.833 24.5 173.5 24.5c66.667 0 134.667 -6.33301 204 -19l-23 -195c-54.667 7.33301 -97.667 11 -129 11c-56 0 -95.833 -13.5 -119.5 -40.5
s-35.5 -71.833 -35.5 -134.5v-75h258v-174h-258v-925h-262z" />
    <glyph glyph-name="g" unicode="g" horiz-adv-x="1267" 
d="M353 -492l-14.999 212.002h133c154 0 261.667 20.5 323 61.5s92 116.167 92 225.5c0 44.667 -2 93 -6 145c-17.333 -24 -33.833 -43.833 -49.5 -59.5s-35.334 -31.167 -59.001 -46.5s-52 -26.833 -85 -34.5s-70.5 -11.5 -112.5 -11.5
c-145.333 0 -264.833 52.333 -358.5 157s-140.5 239.667 -140.5 405c0 88 13 168.167 39 240.5s61.333 131.833 106 178.5s96.167 82.5 154.5 107.5s120.5 37.5 186.5 37.5c147.333 0 257 -53.667 329 -161l18 134h234v-1021c0 -54.667 -2.66699 -103.834 -8 -147.501
s-14.666 -85.667 -27.999 -126s-30.833 -75.5 -52.5 -105.5s-48.834 -57.333 -81.501 -82s-71.167 -44.834 -115.5 -60.501s-95.833 -27.667 -154.5 -36s-124.667 -12.5 -198 -12.5h-151zM616.001 183.002c180.667 0 271.999 121 273.999 363v38
c-1.33301 108.667 -24 192.667 -68 252s-108.333 89.333 -193 90c-96 0 -168.667 -32.833 -218 -98.5s-74 -154.167 -74 -265.5c0 -107.333 24.833 -197.333 74.5 -270s117.834 -109 204.501 -109z" />
    <glyph glyph-name="h" unicode="h" horiz-adv-x="1253" 
d="M133 0l0.000976562 1504l262 17v-317c0 -15.333 -1 -57.833 -3 -127.5s-3 -105.167 -3 -106.5c87.333 104 204.666 156 351.999 156c122.667 0 217.834 -35.167 285.501 -105.5s101.5 -178.5 101.5 -324.5v-696h-262v667c0 90 -14.333 156 -43 198
s-77.334 63 -146.001 63c-58.667 0 -110.667 -14.833 -156 -44.5s-79.333 -67.834 -102 -114.501c-16 -61.333 -24 -141.333 -24 -240v-529h-262z" />
    <glyph glyph-name="i" unicode="i" horiz-adv-x="541" 
d="M139 0v1099h262v-1099h-262zM139 1259v224h263v-224h-263z" />
    <glyph glyph-name="j" unicode="j" horiz-adv-x="527" 
d="M-48 -427l-28.999 194h58c33.333 0 60.666 2.5 81.999 7.5s39 12 53 21s24.333 22.833 31 41.5s11.167 38.834 13.5 60.501s3.5 50.5 3.5 86.5v1115h262v-1073c0 -54.667 -2.16699 -101.667 -6.5 -141s-12.166 -76.833 -23.499 -112.5s-26.833 -65.167 -46.5 -88.5
s-44.834 -43.833 -75.501 -61.5s-67.667 -30.334 -111 -38.001s-94 -11.5 -152 -11.5h-59zM164.001 1259v224h262v-224h-262z" />
    <glyph glyph-name="k" unicode="k" horiz-adv-x="1173" 
d="M133 0v1504l262 17v-675l-6 -222l20.5 20l21.5 21c36.667 43.333 76.5 88 119.5 134l163 169l128.5 131h312l-452 -468l481 -631h-317l-362 499l-109 -86v-413h-262z" />
    <glyph glyph-name="l" unicode="l" horiz-adv-x="700" 
d="M518 -15c-75.333 0 -137.829 8.83105 -187.496 26.498s-88.834 45.834 -117.501 84.501s-48.667 84.667 -60 138s-17 119.666 -17 198.999v1071l262 17v-1083c0 -98.667 11.667 -165.5 35 -200.5s68.666 -52.5 135.999 -52.5c33.333 0 75.666 3.66699 126.999 11l7 -187
c-0.666992 0 -8.83398 -1.66699 -24.501 -5s-30.667 -6.16602 -45 -8.49902s-32.5 -4.66602 -54.5 -6.99902s-42.333 -3.5 -61 -3.5z" />
    <glyph glyph-name="m" unicode="m" horiz-adv-x="1911" 
d="M133 0l0.00292969 1099h212l30 -140c13.333 16.667 26.166 31.5 38.499 44.5s29.333 27.667 51 44s44.667 29.833 69 40.5s54.333 19.667 90 27s73.834 11 114.501 11c87.333 0 157.166 -17.667 209.499 -53s89.166 -76.666 110.499 -123.999
c39.333 56.667 90.333 100.334 153 131.001s132.334 46 209.001 46c126 0 218.5 -35.667 277.5 -107s88.5 -177 88.5 -317v-702h-263v624c0 107.333 -11.833 184.833 -35.5 232.5s-68.834 71.5 -135.501 71.5c-102 0 -175.333 -46 -220 -138
c-18.667 -40.667 -31.334 -89.667 -38.001 -147v-643h-262v636c0 98 -13 171 -39 219s-73 72 -141 72c-55.333 0 -103 -14 -143 -42s-70.333 -64.667 -91 -110c-15.333 -67.333 -23 -148 -23 -242v-533h-262z" />
    <glyph glyph-name="n" unicode="n" horiz-adv-x="1254" 
d="M133 0v1099h211l29 -139c112 110.667 236.333 166 373 166c128 0 223.833 -36.833 287.5 -110.5s95.5 -180.5 95.5 -320.5v-695h-263v663c-0.666992 88.667 -15 155 -43 199s-78.333 66 -151 66c-56.667 0 -108.5 -14.5 -155.5 -43.5s-81.167 -65.5 -102.5 -109.5
c-12.667 -52 -19 -132 -19 -240v-535h-262z" />
    <glyph glyph-name="o" unicode="o" horiz-adv-x="1222" 
d="M612 178c88.667 0 155.334 32.332 200.001 96.999s67 157.334 67 278.001c0 122 -22.333 215 -67 279s-112 96 -202 96c-88.667 0 -155.5 -32.167 -200.5 -96.5s-67.5 -157.5 -67.5 -279.5c0 -120 22.667 -212.333 68 -277s112.666 -97 201.999 -97zM605 -21.001
c-162.667 0 -290.667 52.667 -384 158s-140 244 -140 416c0 177.333 46.667 317.166 140 419.499s225 153.5 395 153.5c164 0 292.5 -52.167 385.5 -156.5s139.5 -243.166 139.5 -416.499c0 -175.333 -47 -314.833 -141 -418.5s-225.667 -155.5 -395 -155.5z" />
    <glyph glyph-name="p" unicode="p" horiz-adv-x="1256" 
d="M133 -457v1556h225l28 -154c36 58 83.833 102.833 143.5 134.5s126.167 47.5 199.5 47.5c90 0 169.167 -25 237.5 -75s120.166 -118.167 155.499 -204.5s53 -183.833 53 -292.5c0 -170 -41.167 -308.5 -123.5 -415.5s-193.833 -160.5 -334.5 -160.5
c-69.333 0 -132.166 13.833 -188.499 41.5s-103.5 65.167 -141.5 112.5c5.33301 -96 8 -150 8 -162v-415zM661 179c78 0 139.5 32.668 184.5 98.001s67.5 158.666 67.5 279.999c0 123.333 -22.667 216 -68 278s-108.333 93 -189 93c-173.333 0 -261 -118 -263 -354
c0 -136 22.5 -235.833 67.5 -299.5s111.833 -95.5 200.5 -95.5z" />
    <glyph glyph-name="q" unicode="q" horiz-adv-x="1259" 
d="M862 -457v465c0 46 2.33301 93.333 7 142c-69.333 -114.667 -174 -172 -314 -172c-142 0 -256.333 53.333 -343 160s-130 245.667 -130 417c0 170 41 307.667 123 413s196.667 158 344 158c144.667 0 253 -55.667 325 -167l21 140h230v-1543zM606 177
c85.333 0 150.668 28.668 196.001 86.001s68.666 148 69.999 272c0 136 -22.5 235.167 -67.5 297.5s-112.167 93.5 -201.5 93.5c-80.667 0 -144.167 -31.333 -190.5 -94s-69.5 -156 -69.5 -280c0 -122.667 23.333 -215.834 70 -279.501s111 -95.5 193 -95.5z" />
    <glyph glyph-name="r" unicode="r" horiz-adv-x="798" 
d="M134 0l0.00195312 1099h220l34 -168c72 115.333 176.333 173 313 173c28.667 0 52 -1.33301 70 -4l-4 -219c-26.667 4 -54.334 6 -83.001 6c-96.667 0 -168.834 -25.667 -216.501 -77s-71.5 -122.666 -71.5 -213.999v-596h-262z" />
    <glyph glyph-name="s" unicode="s" horiz-adv-x="985" 
d="M484 -20c-162 0 -291.666 27.667 -388.999 83l27 197c44 -24 100 -45.5 168 -64.5s130 -28.5 186 -28.5c58 0 103.167 10.833 135.5 32.5s48.833 53.5 49.5 95.5c0 38 -15.167 68 -45.5 90s-88.166 49.333 -173.499 82l-57 21
c-101.333 39.333 -174.333 83.166 -219 131.499s-67 113.833 -67 196.5c0 100 36.167 176.667 108.5 230s173.166 80 302.499 80c140 0 263 -26.333 369 -79l-65 -181c-104.667 48.667 -204.334 73 -299.001 73c-52.667 0 -93.834 -8.83301 -123.501 -26.5
s-44.5 -44.5 -44.5 -80.5c0 -34 14.333 -60.5 43 -79.5s84.667 -43.833 168 -74.5c2.66699 -0.666992 11.334 -3.66699 26.001 -9s26 -9.66602 34 -12.999c100.667 -36.667 174.667 -80.5 222 -131.5s71 -117.5 71 -199.5c-0.666992 -110 -38 -195 -112 -255
s-179 -90 -315 -90z" />
    <glyph glyph-name="t" unicode="t" horiz-adv-x="803" 
d="M572 -15c-74.667 0 -136.833 8.83203 -186.5 26.499s-88.5 45.5 -116.5 83.5s-47.833 82.833 -59.5 134.5s-17.5 115.5 -17.5 191.5v519h-180l10 142l188 17l84 298l160 1v-299h273v-159h-273v-524c0 -83.333 12 -142.666 36 -177.999s68.333 -53 133 -53
c38 0 78.667 3.33301 122 10l7 -188c-1.33301 0 -9.5 -1.5 -24.5 -4.5s-29.333 -5.66699 -43 -8s-31.167 -4.5 -52.5 -6.5s-41.333 -3 -60 -3z" />
    <glyph glyph-name="u" unicode="u" horiz-adv-x="1163" 
d="M581 -21c-142.667 0 -257.5 35.667 -344.5 107s-130.5 176 -130.5 314v699h263v-689c0 -82 17.167 -141.333 51.5 -178s88.833 -55 163.5 -55c73.333 0 126.833 18.167 160.5 54.5s50.5 95.833 50.5 178.5v689h262v-699c0 -137.333 -43.667 -241.833 -131 -313.5
s-202.333 -107.5 -345 -107.5z" />
    <glyph glyph-name="v" unicode="v" horiz-adv-x="1125" 
d="M441 0l-437.999 1099h278l101.5 -279.5c57 -156.333 94.833 -262.833 113.5 -319.5c38 -110.667 65.333 -194.334 82 -251.001c0 0.666992 5.66699 22.334 17 65.001l32.5 120.5c10.333 37.667 16.833 60.5 19.5 68.5c0.666992 1.33301 31.167 93.333 91.5 276
s96.166 289.334 107.499 320.001h276l-416 -1099h-265z" />
    <glyph glyph-name="w" unicode="w" horiz-adv-x="1713" 
d="M346 0l-332.999 1099h267l211 -806l114 393c71.333 246.667 111.666 384.334 120.999 413.001h269c8.66699 -28 47 -164.333 115 -409s104.667 -376 110 -394l217 803h263l-344 -1099h-261c-8.66699 28.667 -49.167 173.667 -121.5 435l-117.5 423
c-13.333 -48.667 -55.833 -195.334 -127.5 -440.001s-113.167 -384 -124.5 -418h-258z" />
    <glyph glyph-name="x" unicode="x" horiz-adv-x="1158" 
d="M21 0l391 563l-372 536h297l244 -374l251 374h292l-375 -535l388 -564h-300l-256 399l-264 -399h-296z" />
    <glyph glyph-name="y" unicode="y" horiz-adv-x="1116" 
d="M191 -463c-42.667 0 -87.999 2.66699 -135.999 8l-13 203c30.667 -3.33301 69.667 -5 117 -5c60.667 0 109.334 12 146.001 36s67 66.667 91 128c2.66699 6.66699 16 44.334 40 113.001l-442 1079h280l289 -797c21.333 79.333 69.166 226.666 143.499 441.999l122.5 355
h280c-304.667 -805.333 -458.334 -1211.33 -461.001 -1218c-47.333 -123.333 -107 -211.5 -179 -264.5s-164.667 -79.5 -278 -79.5z" />
    <glyph glyph-name="z" unicode="z" horiz-adv-x="977" 
d="M65 0v159l544 758h-518v182h808v-179l-515 -729h533v-191h-852z" />
    <glyph glyph-name="braceleft" unicode="{" horiz-adv-x="786" 
d="M703 -287c-150.667 0 -259.332 21.4951 -325.999 64.4951s-100 121.5 -100 235.5v277c0 80 -15.667 135.833 -47 167.5s-90.666 47.5 -177.999 47.5v214c62 0.666992 109 7.83398 141 21.501s54 35 66 64s18 70.833 18 125.5v291c0 56.667 8.66699 103.834 26 141.501
s44.666 67.334 81.999 89.001s81.333 37 132 46s112.667 13.5 186 13.5v-200c-71.333 -0.666992 -118.166 -13 -140.499 -37s-33.5 -69.667 -33.5 -137v-269c-0.666992 -67.333 -17.334 -120.166 -50.001 -158.499s-86.667 -71.5 -162 -99.5
c141.333 -29.333 212 -112.666 212 -249.999v-272c0 -67.333 11.167 -113 33.5 -137s69.166 -36.333 140.499 -37v-201z" />
    <glyph glyph-name="bar" unicode="|" horiz-adv-x="759" 
d="M278 -380v1918h203v-1918h-203z" />
    <glyph glyph-name="braceright" unicode="}" horiz-adv-x="787" 
d="M85 -287l0.00195312 201.003c71.333 0.666992 118.166 12.834 140.499 36.501s33.5 69.5 33.5 137.5v272c0 69.333 17.167 123.166 51.5 161.499s87.833 68.166 160.5 89.499c-72.667 22.667 -126 54.167 -160 94.5s-51.333 94.5 -52 162.5v269
c0 67.333 -11.167 113 -33.5 137s-69.166 36.333 -140.499 37v200c75.333 0 138.166 -4.33301 188.499 -13s94 -24.167 131 -46.5s64 -53 81 -92s25.5 -88.167 25.5 -147.5v-283c0 -80 15.167 -134.833 45.5 -164.5s90.5 -44.834 180.5 -45.501v-214
c-88 0 -147.667 -15.5 -179 -46.5s-47 -87.167 -47 -168.5v-286c0 -110.667 -33.333 -186.834 -100 -228.501s-175.334 -62.5 -326.001 -62.5z" />
    <glyph glyph-name="asciitilde" unicode="~" horiz-adv-x="1297" 
d="M207 471l-77.001 144.999c64 130 159.667 195 287 195c72.667 0 160.667 -22 264 -66c97.333 -42.667 170.333 -64 219 -64c40 0 78.333 10.833 115 32.5s76.334 56.167 119.001 103.5l71 -135c-28.667 -53.333 -72.5 -99.333 -131.5 -138s-122.5 -58 -190.5 -58
c-43.333 0 -84 5.83301 -122 17.5s-85.667 30.5 -143 56.5c-44.667 20.667 -82.167 35.834 -112.5 45.501s-62.833 14.5 -97.5 14.5c-81.333 0 -148.333 -49.667 -201 -149z" />
    <glyph glyph-name="uni00A0" unicode="&#xa0;" horiz-adv-x="541" 
 />
    <glyph glyph-name="exclamdown" unicode="&#xa1;" horiz-adv-x="446" 
d="M253 655l85 -713v-296h-241v296l90 713h66zM222 1122c43.333 0 80 -15 110 -45s45 -65.667 45 -107c0 -42 -15 -78.333 -45 -109s-66.667 -46 -110 -46c-42.667 0 -78.834 15.333 -108.501 46s-44.5 67 -44.5 109c0 41.333 14.833 77 44.5 107s65.834 45 108.501 45z" />
    <glyph glyph-name="cent" unicode="&#xa2;" horiz-adv-x="1082" 
d="M573 -202l0.000976562 256.001c-149.333 11.333 -268.5 67.833 -357.5 169.5s-133.5 239.167 -133.5 412.5c0 83.333 13 159.166 39 227.499s61.5 124.833 106.5 169.5s96.833 80 155.5 106s122 41 190 45v218h101v-221c105.333 -8.66699 192 -39 260 -91l-45 -174
c-25.333 17.333 -57.833 33.333 -97.5 48s-78.834 24 -117.501 28v-750c77.333 6 150 33 218 81l52 -175c-79.333 -56 -169.333 -87.333 -270 -94v-256h-101zM573.001 247.001v742c-74 -13.333 -133.167 -50.333 -177.5 -111s-66.5 -144 -66.5 -250
c0 -110.667 21.5 -198.167 64.5 -262.5s102.833 -103.833 179.5 -118.5z" />
    <glyph glyph-name="sterling" unicode="&#xa3;" horiz-adv-x="1149" 
d="M85 0l-16 190.001c67.333 28.667 114.666 63.167 141.999 103.5s41 98.833 41 175.5v190h-185v179h185v105c0 82 8.16699 155.333 24.5 220s42 121.667 77 171s82 87.166 141 113.499s128.5 39.5 208.5 39.5c145.333 0 273.666 -46.667 384.999 -140l-103 -169
c-49.333 32.667 -95.166 57.5 -137.499 74.5s-87.166 25.5 -134.499 25.5c-141.333 0 -212 -87 -212 -261v-179h391v-179h-391v-150c0 -133.333 -37.333 -232 -112 -296c5.33301 0.666992 54.333 1 147 1h569l-8 -214h-1012z" />
    <glyph glyph-name="currency" unicode="&#xa4;" horiz-adv-x="1162" 
d="M1020 229l-186.001 173c-75.333 -56.667 -159.666 -85 -252.999 -85c-98 0 -182.667 28 -254 84l-181 -171l-94 92l185 173c-50.667 71.333 -76 150.333 -76 237c0 85.333 25.333 164.333 76 237l-186 175l95 92l183 -173c74 57.333 158 86 252 86
s178.333 -29.333 253 -88l186 175l91 -94l-184 -173c50 -72 75 -151 75 -237c0 -87.333 -24.667 -166.333 -74 -237l181 -172zM580.999 455c78.667 0 145.499 27 200.499 81s82.5 119.333 82.5 196s-27.667 142.167 -83 196.5s-122 81.5 -200 81.5
c-77.333 0 -143.666 -27.333 -198.999 -82s-83 -120 -83 -196c0 -76.667 27.5 -142 82.5 -196s121.5 -81 199.5 -81z" />
    <glyph glyph-name="yen" unicode="&#xa5;" horiz-adv-x="1194" 
d="M471 0v289h-347v153h347v141h-346v152h267l-436 724h284l359 -621l359 621h279l-428 -724h276v-152h-351v-141h351v-153h-351v-289h-263z" />
    <glyph glyph-name="brokenbar" unicode="&#xa6;" horiz-adv-x="817" 
d="M306 -379v719h203v-719h-203zM306 820v718h203v-718h-203z" />
    <glyph glyph-name="section" unicode="&#xa7;" horiz-adv-x="1034" 
d="M472 -31c-128 0 -239.328 22.6631 -333.995 67.9961v191c46.667 -22 100.5 -40.5 161.5 -55.5s115.5 -22.5 163.5 -22.5c57.333 0 103.666 8.5 138.999 25.5s55.666 41.833 60.999 74.5c9.33301 34.667 -0.333984 65.334 -29.001 92.001s-83.334 57.667 -164.001 93
c-56 22.667 -103 44.334 -141 65.001s-72.667 44.334 -104 71.001s-54.5 57 -69.5 91s-22.5 72 -22.5 114c0 54 13.167 102.333 39.5 145s60.833 77.667 103.5 105c-84 58.667 -126 137 -126 235c0 93.333 34.5 164.666 103.5 213.999s161.833 74.666 278.5 75.999
c116.667 3.33301 230 -16 340 -58c-0.666992 -4.66699 -6.66699 -35.5 -18 -92.5s-17.333 -87.5 -18 -91.5c-92.667 40.667 -186 61 -280 61c-117.333 0 -176 -35.333 -176 -106c0 -33.333 15.667 -62.166 47 -86.499s83.666 -51.5 156.999 -81.5
c51.333 -20.667 95.5 -41.167 132.5 -61.5s71.167 -43.666 102.5 -69.999s55 -56 71 -89s24 -69.167 24 -108.5c0 -109.333 -46 -195.333 -138 -258c84.667 -56.667 127 -131.667 127 -225c0 -101.333 -39.833 -179.166 -119.5 -233.499s-183.5 -81.5 -311.5 -81.5z
M607.005 588.996c64 43.333 96 90.666 96 141.999c0 44 -22.167 81.833 -66.5 113.5s-108.5 63.5 -192.5 95.5c-30 -15.333 -53.833 -35.166 -71.5 -59.499s-26.5 -50.5 -26.5 -78.5c0 -37.333 17.167 -71 51.5 -101s83.833 -59 148.5 -87l28.5 -12
c15.667 -6.66699 26.5 -11 32.5 -13z" />
    <glyph glyph-name="dieresis" unicode="&#xa8;" horiz-adv-x="772" 
d="M78 1236v254h195v-254h-195zM499 1236v254h196v-254h-196z" />
    <glyph glyph-name="copyright" unicode="&#xa9;" horiz-adv-x="1743" 
d="M854 254c-133.333 0 -243.669 46.168 -331.002 138.501s-131 209.166 -131 350.499c0 91.333 19.167 174.666 57.5 249.999s92.833 135 163.5 179s150.667 66 240 66c123.333 0 225.666 -27.333 306.999 -82l-49 -104c-75.333 44 -157.666 66 -246.999 66
c-99.333 0 -178.666 -34.5 -237.999 -103.5s-89 -159.5 -89 -271.5c0 -111.333 30 -200.666 90 -267.999s140.667 -101 242 -101c88.667 0 171.334 22 248.001 66l44 -104c-82.667 -54.667 -185 -82 -307 -82zM866.997 78.001c126 0 240.169 29.6689 342.502 89.002
s181.833 139.5 238.5 240.5s85 212.167 85 333.5c0 120.667 -28.333 231.5 -85 332.5s-136.334 181.333 -239.001 241s-217 89.5 -343 89.5c-124.667 0 -237.834 -29.833 -339.501 -89.5s-180.667 -139.834 -237 -240.501s-84.5 -211.334 -84.5 -332.001
c0 -121.333 28.167 -232.5 84.5 -333.5s135.333 -181.333 237 -241s215.167 -89.5 340.5 -89.5zM866.999 -21.9971c-104 0 -203.498 19 -298.498 57s-177.833 90 -248.5 156s-126.834 146.833 -168.501 242.5s-62.5 198.167 -62.5 307.5s20.833 211.833 62.5 307.5
s97.667 176.667 168 243s153 118.5 248 156.5s194.5 57 298.5 57c104.667 0 204.834 -19 300.501 -57s179 -90.167 250 -156.5s127.5 -147.333 169.5 -243s63 -198.167 63 -307.5s-21 -211.833 -63 -307.5s-98.333 -176.5 -169 -242.5s-153.834 -118 -249.501 -156
s-195.834 -57 -300.501 -57z" />
    <glyph glyph-name="ordfeminine" unicode="&#xaa;" horiz-adv-x="757" 
d="M299 750c-64 0 -117.335 18.6699 -160.002 56.0029s-64 89.666 -64 156.999c0 32 5.5 60.667 16.5 86s27.167 46.166 48.5 62.499s44 30.166 68 41.499s52.667 20.5 86 27.5s63.333 12.333 90 16s57.667 7.5 93 11.5c13.333 1.33301 23 2.33301 29 3v32
c-0.666992 50.667 -10.667 86.834 -30 108.501s-50.666 32.5 -93.999 32.5c-72 0 -155 -19.333 -249 -58l-42 110c96 52 198.667 78 308 78c80.667 0 145.834 -19.5 195.501 -58.5s74.5 -101.5 74.5 -187.5v-379c0 -68 0.333008 -109.667 1 -125h-135l-17 85
c-21.333 -28.667 -52.833 -52.334 -94.5 -71.001s-83.167 -28 -124.5 -28zM111.998 536.003v120h561v-120h-561zM316.998 878.003c34 0 67.8311 10.333 101.498 31s62.834 49.334 87.501 86.001v111c-33.333 -4.66699 -59.5 -8.5 -78.5 -11.5s-40.667 -7 -65 -12
s-43.166 -10.667 -56.499 -17s-26.5 -14 -39.5 -23s-22.167 -19.667 -27.5 -32s-8 -26.5 -8 -42.5c0 -28.667 8 -50.834 24 -66.501s36.667 -23.5 62 -23.5z" />
    <glyph glyph-name="guillemotleft" unicode="&#xab;" horiz-adv-x="1083" 
d="M388 136l-314 410l10 43l307 398l207 -53l-280 -372l275 -372zM812 136l-323 422l325 429l201 -53l-274 -372l270 -372z" />
    <glyph glyph-name="logicalnot" unicode="&#xac;" horiz-adv-x="1287" 
d="M961 247v394h-829v193h1020v-587h-191z" />
    <glyph glyph-name="uni00AD" unicode="&#xad;" horiz-adv-x="745" 
d="M76 380v204h595v-204h-595z" />
    <glyph glyph-name="registered" unicode="&#xae;" horiz-adv-x="1735" 
d="M556 271l-0.00195312 954.999h300c238.667 0 358 -87.333 358 -262c0 -73.333 -16.5 -130.666 -49.5 -171.999s-87.833 -70.333 -164.5 -87c8 -10 17 -22.333 27 -37s21.5 -32.667 34.5 -54l34.5 -57.5l40.5 -71l38 -68.5l41.5 -76l38 -70h-165
c-17.333 30.667 -57.666 106.667 -120.999 228c-65.333 120 -102.666 183 -111.999 189h-152v-417h-148zM702.998 812.999l120.001 0.000976562c32.667 0 60.334 1 83.001 3s44.667 6.16699 66 12.5s38.333 15 51 26s22.667 25.333 30 43s11 39.167 11 64.5
c0 22 -2.16699 40.667 -6.5 56s-11.833 28.166 -22.5 38.499s-21.834 18.333 -33.501 24s-28.334 10 -50.001 13s-42 4.83301 -61 5.5s-44.5 1 -76.5 1h-111v-287zM864.999 78c126 0 240 29.6689 342 89.002s181.167 139.5 237.5 240.5s84.5 212.167 84.5 333.5
c0 120.667 -28.167 231.5 -84.5 332.5s-135.666 181.333 -237.999 241s-216.5 89.5 -342.5 89.5c-124.667 0 -237.667 -29.833 -339 -89.5s-180 -139.834 -236 -240.501s-84 -211.334 -84 -332.001c0 -121.333 28.167 -232.5 84.5 -333.5s135.166 -181.333 236.499 -241
s214.333 -89.5 339 -89.5zM864.999 -21.998c-104 0 -203.332 19 -297.999 57s-177.167 90 -247.5 156s-126.333 146.833 -168 242.5s-62.5 198.167 -62.5 307.5s20.833 211.833 62.5 307.5s97.5 176.667 167.5 243s152.333 118.5 247 156.5s194 57 298 57
c104.667 0 204.667 -19 300 -57s178.333 -90.167 249 -156.5s127 -147.333 169 -243s63 -198.167 63 -307.5s-20.833 -211.833 -62.5 -307.5s-97.834 -176.5 -168.501 -242.5s-153.667 -118 -249 -156s-195.333 -57 -300 -57z" />
    <glyph glyph-name="macron" unicode="&#xaf;" horiz-adv-x="912" 
d="M118 1377v153h686v-153h-686z" />
    <glyph glyph-name="degree" unicode="&#xb0;" horiz-adv-x="850" 
d="M428 999c44 0 82.167 15.167 114.5 45.5s48.5 70.5 48.5 120.5c0 48.667 -16.167 87.667 -48.5 117s-70.5 44 -114.5 44c-44.667 0 -83.334 -14.667 -116.001 -44s-49 -68.333 -49 -117c0 -50 16.333 -90.167 49 -120.5s71.334 -45.5 116.001 -45.5zM427 870
c-96.667 0 -173.499 29.332 -230.499 87.999s-85.5 128.334 -85.5 209.001c0 80 28.5 148 85.5 204s133.833 84 230.5 84c95.333 0 171.666 -28 228.999 -84s86 -124 86 -204s-28.5 -149.5 -85.5 -208.5s-133.5 -88.5 -229.5 -88.5z" />
    <glyph glyph-name="plusminus" unicode="&#xb1;" horiz-adv-x="1288" 
d="M544 261v375h-364v192h364v368h199v-368h366v-192h-365v-375h-200zM180 0v177h929v-177h-929z" />
    <glyph glyph-name="uni00B2" unicode="&#xb2;" horiz-adv-x="834" 
d="M146 574l0.00292969 142c106 70.667 197.5 148.167 274.5 232.5s115.5 154.5 115.5 210.5c0 38 -13.667 68.167 -41 90.5s-59.333 33.5 -96 33.5s-73.334 -10.667 -110.001 -32s-66 -48.666 -88 -81.999l-66 120c36.667 48 77.667 85 123 111s100 39 164 39
c76.667 0 142.167 -25.5 196.5 -76.5s81.5 -117.5 81.5 -199.5c0 -42.667 -5.83301 -81.834 -17.5 -117.501s-33.334 -72.334 -65.001 -110.001s-59.334 -67.667 -83.001 -90s-63.167 -57.166 -118.5 -104.499l-30 -26h315l-15 -141h-540z" />
    <glyph glyph-name="uni00B3" unicode="&#xb3;" horiz-adv-x="800" 
d="M380 603c-96.667 0 -181.667 27.334 -255 82.001l49 126c22.667 -21.333 54 -38.666 94 -51.999s76.667 -20 110 -20c46 0 82 11.667 108 35s39 57.666 39 102.999c0 42.667 -16.5 74.667 -49.5 96s-79.167 32 -138.5 32l-77 -1v136h79c104 0 156 32.667 156 98
c0 28.667 -9.33301 51.667 -28 69s-47 26 -85 26c-35.333 0 -72.5 -6.33301 -111.5 -19s-69.5 -27.334 -91.5 -44.001l-48 111c73.333 59.333 160 89 260 89c77.333 0 142.166 -19.167 194.499 -57.5s78.5 -95.166 78.5 -170.499c-2 -80.667 -44 -134.334 -126 -161.001
c40 -15.333 74.167 -41.833 102.5 -79.5s42.5 -79.5 42.5 -125.5c0 -86 -29.167 -153 -87.5 -201s-130.166 -72 -215.499 -72z" />
    <glyph glyph-name="acute" unicode="&#xb4;" horiz-adv-x="619" 
d="M191 1195l171 383h299l-315 -383h-155z" />
    <glyph glyph-name="paragraph" unicode="&#xb6;" horiz-adv-x="1201" 
d="M419 -150v931.999c-102 8.66699 -184.333 46.834 -247 114.501s-94 150.167 -94 247.5c0 61.333 13.333 114.5 40 159.5s64.334 80.5 113.001 106.5s104.167 45.167 166.5 57.5s132.166 18.5 209.499 18.5h419v-171h-82v-1466h-166v1466h-165v-1466z" />
    <glyph glyph-name="periodcentered" unicode="&#xb7;" horiz-adv-x="422" 
d="M90 488v252h242v-252h-242z" />
    <glyph glyph-name="cedilla" unicode="&#xb8;" horiz-adv-x="589" 
d="M62 -357l123 381h144l-58 -381h-209z" />
    <glyph glyph-name="uni00B9" unicode="&#xb9;" horiz-adv-x="743" 
d="M151 601l-0.00195312 147.999h142v555c-3.33301 -2 -30.166 -14.667 -80.499 -38s-77.166 -36 -80.499 -38v148l55 27.5l101 51.5c32 16.667 49.333 26.334 52 29.001h144v-735h140v-148h-473z" />
    <glyph glyph-name="ordmasculine" unicode="&#xba;" horiz-adv-x="865" 
d="M439 899c62.667 0 110 20.667 142 62s48 96 48 164c0 71.333 -16.167 128 -48.5 170s-80.833 63 -145.5 63c-62.667 0 -110 -21 -142 -63s-48 -97.333 -48 -166c0 -71.333 16 -127.5 48 -168.5s80.667 -61.5 146 -61.5zM439 744c-116 0 -206.668 35.501 -272.001 106.501
s-98 164.5 -98 280.5c0 113.333 33.333 205.166 100 275.499s156.334 105.5 269.001 105.5c113.333 0 202.5 -35.5 267.5 -106.5s97.5 -163.833 97.5 -278.5c0 -112.667 -32.833 -204.667 -98.5 -276s-154.167 -107 -265.5 -107z" />
    <glyph glyph-name="guillemotright" unicode="&#xbb;" horiz-adv-x="1168" 
d="M314 136l-201 54l274 372l-271 372l200 53l324 -422zM749 136l-204 54l277 372l-272 372l203 53l318 -422z" />
    <glyph glyph-name="onequarter" unicode="&#xbc;" horiz-adv-x="1731" 
d="M104 601v148h142v555c-3.33301 -2 -30.333 -14.833 -81 -38.5s-77.334 -36.167 -80.001 -37.5v148c134.667 67.333 204.334 103.333 209.001 108h143v-735h141v-148h-474zM1388 10v172h-403v142l387 541h175v-547h115l2 -136h-118l-1 -172h-157zM305 0l1022 1471h194
l-1015 -1471h-201zM1176 318h210c0 214 0.333008 323.333 1 328z" />
    <glyph glyph-name="onehalf" unicode="&#xbd;" horiz-adv-x="1805" 
d="M125 601l0.000976562 132h142v588c-28.667 -18.667 -82.334 -49.667 -161.001 -93v148c10.667 5.33301 42.5 23.5 95.5 54.5s81.833 48.833 86.5 53.5h170v-751h141v-132h-474zM1136 -29l1 136l97.5 81l97 79.5c23.667 19.667 50.667 43.667 81 72s53.666 53 69.999 74
s30.333 44 42 69s17.5 49.167 17.5 72.5c0 39.333 -14.167 70.666 -42.5 93.999s-60.833 35 -97.5 35c-39.333 0 -78.166 -8.33301 -116.499 -25s-69.5 -40.667 -93.5 -72l-66 117c28.667 43.333 69 76 121 98s111 33 177 33c78 0 145.167 -24.833 201.5 -74.5
s84.5 -116.167 84.5 -199.5c0 -29.333 -2.83301 -56.833 -8.5 -82.5s-16 -51.167 -31 -76.5s-29.167 -47.166 -42.5 -65.499s-34 -40.5 -62 -66.5l-69 -62.5l-83 -69.5l-40 -33h335l-16 -134h-557zM310.001 0l1021 1471h198l-1019 -1471h-200z" />
    <glyph glyph-name="threequarters" unicode="&#xbe;" horiz-adv-x="1683" 
d="M343 621c-95.333 0 -180.333 27.335 -255 82.002l49 122c22 -20 51.833 -35.667 89.5 -47s73.834 -17 108.501 -17c45.333 0 81.333 10.833 108 32.5s40 53.5 40 95.5c0 77.333 -60.667 116 -182 116l-77 -1v136h78c104 0 156 33 156 99c0 28 -9.83301 50.167 -29.5 66.5
s-48.834 24.5 -87.501 24.5c-35.333 0 -72.166 -5.83301 -110.499 -17.5s-68.166 -25.834 -89.499 -42.501l-62 107c34.667 28.667 76.667 51.5 126 68.5s99.666 25.5 150.999 25.5c77.333 0 143 -19.5 197 -58.5s81 -95.167 81 -168.5c0 -7.33301 -1.66699 -17.333 -5 -30
s-8.83301 -27.834 -16.5 -45.501s-20.5 -34.667 -38.5 -51s-39.333 -28.5 -64 -36.5c40.667 -14.667 74.5 -40 101.5 -76s40.5 -76.667 40.5 -122c0 -55.333 -14.833 -103.333 -44.5 -144s-67.334 -70.5 -113.001 -89.5s-96.167 -28.5 -151.5 -28.5zM1339 11.002v179h-404
v142l387 557h176v-564h114l2 -135h-117l-1 -179h-157zM279 0.00195312l1020 1471h196l-1013 -1471h-203zM1126 325.002l210 0.000976562c0 217.333 0.333008 330.666 1 339.999z" />
    <glyph glyph-name="questiondown" unicode="&#xbf;" horiz-adv-x="887" 
d="M541 751c-6.66699 -52.667 -20.9971 -106.001 -42.9971 -160.001s-46.167 -102.667 -72.5 -146l-78 -126c-25.667 -40.667 -47 -81.167 -64 -121.5s-25.5 -77.5 -25.5 -111.5c0.666992 -58.667 19.167 -105 55.5 -139s86.833 -51 151.5 -51
c41.333 0 81.333 5.16699 120 15.5s68.167 20.5 88.5 30.5s43.5 23 69.5 39l70 -166c-54.667 -35.333 -111.334 -61.833 -170.001 -79.5s-127.334 -26.5 -206.001 -26.5c-47.333 0 -93.5 7.16699 -138.5 21.5s-86.333 35 -124 62s-68 62.833 -91 107.5s-34.5 95 -34.5 151
c0 45.333 8 90 24 134s38 87.333 66 130s57.5 84.334 88.5 125.001s65.667 89.167 104 145.5s71.166 111.5 98.499 165.5h111zM488.003 1217c43.333 0 80 -15 110 -45s45 -65.667 45 -107c0 -42 -15 -78.333 -45 -109s-66.667 -46 -110 -46
c-42.667 0 -78.667 15.333 -108 46s-44 67 -44 109c0 41.333 14.667 77 44 107s65.333 45 108 45z" />
    <glyph glyph-name="Agrave" unicode="&#xc0;" horiz-adv-x="1359" 
d="M598 1608l-331 383h306l188 -383h-163zM-3 0l539 1466h295l531 -1466h-278l-145 414h-513l-146 -414h-283zM494 616l376 -0.000976562c-120 384.667 -181.667 583.334 -185 596.001z" />
    <glyph glyph-name="Aacute" unicode="&#xc1;" horiz-adv-x="1359" 
d="M602 1608l171 383h299l-315 -383h-155zM-3 0l539 1466h295l531 -1466h-278l-145 414h-513l-146 -414h-283zM494 616l376 -0.000976562c-120 384.667 -181.667 583.334 -185 596.001z" />
    <glyph glyph-name="Acircumflex" unicode="&#xc2;" horiz-adv-x="1359" 
d="M325 1608l250 383h208l251 -383h-184l-174 218l-172 -218h-179zM-3 0l539 1466h295l531 -1466h-278l-145 414h-513l-146 -414h-283zM494 616l376 -0.000976562c-120 384.667 -181.667 583.334 -185 596.001z" />
    <glyph glyph-name="Atilde" unicode="&#xc3;" horiz-adv-x="1359" 
d="M336 1608c0 24 0.833984 45.668 2.50098 65.001s6 40.333 13 63s16.5 41.667 28.5 57s28.833 28.166 50.5 38.499s47.5 15.5 77.5 15.5c38.667 0 81.667 -7 129 -21s88.666 -28 123.999 -42s58 -21 68 -21c31.333 0 47 28 47 84h147c0 -23.333 -0.666992 -44 -2 -62
s-5.33301 -38.833 -12 -62.5s-15.5 -43.167 -26.5 -58.5s-27.333 -28.5 -49 -39.5s-47.167 -16.5 -76.5 -16.5c-39.333 0 -98.666 15 -177.999 45s-129 45 -149 45c-32.667 0 -49.334 -30 -50.001 -90h-144zM-2.99902 0.000976562l539 1466h295l531 -1466h-278l-145 414
h-513l-146 -414h-283zM494.001 616.001l376 -0.000976562c-120 384.667 -181.667 583.334 -185 596.001z" />
    <glyph glyph-name="Adieresis" unicode="&#xc4;" horiz-adv-x="1359" 
d="M371 1608v254h195v-254h-195zM792 1608v254h196v-254h-196zM-3 0l539 1466h295l531 -1466h-278l-145 414h-513l-146 -414h-283zM494 616l376 -0.000976562c-120 384.667 -181.667 583.334 -185 596.001z" />
    <glyph glyph-name="Aring" unicode="&#xc5;" horiz-adv-x="1359" 
d="M680 1566c34 0 60.167 10.667 78.5 32s27.5 47.333 27.5 78c0 30 -9.33301 56.167 -28 78.5s-44.667 33.5 -78 33.5c-34 0 -60.333 -10.833 -79 -32.5s-28 -48.167 -28 -79.5c0 -30.667 9.33301 -56.667 28 -78s45 -32 79 -32zM680 1473c-66.667 0 -120.167 20 -160.5 60
s-60.5 88 -60.5 144c0 55.333 19.833 102.5 59.5 141.5s93.5 58.5 161.5 58.5c67.333 0 120.833 -19.5 160.5 -58.5s59.5 -86.167 59.5 -141.5c0 -56 -20 -104 -60 -144s-93.333 -60 -160 -60zM-3 0l539 1466h295l531 -1466h-278l-145 414h-513l-146 -414h-283zM494 616
l376 -0.000976562c-120 384.667 -181.667 583.334 -185 596.001z" />
    <glyph glyph-name="AE" unicode="&#xc6;" horiz-adv-x="2021" 
d="M38 0l844 1481h1009l-15 -196h-607l33 -434h549v-196h-529l39 -459h565l-14 -196h-813l-30 375h-524l-205 -375h-302zM638 572h415l-50 663z" />
    <glyph glyph-name="Ccedilla" unicode="&#xc7;" horiz-adv-x="1301" 
d="M595 -389l123 381h144l-58 -381h-209zM797 -21c-214 0 -383.668 67.334 -509.001 202.001s-188 320.667 -188 558c0 225.333 65.5 406.166 196.5 542.499s302.5 204.5 514.5 204.5c171.333 0 316.333 -39.667 435 -119l-85 -205c-114 70 -228.667 105 -344 105
c-134.667 0 -241.167 -48.5 -319.5 -145.5s-117.5 -227.167 -117.5 -390.5c0 -169.333 37.833 -300.333 113.5 -393s183.5 -139 323.5 -139c122.667 0 244.334 30.667 365.001 92l36 -212c-112 -66.667 -252.333 -100 -421 -100z" />
    <glyph glyph-name="Egrave" unicode="&#xc8;" 
d="M526 1608l-331 383h306l188 -383h-163zM158 0v1465h888l-11 -215h-606v-378h576v-215h-576v-441h628l-9 -216h-890z" />
    <glyph glyph-name="Eacute" unicode="&#xc9;" 
d="M530 1608l171 383h299l-315 -383h-155zM158 0v1465h888l-11 -215h-606v-378h576v-215h-576v-441h628l-9 -216h-890z" />
    <glyph glyph-name="Ecircumflex" unicode="&#xca;" 
d="M253 1608l250 383h208l251 -383h-184l-174 218l-172 -218h-179zM158 0v1465h888l-11 -215h-606v-378h576v-215h-576v-441h628l-9 -216h-890z" />
    <glyph glyph-name="Edieresis" unicode="&#xcb;" 
d="M299 1608v254h195v-254h-195zM720 1608v254h196v-254h-196zM158 0v1465h888l-11 -215h-606v-378h576v-215h-576v-441h628l-9 -216h-890z" />
    <glyph glyph-name="Igrave" unicode="&#xcc;" horiz-adv-x="602" 
d="M219 1608l-331 383h306l188 -383h-163zM165 0v1465h271v-1465h-271z" />
    <glyph glyph-name="Iacute" unicode="&#xcd;" horiz-adv-x="602" 
d="M223 1608l171 383h299l-315 -383h-155zM165 0v1465h271v-1465h-271z" />
    <glyph glyph-name="Icircumflex" unicode="&#xce;" horiz-adv-x="602" 
d="M-54 1608l250 383h208l251 -383h-184l-174 218l-172 -218h-179zM165 0v1465h271v-1465h-271z" />
    <glyph glyph-name="Idieresis" unicode="&#xcf;" horiz-adv-x="602" 
d="M-8 1608v254h195v-254h-195zM413 1608v254h196v-254h-196zM165 0v1465h271v-1465h-271z" />
    <glyph glyph-name="Eth" unicode="&#xd0;" horiz-adv-x="1524" 
d="M398 206h235.001c172.667 0 305.5 44.667 398.5 134s139.5 217.666 139.5 384.999c0 99.333 -13.333 183.5 -40 252.5s-67.334 123.833 -122.001 164.5s-119.667 69.834 -195 87.501s-166 26.5 -272 26.5h-144v-427h199v-179h-199v-444zM131.001 1l0.00195312 649h-125
v179h125v634h391c612.667 0 919 -244.667 919 -734c0 -117.333 -20 -222.333 -60 -315s-96.333 -169 -169 -229s-159.334 -105.667 -260.001 -137s-212.334 -47 -335.001 -47h-486z" />
    <glyph glyph-name="Ntilde" unicode="&#xd1;" horiz-adv-x="1554" 
d="M434 1608c0 24 0.833984 45.668 2.50098 65.001s6 40.333 13 63s16.5 41.667 28.5 57s28.833 28.166 50.5 38.499s47.5 15.5 77.5 15.5c38.667 0 81.667 -7 129 -21s88.666 -28 123.999 -42s58 -21 68 -21c31.333 0 47 28 47 84h147c0 -23.333 -0.666992 -44 -2 -62
s-5.33301 -38.833 -12 -62.5s-15.5 -43.167 -26.5 -58.5s-27.333 -28.5 -49 -39.5s-47.167 -16.5 -76.5 -16.5c-39.333 0 -98.666 15 -177.999 45s-129 45 -149 45c-32.667 0 -49.334 -30 -50.001 -90h-144zM158.001 0.000976562v1465h288l317 -492l291 -450l51.5 -77.5
l51.5 -77.5c-4.66699 228.667 -7 347.334 -7 356.001v741h247v-1465h-292l-661 1030l-48 79c5.33301 -176 8 -299.667 8 -371v-738h-246z" />
    <glyph glyph-name="Ograve" unicode="&#xd2;" horiz-adv-x="1626" 
d="M731 1608l-331 383h306l188 -383h-163zM814 200c142 0 249.166 46.167 321.499 138.5s108.5 222.833 108.5 391.5c0 170.667 -36.167 303 -108.5 397s-179.166 141 -320.499 141c-142 0 -249.5 -47.167 -322.5 -141.5s-109.5 -226.5 -109.5 -396.5
c0 -168 36.333 -298.333 109 -391s180 -139 322 -139zM812.999 -21c-220.667 0 -394.833 66.832 -522.5 200.499s-191.5 318.167 -191.5 553.5c0 236.667 64 421.334 192 554.001s302.333 199 523 199s394.667 -66.5 522 -199.5s191 -317.833 191 -554.5
c0 -234 -64 -418 -192 -552s-302 -201 -522 -201z" />
    <glyph glyph-name="Oacute" unicode="&#xd3;" horiz-adv-x="1626" 
d="M735 1608l171 383h299l-315 -383h-155zM814 200c142 0 249.166 46.167 321.499 138.5s108.5 222.833 108.5 391.5c0 170.667 -36.167 303 -108.5 397s-179.166 141 -320.499 141c-142 0 -249.5 -47.167 -322.5 -141.5s-109.5 -226.5 -109.5 -396.5
c0 -168 36.333 -298.333 109 -391s180 -139 322 -139zM812.999 -21c-220.667 0 -394.833 66.832 -522.5 200.499s-191.5 318.167 -191.5 553.5c0 236.667 64 421.334 192 554.001s302.333 199 523 199s394.667 -66.5 522 -199.5s191 -317.833 191 -554.5
c0 -234 -64 -418 -192 -552s-302 -201 -522 -201z" />
    <glyph glyph-name="Ocircumflex" unicode="&#xd4;" horiz-adv-x="1626" 
d="M459 1608l250 383h208l251 -383h-184l-174 218l-172 -218h-179zM814 200c142 0 249.166 46.167 321.499 138.5s108.5 222.833 108.5 391.5c0 170.667 -36.167 303 -108.5 397s-179.166 141 -320.499 141c-142 0 -249.5 -47.167 -322.5 -141.5
s-109.5 -226.5 -109.5 -396.5c0 -168 36.333 -298.333 109 -391s180 -139 322 -139zM812.999 -21c-220.667 0 -394.833 66.832 -522.5 200.499s-191.5 318.167 -191.5 553.5c0 236.667 64 421.334 192 554.001s302.333 199 523 199s394.667 -66.5 522 -199.5
s191 -317.833 191 -554.5c0 -234 -64 -418 -192 -552s-302 -201 -522 -201z" />
    <glyph glyph-name="Otilde" unicode="&#xd5;" horiz-adv-x="1626" 
d="M470 1608c0 24 0.833984 45.668 2.50098 65.001s6 40.333 13 63s16.5 41.667 28.5 57s28.833 28.166 50.5 38.499s47.5 15.5 77.5 15.5c38.667 0 81.667 -7 129 -21s88.666 -28 123.999 -42s58 -21 68 -21c31.333 0 47 28 47 84h147c0 -23.333 -0.666992 -44 -2 -62
s-5.33301 -38.833 -12 -62.5s-15.5 -43.167 -26.5 -58.5s-27.333 -28.5 -49 -39.5s-47.167 -16.5 -76.5 -16.5c-39.333 0 -98.666 15 -177.999 45s-129 45 -149 45c-32.667 0 -49.334 -30 -50.001 -90h-144zM814.001 200.001c142 0 249.166 46.167 321.499 138.5
s108.5 222.833 108.5 391.5c0 170.667 -36.167 303 -108.5 397s-179.166 141 -320.499 141c-142 0 -249.5 -47.167 -322.5 -141.5s-109.5 -226.5 -109.5 -396.5c0 -168 36.333 -298.333 109 -391s180 -139 322 -139zM813 -20.999c-220.667 0 -394.833 66.832 -522.5 200.499
s-191.5 318.167 -191.5 553.5c0 236.667 64 421.334 192 554.001s302.333 199 523 199s394.667 -66.5 522 -199.5s191 -317.833 191 -554.5c0 -234 -64 -418 -192 -552s-302 -201 -522 -201z" />
    <glyph glyph-name="Odieresis" unicode="&#xd6;" horiz-adv-x="1626" 
d="M504 1608v254h195v-254h-195zM925 1608v254h196v-254h-196zM814 200c142 0 249.166 46.167 321.499 138.5s108.5 222.833 108.5 391.5c0 170.667 -36.167 303 -108.5 397s-179.166 141 -320.499 141c-142 0 -249.5 -47.167 -322.5 -141.5s-109.5 -226.5 -109.5 -396.5
c0 -168 36.333 -298.333 109 -391s180 -139 322 -139zM812.999 -21c-220.667 0 -394.833 66.832 -522.5 200.499s-191.5 318.167 -191.5 553.5c0 236.667 64 421.334 192 554.001s302.333 199 523 199s394.667 -66.5 522 -199.5s191 -317.833 191 -554.5
c0 -234 -64 -418 -192 -552s-302 -201 -522 -201z" />
    <glyph glyph-name="multiply" unicode="&#xd7;" horiz-adv-x="1395" 
d="M412 147l-134 136l291 300l-291 299l134 138l301 -295l300 295l136 -139l-292 -298l151.5 -154.5l140.5 -144.5l-136 -137l-300 294z" />
    <glyph glyph-name="Oslash" unicode="&#xd8;" horiz-adv-x="1624" 
d="M470 -211l-100.001 41.998l96 221c-120 57.333 -213.667 144.166 -281 260.499s-101 255.5 -101 417.5c0 116.667 18 222.5 54 317.5s86.333 174.333 151 238s142 112.834 232 147.501s188.333 52 295 52c91.333 0 177 -12.667 257 -38l93 213l106 -41l-93 -215
c114.667 -59.333 204 -146.666 268 -261.999s96 -252.666 96 -411.999c0 -114.667 -18 -219.167 -54 -313.5s-86 -173.333 -150 -237s-141.167 -113 -231.5 -148s-188.833 -52.5 -295.5 -52.5c-85.333 0 -166.666 11.333 -243.999 34zM556.999 259.998l426.999 984
c-52.667 18 -109 27 -169 27c-149.333 0 -263.166 -49 -341.499 -147s-117.5 -230.667 -117.5 -398c0 -107.333 17 -201 51 -281s84 -141.667 150 -185zM814.998 190.998c150 0 264 47.833 342 143.5s117 226.167 117 391.5c0 106 -16 199 -48 279s-79 142.333 -141 187
l-428 -979c46 -14.667 98.667 -22 158 -22z" />
    <glyph glyph-name="Ugrave" unicode="&#xd9;" horiz-adv-x="1468" 
d="M652 1608l-331 383h306l188 -383h-163zM730 -21c-192 0 -337.667 47.834 -437 143.501s-149 230.5 -149 404.5v938h272v-915c0 -122 24.833 -211 74.5 -267s131.167 -84 244.5 -84c111.333 0 192 28.167 242 84.5s75 145.5 75 267.5v914h271v-940
c0 -172.667 -50.667 -306.834 -152 -402.501s-248.333 -143.5 -441 -143.5z" />
    <glyph glyph-name="Uacute" unicode="&#xda;" horiz-adv-x="1468" 
d="M656 1608l171 383h299l-315 -383h-155zM730 -21c-192 0 -337.667 47.834 -437 143.501s-149 230.5 -149 404.5v938h272v-915c0 -122 24.833 -211 74.5 -267s131.167 -84 244.5 -84c111.333 0 192 28.167 242 84.5s75 145.5 75 267.5v914h271v-940
c0 -172.667 -50.667 -306.834 -152 -402.501s-248.333 -143.5 -441 -143.5z" />
    <glyph glyph-name="Ucircumflex" unicode="&#xdb;" horiz-adv-x="1468" 
d="M379 1608l250 383h208l251 -383h-184l-174 218l-172 -218h-179zM730 -21c-192 0 -337.667 47.834 -437 143.501s-149 230.5 -149 404.5v938h272v-915c0 -122 24.833 -211 74.5 -267s131.167 -84 244.5 -84c111.333 0 192 28.167 242 84.5s75 145.5 75 267.5v914h271v-940
c0 -172.667 -50.667 -306.834 -152 -402.501s-248.333 -143.5 -441 -143.5z" />
    <glyph glyph-name="Udieresis" unicode="&#xdc;" horiz-adv-x="1468" 
d="M425 1608v254h195v-254h-195zM846 1608v254h196v-254h-196zM730 -21c-192 0 -337.667 47.834 -437 143.501s-149 230.5 -149 404.5v938h272v-915c0 -122 24.833 -211 74.5 -267s131.167 -84 244.5 -84c111.333 0 192 28.167 242 84.5s75 145.5 75 267.5v914h271v-940
c0 -172.667 -50.667 -306.834 -152 -402.501s-248.333 -143.5 -441 -143.5z" />
    <glyph glyph-name="Yacute" unicode="&#xdd;" horiz-adv-x="1256" 
d="M549 1608l171 383h299l-315 -383h-155zM492 0v581l-507 884h294l349 -634l351 634h290l-505 -879v-586h-272z" />
    <glyph glyph-name="Thorn" unicode="&#xde;" horiz-adv-x="1327" 
d="M178 11v1443h222v-225h287c86.667 0 164.667 -8.16699 234 -24.5s130.833 -41.666 184.5 -75.999s95.167 -80.5 124.5 -138.5s44 -126.333 44 -205c0 -141.333 -50.833 -251.333 -152.5 -330s-234.167 -118 -397.5 -118l-324 2v-328h-222zM401 533.999h336
c99.333 0 176.333 22.667 231 68s82 109 82 191c0 90 -28.333 155.667 -85 197s-141.667 62 -255 62h-310z" />
    <glyph glyph-name="germandbls" unicode="&#xdf;" horiz-adv-x="1259" 
d="M108 0v1024c0 148 40.833 262.667 122.5 344s199.167 122 352.5 122c62 0 119.833 -7.16699 173.5 -21.5s101.5 -35.5 143.5 -63.5s75 -64.333 99 -109s36 -95.334 36 -152.001c0 -40.667 -7 -77.834 -21 -111.501s-37.167 -65.5 -69.5 -95.5s-58.5 -52.167 -78.5 -66.5
s-52.333 -35.166 -97 -62.499c-6 -4 -10.667 -7 -14 -9c14.667 -8.66699 37.667 -21.167 69 -37.5l76 -40.5c19.333 -10.667 43.666 -25.167 72.999 -43.5s53.5 -35.166 72.5 -50.499s39.333 -34 61 -56s38.834 -43.833 51.501 -65.5s23.167 -46.5 31.5 -74.5
s12.5 -57 12.5 -87c0 -76.667 -18.167 -141.334 -54.5 -194.001s-84.5 -90.834 -144.5 -114.501s-129.667 -35.5 -209 -35.5h-292l25 179h240c56 0 99.333 14.833 130 44.5s46 70.167 46 121.5c0 30.667 -7.16699 59.167 -21.5 85.5s-35.5 50.5 -63.5 72.5
s-54.833 40.5 -80.5 55.5s-58.5 33 -98.5 54s-70 37.833 -90 50.5c-58 35.333 -87 76.333 -87 123c0 42 23.667 81 71 117l56.5 39.5c25.667 17.667 45.5 32 59.5 43s29.5 25 46.5 42s29.5 35 37.5 54s12 39.833 12 62.5c0 48.667 -18.833 86.667 -56.5 114
s-86.5 41 -146.5 41c-44 0 -80.667 -6.5 -110 -19.5s-51.833 -32.5 -67.5 -58.5s-26.5 -55.167 -32.5 -87.5s-9 -71.5 -9 -117.5v-1016h-255z" />
    <glyph glyph-name="agrave" unicode="&#xe0;" horiz-adv-x="1142" 
d="M465 1248l-331 383h306l188 -383h-163zM423 -21c-102 0 -184.501 28.165 -247.501 84.498s-94.5 137.5 -94.5 243.5c0 114 37.333 198.5 112 253.5s187.334 89.833 338.001 104.5c20.667 2.66699 43 5.33398 67 8.00098s51 5.33398 81 8.00098s53.667 5 71 7v58
c0 66.667 -15.333 115.167 -46 145.5s-77.334 45.5 -140.001 45.5c-89.333 0 -199.666 -25 -330.999 -75c-0.666992 2 -11.667 32.333 -33 91s-32.333 88.667 -33 90c129.333 55.333 269.333 83 420 83c148 0 255.667 -32.167 323 -96.5s101 -168.5 101 -312.5v-717h-194
c-0.666992 2.66699 -8 25 -22 67s-21 64.333 -21 67c-54.667 -53.333 -108.167 -92.5 -160.5 -117.5s-115.833 -37.5 -190.5 -37.5zM493.999 164.998c60.667 0 113.5 14.5 158.5 43.5s77.167 64.167 96.5 105.5v212c-2 0 -19.5 -1.33301 -52.5 -4s-50.833 -4 -53.5 -4
c-106 -9.33301 -183.667 -29.333 -233 -60s-74 -80 -74 -148c0 -46.667 13.667 -82.5 41 -107.5s66.333 -37.5 117 -37.5z" />
    <glyph glyph-name="aacute" unicode="&#xe1;" horiz-adv-x="1142" 
d="M469 1248l171 383h299l-315 -383h-155zM423 -21c-102 0 -184.501 28.165 -247.501 84.498s-94.5 137.5 -94.5 243.5c0 114 37.333 198.5 112 253.5s187.334 89.833 338.001 104.5c20.667 2.66699 43 5.33398 67 8.00098s51 5.33398 81 8.00098s53.667 5 71 7v58
c0 66.667 -15.333 115.167 -46 145.5s-77.334 45.5 -140.001 45.5c-89.333 0 -199.666 -25 -330.999 -75c-0.666992 2 -11.667 32.333 -33 91s-32.333 88.667 -33 90c129.333 55.333 269.333 83 420 83c148 0 255.667 -32.167 323 -96.5s101 -168.5 101 -312.5v-717h-194
c-0.666992 2.66699 -8 25 -22 67s-21 64.333 -21 67c-54.667 -53.333 -108.167 -92.5 -160.5 -117.5s-115.833 -37.5 -190.5 -37.5zM493.999 164.998c60.667 0 113.5 14.5 158.5 43.5s77.167 64.167 96.5 105.5v212c-2 0 -19.5 -1.33301 -52.5 -4s-50.833 -4 -53.5 -4
c-106 -9.33301 -183.667 -29.333 -233 -60s-74 -80 -74 -148c0 -46.667 13.667 -82.5 41 -107.5s66.333 -37.5 117 -37.5z" />
    <glyph glyph-name="acircumflex" unicode="&#xe2;" horiz-adv-x="1142" 
d="M191 1248l250 383h208l251 -383h-184l-174 218l-172 -218h-179zM423 -21c-102 0 -184.501 28.165 -247.501 84.498s-94.5 137.5 -94.5 243.5c0 114 37.333 198.5 112 253.5s187.334 89.833 338.001 104.5c20.667 2.66699 43 5.33398 67 8.00098s51 5.33398 81 8.00098
s53.667 5 71 7v58c0 66.667 -15.333 115.167 -46 145.5s-77.334 45.5 -140.001 45.5c-89.333 0 -199.666 -25 -330.999 -75c-0.666992 2 -11.667 32.333 -33 91s-32.333 88.667 -33 90c129.333 55.333 269.333 83 420 83c148 0 255.667 -32.167 323 -96.5
s101 -168.5 101 -312.5v-717h-194c-0.666992 2.66699 -8 25 -22 67s-21 64.333 -21 67c-54.667 -53.333 -108.167 -92.5 -160.5 -117.5s-115.833 -37.5 -190.5 -37.5zM493.999 164.998c60.667 0 113.5 14.5 158.5 43.5s77.167 64.167 96.5 105.5v212
c-2 0 -19.5 -1.33301 -52.5 -4s-50.833 -4 -53.5 -4c-106 -9.33301 -183.667 -29.333 -233 -60s-74 -80 -74 -148c0 -46.667 13.667 -82.5 41 -107.5s66.333 -37.5 117 -37.5z" />
    <glyph glyph-name="atilde" unicode="&#xe3;" horiz-adv-x="1142" 
d="M202 1248c0 24 0.833984 45.668 2.50098 65.001s6 40.333 13 63s16.5 41.667 28.5 57s28.833 28.166 50.5 38.499s47.5 15.5 77.5 15.5c38.667 0 81.667 -7 129 -21s88.666 -28 123.999 -42s58 -21 68 -21c31.333 0 47 28 47 84h147c0 -23.333 -0.666992 -44 -2 -62
s-5.33301 -38.833 -12 -62.5s-15.5 -43.167 -26.5 -58.5s-27.333 -28.5 -49 -39.5s-47.167 -16.5 -76.5 -16.5c-39.333 0 -98.666 15 -177.999 45s-129 45 -149 45c-32.667 0 -49.334 -30 -50.001 -90h-144zM423.001 -20.999c-102 0 -184.501 28.165 -247.501 84.498
s-94.5 137.5 -94.5 243.5c0 114 37.333 198.5 112 253.5s187.334 89.833 338.001 104.5c20.667 2.66699 43 5.33398 67 8.00098s51 5.33398 81 8.00098s53.667 5 71 7v58c0 66.667 -15.333 115.167 -46 145.5s-77.334 45.5 -140.001 45.5
c-89.333 0 -199.666 -25 -330.999 -75c-0.666992 2 -11.667 32.333 -33 91s-32.333 88.667 -33 90c129.333 55.333 269.333 83 420 83c148 0 255.667 -32.167 323 -96.5s101 -168.5 101 -312.5v-717h-194c-0.666992 2.66699 -8 25 -22 67s-21 64.333 -21 67
c-54.667 -53.333 -108.167 -92.5 -160.5 -117.5s-115.833 -37.5 -190.5 -37.5zM494 164.999c60.667 0 113.5 14.5 158.5 43.5s77.167 64.167 96.5 105.5v212c-2 0 -19.5 -1.33301 -52.5 -4s-50.833 -4 -53.5 -4c-106 -9.33301 -183.667 -29.333 -233 -60s-74 -80 -74 -148
c0 -46.667 13.667 -82.5 41 -107.5s66.333 -37.5 117 -37.5z" />
    <glyph glyph-name="adieresis" unicode="&#xe4;" horiz-adv-x="1142" 
d="M238 1248v254h195v-254h-195zM659 1248v254h196v-254h-196zM423 -21c-102 0 -184.501 28.165 -247.501 84.498s-94.5 137.5 -94.5 243.5c0 114 37.333 198.5 112 253.5s187.334 89.833 338.001 104.5c20.667 2.66699 43 5.33398 67 8.00098s51 5.33398 81 8.00098
s53.667 5 71 7v58c0 66.667 -15.333 115.167 -46 145.5s-77.334 45.5 -140.001 45.5c-89.333 0 -199.666 -25 -330.999 -75c-0.666992 2 -11.667 32.333 -33 91s-32.333 88.667 -33 90c129.333 55.333 269.333 83 420 83c148 0 255.667 -32.167 323 -96.5
s101 -168.5 101 -312.5v-717h-194c-0.666992 2.66699 -8 25 -22 67s-21 64.333 -21 67c-54.667 -53.333 -108.167 -92.5 -160.5 -117.5s-115.833 -37.5 -190.5 -37.5zM493.999 164.998c60.667 0 113.5 14.5 158.5 43.5s77.167 64.167 96.5 105.5v212
c-2 0 -19.5 -1.33301 -52.5 -4s-50.833 -4 -53.5 -4c-106 -9.33301 -183.667 -29.333 -233 -60s-74 -80 -74 -148c0 -46.667 13.667 -82.5 41 -107.5s66.333 -37.5 117 -37.5z" />
    <glyph glyph-name="aring" unicode="&#xe5;" horiz-adv-x="1142" 
d="M546 1341c34 0 60.167 10.667 78.5 32s27.5 47.333 27.5 78c0 30 -9.33301 56.167 -28 78.5s-44.667 33.5 -78 33.5c-34 0 -60.333 -10.833 -79 -32.5s-28 -48.167 -28 -79.5c0 -30.667 9.33301 -56.667 28 -78s45 -32 79 -32zM546 1248c-66.667 0 -120.167 20 -160.5 60
s-60.5 88 -60.5 144c0 55.333 19.833 102.5 59.5 141.5s93.5 58.5 161.5 58.5c67.333 0 120.833 -19.5 160.5 -58.5s59.5 -86.167 59.5 -141.5c0 -56 -20 -104 -60 -144s-93.333 -60 -160 -60zM423 -21c-102 0 -184.501 28.165 -247.501 84.498s-94.5 137.5 -94.5 243.5
c0 114 37.333 198.5 112 253.5s187.334 89.833 338.001 104.5c20.667 2.66699 43 5.33398 67 8.00098s51 5.33398 81 8.00098s53.667 5 71 7v58c0 66.667 -15.333 115.167 -46 145.5s-77.334 45.5 -140.001 45.5c-89.333 0 -199.666 -25 -330.999 -75
c-0.666992 2 -11.667 32.333 -33 91s-32.333 88.667 -33 90c129.333 55.333 269.333 83 420 83c148 0 255.667 -32.167 323 -96.5s101 -168.5 101 -312.5v-717h-194c-0.666992 2.66699 -8 25 -22 67s-21 64.333 -21 67c-54.667 -53.333 -108.167 -92.5 -160.5 -117.5
s-115.833 -37.5 -190.5 -37.5zM493.999 164.998c60.667 0 113.5 14.5 158.5 43.5s77.167 64.167 96.5 105.5v212c-2 0 -19.5 -1.33301 -52.5 -4s-50.833 -4 -53.5 -4c-106 -9.33301 -183.667 -29.333 -233 -60s-74 -80 -74 -148c0 -46.667 13.667 -82.5 41 -107.5
s66.333 -37.5 117 -37.5z" />
    <glyph glyph-name="ae" unicode="&#xe6;" horiz-adv-x="1679" 
d="M411 -22c-102 0 -184.002 31.9951 -246.002 95.9951s-93 145 -93 243c0 30 2.83301 57 8.5 81s15.667 45.333 30 64s28.833 34.834 43.5 48.501s35.834 26 63.501 37s52.667 20 75 27s53.5 13.667 93.5 20s74.5 11.333 103.5 15s68.5 8.16699 118.5 13.5l85 7v117
c0 68.667 -13.167 118.834 -39.5 150.501s-75.166 48.834 -146.499 51.501c-94 0 -202 -25.667 -324 -77l-49 180c116.667 55.333 246.334 83 389.001 83c84 0 154.333 -15.167 211 -45.5s94.667 -73.833 114 -130.5c38 52.667 88.5 95.167 151.5 127.5
s132.833 48.5 209.5 48.5c70 0 131.667 -13.667 185 -41s95.5 -65.166 126.5 -113.499s54.167 -102.166 69.5 -161.499s23 -124 23 -194c0 -29.333 -13 -50.833 -39 -64.5s-65.333 -21.5 -118 -23.5c-128.667 -7.33301 -300.334 -19.666 -515.001 -36.999
c4.66699 -107.333 31.5 -189.333 80.5 -246s119.167 -85.334 210.5 -86.001c60 0 115.667 8 167 24s91.333 35 120 57l72 -162c-99.333 -72 -224.333 -108 -375 -108c-166.667 0 -293 53 -379 159c-116.667 -106.667 -258.667 -160 -426 -160zM448.998 149.995
c90 0 188.335 41 295.002 123c-8 16 -17.5 45.167 -28.5 87.5s-16.833 80.5 -17.5 114.5c-2 0 -17.333 -1.83301 -46 -5.5s-43.667 -5.5 -45 -5.5c-44 -5.33301 -80.167 -10.5 -108.5 -15.5s-55.833 -11.5 -82.5 -19.5s-47.334 -17.333 -62.001 -28s-26.334 -24 -35.001 -40
s-13 -34.667 -13 -56c0 -50 12.167 -88.333 36.5 -115s59.833 -40 106.5 -40zM944 643.995l435.999 39c1.33301 9.33301 2 19.666 2 30.999c-1.33301 153.333 -59.666 230 -174.999 230c-31.333 0 -61 -5 -89 -15s-54.667 -26 -80 -48s-46.333 -53.167 -63 -93.5
s-27 -88.166 -31 -143.499z" />
    <glyph glyph-name="ccedilla" unicode="&#xe7;" horiz-adv-x="1008" 
d="M437 -389l123 381h144l-58 -381h-209zM614 -21c-168 0 -298.834 49.999 -392.501 149.999s-140.5 243 -140.5 429c0 180 49.167 319.667 147.5 419s227.833 149 388.5 149c128.667 0 237.334 -27.667 326.001 -83l-62 -187c-90.667 47.333 -175 71 -253 71
c-88.667 0 -158.5 -31.667 -209.5 -95s-76.5 -155.666 -76.5 -276.999c0 -122.667 25.167 -216 75.5 -280s121.5 -96 213.5 -96c96 0 188.333 28.333 277 85l25 -199c-46 -30.667 -93.667 -52.667 -143 -66s-108 -20 -176 -20z" />
    <glyph glyph-name="egrave" unicode="&#xe8;" horiz-adv-x="1157" 
d="M497 1248l-331 383h306l188 -383h-163zM641 -21c-176.667 0 -314.168 50.833 -412.501 152.5s-147.5 242.167 -147.5 421.5c0 174.667 46.333 313.667 139 417s219 155.333 379 156c151.333 0 268.833 -47.333 352.5 -142s125.5 -220.334 125.5 -377.001
c0 -11.333 -0.166992 -29.666 -0.5 -54.999s-0.5 -44 -0.5 -56h-731c2.66699 -102.667 30.834 -182.167 84.501 -238.5s127.5 -84.5 221.5 -84.5c120 0 235.333 31.333 346 94l37 -186c-110 -68 -241 -102 -393 -102zM349.999 661h479.999c0 89.333 -20.333 158 -61 206
s-97 72 -169 72c-67.333 0 -124.166 -23.333 -170.499 -70s-72.833 -116 -79.5 -208z" />
    <glyph glyph-name="eacute" unicode="&#xe9;" horiz-adv-x="1157" 
d="M501 1248l171 383h299l-315 -383h-155zM641 -21c-176.667 0 -314.168 50.833 -412.501 152.5s-147.5 242.167 -147.5 421.5c0 174.667 46.333 313.667 139 417s219 155.333 379 156c151.333 0 268.833 -47.333 352.5 -142s125.5 -220.334 125.5 -377.001
c0 -11.333 -0.166992 -29.666 -0.5 -54.999s-0.5 -44 -0.5 -56h-731c2.66699 -102.667 30.834 -182.167 84.501 -238.5s127.5 -84.5 221.5 -84.5c120 0 235.333 31.333 346 94l37 -186c-110 -68 -241 -102 -393 -102zM349.999 661h479.999c0 89.333 -20.333 158 -61 206
s-97 72 -169 72c-67.333 0 -124.166 -23.333 -170.499 -70s-72.833 -116 -79.5 -208z" />
    <glyph glyph-name="ecircumflex" unicode="&#xea;" horiz-adv-x="1157" 
d="M225 1248l250 383h208l251 -383h-184l-174 218l-172 -218h-179zM641 -21c-176.667 0 -314.168 50.833 -412.501 152.5s-147.5 242.167 -147.5 421.5c0 174.667 46.333 313.667 139 417s219 155.333 379 156c151.333 0 268.833 -47.333 352.5 -142
s125.5 -220.334 125.5 -377.001c0 -11.333 -0.166992 -29.666 -0.5 -54.999s-0.5 -44 -0.5 -56h-731c2.66699 -102.667 30.834 -182.167 84.501 -238.5s127.5 -84.5 221.5 -84.5c120 0 235.333 31.333 346 94l37 -186c-110 -68 -241 -102 -393 -102zM349.999 661h479.999
c0 89.333 -20.333 158 -61 206s-97 72 -169 72c-67.333 0 -124.166 -23.333 -170.499 -70s-72.833 -116 -79.5 -208z" />
    <glyph glyph-name="edieresis" unicode="&#xeb;" horiz-adv-x="1157" 
d="M270 1248v254h195v-254h-195zM691 1248v254h196v-254h-196zM641 -21c-176.667 0 -314.168 50.833 -412.501 152.5s-147.5 242.167 -147.5 421.5c0 174.667 46.333 313.667 139 417s219 155.333 379 156c151.333 0 268.833 -47.333 352.5 -142
s125.5 -220.334 125.5 -377.001c0 -11.333 -0.166992 -29.666 -0.5 -54.999s-0.5 -44 -0.5 -56h-731c2.66699 -102.667 30.834 -182.167 84.501 -238.5s127.5 -84.5 221.5 -84.5c120 0 235.333 31.333 346 94l37 -186c-110 -68 -241 -102 -393 -102zM349.999 661h479.999
c0 89.333 -20.333 158 -61 206s-97 72 -169 72c-67.333 0 -124.166 -23.333 -170.499 -70s-72.833 -116 -79.5 -208z" />
    <glyph glyph-name="igrave" unicode="&#xec;" horiz-adv-x="548" 
d="M175 1248l-331 383h306l188 -383h-163zM129 0v1098h255v-1098h-255z" />
    <glyph glyph-name="iacute" unicode="&#xed;" horiz-adv-x="548" 
d="M179 1248l171 383h299l-315 -383h-155zM129 0v1098h255v-1098h-255z" />
    <glyph glyph-name="icircumflex" unicode="&#xee;" horiz-adv-x="548" 
d="M-98 1248l250 383h208l251 -383h-184l-174 218l-172 -218h-179zM129 0v1098h255v-1098h-255z" />
    <glyph glyph-name="idieresis" unicode="&#xef;" horiz-adv-x="548" 
d="M-52 1248v254h195v-254h-195zM369 1248v254h196v-254h-196zM129 0v1098h255v-1098h-255z" />
    <glyph glyph-name="eth" unicode="&#xf0;" horiz-adv-x="1226" 
d="M626 -21c-162 0 -292.832 45.167 -392.499 135.5s-149.5 207.833 -149.5 352.5c0 152 44.833 271 134.5 357s210.5 129 362.5 129c36.667 0 86.334 -9.66699 149.001 -29c-5.33301 10 -39 52 -101 126s-103.333 121.667 -124 143l-249 -101l-67 134l205 83l-203 200h298
l119 -113l250 100l69 -132l-211 -84c149.333 -165.333 259.666 -306 330.999 -422c74.667 -122.667 112 -248.334 112 -377.001c0 -70 -10.833 -134.833 -32.5 -194.5s-53.834 -112.667 -96.501 -159s-98.5 -82.666 -167.5 -108.999s-147.833 -39.5 -236.5 -39.5z
M625.001 178c94 0 166.499 26.499 217.499 79.499s76.5 124.5 76.5 214.5c0 90.667 -26.167 163.667 -78.5 219s-126.166 83 -221.499 83s-168.5 -26.5 -219.5 -79.5s-76.5 -125.167 -76.5 -216.5c0 -89.333 26.667 -161.666 80 -216.999s127.333 -83 222 -83z" />
    <glyph glyph-name="ntilde" unicode="&#xf1;" horiz-adv-x="1254" 
d="M288 1248c0 24 0.833984 45.668 2.50098 65.001s6 40.333 13 63s16.5 41.667 28.5 57s28.833 28.166 50.5 38.499s47.5 15.5 77.5 15.5c38.667 0 81.667 -7 129 -21s88.666 -28 123.999 -42s58 -21 68 -21c31.333 0 47 28 47 84h147c0 -23.333 -0.666992 -44 -2 -62
s-5.33301 -38.833 -12 -62.5s-15.5 -43.167 -26.5 -58.5s-27.333 -28.5 -49 -39.5s-47.167 -16.5 -76.5 -16.5c-39.333 0 -98.666 15 -177.999 45s-129 45 -149 45c-32.667 0 -49.334 -30 -50.001 -90h-144zM133.001 0.000976562v1099h211l29 -139
c112 110.667 236.333 166 373 166c128 0 223.833 -36.833 287.5 -110.5s95.5 -180.5 95.5 -320.5v-695h-263v663c-0.666992 88.667 -15 155 -43 199s-78.333 66 -151 66c-56.667 0 -108.5 -14.5 -155.5 -43.5s-81.167 -65.5 -102.5 -109.5c-12.667 -52 -19 -132 -19 -240
v-535h-262z" />
    <glyph glyph-name="ograve" unicode="&#xf2;" horiz-adv-x="1222" 
d="M529 1248l-331 383h306l188 -383h-163zM612 178c88.667 0 155.334 32.332 200.001 96.999s67 157.334 67 278.001c0 122 -22.333 215 -67 279s-112 96 -202 96c-88.667 0 -155.5 -32.167 -200.5 -96.5s-67.5 -157.5 -67.5 -279.5c0 -120 22.667 -212.333 68 -277
s112.666 -97 201.999 -97zM605 -21.001c-162.667 0 -290.667 52.667 -384 158s-140 244 -140 416c0 177.333 46.667 317.166 140 419.499s225 153.5 395 153.5c164 0 292.5 -52.167 385.5 -156.5s139.5 -243.166 139.5 -416.499c0 -175.333 -47 -314.833 -141 -418.5
s-225.667 -155.5 -395 -155.5z" />
    <glyph glyph-name="oacute" unicode="&#xf3;" horiz-adv-x="1222" 
d="M533 1248l171 383h299l-315 -383h-155zM612 178c88.667 0 155.334 32.332 200.001 96.999s67 157.334 67 278.001c0 122 -22.333 215 -67 279s-112 96 -202 96c-88.667 0 -155.5 -32.167 -200.5 -96.5s-67.5 -157.5 -67.5 -279.5c0 -120 22.667 -212.333 68 -277
s112.666 -97 201.999 -97zM605 -21.001c-162.667 0 -290.667 52.667 -384 158s-140 244 -140 416c0 177.333 46.667 317.166 140 419.499s225 153.5 395 153.5c164 0 292.5 -52.167 385.5 -156.5s139.5 -243.166 139.5 -416.499c0 -175.333 -47 -314.833 -141 -418.5
s-225.667 -155.5 -395 -155.5z" />
    <glyph glyph-name="ocircumflex" unicode="&#xf4;" horiz-adv-x="1222" 
d="M257 1248l250 383h208l251 -383h-184l-174 218l-172 -218h-179zM612 178c88.667 0 155.334 32.332 200.001 96.999s67 157.334 67 278.001c0 122 -22.333 215 -67 279s-112 96 -202 96c-88.667 0 -155.5 -32.167 -200.5 -96.5s-67.5 -157.5 -67.5 -279.5
c0 -120 22.667 -212.333 68 -277s112.666 -97 201.999 -97zM605 -21.001c-162.667 0 -290.667 52.667 -384 158s-140 244 -140 416c0 177.333 46.667 317.166 140 419.499s225 153.5 395 153.5c164 0 292.5 -52.167 385.5 -156.5s139.5 -243.166 139.5 -416.499
c0 -175.333 -47 -314.833 -141 -418.5s-225.667 -155.5 -395 -155.5z" />
    <glyph glyph-name="otilde" unicode="&#xf5;" horiz-adv-x="1222" 
d="M268 1248c0 24 0.833984 45.668 2.50098 65.001s6 40.333 13 63s16.5 41.667 28.5 57s28.833 28.166 50.5 38.499s47.5 15.5 77.5 15.5c38.667 0 81.667 -7 129 -21s88.666 -28 123.999 -42s58 -21 68 -21c31.333 0 47 28 47 84h147c0 -23.333 -0.666992 -44 -2 -62
s-5.33301 -38.833 -12 -62.5s-15.5 -43.167 -26.5 -58.5s-27.333 -28.5 -49 -39.5s-47.167 -16.5 -76.5 -16.5c-39.333 0 -98.666 15 -177.999 45s-129 45 -149 45c-32.667 0 -49.334 -30 -50.001 -90h-144zM612.001 178.001c88.667 0 155.334 32.332 200.001 96.999
s67 157.334 67 278.001c0 122 -22.333 215 -67 279s-112 96 -202 96c-88.667 0 -155.5 -32.167 -200.5 -96.5s-67.5 -157.5 -67.5 -279.5c0 -120 22.667 -212.333 68 -277s112.666 -97 201.999 -97zM605.001 -21c-162.667 0 -290.667 52.667 -384 158s-140 244 -140 416
c0 177.333 46.667 317.166 140 419.499s225 153.5 395 153.5c164 0 292.5 -52.167 385.5 -156.5s139.5 -243.166 139.5 -416.499c0 -175.333 -47 -314.833 -141 -418.5s-225.667 -155.5 -395 -155.5z" />
    <glyph glyph-name="odieresis" unicode="&#xf6;" horiz-adv-x="1222" 
d="M302 1248v254h195v-254h-195zM723 1248v254h196v-254h-196zM612 178c88.667 0 155.334 32.332 200.001 96.999s67 157.334 67 278.001c0 122 -22.333 215 -67 279s-112 96 -202 96c-88.667 0 -155.5 -32.167 -200.5 -96.5s-67.5 -157.5 -67.5 -279.5
c0 -120 22.667 -212.333 68 -277s112.666 -97 201.999 -97zM605 -21.001c-162.667 0 -290.667 52.667 -384 158s-140 244 -140 416c0 177.333 46.667 317.166 140 419.499s225 153.5 395 153.5c164 0 292.5 -52.167 385.5 -156.5s139.5 -243.166 139.5 -416.499
c0 -175.333 -47 -314.833 -141 -418.5s-225.667 -155.5 -395 -155.5z" />
    <glyph glyph-name="divide" unicode="&#xf7;" horiz-adv-x="1456" 
d="M590 21v260h275v-260h-275zM178 489v187h1096v-187h-1096zM590 875v259h284v-259h-284z" />
    <glyph glyph-name="oslash" unicode="&#xf8;" horiz-adv-x="1193" 
d="M302 -215l-61.999 34.001l96 222c-86 44 -151.667 110.333 -197 199s-68 192 -68 310c0 173.333 46.167 311.5 138.5 414.5s222.833 154.5 391.5 154.5c70.667 0 137 -10 199 -30l94 180l69 -23l-93 -187c83.333 -44 146.666 -109.833 189.999 -197.5
s65 -190.834 65 -309.501c0 -170.667 -46 -308 -138 -412s-222.667 -156 -392 -156c-71.333 0 -135.333 10 -192 30zM420.001 231.001l301 682c-35.333 18 -76.333 27 -123 27c-89.333 0 -158.333 -33.833 -207 -101.5s-73 -163.5 -73 -287.5c0 -147.333 34 -254 102 -320z
M599.001 163.001c90 0 159 34.001 207 102.001s72 163.333 72 286c0 145.333 -31.667 250.666 -95 315.999l-301 -679c33.333 -16.667 72.333 -25 117 -25z" />
    <glyph glyph-name="ugrave" unicode="&#xf9;" horiz-adv-x="1163" 
d="M500 1248l-331 383h306l188 -383h-163zM581 -21c-142.667 0 -257.5 35.667 -344.5 107s-130.5 176 -130.5 314v699h263v-689c0 -82 17.167 -141.333 51.5 -178s88.833 -55 163.5 -55c73.333 0 126.833 18.167 160.5 54.5s50.5 95.833 50.5 178.5v689h262v-699
c0 -137.333 -43.667 -241.833 -131 -313.5s-202.333 -107.5 -345 -107.5z" />
    <glyph glyph-name="uacute" unicode="&#xfa;" horiz-adv-x="1163" 
d="M504 1248l171 383h299l-315 -383h-155zM581 -21c-142.667 0 -257.5 35.667 -344.5 107s-130.5 176 -130.5 314v699h263v-689c0 -82 17.167 -141.333 51.5 -178s88.833 -55 163.5 -55c73.333 0 126.833 18.167 160.5 54.5s50.5 95.833 50.5 178.5v689h262v-699
c0 -137.333 -43.667 -241.833 -131 -313.5s-202.333 -107.5 -345 -107.5z" />
    <glyph glyph-name="ucircumflex" unicode="&#xfb;" horiz-adv-x="1163" 
d="M227 1248l250 383h208l251 -383h-184l-174 218l-172 -218h-179zM581 -21c-142.667 0 -257.5 35.667 -344.5 107s-130.5 176 -130.5 314v699h263v-689c0 -82 17.167 -141.333 51.5 -178s88.833 -55 163.5 -55c73.333 0 126.833 18.167 160.5 54.5s50.5 95.833 50.5 178.5
v689h262v-699c0 -137.333 -43.667 -241.833 -131 -313.5s-202.333 -107.5 -345 -107.5z" />
    <glyph glyph-name="udieresis" unicode="&#xfc;" horiz-adv-x="1163" 
d="M273 1248v254h195v-254h-195zM694 1248v254h196v-254h-196zM581 -21c-142.667 0 -257.5 35.667 -344.5 107s-130.5 176 -130.5 314v699h263v-689c0 -82 17.167 -141.333 51.5 -178s88.833 -55 163.5 -55c73.333 0 126.833 18.167 160.5 54.5s50.5 95.833 50.5 178.5v689
h262v-699c0 -137.333 -43.667 -241.833 -131 -313.5s-202.333 -107.5 -345 -107.5z" />
    <glyph glyph-name="yacute" unicode="&#xfd;" horiz-adv-x="1116" 
d="M474 1248l171 383h299l-315 -383h-155zM191 -463c-42.667 0 -87.999 2.66699 -135.999 8l-13 203c30.667 -3.33301 69.667 -5 117 -5c60.667 0 109.334 12 146.001 36s67 66.667 91 128c2.66699 6.66699 16 44.334 40 113.001l-442 1079h280l289 -797
c21.333 79.333 69.166 226.666 143.499 441.999l122.5 355h280c-304.667 -805.333 -458.334 -1211.33 -461.001 -1218c-47.333 -123.333 -107 -211.5 -179 -264.5s-164.667 -79.5 -278 -79.5z" />
    <glyph glyph-name="thorn" unicode="&#xfe;" horiz-adv-x="1288" 
d="M160 -431l-0.00195312 1636l-5 293h230v-560c18 26 56.833 54.833 116.5 86.5s129.5 47.5 209.5 47.5c80.667 0 152.834 -14.333 216.501 -43s115.5 -68.167 155.5 -118.5s70.5 -108.5 91.5 -174.5s31.5 -137.667 31.5 -215c0 -59.333 -6 -115.333 -18 -168
s-30.833 -101.834 -56.5 -147.501s-57 -85 -94 -118s-82.167 -59 -135.5 -78s-112 -28.5 -176 -28.5c-48 0 -93.5 5.5 -136.5 16.5s-78.167 24.5 -105.5 40.5s-49.166 30.833 -65.499 44.5s-27.5 25.5 -33.5 35.5v-549h-225zM693.998 176.001
c50 0 93.501 9.49902 130.501 28.499s66.167 45.333 87.5 79s37.166 71.167 47.499 112.5s15.5 86.333 15.5 135s-5.16699 93.5 -15.5 134.5s-26 78.333 -47 112s-50 60 -87 79s-80.167 28.5 -129.5 28.5c-104 0 -182 -32.167 -234 -96.5s-78 -150.166 -78 -257.499
c0 -108.667 25.333 -195 76 -259s128.667 -96 234 -96z" />
    <glyph glyph-name="ydieresis" unicode="&#xff;" horiz-adv-x="1116" 
d="M243 1248v254h195v-254h-195zM664 1248v254h196v-254h-196zM191 -463c-42.667 0 -87.999 2.66699 -135.999 8l-13 203c30.667 -3.33301 69.667 -5 117 -5c60.667 0 109.334 12 146.001 36s67 66.667 91 128c2.66699 6.66699 16 44.334 40 113.001l-442 1079h280l289 -797
c21.333 79.333 69.166 226.666 143.499 441.999l122.5 355h280c-304.667 -805.333 -458.334 -1211.33 -461.001 -1218c-47.333 -123.333 -107 -211.5 -179 -264.5s-164.667 -79.5 -278 -79.5z" />
    <glyph glyph-name="Amacron" unicode="&#x100;" horiz-adv-x="1359" 
d="M336 1608v153h686v-153h-686zM-3 0l539 1466h295l531 -1466h-278l-145 414h-513l-146 -414h-283zM494 616l376 -0.000976562c-120 384.667 -181.667 583.334 -185 596.001z" />
    <glyph glyph-name="amacron" unicode="&#x101;" horiz-adv-x="1142" 
d="M203 1248v153h686v-153h-686zM423 -21c-102 0 -184.501 28.165 -247.501 84.498s-94.5 137.5 -94.5 243.5c0 114 37.333 198.5 112 253.5s187.334 89.833 338.001 104.5c20.667 2.66699 43 5.33398 67 8.00098s51 5.33398 81 8.00098s53.667 5 71 7v58
c0 66.667 -15.333 115.167 -46 145.5s-77.334 45.5 -140.001 45.5c-89.333 0 -199.666 -25 -330.999 -75c-0.666992 2 -11.667 32.333 -33 91s-32.333 88.667 -33 90c129.333 55.333 269.333 83 420 83c148 0 255.667 -32.167 323 -96.5s101 -168.5 101 -312.5v-717h-194
c-0.666992 2.66699 -8 25 -22 67s-21 64.333 -21 67c-54.667 -53.333 -108.167 -92.5 -160.5 -117.5s-115.833 -37.5 -190.5 -37.5zM493.999 164.998c60.667 0 113.5 14.5 158.5 43.5s77.167 64.167 96.5 105.5v212c-2 0 -19.5 -1.33301 -52.5 -4s-50.833 -4 -53.5 -4
c-106 -9.33301 -183.667 -29.333 -233 -60s-74 -80 -74 -148c0 -46.667 13.667 -82.5 41 -107.5s66.333 -37.5 117 -37.5z" />
    <glyph glyph-name="Abreve" unicode="&#x102;" horiz-adv-x="1359" 
d="M680 1608c-88 0 -158.5 21.333 -211.5 64s-79.5 105.334 -79.5 188.001h167c0 -34 9.83301 -58.5 29.5 -73.5s51.167 -22.5 94.5 -22.5s74.833 7.5 94.5 22.5s29.5 39.5 29.5 73.5h167c0 -82.667 -26.5 -145.334 -79.5 -188.001s-123.5 -64 -211.5 -64zM-3 0l539 1466
h295l531 -1466h-278l-145 414h-513l-146 -414h-283zM494 616l376 -0.000976562c-120 384.667 -181.667 583.334 -185 596.001z" />
    <glyph glyph-name="abreve" unicode="&#x103;" horiz-adv-x="1142" 
d="M546 1248c-88 0 -158.5 21.333 -211.5 64s-79.5 105.334 -79.5 188.001h167c0 -34 9.83301 -58.5 29.5 -73.5s51.167 -22.5 94.5 -22.5s74.833 7.5 94.5 22.5s29.5 39.5 29.5 73.5h167c0 -82.667 -26.5 -145.334 -79.5 -188.001s-123.5 -64 -211.5 -64zM423 -21
c-102 0 -184.501 28.165 -247.501 84.498s-94.5 137.5 -94.5 243.5c0 114 37.333 198.5 112 253.5s187.334 89.833 338.001 104.5c20.667 2.66699 43 5.33398 67 8.00098s51 5.33398 81 8.00098s53.667 5 71 7v58c0 66.667 -15.333 115.167 -46 145.5
s-77.334 45.5 -140.001 45.5c-89.333 0 -199.666 -25 -330.999 -75c-0.666992 2 -11.667 32.333 -33 91s-32.333 88.667 -33 90c129.333 55.333 269.333 83 420 83c148 0 255.667 -32.167 323 -96.5s101 -168.5 101 -312.5v-717h-194c-0.666992 2.66699 -8 25 -22 67
s-21 64.333 -21 67c-54.667 -53.333 -108.167 -92.5 -160.5 -117.5s-115.833 -37.5 -190.5 -37.5zM493.999 164.998c60.667 0 113.5 14.5 158.5 43.5s77.167 64.167 96.5 105.5v212c-2 0 -19.5 -1.33301 -52.5 -4s-50.833 -4 -53.5 -4
c-106 -9.33301 -183.667 -29.333 -233 -60s-74 -80 -74 -148c0 -46.667 13.667 -82.5 41 -107.5s66.333 -37.5 117 -37.5z" />
    <glyph glyph-name="Aogonek" unicode="&#x104;" horiz-adv-x="1359" 
d="M1172 -412c-60 0 -109.5 14.6689 -148.5 44.002s-58.5 72 -58.5 128c0 97.333 63.667 182 191 254h108c-82.667 -61.333 -124 -127.666 -124 -198.999c0 -22.667 7.5 -42.834 22.5 -60.501s34.833 -26.5 59.5 -26.5c9.33301 0 19.5 0.833008 30.5 2.5s21 3.66699 30 6
s18.5 5.16602 28.5 8.49902s18 6.16602 24 8.49902l18.5 7.5c6.33301 2.66699 9.83301 4 10.5 4v-140c-63.333 -24.667 -127.333 -37 -192 -37zM-3 0.00195312l539 1466h295l531 -1466h-278l-145 414h-513l-146 -414h-283zM494 616.002l376 -0.000976562
c-120 384.667 -181.667 583.334 -185 596.001z" />
    <glyph glyph-name="aogonek" unicode="&#x105;" horiz-adv-x="1142" 
d="M862 -423c-60 0 -109.5 14.6689 -148.5 44.002s-58.5 72 -58.5 128c0 97.333 63.667 182 191 254h108c-82.667 -61.333 -124 -127.666 -124 -198.999c0 -22.667 7.5 -42.834 22.5 -60.501s34.833 -26.5 59.5 -26.5c9.33301 0 19.5 0.833008 30.5 2.5s21 3.66699 30 6
s18.5 5.16602 28.5 8.49902s18 6.16602 24 8.49902l18.5 7.5c6.33301 2.66699 9.83301 4 10.5 4v-140c-63.333 -24.667 -127.333 -37 -192 -37zM423 -20.998c-102 0 -184.501 28.165 -247.501 84.498s-94.5 137.5 -94.5 243.5c0 114 37.333 198.5 112 253.5
s187.334 89.833 338.001 104.5c20.667 2.66699 43 5.33398 67 8.00098s51 5.33398 81 8.00098s53.667 5 71 7v58c0 66.667 -15.333 115.167 -46 145.5s-77.334 45.5 -140.001 45.5c-89.333 0 -199.666 -25 -330.999 -75c-0.666992 2 -11.667 32.333 -33 91
s-32.333 88.667 -33 90c129.333 55.333 269.333 83 420 83c148 0 255.667 -32.167 323 -96.5s101 -168.5 101 -312.5v-717h-194c-0.666992 2.66699 -8 25 -22 67s-21 64.333 -21 67c-54.667 -53.333 -108.167 -92.5 -160.5 -117.5s-115.833 -37.5 -190.5 -37.5zM493.999 165
c60.667 0 113.5 14.5 158.5 43.5s77.167 64.167 96.5 105.5v212c-2 0 -19.5 -1.33301 -52.5 -4s-50.833 -4 -53.5 -4c-106 -9.33301 -183.667 -29.333 -233 -60s-74 -80 -74 -148c0 -46.667 13.667 -82.5 41 -107.5s66.333 -37.5 117 -37.5z" />
    <glyph glyph-name="Cacute" unicode="&#x106;" horiz-adv-x="1301" 
d="M595 1608l171 383h299l-315 -383h-155zM797 -21c-214 0 -383.668 67.334 -509.001 202.001s-188 320.667 -188 558c0 225.333 65.5 406.166 196.5 542.499s302.5 204.5 514.5 204.5c171.333 0 316.333 -39.667 435 -119l-85 -205c-114 70 -228.667 105 -344 105
c-134.667 0 -241.167 -48.5 -319.5 -145.5s-117.5 -227.167 -117.5 -390.5c0 -169.333 37.833 -300.333 113.5 -393s183.5 -139 323.5 -139c122.667 0 244.334 30.667 365.001 92l36 -212c-112 -66.667 -252.333 -100 -421 -100z" />
    <glyph glyph-name="cacute" unicode="&#x107;" horiz-adv-x="1008" 
d="M435 1248l171 383h299l-315 -383h-155zM614 -21c-168 0 -298.834 49.999 -392.501 149.999s-140.5 243 -140.5 429c0 180 49.167 319.667 147.5 419s227.833 149 388.5 149c128.667 0 237.334 -27.667 326.001 -83l-62 -187c-90.667 47.333 -175 71 -253 71
c-88.667 0 -158.5 -31.667 -209.5 -95s-76.5 -155.666 -76.5 -276.999c0 -122.667 25.167 -216 75.5 -280s121.5 -96 213.5 -96c96 0 188.333 28.333 277 85l25 -199c-46 -30.667 -93.667 -52.667 -143 -66s-108 -20 -176 -20z" />
    <glyph glyph-name="Ccircumflex" unicode="&#x108;" horiz-adv-x="1301" 
d="M319 1608l250 383h208l251 -383h-184l-174 218l-172 -218h-179zM797 -21c-214 0 -383.668 67.334 -509.001 202.001s-188 320.667 -188 558c0 225.333 65.5 406.166 196.5 542.499s302.5 204.5 514.5 204.5c171.333 0 316.333 -39.667 435 -119l-85 -205
c-114 70 -228.667 105 -344 105c-134.667 0 -241.167 -48.5 -319.5 -145.5s-117.5 -227.167 -117.5 -390.5c0 -169.333 37.833 -300.333 113.5 -393s183.5 -139 323.5 -139c122.667 0 244.334 30.667 365.001 92l36 -212c-112 -66.667 -252.333 -100 -421 -100z" />
    <glyph glyph-name="ccircumflex" unicode="&#x109;" horiz-adv-x="1008" 
d="M157 1248l250 383h208l251 -383h-184l-174 218l-172 -218h-179zM614 -21c-168 0 -298.834 49.999 -392.501 149.999s-140.5 243 -140.5 429c0 180 49.167 319.667 147.5 419s227.833 149 388.5 149c128.667 0 237.334 -27.667 326.001 -83l-62 -187
c-90.667 47.333 -175 71 -253 71c-88.667 0 -158.5 -31.667 -209.5 -95s-76.5 -155.666 -76.5 -276.999c0 -122.667 25.167 -216 75.5 -280s121.5 -96 213.5 -96c96 0 188.333 28.333 277 85l25 -199c-46 -30.667 -93.667 -52.667 -143 -66s-108 -20 -176 -20z" />
    <glyph glyph-name="Cdotaccent" unicode="&#x10a;" horiz-adv-x="1301" 
d="M573 1608v216h201v-216h-201zM797 -21c-214 0 -383.668 67.334 -509.001 202.001s-188 320.667 -188 558c0 225.333 65.5 406.166 196.5 542.499s302.5 204.5 514.5 204.5c171.333 0 316.333 -39.667 435 -119l-85 -205c-114 70 -228.667 105 -344 105
c-134.667 0 -241.167 -48.5 -319.5 -145.5s-117.5 -227.167 -117.5 -390.5c0 -169.333 37.833 -300.333 113.5 -393s183.5 -139 323.5 -139c122.667 0 244.334 30.667 365.001 92l36 -212c-112 -66.667 -252.333 -100 -421 -100z" />
    <glyph glyph-name="cdotaccent" unicode="&#x10b;" horiz-adv-x="1008" 
d="M411 1248v216h201v-216h-201zM614 -21c-168 0 -298.834 49.999 -392.501 149.999s-140.5 243 -140.5 429c0 180 49.167 319.667 147.5 419s227.833 149 388.5 149c128.667 0 237.334 -27.667 326.001 -83l-62 -187c-90.667 47.333 -175 71 -253 71
c-88.667 0 -158.5 -31.667 -209.5 -95s-76.5 -155.666 -76.5 -276.999c0 -122.667 25.167 -216 75.5 -280s121.5 -96 213.5 -96c96 0 188.333 28.333 277 85l25 -199c-46 -30.667 -93.667 -52.667 -143 -66s-108 -20 -176 -20z" />
    <glyph glyph-name="Ccaron" unicode="&#x10c;" horiz-adv-x="1301" 
d="M572 1608l-262 353h198l161 -196l164 196h203l-262 -353h-202zM797 -21c-214 0 -383.668 67.334 -509.001 202.001s-188 320.667 -188 558c0 225.333 65.5 406.166 196.5 542.499s302.5 204.5 514.5 204.5c171.333 0 316.333 -39.667 435 -119l-85 -205
c-114 70 -228.667 105 -344 105c-134.667 0 -241.167 -48.5 -319.5 -145.5s-117.5 -227.167 -117.5 -390.5c0 -169.333 37.833 -300.333 113.5 -393s183.5 -139 323.5 -139c122.667 0 244.334 30.667 365.001 92l36 -212c-112 -66.667 -252.333 -100 -421 -100z" />
    <glyph glyph-name="ccaron" unicode="&#x10d;" horiz-adv-x="1008" 
d="M411 1248l-262 353h198l161 -196l164 196h203l-262 -353h-202zM614 -21c-168 0 -298.834 49.999 -392.501 149.999s-140.5 243 -140.5 429c0 180 49.167 319.667 147.5 419s227.833 149 388.5 149c128.667 0 237.334 -27.667 326.001 -83l-62 -187
c-90.667 47.333 -175 71 -253 71c-88.667 0 -158.5 -31.667 -209.5 -95s-76.5 -155.666 -76.5 -276.999c0 -122.667 25.167 -216 75.5 -280s121.5 -96 213.5 -96c96 0 188.333 28.333 277 85l25 -199c-46 -30.667 -93.667 -52.667 -143 -66s-108 -20 -176 -20z" />
    <glyph glyph-name="Dcaron" unicode="&#x10e;" horiz-adv-x="1514" 
d="M686 1608l-262 353h198l161 -196l164 196h203l-262 -353h-202zM430 217h194.001c167.333 0 294.666 43.833 381.999 131.5s131 215.5 131 383.5c0 180 -45 310.833 -135 392.5s-225.667 122.5 -407 122.5h-165v-1030zM159.001 0l0.000976562 1465h424
c128 0 242.667 -14.667 344 -44s188.5 -73.5 261.5 -132.5s129 -135 168 -228s58.5 -200.5 58.5 -322.5c0 -236.667 -71.333 -418.834 -214 -546.501s-340.334 -191.5 -593.001 -191.5h-449z" />
    <glyph glyph-name="dcroat" unicode="&#x111;" horiz-adv-x="1235" 
d="M554 -21c-100 1.33301 -187.334 27.833 -262.001 79.5s-131 121 -169 208s-57 186.167 -57 297.5c0 77.333 11 150.333 33 219s53 129.167 93 181.5s91 93.833 153 124.5s130.333 46 205 46c82 0 150.333 -16 205 -48s94.334 -72 119.001 -120v242h-285v142h285v146
l255 18v-164h106v-142h-106v-1209h-245l-10 155c-30 -53.333 -72 -96 -126 -128s-118.667 -48 -194 -48zM595.999 173c85.333 0 153.667 30.833 205 92.5s77 157.834 77 288.501c0 129.333 -26 226.166 -78 290.499s-120 96.5 -204 96.5c-82 0 -149.667 -32 -203 -96
s-80 -160.667 -80 -290c0 -126.667 26.5 -222 79.5 -286s120.833 -96 203.5 -96z" />
    <glyph glyph-name="Emacron" unicode="&#x112;" 
d="M264 1608v153h686v-153h-686zM158 0v1465h888l-11 -215h-606v-378h576v-215h-576v-441h628l-9 -216h-890z" />
    <glyph glyph-name="emacron" unicode="&#x113;" horiz-adv-x="1157" 
d="M236 1248v153h686v-153h-686zM641 -21c-176.667 0 -314.168 50.833 -412.501 152.5s-147.5 242.167 -147.5 421.5c0 174.667 46.333 313.667 139 417s219 155.333 379 156c151.333 0 268.833 -47.333 352.5 -142s125.5 -220.334 125.5 -377.001
c0 -11.333 -0.166992 -29.666 -0.5 -54.999s-0.5 -44 -0.5 -56h-731c2.66699 -102.667 30.834 -182.167 84.501 -238.5s127.5 -84.5 221.5 -84.5c120 0 235.333 31.333 346 94l37 -186c-110 -68 -241 -102 -393 -102zM349.999 661h479.999c0 89.333 -20.333 158 -61 206
s-97 72 -169 72c-67.333 0 -124.166 -23.333 -170.499 -70s-72.833 -116 -79.5 -208z" />
    <glyph glyph-name="Edotaccent" unicode="&#x116;" 
d="M507 1608v216h201v-216h-201zM158 0v1465h888l-11 -215h-606v-378h576v-215h-576v-441h628l-9 -216h-890z" />
    <glyph glyph-name="edotaccent" unicode="&#x117;" horiz-adv-x="1157" 
d="M479 1248v216h201v-216h-201zM641 -21c-176.667 0 -314.168 50.833 -412.501 152.5s-147.5 242.167 -147.5 421.5c0 174.667 46.333 313.667 139 417s219 155.333 379 156c151.333 0 268.833 -47.333 352.5 -142s125.5 -220.334 125.5 -377.001
c0 -11.333 -0.166992 -29.666 -0.5 -54.999s-0.5 -44 -0.5 -56h-731c2.66699 -102.667 30.834 -182.167 84.501 -238.5s127.5 -84.5 221.5 -84.5c120 0 235.333 31.333 346 94l37 -186c-110 -68 -241 -102 -393 -102zM349.999 661h479.999c0 89.333 -20.333 158 -61 206
s-97 72 -169 72c-67.333 0 -124.166 -23.333 -170.499 -70s-72.833 -116 -79.5 -208z" />
    <glyph glyph-name="Eogonek" unicode="&#x118;" 
d="M623 -412c-60 0 -109.5 14.6689 -148.5 44.002s-58.5 72 -58.5 128c0 97.333 63.667 182 191 254h108c-82.667 -61.333 -124 -127.666 -124 -198.999c0 -22.667 7.5 -42.834 22.5 -60.501s34.833 -26.5 59.5 -26.5c9.33301 0 19.5 0.833008 30.5 2.5s21 3.66699 30 6
s18.5 5.16602 28.5 8.49902s18 6.16602 24 8.49902l18.5 7.5c6.33301 2.66699 9.83301 4 10.5 4v-140c-63.333 -24.667 -127.333 -37 -192 -37zM158 0.00195312v1465h888l-11 -215h-606v-378h576v-215h-576v-441h628l-9 -216h-890z" />
    <glyph glyph-name="eogonek" unicode="&#x119;" horiz-adv-x="1157" 
d="M703 -433c-60 0 -109.5 14.6689 -148.5 44.002s-58.5 72 -58.5 128c0 97.333 63.667 182 191 254h108c-82.667 -61.333 -124 -127.666 -124 -198.999c0 -22.667 7.5 -42.834 22.5 -60.501s34.833 -26.5 59.5 -26.5c9.33301 0 19.5 0.833008 30.5 2.5s21 3.66699 30 6
s18.5 5.16602 28.5 8.49902s18 6.16602 24 8.49902l18.5 7.5c6.33301 2.66699 9.83301 4 10.5 4v-140c-63.333 -24.667 -127.333 -37 -192 -37zM641 -20.998c-176.667 0 -314.168 50.833 -412.501 152.5s-147.5 242.167 -147.5 421.5c0 174.667 46.333 313.667 139 417
s219 155.333 379 156c151.333 0 268.833 -47.333 352.5 -142s125.5 -220.334 125.5 -377.001c0 -11.333 -0.166992 -29.666 -0.5 -54.999s-0.5 -44 -0.5 -56h-731c2.66699 -102.667 30.834 -182.167 84.501 -238.5s127.5 -84.5 221.5 -84.5c120 0 235.333 31.333 346 94
l37 -186c-110 -68 -241 -102 -393 -102zM349.999 661.002h479.999c0 89.333 -20.333 158 -61 206s-97 72 -169 72c-67.333 0 -124.166 -23.333 -170.499 -70s-72.833 -116 -79.5 -208z" />
    <glyph glyph-name="Ecaron" unicode="&#x11a;" 
d="M506 1608l-262 353h198l161 -196l164 196h203l-262 -353h-202zM158 0v1465h888l-11 -215h-606v-378h576v-215h-576v-441h628l-9 -216h-890z" />
    <glyph glyph-name="ecaron" unicode="&#x11b;" horiz-adv-x="1157" 
d="M478 1248l-262 353h198l161 -196l164 196h203l-262 -353h-202zM641 -21c-176.667 0 -314.168 50.833 -412.501 152.5s-147.5 242.167 -147.5 421.5c0 174.667 46.333 313.667 139 417s219 155.333 379 156c151.333 0 268.833 -47.333 352.5 -142
s125.5 -220.334 125.5 -377.001c0 -11.333 -0.166992 -29.666 -0.5 -54.999s-0.5 -44 -0.5 -56h-731c2.66699 -102.667 30.834 -182.167 84.501 -238.5s127.5 -84.5 221.5 -84.5c120 0 235.333 31.333 346 94l37 -186c-110 -68 -241 -102 -393 -102zM349.999 661h479.999
c0 89.333 -20.333 158 -61 206s-97 72 -169 72c-67.333 0 -124.166 -23.333 -170.499 -70s-72.833 -116 -79.5 -208z" />
    <glyph glyph-name="Gcircumflex" unicode="&#x11c;" horiz-adv-x="1466" 
d="M362 1608l250 383h208l251 -383h-184l-174 218l-172 -218h-179zM812 -21c-223.333 0 -397.832 67.333 -523.499 202s-188.5 319 -188.5 553c0 148.667 29.333 279.5 88 392.5s145 201.167 259 264.5s248.667 95 404 95c178 0 330.667 -38.333 458 -115l-88 -202
c-121.333 65.333 -243 98 -365 98c-148 0 -264.333 -48 -349 -144s-127 -226.667 -127 -392c0 -164 37.667 -293.667 113 -389s185.666 -143 330.999 -143c93.333 0 178 14.667 254 44v340h-307l2 213h560v-707c-90.667 -37.333 -176.5 -65 -257.5 -83
s-168.833 -27 -263.5 -27z" />
    <glyph glyph-name="gcircumflex" unicode="&#x11d;" horiz-adv-x="1267" 
d="M254 1248l250 383h208l251 -383h-184l-174 218l-172 -218h-179zM353 -492l-14.999 212.002h133c154 0 261.667 20.5 323 61.5s92 116.167 92 225.5c0 44.667 -2 93 -6 145c-17.333 -24 -33.833 -43.833 -49.5 -59.5s-35.334 -31.167 -59.001 -46.5s-52 -26.833 -85 -34.5
s-70.5 -11.5 -112.5 -11.5c-145.333 0 -264.833 52.333 -358.5 157s-140.5 239.667 -140.5 405c0 88 13 168.167 39 240.5s61.333 131.833 106 178.5s96.167 82.5 154.5 107.5s120.5 37.5 186.5 37.5c147.333 0 257 -53.667 329 -161l18 134h234v-1021
c0 -54.667 -2.66699 -103.834 -8 -147.501s-14.666 -85.667 -27.999 -126s-30.833 -75.5 -52.5 -105.5s-48.834 -57.333 -81.501 -82s-71.167 -44.834 -115.5 -60.501s-95.833 -27.667 -154.5 -36s-124.667 -12.5 -198 -12.5h-151zM616.001 183.002
c180.667 0 271.999 121 273.999 363v38c-1.33301 108.667 -24 192.667 -68 252s-108.333 89.333 -193 90c-96 0 -168.667 -32.833 -218 -98.5s-74 -154.167 -74 -265.5c0 -107.333 24.833 -197.333 74.5 -270s117.834 -109 204.501 -109z" />
    <glyph glyph-name="Gbreve" unicode="&#x11e;" horiz-adv-x="1466" 
d="M716 1608c-88 0 -158.5 21.333 -211.5 64s-79.5 105.334 -79.5 188.001h167c0 -34 9.83301 -58.5 29.5 -73.5s51.167 -22.5 94.5 -22.5s74.833 7.5 94.5 22.5s29.5 39.5 29.5 73.5h167c0 -82.667 -26.5 -145.334 -79.5 -188.001s-123.5 -64 -211.5 -64zM812 -21
c-223.333 0 -397.832 67.333 -523.499 202s-188.5 319 -188.5 553c0 148.667 29.333 279.5 88 392.5s145 201.167 259 264.5s248.667 95 404 95c178 0 330.667 -38.333 458 -115l-88 -202c-121.333 65.333 -243 98 -365 98c-148 0 -264.333 -48 -349 -144
s-127 -226.667 -127 -392c0 -164 37.667 -293.667 113 -389s185.666 -143 330.999 -143c93.333 0 178 14.667 254 44v340h-307l2 213h560v-707c-90.667 -37.333 -176.5 -65 -257.5 -83s-168.833 -27 -263.5 -27z" />
    <glyph glyph-name="gbreve" unicode="&#x11f;" horiz-adv-x="1267" 
d="M608 1248c-88 0 -158.5 21.333 -211.5 64s-79.5 105.334 -79.5 188.001h167c0 -34 9.83301 -58.5 29.5 -73.5s51.167 -22.5 94.5 -22.5s74.833 7.5 94.5 22.5s29.5 39.5 29.5 73.5h167c0 -82.667 -26.5 -145.334 -79.5 -188.001s-123.5 -64 -211.5 -64zM353 -492
l-14.999 212.002h133c154 0 261.667 20.5 323 61.5s92 116.167 92 225.5c0 44.667 -2 93 -6 145c-17.333 -24 -33.833 -43.833 -49.5 -59.5s-35.334 -31.167 -59.001 -46.5s-52 -26.833 -85 -34.5s-70.5 -11.5 -112.5 -11.5c-145.333 0 -264.833 52.333 -358.5 157
s-140.5 239.667 -140.5 405c0 88 13 168.167 39 240.5s61.333 131.833 106 178.5s96.167 82.5 154.5 107.5s120.5 37.5 186.5 37.5c147.333 0 257 -53.667 329 -161l18 134h234v-1021c0 -54.667 -2.66699 -103.834 -8 -147.501s-14.666 -85.667 -27.999 -126
s-30.833 -75.5 -52.5 -105.5s-48.834 -57.333 -81.501 -82s-71.167 -44.834 -115.5 -60.501s-95.833 -27.667 -154.5 -36s-124.667 -12.5 -198 -12.5h-151zM616.001 183.002c180.667 0 271.999 121 273.999 363v38c-1.33301 108.667 -24 192.667 -68 252
s-108.333 89.333 -193 90c-96 0 -168.667 -32.833 -218 -98.5s-74 -154.167 -74 -265.5c0 -107.333 24.833 -197.333 74.5 -270s117.834 -109 204.501 -109z" />
    <glyph glyph-name="Gdotaccent" unicode="&#x120;" horiz-adv-x="1466" 
d="M616 1608v216h201v-216h-201zM812 -21c-223.333 0 -397.832 67.333 -523.499 202s-188.5 319 -188.5 553c0 148.667 29.333 279.5 88 392.5s145 201.167 259 264.5s248.667 95 404 95c178 0 330.667 -38.333 458 -115l-88 -202c-121.333 65.333 -243 98 -365 98
c-148 0 -264.333 -48 -349 -144s-127 -226.667 -127 -392c0 -164 37.667 -293.667 113 -389s185.666 -143 330.999 -143c93.333 0 178 14.667 254 44v340h-307l2 213h560v-707c-90.667 -37.333 -176.5 -65 -257.5 -83s-168.833 -27 -263.5 -27z" />
    <glyph glyph-name="gdotaccent" unicode="&#x121;" horiz-adv-x="1267" 
d="M508 1248v216h201v-216h-201zM353 -492l-14.999 212.002h133c154 0 261.667 20.5 323 61.5s92 116.167 92 225.5c0 44.667 -2 93 -6 145c-17.333 -24 -33.833 -43.833 -49.5 -59.5s-35.334 -31.167 -59.001 -46.5s-52 -26.833 -85 -34.5s-70.5 -11.5 -112.5 -11.5
c-145.333 0 -264.833 52.333 -358.5 157s-140.5 239.667 -140.5 405c0 88 13 168.167 39 240.5s61.333 131.833 106 178.5s96.167 82.5 154.5 107.5s120.5 37.5 186.5 37.5c147.333 0 257 -53.667 329 -161l18 134h234v-1021c0 -54.667 -2.66699 -103.834 -8 -147.501
s-14.666 -85.667 -27.999 -126s-30.833 -75.5 -52.5 -105.5s-48.834 -57.333 -81.501 -82s-71.167 -44.834 -115.5 -60.501s-95.833 -27.667 -154.5 -36s-124.667 -12.5 -198 -12.5h-151zM616.001 183.002c180.667 0 271.999 121 273.999 363v38
c-1.33301 108.667 -24 192.667 -68 252s-108.333 89.333 -193 90c-96 0 -168.667 -32.833 -218 -98.5s-74 -154.167 -74 -265.5c0 -107.333 24.833 -197.333 74.5 -270s117.834 -109 204.501 -109z" />
    <glyph glyph-name="Gcommaaccent" unicode="&#x122;" horiz-adv-x="1466" 
d="M576 -641l95 498h185l-144 -498h-136zM812 -21c-223.333 0 -397.832 67.333 -523.499 202s-188.5 319 -188.5 553c0 148.667 29.333 279.5 88 392.5s145 201.167 259 264.5s248.667 95 404 95c178 0 330.667 -38.333 458 -115l-88 -202c-121.333 65.333 -243 98 -365 98
c-148 0 -264.333 -48 -349 -144s-127 -226.667 -127 -392c0 -164 37.667 -293.667 113 -389s185.666 -143 330.999 -143c93.333 0 178 14.667 254 44v340h-307l2 213h560v-707c-90.667 -37.333 -176.5 -65 -257.5 -83s-168.833 -27 -263.5 -27z" />
    <glyph glyph-name="gcommaaccent" unicode="&#x123;" horiz-adv-x="1268" 
d="M353 -492l-14.999 212.002h133c154 0 261.667 20.5 323 61.5s92 116.167 92 225.5c0 44.667 -2 93 -6 145c-17.333 -24 -33.833 -43.833 -49.5 -59.5s-35.334 -31.167 -59.001 -46.5s-52 -26.833 -85 -34.5s-70.5 -11.5 -112.5 -11.5
c-145.333 0 -264.833 52.333 -358.5 157s-140.5 239.667 -140.5 405c0 88 13 168.167 39 240.5s61.333 131.833 106 178.5s96.167 82.5 154.5 107.5s120.5 37.5 186.5 37.5c147.333 0 257 -53.667 329 -161l18 134h234v-1021c0 -54.667 -2.66699 -103.834 -8 -147.501
s-14.666 -85.667 -27.999 -126s-30.833 -75.5 -52.5 -105.5s-48.834 -57.333 -81.501 -82s-71.167 -44.834 -115.5 -60.501s-95.833 -27.667 -154.5 -36s-124.667 -12.5 -198 -12.5h-151zM616.001 183.002c180.667 0 271.999 121 273.999 363v38
c-1.33301 108.667 -24 192.667 -68 252s-108.333 89.333 -193 90c-96 0 -168.667 -32.833 -218 -98.5s-74 -154.167 -74 -265.5c0 -107.333 24.833 -197.333 74.5 -270s117.834 -109 204.501 -109zM445 1213l165 517h165l-109 -517h-221z" />
    <glyph glyph-name="Hcircumflex" unicode="&#x124;" horiz-adv-x="1520" 
d="M405 1608l250 383h208l251 -383h-184l-174 218l-172 -218h-179zM158 0v1465h271v-599h662v599h271v-1465h-271v652h-662v-652h-271z" />
    <glyph glyph-name="hcircumflex" unicode="&#x125;" horiz-adv-x="1253" 
d="M276 1643l250 383h208l251 -383h-184l-174 218l-172 -218h-179zM133 0l0.000976562 1504l262 17v-317c0 -15.333 -1 -57.833 -3 -127.5s-3 -105.167 -3 -106.5c87.333 104 204.666 156 351.999 156c122.667 0 217.834 -35.167 285.501 -105.5s101.5 -178.5 101.5 -324.5
v-696h-262v667c0 90 -14.333 156 -43 198s-77.334 63 -146.001 63c-58.667 0 -110.667 -14.833 -156 -44.5s-79.333 -67.834 -102 -114.501c-16 -61.333 -24 -141.333 -24 -240v-529h-262z" />
    <glyph glyph-name="Hbar" unicode="&#x126;" horiz-adv-x="1491" 
d="M131 0v1178h-86v132h86v148h267v-148h697v148h268v-148h86v-132h-86v-1178h-268v658h-697v-658h-267zM398 853h697v325h-697v-325z" />
    <glyph glyph-name="hbar" unicode="&#x127;" horiz-adv-x="1189" 
d="M107 0l0.000976562 1225h-102v136h102v135l254 19v-154h298v-136h-298v-252c92.667 98 212.667 147 360 147c54.667 0 104 -8.16699 148 -24.5s83.167 -41.833 117.5 -76.5s60.833 -81.667 79.5 -141s28 -129.666 28 -210.999v-667h-254v654c0 98 -12.333 168 -37 210
s-72.334 63 -143.001 63c-64 0 -123.333 -17.667 -178 -53s-95 -78.333 -121 -129v-745h-254z" />
    <glyph glyph-name="Itilde" unicode="&#x128;" horiz-adv-x="602" 
d="M-43 1608c0 24 0.833984 45.668 2.50098 65.001s6 40.333 13 63s16.5 41.667 28.5 57s28.833 28.166 50.5 38.499s47.5 15.5 77.5 15.5c38.667 0 81.667 -7 129 -21s88.666 -28 123.999 -42s58 -21 68 -21c31.333 0 47 28 47 84h147c0 -23.333 -0.666992 -44 -2 -62
s-5.33301 -38.833 -12 -62.5s-15.5 -43.167 -26.5 -58.5s-27.333 -28.5 -49 -39.5s-47.167 -16.5 -76.5 -16.5c-39.333 0 -98.666 15 -177.999 45s-129 45 -149 45c-32.667 0 -49.334 -30 -50.001 -90h-144zM165.001 0.000976562v1465h271v-1465h-271z" />
    <glyph glyph-name="itilde" unicode="&#x129;" horiz-adv-x="548" 
d="M-87 1248c0 24 0.833984 45.668 2.50098 65.001s6 40.333 13 63s16.5 41.667 28.5 57s28.833 28.166 50.5 38.499s47.5 15.5 77.5 15.5c38.667 0 81.667 -7 129 -21s88.666 -28 123.999 -42s58 -21 68 -21c31.333 0 47 28 47 84h147c0 -23.333 -0.666992 -44 -2 -62
s-5.33301 -38.833 -12 -62.5s-15.5 -43.167 -26.5 -58.5s-27.333 -28.5 -49 -39.5s-47.167 -16.5 -76.5 -16.5c-39.333 0 -98.666 15 -177.999 45s-129 45 -149 45c-32.667 0 -49.334 -30 -50.001 -90h-144zM129.001 0.000976562v1098h255v-1098h-255z" />
    <glyph glyph-name="Imacron" unicode="&#x12a;" horiz-adv-x="602" 
d="M-42 1608v153h686v-153h-686zM165 0v1465h271v-1465h-271z" />
    <glyph glyph-name="imacron" unicode="&#x12b;" horiz-adv-x="548" 
d="M-86 1248v153h686v-153h-686zM129 0v1098h255v-1098h-255z" />
    <glyph glyph-name="Ibreve" unicode="&#x12c;" horiz-adv-x="602" 
d="M300 1608c-88 0 -158.5 21.333 -211.5 64s-79.5 105.334 -79.5 188.001h167c0 -34 9.83301 -58.5 29.5 -73.5s51.167 -22.5 94.5 -22.5s74.833 7.5 94.5 22.5s29.5 39.5 29.5 73.5h167c0 -82.667 -26.5 -145.334 -79.5 -188.001s-123.5 -64 -211.5 -64zM165 0v1465h271
v-1465h-271z" />
    <glyph glyph-name="ibreve" unicode="&#x12d;" horiz-adv-x="548" 
d="M256 1248c-88 0 -158.5 21.333 -211.5 64s-79.5 105.334 -79.5 188.001h167c0 -34 9.83301 -58.5 29.5 -73.5s51.167 -22.5 94.5 -22.5s74.833 7.5 94.5 22.5s29.5 39.5 29.5 73.5h167c0 -82.667 -26.5 -145.334 -79.5 -188.001s-123.5 -64 -211.5 -64zM129 0v1098h255
v-1098h-255z" />
    <glyph glyph-name="Iogonek" unicode="&#x12e;" horiz-adv-x="602" 
d="M263 -412c-60 0 -109.5 14.6689 -148.5 44.002s-58.5 72 -58.5 128c0 97.333 63.667 182 191 254h108c-82.667 -61.333 -124 -127.666 -124 -198.999c0 -22.667 7.5 -42.834 22.5 -60.501s34.833 -26.5 59.5 -26.5c9.33301 0 19.5 0.833008 30.5 2.5s21 3.66699 30 6
s18.5 5.16602 28.5 8.49902s18 6.16602 24 8.49902l18.5 7.5c6.33301 2.66699 9.83301 4 10.5 4v-140c-63.333 -24.667 -127.333 -37 -192 -37zM165 0.00195312v1465h271v-1465h-271z" />
    <glyph glyph-name="iogonek" unicode="&#x12f;" horiz-adv-x="541" 
d="M233 -412c-60 0 -109.5 14.6689 -148.5 44.002s-58.5 72 -58.5 128c0 97.333 63.667 182 191 254h108c-82.667 -61.333 -124 -127.666 -124 -198.999c0 -22.667 7.5 -42.834 22.5 -60.501s34.833 -26.5 59.5 -26.5c9.33301 0 19.5 0.833008 30.5 2.5s21 3.66699 30 6
s18.5 5.16602 28.5 8.49902s18 6.16602 24 8.49902l18.5 7.5c6.33301 2.66699 9.83301 4 10.5 4v-140c-63.333 -24.667 -127.333 -37 -192 -37zM139 0.00195312v1099h262v-1099h-262zM139 1259v224h263v-224h-263z" />
    <glyph glyph-name="Idotaccent" unicode="&#x130;" horiz-adv-x="602" 
d="M200 1588v216h201v-216h-201zM165 0v1465h271v-1465h-271z" />
    <glyph glyph-name="dotlessi" unicode="&#x131;" horiz-adv-x="548" 
d="M129 0v1098h255v-1098h-255z" />
    <glyph glyph-name="IJ" unicode="&#x132;" horiz-adv-x="1235" 
d="M529 -321l-10.999 213c32 -5.33301 67 -8 105 -8c74 0 124 19 150 57s39 100.667 39 188v1340h272v-1322c0 -84 -7.5 -154.833 -22.5 -212.5s-40.333 -106.667 -76 -147s-83 -69.833 -142 -88.5s-132.167 -28 -219.5 -28c-36.667 0 -68.334 2.66699 -95.001 8zM165.001 0
v1465h271v-1465h-271z" />
    <glyph glyph-name="ij" unicode="&#x133;" horiz-adv-x="1060" 
d="M485 -427l-28.999 194h58c33.333 0 60.666 2.5 81.999 7.5s39 12 53 21s24.333 22.833 31 41.5s11.167 38.834 13.5 60.501s3.5 50.5 3.5 86.5v1115h262v-1073c0 -54.667 -2.16699 -101.667 -6.5 -141s-12.166 -76.833 -23.499 -112.5s-26.833 -65.167 -46.5 -88.5
s-44.834 -43.833 -75.501 -61.5s-67.667 -30.334 -111 -38.001s-94 -11.5 -152 -11.5h-59zM697.001 1259v224h262v-224h-262zM139.001 0v1099h262v-1099h-262zM139.001 1259v224h263v-224h-263z" />
    <glyph glyph-name="Jcircumflex" unicode="&#x134;" horiz-adv-x="633" 
d="M-9 1608l250 383h208l251 -383h-184l-174 218l-172 -218h-179zM-73 -321l-10.999 213c32 -5.33301 67 -8 105 -8c74 0 124 19 150 57s39 100.667 39 188v1340h272v-1322c0 -84 -7.5 -154.833 -22.5 -212.5s-40.333 -106.667 -76 -147s-83 -69.833 -142 -88.5
s-132.167 -28 -219.5 -28c-36.667 0 -68.334 2.66699 -95.001 8z" />
    <glyph glyph-name="jcircumflex" unicode="&#x135;" horiz-adv-x="527" 
d="M-75 1248l250 383h208l251 -383h-184l-174 218l-172 -218h-179zM-38 -364l-4.99902 196.998h35c41.333 0 73.833 3.33301 97.5 10s41.834 19.667 54.501 39s20.667 41.333 24 66s5 60.334 5 107.001v1034h237v-991c0 -83.333 -5.66699 -152.166 -17 -206.499
s-31.833 -101.5 -61.5 -141.5s-71.334 -69 -125.001 -87s-121.834 -27 -204.501 -27h-40z" />
    <glyph glyph-name="Kcommaaccent" unicode="&#x136;" horiz-adv-x="1348" 
d="M617 -620l95 498h185l-144 -498h-136zM157 0l0.000976562 1465h272v-660c47.333 62.667 144.166 179.667 290.499 351l261.5 309h321l-554 -659l589 -806h-318l-478 657l-112 -94v-563h-272z" />
    <glyph glyph-name="kcommaaccent" unicode="&#x137;" horiz-adv-x="1173" 
d="M528 -620l95 498h185l-144 -498h-136zM133 0v1504l262 17v-675l-6 -222l20.5 20l21.5 21c36.667 43.333 76.5 88 119.5 134l163 169l128.5 131h312l-452 -468l481 -631h-317l-362 499l-109 -86v-413h-262z" />
    <glyph glyph-name="kgreenlandic" unicode="&#x138;" horiz-adv-x="1124" 
d="M115 0v1100h249v-466l429 466h313l-459 -504c19.333 -18 107.333 -121 264 -309s236.667 -283.667 240 -287h-315l-408 494l-64 -36v-458h-249z" />
    <glyph glyph-name="Lacute" unicode="&#x139;" horiz-adv-x="1071" 
d="M523 1608l171 383h299l-315 -383h-155zM158 0v1465h271v-1249h613l-8 -216h-876z" />
    <glyph glyph-name="lacute" unicode="&#x13a;" horiz-adv-x="700" 
d="M342 1643l171 383h299l-315 -383h-155zM518 -15c-75.333 0 -137.829 8.83105 -187.496 26.498s-88.834 45.834 -117.501 84.501s-48.667 84.667 -60 138s-17 119.666 -17 198.999v1071l262 17v-1083c0 -98.667 11.667 -165.5 35 -200.5s68.666 -52.5 135.999 -52.5
c33.333 0 75.666 3.66699 126.999 11l7 -187c-0.666992 0 -8.83398 -1.66699 -24.501 -5s-30.667 -6.16602 -45 -8.49902s-32.5 -4.66602 -54.5 -6.99902s-42.333 -3.5 -61 -3.5z" />
    <glyph glyph-name="Lcommaaccent" unicode="&#x13b;" horiz-adv-x="1071" 
d="M470 -620l95 498h185l-144 -498h-136zM158 0v1465h271v-1249h613l-8 -216h-876z" />
    <glyph glyph-name="lcommaaccent" unicode="&#x13c;" horiz-adv-x="700" 
d="M290 -635l95 498h185l-144 -498h-136zM518 -15c-75.333 0 -137.829 8.83105 -187.496 26.498s-88.834 45.834 -117.501 84.501s-48.667 84.667 -60 138s-17 119.666 -17 198.999v1071l262 17v-1083c0 -98.667 11.667 -165.5 35 -200.5s68.666 -52.5 135.999 -52.5
c33.333 0 75.666 3.66699 126.999 11l7 -187c-0.666992 0 -8.83398 -1.66699 -24.501 -5s-30.667 -6.16602 -45 -8.49902s-32.5 -4.66602 -54.5 -6.99902s-42.333 -3.5 -61 -3.5z" />
    <glyph glyph-name="Ldot" unicode="&#x13f;" horiz-adv-x="1071" 
d="M768 719v198h168v-198h-168zM158 0v1465h271v-1249h613l-8 -216h-876z" />
    <glyph glyph-name="Lslash" unicode="&#x141;" horiz-adv-x="1012" 
d="M131 0v589l-151 -89v185l151 89v689h268v-531l323 184v-186l-323 -184v-544h619l-15 -202h-872z" />
    <glyph glyph-name="lslash" unicode="&#x142;" horiz-adv-x="679" 
d="M516 -15c-52.667 0 -98.666 4.00293 -137.999 12.0029s-72.833 21.167 -100.5 39.5s-50.334 39.5 -68.001 63.5s-31.5 54.833 -41.5 92.5s-16.833 77.167 -20.5 118.5s-5.5 90.666 -5.5 147.999v233l-112 -67v183l112 68v619l255 20v-487l158 97v-182l-158 -97v-408
c0 -37.333 0.5 -66.5 1.5 -87.5s3.16699 -42.833 6.5 -65.5s8.5 -39.334 15.5 -50.001s16.667 -20.834 29 -30.501s27.5 -16 45.5 -19s40.333 -4.5 67 -4.5c12.667 0 47 2.33301 103 7l16 -189c-60.667 -9.33301 -115.667 -14 -165 -14z" />
    <glyph glyph-name="Nacute" unicode="&#x143;" horiz-adv-x="1554" 
d="M700 1608l171 383h299l-315 -383h-155zM158 0v1465h288l317 -492l291 -450l51.5 -77.5l51.5 -77.5c-4.66699 228.667 -7 347.334 -7 356.001v741h247v-1465h-292l-661 1030l-48 79c5.33301 -176 8 -299.667 8 -371v-738h-246z" />
    <glyph glyph-name="nacute" unicode="&#x144;" horiz-adv-x="1254" 
d="M553 1248l171 383h299l-315 -383h-155zM133 0v1099h211l29 -139c112 110.667 236.333 166 373 166c128 0 223.833 -36.833 287.5 -110.5s95.5 -180.5 95.5 -320.5v-695h-263v663c-0.666992 88.667 -15 155 -43 199s-78.333 66 -151 66
c-56.667 0 -108.5 -14.5 -155.5 -43.5s-81.167 -65.5 -102.5 -109.5c-12.667 -52 -19 -132 -19 -240v-535h-262z" />
    <glyph glyph-name="Ncommaaccent" unicode="&#x145;" horiz-adv-x="1554" 
d="M648 -620l95 498h185l-144 -498h-136zM158 0v1465h288l317 -492l291 -450l51.5 -77.5l51.5 -77.5c-4.66699 228.667 -7 347.334 -7 356.001v741h247v-1465h-292l-661 1030l-48 79c5.33301 -176 8 -299.667 8 -371v-738h-246z" />
    <glyph glyph-name="ncommaaccent" unicode="&#x146;" horiz-adv-x="1254" 
d="M501 -620l95 498h185l-144 -498h-136zM133 0v1099h211l29 -139c112 110.667 236.333 166 373 166c128 0 223.833 -36.833 287.5 -110.5s95.5 -180.5 95.5 -320.5v-695h-263v663c-0.666992 88.667 -15 155 -43 199s-78.333 66 -151 66
c-56.667 0 -108.5 -14.5 -155.5 -43.5s-81.167 -65.5 -102.5 -109.5c-12.667 -52 -19 -132 -19 -240v-535h-262z" />
    <glyph glyph-name="Ncaron" unicode="&#x147;" horiz-adv-x="1554" 
d="M676 1608l-262 353h198l161 -196l164 196h203l-262 -353h-202zM158 0v1465h288l317 -492l291 -450l51.5 -77.5l51.5 -77.5c-4.66699 228.667 -7 347.334 -7 356.001v741h247v-1465h-292l-661 1030l-48 79c5.33301 -176 8 -299.667 8 -371v-738h-246z" />
    <glyph glyph-name="ncaron" unicode="&#x148;" horiz-adv-x="1254" 
d="M530 1248l-262 353h198l161 -196l164 196h203l-262 -353h-202zM133 0v1099h211l29 -139c112 110.667 236.333 166 373 166c128 0 223.833 -36.833 287.5 -110.5s95.5 -180.5 95.5 -320.5v-695h-263v663c-0.666992 88.667 -15 155 -43 199s-78.333 66 -151 66
c-56.667 0 -108.5 -14.5 -155.5 -43.5s-81.167 -65.5 -102.5 -109.5c-12.667 -52 -19 -132 -19 -240v-535h-262z" />
    <glyph glyph-name="Omacron" unicode="&#x14c;" horiz-adv-x="1626" 
d="M470 1608v153h686v-153h-686zM814 200c142 0 249.166 46.167 321.499 138.5s108.5 222.833 108.5 391.5c0 170.667 -36.167 303 -108.5 397s-179.166 141 -320.499 141c-142 0 -249.5 -47.167 -322.5 -141.5s-109.5 -226.5 -109.5 -396.5
c0 -168 36.333 -298.333 109 -391s180 -139 322 -139zM812.999 -21c-220.667 0 -394.833 66.832 -522.5 200.499s-191.5 318.167 -191.5 553.5c0 236.667 64 421.334 192 554.001s302.333 199 523 199s394.667 -66.5 522 -199.5s191 -317.833 191 -554.5
c0 -234 -64 -418 -192 -552s-302 -201 -522 -201z" />
    <glyph glyph-name="omacron" unicode="&#x14d;" horiz-adv-x="1222" 
d="M268 1248v153h686v-153h-686zM612 178c88.667 0 155.334 32.332 200.001 96.999s67 157.334 67 278.001c0 122 -22.333 215 -67 279s-112 96 -202 96c-88.667 0 -155.5 -32.167 -200.5 -96.5s-67.5 -157.5 -67.5 -279.5c0 -120 22.667 -212.333 68 -277
s112.666 -97 201.999 -97zM605 -21.001c-162.667 0 -290.667 52.667 -384 158s-140 244 -140 416c0 177.333 46.667 317.166 140 419.499s225 153.5 395 153.5c164 0 292.5 -52.167 385.5 -156.5s139.5 -243.166 139.5 -416.499c0 -175.333 -47 -314.833 -141 -418.5
s-225.667 -155.5 -395 -155.5z" />
    <glyph glyph-name="Obreve" unicode="&#x14e;" horiz-adv-x="1626" 
d="M813 1608c-88 0 -158.5 21.333 -211.5 64s-79.5 105.334 -79.5 188.001h167c0 -34 9.83301 -58.5 29.5 -73.5s51.167 -22.5 94.5 -22.5s74.833 7.5 94.5 22.5s29.5 39.5 29.5 73.5h167c0 -82.667 -26.5 -145.334 -79.5 -188.001s-123.5 -64 -211.5 -64zM814 200
c142 0 249.166 46.167 321.499 138.5s108.5 222.833 108.5 391.5c0 170.667 -36.167 303 -108.5 397s-179.166 141 -320.499 141c-142 0 -249.5 -47.167 -322.5 -141.5s-109.5 -226.5 -109.5 -396.5c0 -168 36.333 -298.333 109 -391s180 -139 322 -139zM812.999 -21
c-220.667 0 -394.833 66.832 -522.5 200.499s-191.5 318.167 -191.5 553.5c0 236.667 64 421.334 192 554.001s302.333 199 523 199s394.667 -66.5 522 -199.5s191 -317.833 191 -554.5c0 -234 -64 -418 -192 -552s-302 -201 -522 -201z" />
    <glyph glyph-name="obreve" unicode="&#x14f;" horiz-adv-x="1222" 
d="M611 1248c-88 0 -158.5 21.333 -211.5 64s-79.5 105.334 -79.5 188.001h167c0 -34 9.83301 -58.5 29.5 -73.5s51.167 -22.5 94.5 -22.5s74.833 7.5 94.5 22.5s29.5 39.5 29.5 73.5h167c0 -82.667 -26.5 -145.334 -79.5 -188.001s-123.5 -64 -211.5 -64zM612 178
c88.667 0 155.334 32.332 200.001 96.999s67 157.334 67 278.001c0 122 -22.333 215 -67 279s-112 96 -202 96c-88.667 0 -155.5 -32.167 -200.5 -96.5s-67.5 -157.5 -67.5 -279.5c0 -120 22.667 -212.333 68 -277s112.666 -97 201.999 -97zM605 -21.001
c-162.667 0 -290.667 52.667 -384 158s-140 244 -140 416c0 177.333 46.667 317.166 140 419.499s225 153.5 395 153.5c164 0 292.5 -52.167 385.5 -156.5s139.5 -243.166 139.5 -416.499c0 -175.333 -47 -314.833 -141 -418.5s-225.667 -155.5 -395 -155.5z" />
    <glyph glyph-name="Ohungarumlaut" unicode="&#x150;" horiz-adv-x="1626" 
d="M590 1608l246 361h226l-338 -361h-134zM901 1608l247 361h225l-338 -361h-134zM814 200c142 0 249.166 46.167 321.499 138.5s108.5 222.833 108.5 391.5c0 170.667 -36.167 303 -108.5 397s-179.166 141 -320.499 141c-142 0 -249.5 -47.167 -322.5 -141.5
s-109.5 -226.5 -109.5 -396.5c0 -168 36.333 -298.333 109 -391s180 -139 322 -139zM812.999 -21c-220.667 0 -394.833 66.832 -522.5 200.499s-191.5 318.167 -191.5 553.5c0 236.667 64 421.334 192 554.001s302.333 199 523 199s394.667 -66.5 522 -199.5
s191 -317.833 191 -554.5c0 -234 -64 -418 -192 -552s-302 -201 -522 -201z" />
    <glyph glyph-name="ohungarumlaut" unicode="&#x151;" horiz-adv-x="1222" 
d="M388 1248l246 361h226l-338 -361h-134zM699 1248l247 361h225l-338 -361h-134zM612 178c88.667 0 155.334 32.332 200.001 96.999s67 157.334 67 278.001c0 122 -22.333 215 -67 279s-112 96 -202 96c-88.667 0 -155.5 -32.167 -200.5 -96.5s-67.5 -157.5 -67.5 -279.5
c0 -120 22.667 -212.333 68 -277s112.666 -97 201.999 -97zM605 -21.001c-162.667 0 -290.667 52.667 -384 158s-140 244 -140 416c0 177.333 46.667 317.166 140 419.499s225 153.5 395 153.5c164 0 292.5 -52.167 385.5 -156.5s139.5 -243.166 139.5 -416.499
c0 -175.333 -47 -314.833 -141 -418.5s-225.667 -155.5 -395 -155.5z" />
    <glyph glyph-name="OE" unicode="&#x152;" horiz-adv-x="2176" 
d="M815 -19c-142 0 -269.001 32.333 -381.001 97s-198.833 154.5 -260.5 269.5s-92.5 245.167 -92.5 390.5c0.666992 142.667 32.667 271.5 96 386.5s150.333 204.667 261 269s234.334 96.5 371.001 96.5c135.333 0 255 -35.333 359 -106v77h933l-18 -205h-658v-393h627
v-202h-627v-452h705l-17 -205h-945v81c-44.667 -31.333 -98.167 -56.5 -160.5 -75.5s-126.5 -28.5 -192.5 -28.5zM812.999 188c75.333 0 144.169 11.167 206.502 33.5s111.833 50.166 148.5 83.499v848c-86.667 86.667 -205.667 130 -357 130
c-59.333 0 -114.333 -9.83301 -165 -29.5s-94.334 -46.667 -131.001 -81s-68 -74.666 -94 -120.999s-45.333 -96.333 -58 -150s-19.334 -109.167 -20.001 -166.5c0 -73.333 9.66699 -142.333 29 -207s47.833 -122.5 85.5 -173.5s87 -91.5 148 -121.5s130.167 -45 207.5 -45z
" />
    <glyph glyph-name="oe" unicode="&#x153;" horiz-adv-x="1880" 
d="M595 -21c-86.667 0 -164.169 15.1709 -232.502 45.5039s-123.5 71.833 -165.5 124.5s-73.833 113.167 -95.5 181.5s-32.5 142.166 -32.5 221.499c0 82 10.833 157 32.5 225s53.667 127.833 96 179.5s97.5 91.834 165.5 120.501s145.667 43 233 43
c91.333 0 170.333 -17 237 -51s119.667 -81.333 159 -142c74.667 126.667 204 191 388 193c61.333 0 116.833 -9 166.5 -27s91.334 -42.833 125.001 -74.5s61.834 -69.834 84.501 -114.501s39.167 -93.334 49.5 -146.001s15.5 -109.667 15.5 -171
c0 -7.33301 -0.166992 -17.833 -0.5 -31.5s-0.666016 -26 -0.999023 -37s-0.5 -17.167 -0.5 -18.5h-709c2 -108.667 29.833 -192.834 83.5 -252.501s128.167 -89.5 223.5 -89.5c113.333 0 215 34.333 305 103l72 -155c-52.667 -40.667 -108.834 -72 -168.501 -94
s-131.5 -33 -215.5 -33c-202.667 0 -342.667 66 -420 198c-36.667 -60.667 -89 -108.834 -157 -144.501s-147.333 -53.5 -238 -53.5zM594.998 157.004c85.333 0 153.334 35.334 204.001 106.001s76 167 76 289c0 125.333 -24.833 221.666 -74.5 288.999
s-118.5 101 -206.5 101c-86.667 0 -154.667 -34.5 -204 -103.5s-74 -164.833 -74 -287.5c0 -120.667 25.167 -216.5 75.5 -287.5s118.166 -106.5 203.499 -106.5zM1113 646.005h475.001v10c-0.666992 190.667 -75.334 286 -224.001 286c-30 0 -58.333 -5.16699 -85 -15.5
s-52 -26.333 -76 -48s-44 -52.5 -60 -92.5s-26 -86.667 -30 -140z" />
    <glyph glyph-name="Racute" unicode="&#x154;" horiz-adv-x="1394" 
d="M671 1608l171 383h299l-315 -383h-155zM151 0v1469h543c74 0 138.167 -3.33301 192.5 -10s106 -18.834 155 -36.501s88.667 -41.5 119 -71.5s54.333 -69.167 72 -117.5s26.5 -105.5 26.5 -171.5c0 -194.667 -88.333 -322.667 -265 -384c36 -40.667 80.667 -116 134 -226
l218 -452h-296l-171 383c-64.667 137.333 -104.667 218.666 -120 243.999c-11.333 0.666992 -49 1 -113 1l-227 2v-630h-268zM718 824.002c104 0 178.667 18.5 224 55.5s68 96.5 68 178.5c0 72 -23 125 -69 159s-116.333 51 -211 51h-311v-443
c10 0 59.667 -0.166992 149 -0.5s139.333 -0.5 150 -0.5z" />
    <glyph glyph-name="racute" unicode="&#x155;" horiz-adv-x="798" 
d="M375 1248l171 383h299l-315 -383h-155zM134 0l0.00195312 1099h220l34 -168c72 115.333 176.333 173 313 173c28.667 0 52 -1.33301 70 -4l-4 -219c-26.667 4 -54.334 6 -83.001 6c-96.667 0 -168.834 -25.667 -216.501 -77s-71.5 -122.666 -71.5 -213.999v-596h-262z
" />
    <glyph glyph-name="Rcommaaccent" unicode="&#x156;" horiz-adv-x="1394" 
d="M618 -620l95 498h185l-144 -498h-136zM151 0v1469h543c74 0 138.167 -3.33301 192.5 -10s106 -18.834 155 -36.501s88.667 -41.5 119 -71.5s54.333 -69.167 72 -117.5s26.5 -105.5 26.5 -171.5c0 -194.667 -88.333 -322.667 -265 -384c36 -40.667 80.667 -116 134 -226
l218 -452h-296l-171 383c-64.667 137.333 -104.667 218.666 -120 243.999c-11.333 0.666992 -49 1 -113 1l-227 2v-630h-268zM718 824.002c104 0 178.667 18.5 224 55.5s68 96.5 68 178.5c0 72 -23 125 -69 159s-116.333 51 -211 51h-311v-443
c10 0 59.667 -0.166992 149 -0.5s139.333 -0.5 150 -0.5z" />
    <glyph glyph-name="rcommaaccent" unicode="&#x157;" horiz-adv-x="798" 
d="M322 -620l95 498h185l-144 -498h-136zM134 0l0.00195312 1099h220l34 -168c72 115.333 176.333 173 313 173c28.667 0 52 -1.33301 70 -4l-4 -219c-26.667 4 -54.334 6 -83.001 6c-96.667 0 -168.834 -25.667 -216.501 -77s-71.5 -122.666 -71.5 -213.999v-596h-262z" />
    <glyph glyph-name="Rcaron" unicode="&#x158;" horiz-adv-x="1394" 
d="M648 1608l-262 353h198l161 -196l164 196h203l-262 -353h-202zM151 0v1469h543c74 0 138.167 -3.33301 192.5 -10s106 -18.834 155 -36.501s88.667 -41.5 119 -71.5s54.333 -69.167 72 -117.5s26.5 -105.5 26.5 -171.5c0 -194.667 -88.333 -322.667 -265 -384
c36 -40.667 80.667 -116 134 -226l218 -452h-296l-171 383c-64.667 137.333 -104.667 218.666 -120 243.999c-11.333 0.666992 -49 1 -113 1l-227 2v-630h-268zM718 824.002c104 0 178.667 18.5 224 55.5s68 96.5 68 178.5c0 72 -23 125 -69 159s-116.333 51 -211 51h-311
v-443c10 0 59.667 -0.166992 149 -0.5s139.333 -0.5 150 -0.5z" />
    <glyph glyph-name="rcaron" unicode="&#x159;" horiz-adv-x="798" 
d="M352 1248l-262 353h198l161 -196l164 196h203l-262 -353h-202zM134 0l0.00195312 1099h220l34 -168c72 115.333 176.333 173 313 173c28.667 0 52 -1.33301 70 -4l-4 -219c-26.667 4 -54.334 6 -83.001 6c-96.667 0 -168.834 -25.667 -216.501 -77
s-71.5 -122.666 -71.5 -213.999v-596h-262z" />
    <glyph glyph-name="Sacute" unicode="&#x15a;" horiz-adv-x="1189" 
d="M527 1613l171 383h299l-315 -383h-155zM569 -20c-176.667 0 -335.001 40.668 -475.001 122.001l66 215c62.667 -34.667 130.834 -62.667 204.501 -84s145.5 -32 215.5 -32c86 0 151 18.5 195 55.5s66 90.167 66 159.5c0 92 -61.333 155.667 -184 191l-73 21.5l-112.5 34
c-35 11 -60.167 19.5 -75.5 25.5c-196.667 69.333 -295 198.666 -295 387.999c0 132.667 47.167 235 141.5 307s219.5 108 375.5 108c176.667 0 329 -36.333 457 -109l-82 -198c-130.667 58.667 -252 88 -364 88c-80.667 0 -141.5 -14.167 -182.5 -42.5
s-62.833 -75.5 -65.5 -141.5c0 -81.333 40.333 -134.333 121 -159c16 -6 55.333 -19 118 -39l122 -39c134 -44 229.833 -98.667 287.5 -164s86.5 -156.333 86.5 -273c0 -139.333 -49.333 -246.5 -148 -321.5s-231.667 -112.5 -399 -112.5z" />
    <glyph glyph-name="sacute" unicode="&#x15b;" horiz-adv-x="985" 
d="M425 1248l171 383h299l-315 -383h-155zM484 -20c-162 0 -291.666 27.667 -388.999 83l27 197c44 -24 100 -45.5 168 -64.5s130 -28.5 186 -28.5c58 0 103.167 10.833 135.5 32.5s48.833 53.5 49.5 95.5c0 38 -15.167 68 -45.5 90s-88.166 49.333 -173.499 82l-57 21
c-101.333 39.333 -174.333 83.166 -219 131.499s-67 113.833 -67 196.5c0 100 36.167 176.667 108.5 230s173.166 80 302.499 80c140 0 263 -26.333 369 -79l-65 -181c-104.667 48.667 -204.334 73 -299.001 73c-52.667 0 -93.834 -8.83301 -123.501 -26.5
s-44.5 -44.5 -44.5 -80.5c0 -34 14.333 -60.5 43 -79.5s84.667 -43.833 168 -74.5c2.66699 -0.666992 11.334 -3.66699 26.001 -9s26 -9.66602 34 -12.999c100.667 -36.667 174.667 -80.5 222 -131.5s71 -117.5 71 -199.5c-0.666992 -110 -38 -195 -112 -255
s-179 -90 -315 -90z" />
    <glyph glyph-name="scircumflex" unicode="&#x15d;" horiz-adv-x="985" 
d="M149 1248l250 383h208l251 -383h-184l-174 218l-172 -218h-179zM484 -20c-162 0 -291.666 27.667 -388.999 83l27 197c44 -24 100 -45.5 168 -64.5s130 -28.5 186 -28.5c58 0 103.167 10.833 135.5 32.5s48.833 53.5 49.5 95.5c0 38 -15.167 68 -45.5 90
s-88.166 49.333 -173.499 82l-57 21c-101.333 39.333 -174.333 83.166 -219 131.499s-67 113.833 -67 196.5c0 100 36.167 176.667 108.5 230s173.166 80 302.499 80c140 0 263 -26.333 369 -79l-65 -181c-104.667 48.667 -204.334 73 -299.001 73
c-52.667 0 -93.834 -8.83301 -123.501 -26.5s-44.5 -44.5 -44.5 -80.5c0 -34 14.333 -60.5 43 -79.5s84.667 -43.833 168 -74.5c2.66699 -0.666992 11.334 -3.66699 26.001 -9s26 -9.66602 34 -12.999c100.667 -36.667 174.667 -80.5 222 -131.5s71 -117.5 71 -199.5
c-0.666992 -110 -38 -195 -112 -255s-179 -90 -315 -90z" />
    <glyph glyph-name="Scedilla" unicode="&#x15e;" horiz-adv-x="1189" 
d="M410 -388l123 381h144l-58 -381h-209zM569 -20c-176.667 0 -335.001 40.668 -475.001 122.001l66 215c62.667 -34.667 130.834 -62.667 204.501 -84s145.5 -32 215.5 -32c86 0 151 18.5 195 55.5s66 90.167 66 159.5c0 92 -61.333 155.667 -184 191l-73 21.5l-112.5 34
c-35 11 -60.167 19.5 -75.5 25.5c-196.667 69.333 -295 198.666 -295 387.999c0 132.667 47.167 235 141.5 307s219.5 108 375.5 108c176.667 0 329 -36.333 457 -109l-82 -198c-130.667 58.667 -252 88 -364 88c-80.667 0 -141.5 -14.167 -182.5 -42.5
s-62.833 -75.5 -65.5 -141.5c0 -81.333 40.333 -134.333 121 -159c16 -6 55.333 -19 118 -39l122 -39c134 -44 229.833 -98.667 287.5 -164s86.5 -156.333 86.5 -273c0 -139.333 -49.333 -246.5 -148 -321.5s-231.667 -112.5 -399 -112.5z" />
    <glyph glyph-name="scedilla" unicode="&#x15f;" horiz-adv-x="985" 
d="M308 -388l123 381h144l-58 -381h-209zM484 -20c-162 0 -291.666 27.667 -388.999 83l27 197c44 -24 100 -45.5 168 -64.5s130 -28.5 186 -28.5c58 0 103.167 10.833 135.5 32.5s48.833 53.5 49.5 95.5c0 38 -15.167 68 -45.5 90s-88.166 49.333 -173.499 82l-57 21
c-101.333 39.333 -174.333 83.166 -219 131.499s-67 113.833 -67 196.5c0 100 36.167 176.667 108.5 230s173.166 80 302.499 80c140 0 263 -26.333 369 -79l-65 -181c-104.667 48.667 -204.334 73 -299.001 73c-52.667 0 -93.834 -8.83301 -123.501 -26.5
s-44.5 -44.5 -44.5 -80.5c0 -34 14.333 -60.5 43 -79.5s84.667 -43.833 168 -74.5c2.66699 -0.666992 11.334 -3.66699 26.001 -9s26 -9.66602 34 -12.999c100.667 -36.667 174.667 -80.5 222 -131.5s71 -117.5 71 -199.5c-0.666992 -110 -38 -195 -112 -255
s-179 -90 -315 -90z" />
    <glyph glyph-name="Scaron" unicode="&#x160;" horiz-adv-x="1189" 
d="M504 1613l-262 353h198l161 -196l164 196h203l-262 -353h-202zM569 -20c-176.667 0 -335.001 40.668 -475.001 122.001l66 215c62.667 -34.667 130.834 -62.667 204.501 -84s145.5 -32 215.5 -32c86 0 151 18.5 195 55.5s66 90.167 66 159.5
c0 92 -61.333 155.667 -184 191l-73 21.5l-112.5 34c-35 11 -60.167 19.5 -75.5 25.5c-196.667 69.333 -295 198.666 -295 387.999c0 132.667 47.167 235 141.5 307s219.5 108 375.5 108c176.667 0 329 -36.333 457 -109l-82 -198c-130.667 58.667 -252 88 -364 88
c-80.667 0 -141.5 -14.167 -182.5 -42.5s-62.833 -75.5 -65.5 -141.5c0 -81.333 40.333 -134.333 121 -159c16 -6 55.333 -19 118 -39l122 -39c134 -44 229.833 -98.667 287.5 -164s86.5 -156.333 86.5 -273c0 -139.333 -49.333 -246.5 -148 -321.5
s-231.667 -112.5 -399 -112.5z" />
    <glyph glyph-name="scaron" unicode="&#x161;" horiz-adv-x="985" 
d="M402 1248l-262 353h198l161 -196l164 196h203l-262 -353h-202zM484 -20c-162 0 -291.666 27.667 -388.999 83l27 197c44 -24 100 -45.5 168 -64.5s130 -28.5 186 -28.5c58 0 103.167 10.833 135.5 32.5s48.833 53.5 49.5 95.5c0 38 -15.167 68 -45.5 90
s-88.166 49.333 -173.499 82l-57 21c-101.333 39.333 -174.333 83.166 -219 131.499s-67 113.833 -67 196.5c0 100 36.167 176.667 108.5 230s173.166 80 302.499 80c140 0 263 -26.333 369 -79l-65 -181c-104.667 48.667 -204.334 73 -299.001 73
c-52.667 0 -93.834 -8.83301 -123.501 -26.5s-44.5 -44.5 -44.5 -80.5c0 -34 14.333 -60.5 43 -79.5s84.667 -43.833 168 -74.5c2.66699 -0.666992 11.334 -3.66699 26.001 -9s26 -9.66602 34 -12.999c100.667 -36.667 174.667 -80.5 222 -131.5s71 -117.5 71 -199.5
c-0.666992 -110 -38 -195 -112 -255s-179 -90 -315 -90z" />
    <glyph glyph-name="Tcaron" unicode="&#x164;" 
d="M475 1608l-262 353h198l161 -196l164 196h203l-262 -353h-202zM441 0v1248h-427v217h1124v-217h-425v-1248h-272z" />
    <glyph glyph-name="tcaron" unicode="&#x165;" horiz-adv-x="803" 
d="M935 883c38 184.667 69.333 356.333 94 515h244l-3 -49c-43.333 -150.667 -96 -306 -158 -466h-177zM572 -15.001c-74.667 0 -136.833 8.83203 -186.5 26.499s-88.5 45.5 -116.5 83.5s-47.833 82.833 -59.5 134.5s-17.5 115.5 -17.5 191.5v519h-180l10 142l188 17l84 298
l160 1v-299h273v-159h-273v-524c0 -83.333 12 -142.666 36 -177.999s68.333 -53 133 -53c38 0 78.667 3.33301 122 10l7 -188c-1.33301 0 -9.5 -1.5 -24.5 -4.5s-29.333 -5.66699 -43 -8s-31.167 -4.5 -52.5 -6.5s-41.333 -3 -60 -3z" />
    <glyph glyph-name="Utilde" unicode="&#x168;" horiz-adv-x="1468" 
d="M390 1608c0 24 0.833984 45.668 2.50098 65.001s6 40.333 13 63s16.5 41.667 28.5 57s28.833 28.166 50.5 38.499s47.5 15.5 77.5 15.5c38.667 0 81.667 -7 129 -21s88.666 -28 123.999 -42s58 -21 68 -21c31.333 0 47 28 47 84h147c0 -23.333 -0.666992 -44 -2 -62
s-5.33301 -38.833 -12 -62.5s-15.5 -43.167 -26.5 -58.5s-27.333 -28.5 -49 -39.5s-47.167 -16.5 -76.5 -16.5c-39.333 0 -98.666 15 -177.999 45s-129 45 -149 45c-32.667 0 -49.334 -30 -50.001 -90h-144zM730.001 -20.999c-192 0 -337.667 47.834 -437 143.501
s-149 230.5 -149 404.5v938h272v-915c0 -122 24.833 -211 74.5 -267s131.167 -84 244.5 -84c111.333 0 192 28.167 242 84.5s75 145.5 75 267.5v914h271v-940c0 -172.667 -50.667 -306.834 -152 -402.501s-248.333 -143.5 -441 -143.5z" />
    <glyph glyph-name="utilde" unicode="&#x169;" horiz-adv-x="1163" 
d="M238 1248c0 24 0.833984 45.668 2.50098 65.001s6 40.333 13 63s16.5 41.667 28.5 57s28.833 28.166 50.5 38.499s47.5 15.5 77.5 15.5c38.667 0 81.667 -7 129 -21s88.666 -28 123.999 -42s58 -21 68 -21c31.333 0 47 28 47 84h147c0 -23.333 -0.666992 -44 -2 -62
s-5.33301 -38.833 -12 -62.5s-15.5 -43.167 -26.5 -58.5s-27.333 -28.5 -49 -39.5s-47.167 -16.5 -76.5 -16.5c-39.333 0 -98.666 15 -177.999 45s-129 45 -149 45c-32.667 0 -49.334 -30 -50.001 -90h-144zM581.001 -20.999c-142.667 0 -257.5 35.667 -344.5 107
s-130.5 176 -130.5 314v699h263v-689c0 -82 17.167 -141.333 51.5 -178s88.833 -55 163.5 -55c73.333 0 126.833 18.167 160.5 54.5s50.5 95.833 50.5 178.5v689h262v-699c0 -137.333 -43.667 -241.833 -131 -313.5s-202.333 -107.5 -345 -107.5z" />
    <glyph glyph-name="Umacron" unicode="&#x16a;" horiz-adv-x="1468" 
d="M390 1608v153h686v-153h-686zM730 -21c-192 0 -337.667 47.834 -437 143.501s-149 230.5 -149 404.5v938h272v-915c0 -122 24.833 -211 74.5 -267s131.167 -84 244.5 -84c111.333 0 192 28.167 242 84.5s75 145.5 75 267.5v914h271v-940
c0 -172.667 -50.667 -306.834 -152 -402.501s-248.333 -143.5 -441 -143.5z" />
    <glyph glyph-name="umacron" unicode="&#x16b;" horiz-adv-x="1163" 
d="M238 1248v153h686v-153h-686zM581 -21c-142.667 0 -257.5 35.667 -344.5 107s-130.5 176 -130.5 314v699h263v-689c0 -82 17.167 -141.333 51.5 -178s88.833 -55 163.5 -55c73.333 0 126.833 18.167 160.5 54.5s50.5 95.833 50.5 178.5v689h262v-699
c0 -137.333 -43.667 -241.833 -131 -313.5s-202.333 -107.5 -345 -107.5z" />
    <glyph glyph-name="Ubreve" unicode="&#x16c;" horiz-adv-x="1468" 
d="M734 1608c-88 0 -158.5 21.333 -211.5 64s-79.5 105.334 -79.5 188.001h167c0 -34 9.83301 -58.5 29.5 -73.5s51.167 -22.5 94.5 -22.5s74.833 7.5 94.5 22.5s29.5 39.5 29.5 73.5h167c0 -82.667 -26.5 -145.334 -79.5 -188.001s-123.5 -64 -211.5 -64zM730 -21
c-192 0 -337.667 47.834 -437 143.501s-149 230.5 -149 404.5v938h272v-915c0 -122 24.833 -211 74.5 -267s131.167 -84 244.5 -84c111.333 0 192 28.167 242 84.5s75 145.5 75 267.5v914h271v-940c0 -172.667 -50.667 -306.834 -152 -402.501s-248.333 -143.5 -441 -143.5z
" />
    <glyph glyph-name="ubreve" unicode="&#x16d;" horiz-adv-x="1163" 
d="M582 1248c-88 0 -158.5 21.333 -211.5 64s-79.5 105.334 -79.5 188.001h167c0 -34 9.83301 -58.5 29.5 -73.5s51.167 -22.5 94.5 -22.5s74.833 7.5 94.5 22.5s29.5 39.5 29.5 73.5h167c0 -82.667 -26.5 -145.334 -79.5 -188.001s-123.5 -64 -211.5 -64zM581 -21
c-142.667 0 -257.5 35.667 -344.5 107s-130.5 176 -130.5 314v699h263v-689c0 -82 17.167 -141.333 51.5 -178s88.833 -55 163.5 -55c73.333 0 126.833 18.167 160.5 54.5s50.5 95.833 50.5 178.5v689h262v-699c0 -137.333 -43.667 -241.833 -131 -313.5
s-202.333 -107.5 -345 -107.5z" />
    <glyph glyph-name="Uring" unicode="&#x16e;" horiz-adv-x="1468" 
d="M734 1701c34 0 60.167 10.667 78.5 32s27.5 47.333 27.5 78c0 30 -9.33301 56.167 -28 78.5s-44.667 33.5 -78 33.5c-34 0 -60.333 -10.833 -79 -32.5s-28 -48.167 -28 -79.5c0 -30.667 9.33301 -56.667 28 -78s45 -32 79 -32zM734 1608c-66.667 0 -120.167 20 -160.5 60
s-60.5 88 -60.5 144c0 55.333 19.833 102.5 59.5 141.5s93.5 58.5 161.5 58.5c67.333 0 120.833 -19.5 160.5 -58.5s59.5 -86.167 59.5 -141.5c0 -56 -20 -104 -60 -144s-93.333 -60 -160 -60zM730 -21c-192 0 -337.667 47.834 -437 143.501s-149 230.5 -149 404.5v938h272
v-915c0 -122 24.833 -211 74.5 -267s131.167 -84 244.5 -84c111.333 0 192 28.167 242 84.5s75 145.5 75 267.5v914h271v-940c0 -172.667 -50.667 -306.834 -152 -402.501s-248.333 -143.5 -441 -143.5z" />
    <glyph glyph-name="uring" unicode="&#x16f;" horiz-adv-x="1163" 
d="M582 1341c34 0 60.167 10.667 78.5 32s27.5 47.333 27.5 78c0 30 -9.33301 56.167 -28 78.5s-44.667 33.5 -78 33.5c-34 0 -60.333 -10.833 -79 -32.5s-28 -48.167 -28 -79.5c0 -30.667 9.33301 -56.667 28 -78s45 -32 79 -32zM582 1248c-66.667 0 -120.167 20 -160.5 60
s-60.5 88 -60.5 144c0 55.333 19.833 102.5 59.5 141.5s93.5 58.5 161.5 58.5c67.333 0 120.833 -19.5 160.5 -58.5s59.5 -86.167 59.5 -141.5c0 -56 -20 -104 -60 -144s-93.333 -60 -160 -60zM581 -21c-142.667 0 -257.5 35.667 -344.5 107s-130.5 176 -130.5 314v699h263
v-689c0 -82 17.167 -141.333 51.5 -178s88.833 -55 163.5 -55c73.333 0 126.833 18.167 160.5 54.5s50.5 95.833 50.5 178.5v689h262v-699c0 -137.333 -43.667 -241.833 -131 -313.5s-202.333 -107.5 -345 -107.5z" />
    <glyph glyph-name="Uhungarumlaut" unicode="&#x170;" horiz-adv-x="1468" 
d="M511 1608l246 361h226l-338 -361h-134zM822 1608l247 361h225l-338 -361h-134zM730 -21c-192 0 -337.667 47.834 -437 143.501s-149 230.5 -149 404.5v938h272v-915c0 -122 24.833 -211 74.5 -267s131.167 -84 244.5 -84c111.333 0 192 28.167 242 84.5
s75 145.5 75 267.5v914h271v-940c0 -172.667 -50.667 -306.834 -152 -402.501s-248.333 -143.5 -441 -143.5z" />
    <glyph glyph-name="uhungarumlaut" unicode="&#x171;" horiz-adv-x="1163" 
d="M359 1248l246 361h226l-338 -361h-134zM670 1248l247 361h225l-338 -361h-134zM581 -21c-142.667 0 -257.5 35.667 -344.5 107s-130.5 176 -130.5 314v699h263v-689c0 -82 17.167 -141.333 51.5 -178s88.833 -55 163.5 -55c73.333 0 126.833 18.167 160.5 54.5
s50.5 95.833 50.5 178.5v689h262v-699c0 -137.333 -43.667 -241.833 -131 -313.5s-202.333 -107.5 -345 -107.5z" />
    <glyph glyph-name="Uogonek" unicode="&#x172;" horiz-adv-x="1468" 
d="M695 -433c-60 0 -109.5 14.6689 -148.5 44.002s-58.5 72 -58.5 128c0 97.333 63.667 182 191 254h108c-82.667 -61.333 -124 -127.666 -124 -198.999c0 -22.667 7.5 -42.834 22.5 -60.501s34.833 -26.5 59.5 -26.5c9.33301 0 19.5 0.833008 30.5 2.5s21 3.66699 30 6
s18.5 5.16602 28.5 8.49902s18 6.16602 24 8.49902l18.5 7.5c6.33301 2.66699 9.83301 4 10.5 4v-140c-63.333 -24.667 -127.333 -37 -192 -37zM730 -20.998c-192 0 -337.667 47.834 -437 143.501s-149 230.5 -149 404.5v938h272v-915c0 -122 24.833 -211 74.5 -267
s131.167 -84 244.5 -84c111.333 0 192 28.167 242 84.5s75 145.5 75 267.5v914h271v-940c0 -172.667 -50.667 -306.834 -152 -402.501s-248.333 -143.5 -441 -143.5z" />
    <glyph glyph-name="uogonek" unicode="&#x173;" horiz-adv-x="1163" 
d="M580 -433c-60 0 -109.5 14.6689 -148.5 44.002s-58.5 72 -58.5 128c0 97.333 63.667 182 191 254h108c-82.667 -61.333 -124 -127.666 -124 -198.999c0 -22.667 7.5 -42.834 22.5 -60.501s34.833 -26.5 59.5 -26.5c9.33301 0 19.5 0.833008 30.5 2.5s21 3.66699 30 6
s18.5 5.16602 28.5 8.49902s18 6.16602 24 8.49902l18.5 7.5c6.33301 2.66699 9.83301 4 10.5 4v-140c-63.333 -24.667 -127.333 -37 -192 -37zM581 -20.998c-142.667 0 -257.5 35.667 -344.5 107s-130.5 176 -130.5 314v699h263v-689c0 -82 17.167 -141.333 51.5 -178
s88.833 -55 163.5 -55c73.333 0 126.833 18.167 160.5 54.5s50.5 95.833 50.5 178.5v689h262v-699c0 -137.333 -43.667 -241.833 -131 -313.5s-202.333 -107.5 -345 -107.5z" />
    <glyph glyph-name="Wcircumflex" unicode="&#x174;" horiz-adv-x="2051" 
d="M667 1608l250 383h208l251 -383h-184l-174 218l-172 -218h-179zM408 0l-398 1465h270l284 -1140l334 1133h259l317 -1137l290 1144h270l-410 -1465h-281l-313 1073l-343 -1073h-279z" />
    <glyph glyph-name="wcircumflex" unicode="&#x175;" horiz-adv-x="1713" 
d="M502 1248l250 383h208l251 -383h-184l-174 218l-172 -218h-179zM346 0l-332.999 1099h267l211 -806l114 393c71.333 246.667 111.666 384.334 120.999 413.001h269c8.66699 -28 47 -164.333 115 -409s104.667 -376 110 -394l217 803h263l-344 -1099h-261
c-8.66699 28.667 -49.167 173.667 -121.5 435l-117.5 423c-13.333 -48.667 -55.833 -195.334 -127.5 -440.001s-113.167 -384 -124.5 -418h-258z" />
    <glyph glyph-name="Ycircumflex" unicode="&#x176;" horiz-adv-x="1256" 
d="M273 1608l250 383h208l251 -383h-184l-174 218l-172 -218h-179zM492 0v581l-507 884h294l349 -634l351 634h290l-505 -879v-586h-272z" />
    <glyph glyph-name="ycircumflex" unicode="&#x177;" horiz-adv-x="1116" 
d="M197 1248l250 383h208l251 -383h-184l-174 218l-172 -218h-179zM191 -463c-42.667 0 -87.999 2.66699 -135.999 8l-13 203c30.667 -3.33301 69.667 -5 117 -5c60.667 0 109.334 12 146.001 36s67 66.667 91 128c2.66699 6.66699 16 44.334 40 113.001l-442 1079h280
l289 -797c21.333 79.333 69.166 226.666 143.499 441.999l122.5 355h280c-304.667 -805.333 -458.334 -1211.33 -461.001 -1218c-47.333 -123.333 -107 -211.5 -179 -264.5s-164.667 -79.5 -278 -79.5z" />
    <glyph glyph-name="Ydieresis" unicode="&#x178;" horiz-adv-x="1256" 
d="M318 1608v254h195v-254h-195zM739 1608v254h196v-254h-196zM492 0v581l-507 884h294l349 -634l351 634h290l-505 -879v-586h-272z" />
    <glyph glyph-name="Zacute" unicode="&#x179;" horiz-adv-x="1209" 
d="M533 1608l171 383h299l-315 -383h-155zM62 0v174l773 1075h-746v216h1066v-197l-759 -1052h764l-1 -216h-1097z" />
    <glyph glyph-name="zacute" unicode="&#x17a;" horiz-adv-x="977" 
d="M413 1248l171 383h299l-315 -383h-155zM65 0v159l544 758h-518v182h808v-179l-515 -729h533v-191h-852z" />
    <glyph glyph-name="Zdotaccent" unicode="&#x17b;" horiz-adv-x="1209" 
d="M511 1608v216h201v-216h-201zM62 0v174l773 1075h-746v216h1066v-197l-759 -1052h764l-1 -216h-1097z" />
    <glyph glyph-name="zdotaccent" unicode="&#x17c;" horiz-adv-x="977" 
d="M391 1248v216h201v-216h-201zM65 0v159l544 758h-518v182h808v-179l-515 -729h533v-191h-852z" />
    <glyph glyph-name="Zcaron" unicode="&#x17d;" horiz-adv-x="1209" 
d="M510 1608l-262 353h198l161 -196l164 196h203l-262 -353h-202zM62 0v174l773 1075h-746v216h1066v-197l-759 -1052h764l-1 -216h-1097z" />
    <glyph glyph-name="zcaron" unicode="&#x17e;" horiz-adv-x="977" 
d="M390 1248l-262 353h198l161 -196l164 196h203l-262 -353h-202zM65 0v159l544 758h-518v182h808v-179l-515 -729h533v-191h-852z" />
    <glyph glyph-name="florin" unicode="&#x192;" horiz-adv-x="1055" 
d="M157 -336c-16.667 0 -57.998 7.33203 -123.998 21.999l17 189c58 -16.667 89.667 -25 95 -25c38 0 67 15.833 87 47.5s37.333 76.5 52 134.5c18.667 70.667 36.667 148.5 54 233.5s35.666 180.667 54.999 287s34.666 187.166 45.999 242.499h-157l13 173h178l19 130
c35.333 246.667 155 370 359 370c22 0 51.667 -3.33301 89 -10s61.333 -11.667 72 -15l-11 -201c-9.33301 4 -29 10.5 -59 19.5s-52.333 13.5 -67 13.5c-46.667 0 -80 -10.667 -100 -32s-34.667 -57 -44 -107l-32 -168h194l-13 -175h-213l-130 -665
c-7.33301 -37.333 -14 -68.666 -20 -93.999s-14.667 -55.666 -26 -90.999s-23 -64.833 -35 -88.5s-27.667 -48.5 -47 -74.5s-40.5 -46.833 -63.5 -62.5s-50.667 -28.5 -83 -38.5s-67.5 -15 -105.5 -15z" />
    <glyph glyph-name="uni01C4" unicode="&#x1c4;" horiz-adv-x="2723" 
d="M2024 1608l-262 353h198l161 -196l164 196h203l-262 -353h-202zM1576 0v174l773 1075h-746v216h1066v-197l-759 -1052h764l-1 -216h-1097zM430 217h194.001c167.333 0 294.666 43.833 381.999 131.5s131 215.5 131 383.5c0 180 -45 310.833 -135 392.5
s-225.667 122.5 -407 122.5h-165v-1030zM159.001 0l0.000976562 1465h424c128 0 242.667 -14.667 344 -44s188.5 -73.5 261.5 -132.5s129 -135 168 -228s58.5 -200.5 58.5 -322.5c0 -236.667 -71.333 -418.834 -214 -546.501s-340.334 -191.5 -593.001 -191.5h-449z" />
    <glyph glyph-name="uni01C5" unicode="&#x1c5;" horiz-adv-x="2491" 
d="M1904 1248l-262 353h198l161 -196l164 196h203l-262 -353h-202zM1579 0v159l544 758h-518v182h808v-179l-515 -729h533v-191h-852zM430 217h194.001c167.333 0 294.666 43.833 381.999 131.5s131 215.5 131 383.5c0 180 -45 310.833 -135 392.5
s-225.667 122.5 -407 122.5h-165v-1030zM159.001 0l0.000976562 1465h424c128 0 242.667 -14.667 344 -44s188.5 -73.5 261.5 -132.5s129 -135 168 -228s58.5 -200.5 58.5 -322.5c0 -236.667 -71.333 -418.834 -214 -546.501s-340.334 -191.5 -593.001 -191.5h-449z" />
    <glyph glyph-name="uni01C6" unicode="&#x1c6;" horiz-adv-x="2236" 
d="M1649 1248l-262 353h198l161 -196l164 196h203l-262 -353h-202zM1324 0v159l544 758h-518v182h808v-179l-515 -729h533v-191h-852zM542 -21c-143.333 0 -255.998 52.666 -337.998 157.999s-123 246 -123 422c0 170.667 40.833 307.834 122.5 411.501
s194.167 155.5 337.5 155.5c156 0 266.333 -55.333 331 -166c-6.66699 65.333 -10 128.333 -10 189v355l262 17v-1521h-227l-29 150c-11.333 -18 -21.833 -33.5 -31.5 -46.5s-23.834 -28 -42.501 -45s-38.834 -30.667 -60.501 -41s-49 -19.333 -82 -27
s-69.5 -11.5 -109.5 -11.5zM604.002 177.999c176 0 265.333 119.667 268 359c0 135.333 -22.667 234 -68 296s-113 93 -203 93c-78.667 0 -141.5 -31.5 -188.5 -94.5s-70.5 -155.833 -70.5 -278.5c0 -122 23.5 -215 70.5 -279s110.833 -96 191.5 -96z" />
    <glyph glyph-name="uni01C7" unicode="&#x1c7;" horiz-adv-x="1704" 
d="M998 -321l-10.999 213c32 -5.33301 67 -8 105 -8c74 0 124 19 150 57s39 100.667 39 188v1340h272v-1322c0 -84 -7.5 -154.833 -22.5 -212.5s-40.333 -106.667 -76 -147s-83 -69.833 -142 -88.5s-132.167 -28 -219.5 -28c-36.667 0 -68.334 2.66699 -95.001 8zM158.001 0
v1465h271v-1249h613l-8 -216h-876z" />
    <glyph glyph-name="uni01C8" unicode="&#x1c8;" horiz-adv-x="1598" 
d="M1023 -427l-28.999 194h58c33.333 0 60.666 2.5 81.999 7.5s39 12 53 21s24.333 22.833 31 41.5s11.167 38.834 13.5 60.501s3.5 50.5 3.5 86.5v1115h262v-1073c0 -54.667 -2.16699 -101.667 -6.5 -141s-12.166 -76.833 -23.499 -112.5s-26.833 -65.167 -46.5 -88.5
s-44.834 -43.833 -75.501 -61.5s-67.667 -30.334 -111 -38.001s-94 -11.5 -152 -11.5h-59zM1235 1259v224h262v-224h-262zM158.001 0v1465h271v-1249h613l-8 -216h-876z" />
    <glyph glyph-name="uni01C9" unicode="&#x1c9;" horiz-adv-x="1227" 
d="M652 -427l-28.999 194h58c33.333 0 60.666 2.5 81.999 7.5s39 12 53 21s24.333 22.833 31 41.5s11.167 38.834 13.5 60.501s3.5 50.5 3.5 86.5v1115h262v-1073c0 -54.667 -2.16699 -101.667 -6.5 -141s-12.166 -76.833 -23.499 -112.5s-26.833 -65.167 -46.5 -88.5
s-44.834 -43.833 -75.501 -61.5s-67.667 -30.334 -111 -38.001s-94 -11.5 -152 -11.5h-59zM864.001 1259v224h262v-224h-262zM518.001 -15c-75.333 0 -137.829 8.83105 -187.496 26.498s-88.834 45.834 -117.501 84.501s-48.667 84.667 -60 138s-17 119.666 -17 198.999
v1071l262 17v-1083c0 -98.667 11.667 -165.5 35 -200.5s68.666 -52.5 135.999 -52.5c33.333 0 75.666 3.66699 126.999 11l7 -187c-0.666992 0 -8.83398 -1.66699 -24.501 -5s-30.667 -6.16602 -45 -8.49902s-32.5 -4.66602 -54.5 -6.99902s-42.333 -3.5 -61 -3.5z" />
    <glyph glyph-name="uni01CA" unicode="&#x1ca;" horiz-adv-x="2187" 
d="M1481 -321l-10.999 213c32 -5.33301 67 -8 105 -8c74 0 124 19 150 57s39 100.667 39 188v1340h272v-1322c0 -84 -7.5 -154.833 -22.5 -212.5s-40.333 -106.667 -76 -147s-83 -69.833 -142 -88.5s-132.167 -28 -219.5 -28c-36.667 0 -68.334 2.66699 -95.001 8z
M158.001 0v1465h288l317 -492l291 -450l51.5 -77.5l51.5 -77.5c-4.66699 228.667 -7 347.334 -7 356.001v741h247v-1465h-292l-661 1030l-48 79c5.33301 -176 8 -299.667 8 -371v-738h-246z" />
    <glyph glyph-name="uni01CB" unicode="&#x1cb;" horiz-adv-x="2081" 
d="M1506 -427l-28.999 194h58c33.333 0 60.666 2.5 81.999 7.5s39 12 53 21s24.333 22.833 31 41.5s11.167 38.834 13.5 60.501s3.5 50.5 3.5 86.5v1115h262v-1073c0 -54.667 -2.16699 -101.667 -6.5 -141s-12.166 -76.833 -23.499 -112.5s-26.833 -65.167 -46.5 -88.5
s-44.834 -43.833 -75.501 -61.5s-67.667 -30.334 -111 -38.001s-94 -11.5 -152 -11.5h-59zM1718 1259v224h262v-224h-262zM158.001 0v1465h288l317 -492l291 -450l51.5 -77.5l51.5 -77.5c-4.66699 228.667 -7 347.334 -7 356.001v741h247v-1465h-292l-661 1030l-48 79
c5.33301 -176 8 -299.667 8 -371v-738h-246z" />
    <glyph glyph-name="uni01CC" unicode="&#x1cc;" horiz-adv-x="1781" 
d="M1206 -427l-28.999 194h58c33.333 0 60.666 2.5 81.999 7.5s39 12 53 21s24.333 22.833 31 41.5s11.167 38.834 13.5 60.501s3.5 50.5 3.5 86.5v1115h262v-1073c0 -54.667 -2.16699 -101.667 -6.5 -141s-12.166 -76.833 -23.499 -112.5s-26.833 -65.167 -46.5 -88.5
s-44.834 -43.833 -75.501 -61.5s-67.667 -30.334 -111 -38.001s-94 -11.5 -152 -11.5h-59zM1418 1259v224h262v-224h-262zM133.001 0v1099h211l29 -139c112 110.667 236.333 166 373 166c128 0 223.833 -36.833 287.5 -110.5s95.5 -180.5 95.5 -320.5v-695h-263v663
c-0.666992 88.667 -15 155 -43 199s-78.333 66 -151 66c-56.667 0 -108.5 -14.5 -155.5 -43.5s-81.167 -65.5 -102.5 -109.5c-12.667 -52 -19 -132 -19 -240v-535h-262z" />
    <glyph glyph-name="uni01F1" unicode="&#x1f1;" horiz-adv-x="2723" 
d="M1576 0v174l773 1075h-746v216h1066v-197l-759 -1052h764l-1 -216h-1097zM430 217h194.001c167.333 0 294.666 43.833 381.999 131.5s131 215.5 131 383.5c0 180 -45 310.833 -135 392.5s-225.667 122.5 -407 122.5h-165v-1030zM159.001 0l0.000976562 1465h424
c128 0 242.667 -14.667 344 -44s188.5 -73.5 261.5 -132.5s129 -135 168 -228s58.5 -200.5 58.5 -322.5c0 -236.667 -71.333 -418.834 -214 -546.501s-340.334 -191.5 -593.001 -191.5h-449z" />
    <glyph glyph-name="uni01F2" unicode="&#x1f2;" horiz-adv-x="2491" 
d="M1579 0v159l544 758h-518v182h808v-179l-515 -729h533v-191h-852zM430 217h194.001c167.333 0 294.666 43.833 381.999 131.5s131 215.5 131 383.5c0 180 -45 310.833 -135 392.5s-225.667 122.5 -407 122.5h-165v-1030zM159.001 0l0.000976562 1465h424
c128 0 242.667 -14.667 344 -44s188.5 -73.5 261.5 -132.5s129 -135 168 -228s58.5 -200.5 58.5 -322.5c0 -236.667 -71.333 -418.834 -214 -546.501s-340.334 -191.5 -593.001 -191.5h-449z" />
    <glyph glyph-name="uni01F3" unicode="&#x1f3;" horiz-adv-x="2236" 
d="M1324 0v159l544 758h-518v182h808v-179l-515 -729h533v-191h-852zM542 -21c-143.333 0 -255.998 52.666 -337.998 157.999s-123 246 -123 422c0 170.667 40.833 307.834 122.5 411.501s194.167 155.5 337.5 155.5c156 0 266.333 -55.333 331 -166
c-6.66699 65.333 -10 128.333 -10 189v355l262 17v-1521h-227l-29 150c-11.333 -18 -21.833 -33.5 -31.5 -46.5s-23.834 -28 -42.501 -45s-38.834 -30.667 -60.501 -41s-49 -19.333 -82 -27s-69.5 -11.5 -109.5 -11.5zM604.002 177.999c176 0 265.333 119.667 268 359
c0 135.333 -22.667 234 -68 296s-113 93 -203 93c-78.667 0 -141.5 -31.5 -188.5 -94.5s-70.5 -155.833 -70.5 -278.5c0 -122 23.5 -215 70.5 -279s110.833 -96 191.5 -96z" />
    <glyph glyph-name="uni01F4" unicode="&#x1f4;" horiz-adv-x="1466" 
d="M639 1608l171 383h299l-315 -383h-155zM812 -21c-223.333 0 -397.832 67.333 -523.499 202s-188.5 319 -188.5 553c0 148.667 29.333 279.5 88 392.5s145 201.167 259 264.5s248.667 95 404 95c178 0 330.667 -38.333 458 -115l-88 -202c-121.333 65.333 -243 98 -365 98
c-148 0 -264.333 -48 -349 -144s-127 -226.667 -127 -392c0 -164 37.667 -293.667 113 -389s185.666 -143 330.999 -143c93.333 0 178 14.667 254 44v340h-307l2 213h560v-707c-90.667 -37.333 -176.5 -65 -257.5 -83s-168.833 -27 -263.5 -27z" />
    <glyph glyph-name="uni01F5" unicode="&#x1f5;" horiz-adv-x="1267" 
d="M531 1248l171 383h299l-315 -383h-155zM353 -492l-14.999 212.002h133c154 0 261.667 20.5 323 61.5s92 116.167 92 225.5c0 44.667 -2 93 -6 145c-17.333 -24 -33.833 -43.833 -49.5 -59.5s-35.334 -31.167 -59.001 -46.5s-52 -26.833 -85 -34.5
s-70.5 -11.5 -112.5 -11.5c-145.333 0 -264.833 52.333 -358.5 157s-140.5 239.667 -140.5 405c0 88 13 168.167 39 240.5s61.333 131.833 106 178.5s96.167 82.5 154.5 107.5s120.5 37.5 186.5 37.5c147.333 0 257 -53.667 329 -161l18 134h234v-1021
c0 -54.667 -2.66699 -103.834 -8 -147.501s-14.666 -85.667 -27.999 -126s-30.833 -75.5 -52.5 -105.5s-48.834 -57.333 -81.501 -82s-71.167 -44.834 -115.5 -60.501s-95.833 -27.667 -154.5 -36s-124.667 -12.5 -198 -12.5h-151zM616.001 183.002
c180.667 0 271.999 121 273.999 363v38c-1.33301 108.667 -24 192.667 -68 252s-108.333 89.333 -193 90c-96 0 -168.667 -32.833 -218 -98.5s-74 -154.167 -74 -265.5c0 -107.333 24.833 -197.333 74.5 -270s117.834 -109 204.501 -109z" />
    <glyph glyph-name="uni0200" unicode="&#x200;" horiz-adv-x="1359" 
d="M404 1608l-315 339h275l211 -339h-171zM768 1608l-297 339h258l227 -339h-188zM-3 0l539 1466h295l531 -1466h-278l-145 414h-513l-146 -414h-283zM494 616l376 -0.000976562c-120 384.667 -181.667 583.334 -185 596.001z" />
    <glyph glyph-name="uni0201" unicode="&#x201;" horiz-adv-x="1142" 
d="M270 1248l-315 339h275l211 -339h-171zM634 1248l-297 339h258l227 -339h-188zM423 -21c-102 0 -184.501 28.165 -247.501 84.498s-94.5 137.5 -94.5 243.5c0 114 37.333 198.5 112 253.5s187.334 89.833 338.001 104.5c20.667 2.66699 43 5.33398 67 8.00098
s51 5.33398 81 8.00098s53.667 5 71 7v58c0 66.667 -15.333 115.167 -46 145.5s-77.334 45.5 -140.001 45.5c-89.333 0 -199.666 -25 -330.999 -75c-0.666992 2 -11.667 32.333 -33 91s-32.333 88.667 -33 90c129.333 55.333 269.333 83 420 83
c148 0 255.667 -32.167 323 -96.5s101 -168.5 101 -312.5v-717h-194c-0.666992 2.66699 -8 25 -22 67s-21 64.333 -21 67c-54.667 -53.333 -108.167 -92.5 -160.5 -117.5s-115.833 -37.5 -190.5 -37.5zM493.999 164.998c60.667 0 113.5 14.5 158.5 43.5
s77.167 64.167 96.5 105.5v212c-2 0 -19.5 -1.33301 -52.5 -4s-50.833 -4 -53.5 -4c-106 -9.33301 -183.667 -29.333 -233 -60s-74 -80 -74 -148c0 -46.667 13.667 -82.5 41 -107.5s66.333 -37.5 117 -37.5z" />
    <glyph glyph-name="uni0202" unicode="&#x202;" horiz-adv-x="1359" 
d="M389 1608c0 75.333 29 134.165 87 176.498s126.667 63.5 206 63.5c50 0 96.333 -8.5 139 -25.5s78.167 -44.167 106.5 -81.5s42.5 -81.666 42.5 -132.999h-167c0 34.667 -12.5 61.334 -37.5 80.001s-54.167 28 -87.5 28s-62 -9.5 -86 -28.5s-36 -45.5 -36 -79.5h-167z
M-3 -0.000976562l539 1466h295l531 -1466h-278l-145 414h-513l-146 -414h-283zM494 615.999l376 -0.000976562c-120 384.667 -181.667 583.334 -185 596.001z" />
    <glyph glyph-name="uni0203" unicode="&#x203;" horiz-adv-x="1142" 
d="M255 1248c0 75.333 29 134.165 87 176.498s126.667 63.5 206 63.5c50 0 96.333 -8.5 139 -25.5s78.167 -44.167 106.5 -81.5s42.5 -81.666 42.5 -132.999h-167c0 34.667 -12.5 61.334 -37.5 80.001s-54.167 28 -87.5 28s-62 -9.5 -86 -28.5s-36 -45.5 -36 -79.5h-167z
M423 -21.001c-102 0 -184.501 28.165 -247.501 84.498s-94.5 137.5 -94.5 243.5c0 114 37.333 198.5 112 253.5s187.334 89.833 338.001 104.5c20.667 2.66699 43 5.33398 67 8.00098s51 5.33398 81 8.00098s53.667 5 71 7v58c0 66.667 -15.333 115.167 -46 145.5
s-77.334 45.5 -140.001 45.5c-89.333 0 -199.666 -25 -330.999 -75c-0.666992 2 -11.667 32.333 -33 91s-32.333 88.667 -33 90c129.333 55.333 269.333 83 420 83c148 0 255.667 -32.167 323 -96.5s101 -168.5 101 -312.5v-717h-194c-0.666992 2.66699 -8 25 -22 67
s-21 64.333 -21 67c-54.667 -53.333 -108.167 -92.5 -160.5 -117.5s-115.833 -37.5 -190.5 -37.5zM493.999 164.997c60.667 0 113.5 14.5 158.5 43.5s77.167 64.167 96.5 105.5v212c-2 0 -19.5 -1.33301 -52.5 -4s-50.833 -4 -53.5 -4
c-106 -9.33301 -183.667 -29.333 -233 -60s-74 -80 -74 -148c0 -46.667 13.667 -82.5 41 -107.5s66.333 -37.5 117 -37.5z" />
    <glyph glyph-name="uni0204" unicode="&#x204;" 
d="M332 1608l-315 339h275l211 -339h-171zM696 1608l-297 339h258l227 -339h-188zM158 0v1465h888l-11 -215h-606v-378h576v-215h-576v-441h628l-9 -216h-890z" />
    <glyph glyph-name="uni0205" unicode="&#x205;" horiz-adv-x="1157" 
d="M303 1248l-315 339h275l211 -339h-171zM667 1248l-297 339h258l227 -339h-188zM641 -21c-176.667 0 -314.168 50.833 -412.501 152.5s-147.5 242.167 -147.5 421.5c0 174.667 46.333 313.667 139 417s219 155.333 379 156c151.333 0 268.833 -47.333 352.5 -142
s125.5 -220.334 125.5 -377.001c0 -11.333 -0.166992 -29.666 -0.5 -54.999s-0.5 -44 -0.5 -56h-731c2.66699 -102.667 30.834 -182.167 84.501 -238.5s127.5 -84.5 221.5 -84.5c120 0 235.333 31.333 346 94l37 -186c-110 -68 -241 -102 -393 -102zM349.999 661h479.999
c0 89.333 -20.333 158 -61 206s-97 72 -169 72c-67.333 0 -124.166 -23.333 -170.499 -70s-72.833 -116 -79.5 -208z" />
    <glyph glyph-name="uni0206" unicode="&#x206;" 
d="M317 1608c0 75.333 29 134.165 87 176.498s126.667 63.5 206 63.5c50 0 96.333 -8.5 139 -25.5s78.167 -44.167 106.5 -81.5s42.5 -81.666 42.5 -132.999h-167c0 34.667 -12.5 61.334 -37.5 80.001s-54.167 28 -87.5 28s-62 -9.5 -86 -28.5s-36 -45.5 -36 -79.5h-167z
M158 -0.000976562v1465h888l-11 -215h-606v-378h576v-215h-576v-441h628l-9 -216h-890z" />
    <glyph glyph-name="uni0207" unicode="&#x207;" horiz-adv-x="1157" 
d="M289 1248c0 75.333 29 134.165 87 176.498s126.667 63.5 206 63.5c50 0 96.333 -8.5 139 -25.5s78.167 -44.167 106.5 -81.5s42.5 -81.666 42.5 -132.999h-167c0 34.667 -12.5 61.334 -37.5 80.001s-54.167 28 -87.5 28s-62 -9.5 -86 -28.5s-36 -45.5 -36 -79.5h-167z
M641 -21.001c-176.667 0 -314.168 50.833 -412.501 152.5s-147.5 242.167 -147.5 421.5c0 174.667 46.333 313.667 139 417s219 155.333 379 156c151.333 0 268.833 -47.333 352.5 -142s125.5 -220.334 125.5 -377.001c0 -11.333 -0.166992 -29.666 -0.5 -54.999
s-0.5 -44 -0.5 -56h-731c2.66699 -102.667 30.834 -182.167 84.501 -238.5s127.5 -84.5 221.5 -84.5c120 0 235.333 31.333 346 94l37 -186c-110 -68 -241 -102 -393 -102zM349.999 660.999h479.999c0 89.333 -20.333 158 -61 206s-97 72 -169 72
c-67.333 0 -124.166 -23.333 -170.499 -70s-72.833 -116 -79.5 -208z" />
    <glyph glyph-name="uni0208" unicode="&#x208;" horiz-adv-x="602" 
d="M24 1608l-315 339h275l211 -339h-171zM388 1608l-297 339h258l227 -339h-188zM165 0v1465h271v-1465h-271z" />
    <glyph glyph-name="uni0209" unicode="&#x209;" horiz-adv-x="548" 
d="M-20 1248l-315 339h275l211 -339h-171zM344 1248l-297 339h258l227 -339h-188zM129 0v1098h255v-1098h-255z" />
    <glyph glyph-name="uni020A" unicode="&#x20a;" horiz-adv-x="602" 
d="M10 1608c0 75.333 29 134.165 87 176.498s126.667 63.5 206 63.5c50 0 96.333 -8.5 139 -25.5s78.167 -44.167 106.5 -81.5s42.5 -81.666 42.5 -132.999h-167c0 34.667 -12.5 61.334 -37.5 80.001s-54.167 28 -87.5 28s-62 -9.5 -86 -28.5s-36 -45.5 -36 -79.5h-167z
M165 -0.000976562v1465h271v-1465h-271z" />
    <glyph glyph-name="uni020B" unicode="&#x20b;" horiz-adv-x="548" 
d="M-34 1248c0 75.333 29 134.165 87 176.498s126.667 63.5 206 63.5c50 0 96.333 -8.5 139 -25.5s78.167 -44.167 106.5 -81.5s42.5 -81.666 42.5 -132.999h-167c0 34.667 -12.5 61.334 -37.5 80.001s-54.167 28 -87.5 28s-62 -9.5 -86 -28.5s-36 -45.5 -36 -79.5h-167z
M129 -0.000976562v1098h255v-1098h-255z" />
    <glyph glyph-name="uni020C" unicode="&#x20c;" horiz-adv-x="1626" 
d="M537 1608l-315 339h275l211 -339h-171zM901 1608l-297 339h258l227 -339h-188zM814 200c142 0 249.166 46.167 321.499 138.5s108.5 222.833 108.5 391.5c0 170.667 -36.167 303 -108.5 397s-179.166 141 -320.499 141c-142 0 -249.5 -47.167 -322.5 -141.5
s-109.5 -226.5 -109.5 -396.5c0 -168 36.333 -298.333 109 -391s180 -139 322 -139zM812.999 -21c-220.667 0 -394.833 66.832 -522.5 200.499s-191.5 318.167 -191.5 553.5c0 236.667 64 421.334 192 554.001s302.333 199 523 199s394.667 -66.5 522 -199.5
s191 -317.833 191 -554.5c0 -234 -64 -418 -192 -552s-302 -201 -522 -201z" />
    <glyph glyph-name="uni020D" unicode="&#x20d;" horiz-adv-x="1222" 
d="M335 1248l-315 339h275l211 -339h-171zM699 1248l-297 339h258l227 -339h-188zM612 178c88.667 0 155.334 32.332 200.001 96.999s67 157.334 67 278.001c0 122 -22.333 215 -67 279s-112 96 -202 96c-88.667 0 -155.5 -32.167 -200.5 -96.5s-67.5 -157.5 -67.5 -279.5
c0 -120 22.667 -212.333 68 -277s112.666 -97 201.999 -97zM605 -21.001c-162.667 0 -290.667 52.667 -384 158s-140 244 -140 416c0 177.333 46.667 317.166 140 419.499s225 153.5 395 153.5c164 0 292.5 -52.167 385.5 -156.5s139.5 -243.166 139.5 -416.499
c0 -175.333 -47 -314.833 -141 -418.5s-225.667 -155.5 -395 -155.5z" />
    <glyph glyph-name="uni020E" unicode="&#x20e;" horiz-adv-x="1626" 
d="M523 1608c0 75.333 29 134.165 87 176.498s126.667 63.5 206 63.5c50 0 96.333 -8.5 139 -25.5s78.167 -44.167 106.5 -81.5s42.5 -81.666 42.5 -132.999h-167c0 34.667 -12.5 61.334 -37.5 80.001s-54.167 28 -87.5 28s-62 -9.5 -86 -28.5s-36 -45.5 -36 -79.5h-167z
M814 199.999c142 0 249.166 46.167 321.499 138.5s108.5 222.833 108.5 391.5c0 170.667 -36.167 303 -108.5 397s-179.166 141 -320.499 141c-142 0 -249.5 -47.167 -322.5 -141.5s-109.5 -226.5 -109.5 -396.5c0 -168 36.333 -298.333 109 -391s180 -139 322 -139z
M812.999 -21.001c-220.667 0 -394.833 66.832 -522.5 200.499s-191.5 318.167 -191.5 553.5c0 236.667 64 421.334 192 554.001s302.333 199 523 199s394.667 -66.5 522 -199.5s191 -317.833 191 -554.5c0 -234 -64 -418 -192 -552s-302 -201 -522 -201z" />
    <glyph glyph-name="uni020F" unicode="&#x20f;" horiz-adv-x="1222" 
d="M321 1248c0 75.333 29 134.165 87 176.498s126.667 63.5 206 63.5c50 0 96.333 -8.5 139 -25.5s78.167 -44.167 106.5 -81.5s42.5 -81.666 42.5 -132.999h-167c0 34.667 -12.5 61.334 -37.5 80.001s-54.167 28 -87.5 28s-62 -9.5 -86 -28.5s-36 -45.5 -36 -79.5h-167z
M612 177.999c88.667 0 155.334 32.332 200.001 96.999s67 157.334 67 278.001c0 122 -22.333 215 -67 279s-112 96 -202 96c-88.667 0 -155.5 -32.167 -200.5 -96.5s-67.5 -157.5 -67.5 -279.5c0 -120 22.667 -212.333 68 -277s112.666 -97 201.999 -97zM605 -21.002
c-162.667 0 -290.667 52.667 -384 158s-140 244 -140 416c0 177.333 46.667 317.166 140 419.499s225 153.5 395 153.5c164 0 292.5 -52.167 385.5 -156.5s139.5 -243.166 139.5 -416.499c0 -175.333 -47 -314.833 -141 -418.5s-225.667 -155.5 -395 -155.5z" />
    <glyph glyph-name="uni0210" unicode="&#x210;" horiz-adv-x="1394" 
d="M472 1608l-315 339h275l211 -339h-171zM836 1608l-297 339h258l227 -339h-188zM151 0v1469h543c74 0 138.167 -3.33301 192.5 -10s106 -18.834 155 -36.501s88.667 -41.5 119 -71.5s54.333 -69.167 72 -117.5s26.5 -105.5 26.5 -171.5
c0 -194.667 -88.333 -322.667 -265 -384c36 -40.667 80.667 -116 134 -226l218 -452h-296l-171 383c-64.667 137.333 -104.667 218.666 -120 243.999c-11.333 0.666992 -49 1 -113 1l-227 2v-630h-268zM718 824.002c104 0 178.667 18.5 224 55.5s68 96.5 68 178.5
c0 72 -23 125 -69 159s-116.333 51 -211 51h-311v-443c10 0 59.667 -0.166992 149 -0.5s139.333 -0.5 150 -0.5z" />
    <glyph glyph-name="uni0211" unicode="&#x211;" horiz-adv-x="798" 
d="M176 1248l-315 339h275l211 -339h-171zM540 1248l-297 339h258l227 -339h-188zM134 0l0.00195312 1099h220l34 -168c72 115.333 176.333 173 313 173c28.667 0 52 -1.33301 70 -4l-4 -219c-26.667 4 -54.334 6 -83.001 6c-96.667 0 -168.834 -25.667 -216.501 -77
s-71.5 -122.666 -71.5 -213.999v-596h-262z" />
    <glyph glyph-name="uni0212" unicode="&#x212;" horiz-adv-x="1394" 
d="M458 1608c0 75.333 29 134.165 87 176.498s126.667 63.5 206 63.5c50 0 96.333 -8.5 139 -25.5s78.167 -44.167 106.5 -81.5s42.5 -81.666 42.5 -132.999h-167c0 34.667 -12.5 61.334 -37.5 80.001s-54.167 28 -87.5 28s-62 -9.5 -86 -28.5s-36 -45.5 -36 -79.5h-167z
M151 -0.000976562v1469h543c74 0 138.167 -3.33301 192.5 -10s106 -18.834 155 -36.501s88.667 -41.5 119 -71.5s54.333 -69.167 72 -117.5s26.5 -105.5 26.5 -171.5c0 -194.667 -88.333 -322.667 -265 -384c36 -40.667 80.667 -116 134 -226l218 -452h-296l-171 383
c-64.667 137.333 -104.667 218.666 -120 243.999c-11.333 0.666992 -49 1 -113 1l-227 2v-630h-268zM718 824.001c104 0 178.667 18.5 224 55.5s68 96.5 68 178.5c0 72 -23 125 -69 159s-116.333 51 -211 51h-311v-443c10 0 59.667 -0.166992 149 -0.5
s139.333 -0.5 150 -0.5z" />
    <glyph glyph-name="uni0213" unicode="&#x213;" horiz-adv-x="798" 
d="M162 1248c0 75.333 29 134.165 87 176.498s126.667 63.5 206 63.5c50 0 96.333 -8.5 139 -25.5s78.167 -44.167 106.5 -81.5s42.5 -81.666 42.5 -132.999h-167c0 34.667 -12.5 61.334 -37.5 80.001s-54.167 28 -87.5 28s-62 -9.5 -86 -28.5s-36 -45.5 -36 -79.5h-167z
M134 -0.000976562l0.00195312 1099h220l34 -168c72 115.333 176.333 173 313 173c28.667 0 52 -1.33301 70 -4l-4 -219c-26.667 4 -54.334 6 -83.001 6c-96.667 0 -168.834 -25.667 -216.501 -77s-71.5 -122.666 -71.5 -213.999v-596h-262z" />
    <glyph glyph-name="uni0214" unicode="&#x214;" horiz-adv-x="1468" 
d="M458 1608l-315 339h275l211 -339h-171zM822 1608l-297 339h258l227 -339h-188zM730 -21c-192 0 -337.667 47.834 -437 143.501s-149 230.5 -149 404.5v938h272v-915c0 -122 24.833 -211 74.5 -267s131.167 -84 244.5 -84c111.333 0 192 28.167 242 84.5
s75 145.5 75 267.5v914h271v-940c0 -172.667 -50.667 -306.834 -152 -402.501s-248.333 -143.5 -441 -143.5z" />
    <glyph glyph-name="uni0215" unicode="&#x215;" horiz-adv-x="1163" 
d="M306 1248l-315 339h275l211 -339h-171zM670 1248l-297 339h258l227 -339h-188zM581 -21c-142.667 0 -257.5 35.667 -344.5 107s-130.5 176 -130.5 314v699h263v-689c0 -82 17.167 -141.333 51.5 -178s88.833 -55 163.5 -55c73.333 0 126.833 18.167 160.5 54.5
s50.5 95.833 50.5 178.5v689h262v-699c0 -137.333 -43.667 -241.833 -131 -313.5s-202.333 -107.5 -345 -107.5z" />
    <glyph glyph-name="uni0216" unicode="&#x216;" horiz-adv-x="1468" 
d="M443 1608c0 75.333 29 134.165 87 176.498s126.667 63.5 206 63.5c50 0 96.333 -8.5 139 -25.5s78.167 -44.167 106.5 -81.5s42.5 -81.666 42.5 -132.999h-167c0 34.667 -12.5 61.334 -37.5 80.001s-54.167 28 -87.5 28s-62 -9.5 -86 -28.5s-36 -45.5 -36 -79.5h-167z
M730 -21.001c-192 0 -337.667 47.834 -437 143.501s-149 230.5 -149 404.5v938h272v-915c0 -122 24.833 -211 74.5 -267s131.167 -84 244.5 -84c111.333 0 192 28.167 242 84.5s75 145.5 75 267.5v914h271v-940c0 -172.667 -50.667 -306.834 -152 -402.501
s-248.333 -143.5 -441 -143.5z" />
    <glyph glyph-name="uni0217" unicode="&#x217;" horiz-adv-x="1163" 
d="M291 1248c0 75.333 29 134.165 87 176.498s126.667 63.5 206 63.5c50 0 96.333 -8.5 139 -25.5s78.167 -44.167 106.5 -81.5s42.5 -81.666 42.5 -132.999h-167c0 34.667 -12.5 61.334 -37.5 80.001s-54.167 28 -87.5 28s-62 -9.5 -86 -28.5s-36 -45.5 -36 -79.5h-167z
M581 -21.001c-142.667 0 -257.5 35.667 -344.5 107s-130.5 176 -130.5 314v699h263v-689c0 -82 17.167 -141.333 51.5 -178s88.833 -55 163.5 -55c73.333 0 126.833 18.167 160.5 54.5s50.5 95.833 50.5 178.5v689h262v-699c0 -137.333 -43.667 -241.833 -131 -313.5
s-202.333 -107.5 -345 -107.5z" />
    <glyph glyph-name="Scommaaccent" unicode="&#x218;" horiz-adv-x="1189" 
d="M465 -640l95 498h185l-144 -498h-136zM569 -20c-176.667 0 -335.001 40.668 -475.001 122.001l66 215c62.667 -34.667 130.834 -62.667 204.501 -84s145.5 -32 215.5 -32c86 0 151 18.5 195 55.5s66 90.167 66 159.5c0 92 -61.333 155.667 -184 191l-73 21.5l-112.5 34
c-35 11 -60.167 19.5 -75.5 25.5c-196.667 69.333 -295 198.666 -295 387.999c0 132.667 47.167 235 141.5 307s219.5 108 375.5 108c176.667 0 329 -36.333 457 -109l-82 -198c-130.667 58.667 -252 88 -364 88c-80.667 0 -141.5 -14.167 -182.5 -42.5
s-62.833 -75.5 -65.5 -141.5c0 -81.333 40.333 -134.333 121 -159c16 -6 55.333 -19 118 -39l122 -39c134 -44 229.833 -98.667 287.5 -164s86.5 -156.333 86.5 -273c0 -139.333 -49.333 -246.5 -148 -321.5s-231.667 -112.5 -399 -112.5z" />
    <glyph glyph-name="scommaaccent" unicode="&#x219;" horiz-adv-x="985" 
d="M363 -640l95 498h185l-144 -498h-136zM484 -20c-162 0 -291.666 27.667 -388.999 83l27 197c44 -24 100 -45.5 168 -64.5s130 -28.5 186 -28.5c58 0 103.167 10.833 135.5 32.5s48.833 53.5 49.5 95.5c0 38 -15.167 68 -45.5 90s-88.166 49.333 -173.499 82l-57 21
c-101.333 39.333 -174.333 83.166 -219 131.499s-67 113.833 -67 196.5c0 100 36.167 176.667 108.5 230s173.166 80 302.499 80c140 0 263 -26.333 369 -79l-65 -181c-104.667 48.667 -204.334 73 -299.001 73c-52.667 0 -93.834 -8.83301 -123.501 -26.5
s-44.5 -44.5 -44.5 -80.5c0 -34 14.333 -60.5 43 -79.5s84.667 -43.833 168 -74.5c2.66699 -0.666992 11.334 -3.66699 26.001 -9s26 -9.66602 34 -12.999c100.667 -36.667 174.667 -80.5 222 -131.5s71 -117.5 71 -199.5c-0.666992 -110 -38 -195 -112 -255
s-179 -90 -315 -90z" />
    <glyph glyph-name="uni021A" unicode="&#x21a;" 
d="M436 -620l95 498h185l-144 -498h-136zM441 0v1248h-427v217h1124v-217h-425v-1248h-272z" />
    <glyph glyph-name="uni021B" unicode="&#x21b;" horiz-adv-x="803" 
d="M242 -635l95 498h185l-144 -498h-136zM572 -15c-74.667 0 -136.833 8.83203 -186.5 26.499s-88.5 45.5 -116.5 83.5s-47.833 82.833 -59.5 134.5s-17.5 115.5 -17.5 191.5v519h-180l10 142l188 17l84 298l160 1v-299h273v-159h-273v-524
c0 -83.333 12 -142.666 36 -177.999s68.333 -53 133 -53c38 0 78.667 3.33301 122 10l7 -188c-1.33301 0 -9.5 -1.5 -24.5 -4.5s-29.333 -5.66699 -43 -8s-31.167 -4.5 -52.5 -6.5s-41.333 -3 -60 -3z" />
    <glyph glyph-name="uni0237" unicode="&#x237;" horiz-adv-x="527" 
d="M-38 -364l-4.99902 196.998h35c41.333 0 73.833 3.33301 97.5 10s41.834 19.667 54.501 39s20.667 41.333 24 66s5 60.334 5 107.001v1034h237v-991c0 -83.333 -5.66699 -152.166 -17 -206.499s-31.833 -101.5 -61.5 -141.5s-71.334 -69 -125.001 -87
s-121.834 -27 -204.501 -27h-40z" />
    <glyph glyph-name="circumflex" unicode="&#x2c6;" horiz-adv-x="775" 
d="M47 1163l250 383h208l251 -383h-184l-174 218l-172 -218h-179z" />
    <glyph glyph-name="caron" unicode="&#x2c7;" horiz-adv-x="772" 
d="M302 1193l-262 353h198l161 -196l164 196h203l-262 -353h-202z" />
    <glyph glyph-name="breve" unicode="&#x2d8;" horiz-adv-x="710" 
d="M352 1229c-88 0 -158.5 21.333 -211.5 64s-79.5 105.334 -79.5 188.001h167c0 -34 9.83301 -58.5 29.5 -73.5s51.167 -22.5 94.5 -22.5s74.833 7.5 94.5 22.5s29.5 39.5 29.5 73.5h167c0 -82.667 -26.5 -145.334 -79.5 -188.001s-123.5 -64 -211.5 -64z" />
    <glyph glyph-name="dotaccent" unicode="&#x2d9;" horiz-adv-x="539" 
d="M157 1249v216h201v-216h-201z" />
    <glyph glyph-name="ring" unicode="&#x2da;" horiz-adv-x="662" 
d="M330 1251c34 0 60.167 10.667 78.5 32s27.5 47.333 27.5 78c0 30 -9.33301 56.167 -28 78.5s-44.667 33.5 -78 33.5c-34 0 -60.333 -10.833 -79 -32.5s-28 -48.167 -28 -79.5c0 -30.667 9.33301 -56.667 28 -78s45 -32 79 -32zM330 1158c-66.667 0 -120.167 20 -160.5 60
s-60.5 88 -60.5 144c0 55.333 19.833 102.5 59.5 141.5s93.5 58.5 161.5 58.5c67.333 0 120.833 -19.5 160.5 -58.5s59.5 -86.167 59.5 -141.5c0 -56 -20 -104 -60 -144s-93.333 -60 -160 -60z" />
    <glyph glyph-name="ogonek" unicode="&#x2db;" horiz-adv-x="577" 
d="M321 -392c-60 0 -109.5 14.6689 -148.5 44.002s-58.5 72 -58.5 128c0 97.333 63.667 182 191 254h108c-82.667 -61.333 -124 -127.666 -124 -198.999c0 -22.667 7.5 -42.834 22.5 -60.501s34.833 -26.5 59.5 -26.5c9.33301 0 19.5 0.833008 30.5 2.5s21 3.66699 30 6
s18.5 5.16602 28.5 8.49902s18 6.16602 24 8.49902l18.5 7.5c6.33301 2.66699 9.83301 4 10.5 4v-140c-63.333 -24.667 -127.333 -37 -192 -37z" />
    <glyph glyph-name="tilde" unicode="&#x2dc;" horiz-adv-x="786" 
d="M46 1230c0 24 0.833984 45.668 2.50098 65.001s6 40.333 13 63s16.5 41.667 28.5 57s28.833 28.166 50.5 38.499s47.5 15.5 77.5 15.5c38.667 0 81.667 -7 129 -21s88.666 -28 123.999 -42s58 -21 68 -21c31.333 0 47 28 47 84h147c0 -23.333 -0.666992 -44 -2 -62
s-5.33301 -38.833 -12 -62.5s-15.5 -43.167 -26.5 -58.5s-27.333 -28.5 -49 -39.5s-47.167 -16.5 -76.5 -16.5c-39.333 0 -98.666 15 -177.999 45s-129 45 -149 45c-32.667 0 -49.334 -30 -50.001 -90h-144z" />
    <glyph glyph-name="hungarumlaut" unicode="&#x2dd;" horiz-adv-x="982" 
d="M150 1155l246 361h226l-338 -361h-134zM461 1155l247 361h225l-338 -361h-134z" />
    <glyph glyph-name="uni0307" unicode="&#x307;" horiz-adv-x="515" 
d="M157 1222v216h201v-216h-201z" />
    <glyph glyph-name="uni030F" unicode="&#x30f;" horiz-adv-x="982" 
d="M316 1197l-315 339h275l211 -339h-171zM680 1197l-297 339h258l227 -339h-188z" />
    <glyph glyph-name="uni0311" unicode="&#x311;" horiz-adv-x="713" 
d="M63 1229c0 75.333 29 134.165 87 176.498s126.667 63.5 206 63.5c50 0 96.333 -8.5 139 -25.5s78.167 -44.167 106.5 -81.5s42.5 -81.666 42.5 -132.999h-167c0 34.667 -12.5 61.334 -37.5 80.001s-54.167 28 -87.5 28s-62 -9.5 -86 -28.5s-36 -45.5 -36 -79.5h-167z" />
    <glyph glyph-name="uni0326" unicode="&#x326;" horiz-adv-x="632" 
d="M109 -658l110 517h225l-167 -517h-168z" />
    <glyph glyph-name="pi" unicode="&#x3c0;" horiz-adv-x="1421" 
d="M1154 -7c-37.333 0 -70 5.16602 -98 15.499s-50.667 24.5 -68 42.5s-31.166 40.833 -41.499 68.5s-17.5 56.667 -21.5 87s-6 65.5 -6 105.5l2 617h-355c-18.667 -457.333 -71 -766.666 -157 -927.999h-214c32 64.667 60.167 171.834 84.5 321.501s41 277.167 50 382.5
s14.167 181.666 15.5 228.999c-56 -2.66699 -103.333 -10 -142 -22s-78.334 -30 -119.001 -54l-26 175c42 30.667 89.667 50.667 143 60s128.333 14 225 14h895v-180h-196v-606c0 -45.333 4.5 -78 13.5 -98s28.167 -30 57.5 -30c20 0 54.667 7.66699 104 23l-14 -209
c-52.667 -9.33301 -96.667 -14 -132 -14z" />
    <glyph glyph-name="uni1E02" unicode="&#x1e02;" horiz-adv-x="1333" 
d="M605 1588v216h201v-216h-201zM158 0l-0.000976562 1465h457c194 0 338.667 -28.333 434 -85s143 -151 143 -283c0 -21.333 -1.33301 -42.333 -4 -63s-8.66699 -44.167 -18 -70.5s-21.666 -50.166 -36.999 -71.499s-36.666 -42.166 -63.999 -62.499
s-59.333 -36.166 -96 -47.499c90.667 -22 160 -64.167 208 -126.5s72 -139.166 72 -230.499c0 -138 -48.833 -243.333 -146.5 -316s-232.834 -109 -405.501 -109h-543zM428.999 195.996h235c208 0 312 81.333 312 244c0 82 -26 141 -78 177s-132.333 54 -241 54h-228v-475z
M428.999 859.996l232.001 -0.000976562c179.333 0 269 68.333 269 205c0 76.667 -25.833 129.334 -77.5 158.001s-133.834 43 -246.501 43h-177v-406z" />
    <glyph glyph-name="uni1E03" unicode="&#x1e03;" horiz-adv-x="1258" 
d="M555 1643v216h201v-216h-201zM722 -21c-74.667 0 -142.5 16.5 -203.5 49.5s-105.167 70.5 -132.5 112.5l-26 -140h-227v1503l262 17v-340c0 -66 -2 -141 -6 -225c86.667 113.333 199.667 170 339 170c140 0 249.833 -52 329.5 -156s119.5 -240 119.5 -408
c0 -174.667 -41.167 -315.5 -123.5 -422.5s-192.833 -160.5 -331.5 -160.5zM659 178c78 0 140.333 33 187 99s70 159.667 70 281c0 122 -22.833 214.333 -68.5 277s-107.5 94 -185.5 94c-177.333 0 -267 -119.667 -269 -359c0 -134.667 22.333 -233.667 67 -297
s111 -95 199 -95z" />
    <glyph glyph-name="uni1E0A" unicode="&#x1e0a;" horiz-adv-x="1514" 
d="M687 1608v216h201v-216h-201zM430 217h194.001c167.333 0 294.666 43.833 381.999 131.5s131 215.5 131 383.5c0 180 -45 310.833 -135 392.5s-225.667 122.5 -407 122.5h-165v-1030zM159.001 0l0.000976562 1465h424c128 0 242.667 -14.667 344 -44
s188.5 -73.5 261.5 -132.5s129 -135 168 -228s58.5 -200.5 58.5 -322.5c0 -236.667 -71.333 -418.834 -214 -546.501s-340.334 -191.5 -593.001 -191.5h-449z" />
    <glyph glyph-name="uni1E0B" unicode="&#x1e0b;" horiz-adv-x="1259" 
d="M502 1643v216h201v-216h-201zM542 -21c-143.333 0 -255.998 52.666 -337.998 157.999s-123 246 -123 422c0 170.667 40.833 307.834 122.5 411.501s194.167 155.5 337.5 155.5c156 0 266.333 -55.333 331 -166c-6.66699 65.333 -10 128.333 -10 189v355l262 17v-1521
h-227l-29 150c-11.333 -18 -21.833 -33.5 -31.5 -46.5s-23.834 -28 -42.501 -45s-38.834 -30.667 -60.501 -41s-49 -19.333 -82 -27s-69.5 -11.5 -109.5 -11.5zM604.002 177.999c176 0 265.333 119.667 268 359c0 135.333 -22.667 234 -68 296s-113 93 -203 93
c-78.667 0 -141.5 -31.5 -188.5 -94.5s-70.5 -155.833 -70.5 -278.5c0 -122 23.5 -215 70.5 -279s110.833 -96 191.5 -96z" />
    <glyph glyph-name="uni1E1E" unicode="&#x1e1e;" horiz-adv-x="1103" 
d="M491 1608v216h201v-216h-201zM158 0v1465h867l-10 -215h-588v-416h559v-213h-559v-621h-269z" />
    <glyph glyph-name="uni1E1F" unicode="&#x1e1f;" horiz-adv-x="760" 
d="M300 1674v216h201v-216h-201zM203 0v925h-174l17 154l157 20v61c0 66.667 6.16699 123.667 18.5 171s32.5 87.833 60.5 121.5s65.5 58.667 112.5 75s104.833 24.5 173.5 24.5c66.667 0 134.667 -6.33301 204 -19l-23 -195c-54.667 7.33301 -97.667 11 -129 11
c-56 0 -95.833 -13.5 -119.5 -40.5s-35.5 -71.833 -35.5 -134.5v-75h258v-174h-258v-925h-262z" />
    <glyph glyph-name="uni1E40" unicode="&#x1e40;" horiz-adv-x="1841" 
d="M820 1608v216h201v-216h-201zM158 0v1465h320l443 -1058l446 1058h316v-1465h-250v724l8 415l-37 -110l-375 -929h-232l-367 934l-37 110l9 -424v-720h-244z" />
    <glyph glyph-name="uni1E41" unicode="&#x1e41;" horiz-adv-x="1911" 
d="M859 1248v216h201v-216h-201zM133 0l0.00292969 1099h212l30 -140c13.333 16.667 26.166 31.5 38.499 44.5s29.333 27.667 51 44s44.667 29.833 69 40.5s54.333 19.667 90 27s73.834 11 114.501 11c87.333 0 157.166 -17.667 209.499 -53
s89.166 -76.666 110.499 -123.999c39.333 56.667 90.333 100.334 153 131.001s132.334 46 209.001 46c126 0 218.5 -35.667 277.5 -107s88.5 -177 88.5 -317v-702h-263v624c0 107.333 -11.833 184.833 -35.5 232.5s-68.834 71.5 -135.501 71.5
c-102 0 -175.333 -46 -220 -138c-18.667 -40.667 -31.334 -89.667 -38.001 -147v-643h-262v636c0 98 -13 171 -39 219s-73 72 -141 72c-55.333 0 -103 -14 -143 -42s-70.333 -64.667 -91 -110c-15.333 -67.333 -23 -148 -23 -242v-533h-262z" />
    <glyph glyph-name="uni1E56" unicode="&#x1e56;" horiz-adv-x="1245" 
d="M575 1608v216h201v-216h-201zM151 0l0.000976562 1469h488c115.333 0 214 -14.833 296 -44.5s146.833 -77.834 194.5 -144.501s71.5 -150.334 71.5 -251.001c0 -70 -9 -132.167 -27 -186.5s-47.667 -103.666 -89 -147.999s-99.5 -78.5 -174.5 -102.5
s-165.5 -36 -271.5 -36c-90.667 0 -164.334 2.66699 -221.001 8v-564h-267zM610.001 752.001c55.333 0 103.5 5.33105 144.5 15.998s73 24.334 96 41.001s41.333 37.334 55 62.001s22.667 48.5 27 71.5s6.5 48.833 6.5 77.5c0 80.667 -26 142 -78 184s-125.333 63 -220 63
h-223v-513c8 -1.33301 72 -2 192 -2z" />
    <glyph glyph-name="uni1E57" unicode="&#x1e57;" horiz-adv-x="1256" 
d="M553 1249v216h201v-216h-201zM133 -457v1556h225l28 -154c36 58 83.833 102.833 143.5 134.5s126.167 47.5 199.5 47.5c90 0 169.167 -25 237.5 -75s120.166 -118.167 155.499 -204.5s53 -183.833 53 -292.5c0 -170 -41.167 -308.5 -123.5 -415.5
s-193.833 -160.5 -334.5 -160.5c-69.333 0 -132.166 13.833 -188.499 41.5s-103.5 65.167 -141.5 112.5c5.33301 -96 8 -150 8 -162v-415zM661 179c78 0 139.5 32.668 184.5 98.001s67.5 158.666 67.5 279.999c0 123.333 -22.667 216 -68 278s-108.333 93 -189 93
c-173.333 0 -261 -118 -263 -354c0 -136 22.5 -235.833 67.5 -299.5s111.833 -95.5 200.5 -95.5z" />
    <glyph glyph-name="uni1E60" unicode="&#x1e60;" horiz-adv-x="1189" 
d="M505 1613v216h201v-216h-201zM569 -20c-176.667 0 -335.001 40.668 -475.001 122.001l66 215c62.667 -34.667 130.834 -62.667 204.501 -84s145.5 -32 215.5 -32c86 0 151 18.5 195 55.5s66 90.167 66 159.5c0 92 -61.333 155.667 -184 191l-73 21.5l-112.5 34
c-35 11 -60.167 19.5 -75.5 25.5c-196.667 69.333 -295 198.666 -295 387.999c0 132.667 47.167 235 141.5 307s219.5 108 375.5 108c176.667 0 329 -36.333 457 -109l-82 -198c-130.667 58.667 -252 88 -364 88c-80.667 0 -141.5 -14.167 -182.5 -42.5
s-62.833 -75.5 -65.5 -141.5c0 -81.333 40.333 -134.333 121 -159c16 -6 55.333 -19 118 -39l122 -39c134 -44 229.833 -98.667 287.5 -164s86.5 -156.333 86.5 -273c0 -139.333 -49.333 -246.5 -148 -321.5s-231.667 -112.5 -399 -112.5z" />
    <glyph glyph-name="uni1E61" unicode="&#x1e61;" horiz-adv-x="985" 
d="M403 1248v216h201v-216h-201zM484 -20c-162 0 -291.666 27.667 -388.999 83l27 197c44 -24 100 -45.5 168 -64.5s130 -28.5 186 -28.5c58 0 103.167 10.833 135.5 32.5s48.833 53.5 49.5 95.5c0 38 -15.167 68 -45.5 90s-88.166 49.333 -173.499 82l-57 21
c-101.333 39.333 -174.333 83.166 -219 131.499s-67 113.833 -67 196.5c0 100 36.167 176.667 108.5 230s173.166 80 302.499 80c140 0 263 -26.333 369 -79l-65 -181c-104.667 48.667 -204.334 73 -299.001 73c-52.667 0 -93.834 -8.83301 -123.501 -26.5
s-44.5 -44.5 -44.5 -80.5c0 -34 14.333 -60.5 43 -79.5s84.667 -43.833 168 -74.5c2.66699 -0.666992 11.334 -3.66699 26.001 -9s26 -9.66602 34 -12.999c100.667 -36.667 174.667 -80.5 222 -131.5s71 -117.5 71 -199.5c-0.666992 -110 -38 -195 -112 -255
s-179 -90 -315 -90z" />
    <glyph glyph-name="uni1E6A" unicode="&#x1e6a;" 
d="M475 1608v216h201v-216h-201zM441 0v1248h-427v217h1124v-217h-425v-1248h-272z" />
    <glyph glyph-name="uni1E6B" unicode="&#x1e6b;" horiz-adv-x="803" 
d="M281 1520v216h201v-216h-201zM572 -15c-74.667 0 -136.833 8.83203 -186.5 26.499s-88.5 45.5 -116.5 83.5s-47.833 82.833 -59.5 134.5s-17.5 115.5 -17.5 191.5v519h-180l10 142l188 17l84 298l160 1v-299h273v-159h-273v-524c0 -83.333 12 -142.666 36 -177.999
s68.333 -53 133 -53c38 0 78.667 3.33301 122 10l7 -188c-1.33301 0 -9.5 -1.5 -24.5 -4.5s-29.333 -5.66699 -43 -8s-31.167 -4.5 -52.5 -6.5s-41.333 -3 -60 -3z" />
    <glyph glyph-name="Wgrave" unicode="&#x1e80;" horiz-adv-x="2051" 
d="M941 1608l-331 383h306l188 -383h-163zM408 0l-398 1465h270l284 -1140l334 1133h259l317 -1137l290 1144h270l-410 -1465h-281l-313 1073l-343 -1073h-279z" />
    <glyph glyph-name="wgrave" unicode="&#x1e81;" horiz-adv-x="1713" 
d="M775 1248l-331 383h306l188 -383h-163zM346 0l-332.999 1099h267l211 -806l114 393c71.333 246.667 111.666 384.334 120.999 413.001h269c8.66699 -28 47 -164.333 115 -409s104.667 -376 110 -394l217 803h263l-344 -1099h-261
c-8.66699 28.667 -49.167 173.667 -121.5 435l-117.5 423c-13.333 -48.667 -55.833 -195.334 -127.5 -440.001s-113.167 -384 -124.5 -418h-258z" />
    <glyph glyph-name="Wacute" unicode="&#x1e82;" horiz-adv-x="2051" 
d="M945 1608l171 383h299l-315 -383h-155zM408 0l-398 1465h270l284 -1140l334 1133h259l317 -1137l290 1144h270l-410 -1465h-281l-313 1073l-343 -1073h-279z" />
    <glyph glyph-name="wacute" unicode="&#x1e83;" horiz-adv-x="1713" 
d="M779 1248l171 383h299l-315 -383h-155zM346 0l-332.999 1099h267l211 -806l114 393c71.333 246.667 111.666 384.334 120.999 413.001h269c8.66699 -28 47 -164.333 115 -409s104.667 -376 110 -394l217 803h263l-344 -1099h-261
c-8.66699 28.667 -49.167 173.667 -121.5 435l-117.5 423c-13.333 -48.667 -55.833 -195.334 -127.5 -440.001s-113.167 -384 -124.5 -418h-258z" />
    <glyph glyph-name="Wdieresis" unicode="&#x1e84;" horiz-adv-x="2051" 
d="M714 1608v254h195v-254h-195zM1135 1608v254h196v-254h-196zM408 0l-398 1465h270l284 -1140l334 1133h259l317 -1137l290 1144h270l-410 -1465h-281l-313 1073l-343 -1073h-279z" />
    <glyph glyph-name="wdieresis" unicode="&#x1e85;" horiz-adv-x="1713" 
d="M548 1248v254h195v-254h-195zM969 1248v254h196v-254h-196zM346 0l-332.999 1099h267l211 -806l114 393c71.333 246.667 111.666 384.334 120.999 413.001h269c8.66699 -28 47 -164.333 115 -409s104.667 -376 110 -394l217 803h263l-344 -1099h-261
c-8.66699 28.667 -49.167 173.667 -121.5 435l-117.5 423c-13.333 -48.667 -55.833 -195.334 -127.5 -440.001s-113.167 -384 -124.5 -418h-258z" />
    <glyph glyph-name="Ygrave" unicode="&#x1ef2;" horiz-adv-x="1256" 
d="M545 1608l-331 383h306l188 -383h-163zM492 0v581l-507 884h294l349 -634l351 634h290l-505 -879v-586h-272z" />
    <glyph glyph-name="ygrave" unicode="&#x1ef3;" horiz-adv-x="1116" 
d="M470 1248l-331 383h306l188 -383h-163zM191 -463c-42.667 0 -87.999 2.66699 -135.999 8l-13 203c30.667 -3.33301 69.667 -5 117 -5c60.667 0 109.334 12 146.001 36s67 66.667 91 128c2.66699 6.66699 16 44.334 40 113.001l-442 1079h280l289 -797
c21.333 79.333 69.166 226.666 143.499 441.999l122.5 355h280c-304.667 -805.333 -458.334 -1211.33 -461.001 -1218c-47.333 -123.333 -107 -211.5 -179 -264.5s-164.667 -79.5 -278 -79.5z" />
    <glyph glyph-name="endash" unicode="&#x2013;" horiz-adv-x="1271" 
d="M89 461v185h1099v-185h-1099z" />
    <glyph glyph-name="emdash" unicode="&#x2014;" horiz-adv-x="2151" 
d="M30 461v185h2086v-185h-2086z" />
    <glyph glyph-name="quoteleft" unicode="&#x2018;" horiz-adv-x="442" 
d="M386 1466l-108 -493h-218l159 493h167z" />
    <glyph glyph-name="quoteright" unicode="&#x2019;" horiz-adv-x="442" 
d="M60 973l108 493h218l-159 -493h-167z" />
    <glyph glyph-name="quotesinglbase" unicode="&#x201a;" horiz-adv-x="557" 
d="M116 -280l108 492h220l-159 -492h-169z" />
    <glyph glyph-name="quotedblleft" unicode="&#x201c;" horiz-adv-x="953" 
d="M795 1466l-108 -493h-210l148 493h170zM495 1466l-100 -493h-219l160 493h159z" />
    <glyph glyph-name="quotedblright" unicode="&#x201d;" horiz-adv-x="953" 
d="M176 973l108 493h210l-148 -493h-170zM476 973l100 493h219l-160 -493h-159z" />
    <glyph glyph-name="quotedblbase" unicode="&#x201e;" horiz-adv-x="1005" 
d="M158 -280l111 492h231l-169 -492h-173zM512 -280l118 492h225l-163 -492h-180z" />
    <glyph glyph-name="dagger" unicode="&#x2020;" horiz-adv-x="979" 
d="M384 115v855h-317v169h317v347h198v-347h334v-169h-344v-855h-188z" />
    <glyph glyph-name="daggerdbl" unicode="&#x2021;" horiz-adv-x="996" 
d="M403 -27v394h-277v162h277l-1 431h-273v163h273v354h200v-354h277v-163h-277l1 -431h272v-162h-272v-394h-200z" />
    <glyph glyph-name="bullet" unicode="&#x2022;" horiz-adv-x="995" 
d="M497 355c-102.667 0 -187.333 32.001 -254 96.001s-100 144.333 -100 241c0 97.333 34.5 179.166 103.5 245.499s154.5 99.5 256.5 99.5c101.333 0 185.5 -32.167 252.5 -96.5s100.5 -144.833 100.5 -241.5c0 -98 -34.167 -179.833 -102.5 -245.5
s-153.833 -98.5 -256.5 -98.5z" />
    <glyph glyph-name="guilsinglleft" unicode="&#x2039;" horiz-adv-x="584" 
d="M321 174l-266 394l272 397h202l-261 -397l254 -394h-201z" />
    <glyph glyph-name="guilsinglright" unicode="&#x203a;" horiz-adv-x="584" 
d="M56 174l260 395l-253 396h200l268 -396l-274 -395h-201z" />
    <glyph glyph-name="fraction" unicode="&#x2044;" horiz-adv-x="1179" 
d="M41 0l900 1471h196l-898 -1471h-198z" />
    <glyph glyph-name="uni2074" unicode="&#x2074;" horiz-adv-x="867" 
d="M436 627v173h-352v119l351 527h160v-493h102l14 -153h-117l-1 -173h-157zM284 953h150v244z" />
    <glyph glyph-name="Euro" unicode="&#x20ac;" horiz-adv-x="1210" 
d="M773 -20c-84.667 0 -160.495 14.332 -227.495 42.999s-122.167 68.5 -165.5 119.5s-78.333 107.333 -105 169s-46 129.5 -58 203.5h-136l23 152h93c0 1.33301 0.166992 11.833 0.5 31.5s0.5 30.167 0.5 31.5c0 3.33301 0.333008 16.833 1 40.5s1 37.167 1 40.5h-122
l27 146h118c14.667 73.333 37.167 140.5 67.5 201.5s68.666 115.5 114.999 163.5s103.166 85.5 170.499 112.5s142 40.5 224 40.5c135.333 0 245.666 -42.667 330.999 -128l-47 -195c-34.667 48.667 -76.167 85.667 -124.5 111s-98.833 38 -151.5 38
c-91.333 0 -170.5 -31.5 -237.5 -94.5s-106.833 -145.833 -119.5 -248.5h568l-26 -147h-567c0 -3.33301 -0.333008 -17.166 -1 -41.499s-1 -47.5 -1 -69.5l-1 -33h561l-21 -152h-517c19.333 -107.333 60.666 -191.333 123.999 -252s140.666 -91 231.999 -91
c107.333 0 211.333 40.667 312 122l-1 -208c-100.667 -70.667 -214 -106 -340 -106z" />
    <glyph glyph-name="trademark" unicode="&#x2122;" horiz-adv-x="1822" 
d="M801 667v803h216l218 -547l228 547h200v-803h-161v549l-222 -531h-105l-210 525v-543h-164zM322 667v657h-251l-1 146h665v-146h-246v-657h-167z" />
    <glyph glyph-name="partialdiff" unicode="&#x2202;" horiz-adv-x="1174" 
d="M499 -25c-89.333 0 -165.668 20.8281 -229.001 62.4951s-109.833 97 -139.5 166s-44.5 148.5 -44.5 238.5c0 64 7.5 126 22.5 186s37 115.333 66 166s63.667 94.834 104 132.501s87.166 67.167 140.499 88.5s110.333 32 171 32c62 0 118.667 -14.333 170 -43
s88.333 -57.667 111 -87c0 1.33301 -0.166992 7.33301 -0.5 18s-0.5 17.334 -0.5 20.001c-1.33301 63.333 -7.83301 120.833 -19.5 172.5s-29.167 97.334 -52.5 137.001s-54.166 70.334 -92.499 92.001s-82.833 32.5 -133.5 32.5c-36 0 -72.667 -6.5 -110 -19.5
s-67.666 -26.667 -90.999 -41s-51 -32.833 -83 -55.5l-15 193c53.333 32.667 105.166 58.167 155.499 76.5s106.166 27.5 167.499 27.5c70.667 0 133.667 -11.833 189 -35.5s101.333 -56 138 -97s66.834 -91.333 90.501 -151s40.667 -123.667 51 -192
s15.5 -143.166 15.5 -224.499c0 -88 -6.83301 -173.667 -20.5 -257s-35.667 -164 -66 -242s-67.666 -146 -111.999 -204s-99.333 -104.5 -165 -139.5s-138.167 -52.5 -217.5 -52.5zM503.998 157.995c52.667 0 100.333 15.3311 143 45.998s77.667 71.834 105 123.501
s49.333 106.5 66 164.5s28.667 118.667 36 182c-18.667 56.667 -48.167 103 -88.5 139s-90.833 54 -151.5 54c-64 0 -120.833 -20.333 -170.5 -61s-87.167 -93.167 -112.5 -157.5s-38 -133.833 -38 -208.5c0 -85.333 18 -153.666 54 -204.999s88.333 -77 157 -77z" />
    <glyph glyph-name="uni2206" unicode="&#x2206;" horiz-adv-x="1277" 
d="M97 168v120l472 1207h150l468 -1206l-1 -121h-1089zM281 329l721 -1l-358 968z" />
    <glyph glyph-name="product" unicode="&#x220f;" horiz-adv-x="1529" 
d="M220 -247v1697h1107v-1697h-220v1504h-669v-1504h-218z" />
    <glyph glyph-name="summation" unicode="&#x2211;" horiz-adv-x="1269" 
d="M60 -336v120l611 783l-590 766v125h1100v-190h-799l539 -693l-567 -715h870v-196h-1164z" />
    <glyph glyph-name="radical" unicode="&#x221a;" horiz-adv-x="1288" 
d="M592 -156l-321 838l-169 -28l-26 157l320 60l231 -635l32 -102c12 50 139 550 381 1500h174l-461 -1790h-161z" />
    <glyph glyph-name="infinity" unicode="&#x221e;" horiz-adv-x="1695" 
d="M470 241c-109.333 0 -198.166 38.501 -266.499 115.501s-102.5 171.833 -102.5 284.5c0 103.333 35.667 188.166 107 254.499s164.333 99.5 279 99.5c39.333 0 76.833 -6.66699 112.5 -20s68.834 -33 99.501 -59s57 -51.333 79 -76s46 -54.667 72 -90
c26 36 50.333 66.667 73 92s49.667 50.833 81 76.5s66 45 104 58s78.667 19.5 122 19.5c110 0 198.333 -34.333 265 -103s100 -158.334 100 -269.001c0 -110 -34.833 -201.333 -104.5 -274s-156.834 -109 -261.501 -109c-78 0 -146.333 21.5 -205 64.5
s-116.667 103.833 -174 182.5c-26.667 -36 -51.5 -66.833 -74.5 -92.5s-50.333 -51.167 -82 -76.5s-66.334 -44.666 -104.001 -57.999s-77.5 -20 -119.5 -20zM1232 407.001c36.667 0 67.998 7.5 93.998 22.5s45.333 35.167 58 60.5s21.667 50.833 27 76.5s8 52.5 8 80.5
c-2 56 -20.167 101.333 -54.5 136s-79.5 52 -135.5 52c-30.667 0 -60.167 -6 -88.5 -18s-54.666 -29.333 -78.999 -52s-45.333 -44.834 -63 -66.501s-36.5 -47.5 -56.5 -77.5c26 -35.333 47.333 -63.166 64 -83.499s37.5 -42 62.5 -65s50.833 -39.667 77.5 -50
s55.334 -15.5 86.001 -15.5zM468.998 407.001c30.667 0 59.999 5.83398 87.999 17.501s54.167 28.667 78.5 51s45.333 44.166 63 65.499s36.834 47 57.501 77c-43.333 67.333 -87.833 120.333 -133.5 159s-99.5 58 -161.5 58c-60.667 0 -108.167 -20 -142.5 -60
s-51.5 -91.333 -51.5 -154c0 -60.667 18.667 -111.5 56 -152.5s86 -61.5 146 -61.5z" />
    <glyph glyph-name="integral" unicode="&#x222b;" horiz-adv-x="760" 
d="M251 -407c-40.667 0 -91.001 8.99805 -151.001 26.998l-3 183c5.33301 -2.66699 24.333 -7.83398 57 -15.501s56.334 -11.5 71.001 -11.5c54 0 89.5 14.5 106.5 43.5s25.5 79.5 25.5 151.5v1301c0 45.333 3.66699 87.333 11 126s19.333 75 36 109s38 62.833 64 86.5
s58.5 42.334 97.5 56.001s83.167 20.5 132.5 20.5c44.667 0 94.667 -8.33301 150 -25l3 -184c-9.33301 3.33301 -29.5 8.66602 -60.5 15.999s-53.833 11 -68.5 11c-54 0 -89.833 -14.5 -107.5 -43.5s-26.5 -79.167 -26.5 -150.5v-1303
c0 -57.333 -5.83301 -109.166 -17.5 -155.499s-30.167 -88.166 -55.5 -125.499s-60.333 -66.166 -105 -86.499s-97.667 -30.5 -159 -30.5z" />
    <glyph glyph-name="approxequal" unicode="&#x2248;" horiz-adv-x="1312" 
d="M223 102l-89.001 127c58 142.667 155.333 214 292 214c73.333 0 162.333 -23.667 267 -71c94.667 -44.667 165.667 -67 213 -67c40.667 0 78.334 11 113.001 33s72.667 58.333 114 109l82 -119c-26 -58.667 -68.5 -109 -127.5 -151s-124.833 -63 -197.5 -63
c-45.333 0 -88 6.5 -128 19.5s-89.333 34.167 -148 63.5c-39.333 20 -73.333 34.667 -102 44s-60 14 -94 14c-82.667 0 -147.667 -51 -195 -153zM222.999 516l-89.001 125.999c56.667 142.667 154 214 292 214c75.333 0 164.666 -24 267.999 -72
c88.667 -43.333 159.334 -65 212.001 -65c40.667 0 78.334 10.833 113.001 32.5s72.667 57.834 114 108.501l81 -118c-25.333 -58.667 -67.666 -109 -126.999 -151s-125.333 -63 -198 -63c-45.333 0 -88 6.5 -128 19.5s-89.333 34.167 -148 63.5
c-38 19.333 -71.667 33.833 -101 43.5s-61 14.5 -95 14.5c-82.667 0 -147.334 -51 -194.001 -153z" />
    <glyph glyph-name="notequal" unicode="&#x2260;" horiz-adv-x="1313" 
d="M462 44l-163 24l122 245h-267l-10 167h359l121 243h-470l-12 169h560l137 260c108.667 -14.667 163.667 -22 165 -22l-119 -239h281l14 -169h-375l-123 -243h485l13 -167h-579z" />
    <glyph glyph-name="lessequal" unicode="&#x2264;" horiz-adv-x="1224" 
d="M1082 225l-937 460v116l937 472v-190l-697 -339l697 -329v-190zM138 2v155l951 1v-156h-951z" />
    <glyph glyph-name="greaterequal" unicode="&#x2265;" horiz-adv-x="1224" 
d="M151 225v190l699 328l-698 341v190l938 -473v-115zM145 2v156l949 -1v-155h-949z" />
    <glyph glyph-name="lozenge" unicode="&#x25ca;" horiz-adv-x="1228" 
d="M547 -47l-449 775l456 777h130l451 -776l-460 -776h-128zM611 150l169 301l157 278l-156 285l-160 293l-170.5 -304l-155.5 -273z" />
    <glyph glyph-name="glyph1" horiz-adv-x="0" 
 />
    <glyph glyph-name="glyph2" horiz-adv-x="682" 
 />
    </font>
</defs>
</svg>
